<?xml version="1.0" encoding="UTF-8" standalone="no"?>
<svg
   xmlns:dc="http://purl.org/dc/elements/1.1/"
   xmlns:cc="http://creativecommons.org/ns#"
   xmlns:rdf="http://www.w3.org/1999/02/22-rdf-syntax-ns#"
   xmlns:svg="http://www.w3.org/2000/svg"
   xmlns="http://www.w3.org/2000/svg"
   xmlns:sodipodi="http://sodipodi.sourceforge.net/DTD/sodipodi-0.dtd"
   xmlns:inkscape="http://www.inkscape.org/namespaces/inkscape"
   inkscape:version="0.92.4 (5da689c313, 2019-01-14)"
   inkscape:export-ydpi="1616.6899"
   inkscape:export-xdpi="1616.6899"
   inkscape:export-filename="C:\Users\Allie\Downloads\Cloverleaf.png"
   height="1033.1848"
   width="1034"
   sodipodi:docname="Cloverleaf.svg"
   id="svg26"
   version="1.1"
   viewBox="0 0 1034 1033.1848">
  <metadata
     id="metadata32">
    <rdf:RDF>
      <cc:Work
         rdf:about="">
        <dc:format>image/svg+xml</dc:format>
        <dc:type
           rdf:resource="http://purl.org/dc/dcmitype/StillImage" />
        <dc:title></dc:title>
      </cc:Work>
    </rdf:RDF>
  </metadata>
  <defs
     id="defs30" />
  <sodipodi:namedview
     lock-margins="true"
     inkscape:document-rotation="0"
     fit-margin-bottom="5"
     fit-margin-right="5"
     fit-margin-left="5"
     fit-margin-top="5"
     inkscape:current-layer="svg26"
     inkscape:window-maximized="1"
     inkscape:window-y="39"
     inkscape:window-x="1912"
     inkscape:cy="490.64795"
     inkscape:cx="603.47774"
     inkscape:zoom="0.4854452"
     showgrid="false"
     id="namedview28"
     inkscape:window-height="1017"
     inkscape:window-width="1920"
     inkscape:pageshadow="2"
     inkscape:pageopacity="0"
     guidetolerance="10"
     gridtolerance="10"
     objecttolerance="10"
     borderopacity="1"
     bordercolor="#666666"
     pagecolor="#ffffff" />
  <g
     transform="matrix(67.362267,0,0,67.362267,4.9999992,4.8011454)"
     id="g853">
    <path
       d="m 9.6846249,0.00559181 c -0.98866,0.0479 -1.946862,0.74557 -2.092378,1.47535999 l -0.0011,5.6719996 c 0.0199,0.0295 0.05063,0.0735 0.06821,0.0997 0.09693,-0.0652 0.213733,-0.14556 0.367935,-0.2527 0.348509,-0.24215 0.822177,-0.58405 1.318265,-0.98805 0.496091,-0.40401 1.0133761,-0.87402 1.4526261,-1.36013 0.219626,-0.24306 0.419643,-0.49019 0.58756,-0.73535 0.103117,-0.1505496 0.166871,-0.2962896 0.24288,-0.4438996 0.249761,-0.61271 0.350822,-1.25171 0.131257,-1.89653 -0.344313,-0.99617999 -0.97912,-1.44617999 -1.652095,-1.54925999 -0.1402028,-0.0215 -0.2819931,-0.028 -0.4232301,-0.0212 z m -4.340818,0.0346 c -0.780339,0.0253 -1.552377,0.47721 -1.934249,1.62573999 -0.142168,0.42423 -0.165986,0.84389 -0.10542,1.25315 l 0.06305,0.0243 c 1.120495,0.43491 2.195807,1.5689596 3.025655,2.5879596 0.414924,0.5095 0.764674,0.99201 1.011825,1.34772 0.07671,0.11041 0.133377,0.19516 0.186526,0.27388 l 0.0011,-5.6719996 C 7.3723909,0.67704181 6.3471479,0.00763181 5.3438539,0.04020181 Z"
       id="path2"
       inkscape:connector-curvature="0"
       style="fill:#d3725f" />
    <path
       d="m 7.5338999,7.9441134 c -0.09724,0.0652 -0.214965,0.145172 -0.36897,0.252181 -0.34851,0.24214 -0.822693,0.58457 -1.318782,0.98857 -0.907799,0.739283 -1.886378,1.6973786 -2.325957,2.5750356 -0.236565,0.600448 -0.302557,1.228758 -0.08785,1.859319 0.915181,2.647829 3.881279,1.437399 4.164087,0.108003 0.40661,1.421462 3.2998861,2.419917 4.1697721,-0.19637 0.143058,-0.426881 0.166426,-0.849231 0.104386,-1.260905 l -0.04393,-0.01705 C 10.70616,11.817977 9.6292989,10.683941 8.7994509,9.6649414 c -0.414924,-0.509511 -0.762606,-0.992001 -1.009758,-1.347721 -0.08026,-0.115513 -0.134341,-0.195488 -0.188619,-0.275436 -0.0027,-0.004 -0.0063,-0.009 -0.0093,-0.01344 -0.01904,-0.02773 -0.04294,-0.06207 -0.05788,-0.08423 z"
       id="path4"
       inkscape:connector-curvature="0"
       style="fill:#8dd35f" />
    <path
       d="m 2.3745193,3.2989186 c -0.265481,-0.0017 -0.533284,0.0389 -0.801501,0.130225 -2.6564798,0.91817 -1.42956481,3.901614 -0.09508,4.167704 l 2.835486,5.29e-4 h -2.841687 c -1.42915981,0.3909279 -2.44330881,3.3020764 0.181901,4.1749264 0.428439,0.143581 0.852461,0.166263 1.265556,0.103353 l 0.02067,-0.05168 c 0.434913,-1.12049 1.566887,-2.1973652 2.585889,-3.0272051 0.509499,-0.414931 0.9920055,-0.7646747 1.3477205,-1.0118244 0.115022,-0.079921 0.194153,-0.1324754 0.275435,-0.1870694 1.76e-4,-1.17e-4 3.44e-4,-3.96e-4 5.29e-4,-5.29e-4 0.02889,-0.01942 0.07153,-0.04903 0.09715,-0.06615 -0.06484,-0.09723 -0.143131,-0.215506 -0.250114,-0.369486 -0.242146,-0.34851 -0.584568,-0.822176 -0.9885695,-1.318266 -0.742598,-0.911864 -1.707857,-1.895483 -2.588989,-2.332157 -6.62e-4,-2.6e-4 -0.0014,-2.46e-4 -0.0021,-5.3e-4 -0.340152,-0.13224 -0.68903,-0.209607 -1.042313,-0.211873 z"
       id="path6"
       inkscape:connector-curvature="0"
       style="fill:#5f98d3;paint-order:stroke markers fill" />
    <path
       d="m 12.713871,3.2849522 v 5.29e-4 c -0.144399,-0.002 -0.287372,0.01092 -0.429432,0.03152 l -0.02066,0.05323 c -0.434912,1.12049 -1.566886,2.197355 -2.5858867,3.027205 -0.509503,0.41492 -0.994074,0.764675 -1.34979,1.011825 -0.11607,0.0806 -0.19513,0.133709 -0.276468,0.188619 h 0.0011 c -0.02927,0.01981 -0.07159,0.04902 -0.09715,0.06615 0.06517,0.0972 0.144819,0.215199 0.251663,0.368969 0.242105,0.34852 0.58401,0.822176 0.988013,1.318266 0.7433229,0.9127598 1.7084037,1.8966538 2.5900217,2.3326738 0.595442,0.23128 1.218533,0.293922 1.843299,0.08113 v -5.31e-4 c 2.656484,-0.91817 1.429029,-3.9016138 0.09457,-4.1677038 h -0.0072 c 1.427511,-0.39433 2.438289,-3.301693 -0.185,-4.173906 -0.274621,-0.092 -0.547637,-0.135136 -0.817004,-0.137976 z"
       id="path8"
       inkscape:connector-curvature="0"
       style="fill:#f2e540" />
    <path
       d="m 7.591773,8.0283491 v 5.6844079 c 0.390938,1.42916 3.301573,2.443299 4.174422,-0.181901 0.143059,-0.426881 0.166426,-0.849231 0.104387,-1.260905 l -0.04392,-0.01705 C 10.706161,11.817978 9.6292994,10.683943 8.7994512,9.6649426 8.3845271,9.1554318 8.0368458,8.6729413 7.7896938,8.3172212 7.7055073,8.1960542 7.6486499,8.1121135 7.591773,8.0283491 Z"
       id="path10"
       inkscape:connector-curvature="0"
       style="fill:#8dd35f" />
    <path
       d="m 12.706706,3.2849693 c -0.144398,-0.00153 -0.28737,0.011364 -0.429431,0.032039 l -0.02067,0.053227 C 11.82169,4.4907254 10.689716,5.5675909 9.6707146,6.397441 9.1612136,6.8123619 8.6766411,7.1621157 8.320926,7.4092656 8.2048562,7.489908 8.1257948,7.5429813 8.0444571,7.5978844 H 13.705611 C 15.134773,7.2069446 16.148915,4.2957954 13.52371,3.4229453 13.249088,3.3309129 12.976072,3.2878128 12.706706,3.2849693 Z"
       id="path12"
       inkscape:connector-curvature="0"
       style="fill:#f2e540" />
    <path
       d="M 5.3521163,0.03710557 C 4.5717769,0.06243951 3.7997391,0.51431682 3.4178673,1.6628461 3.2756985,2.0870716 3.2518823,2.5067493 3.3124475,2.9159997 l 0.063045,0.024289 c 1.1204951,0.43491 2.1958073,1.5689557 3.0256552,2.5879558 0.4149241,0.5095 0.7646726,0.9920113 1.0118247,1.3477214 0.076708,0.1104043 0.1261668,0.1843056 0.1793171,0.2630329 V 1.4809451 C 7.3723855,0.67704265 6.3554097,0.00453338 5.3521163,0.03710557 Z"
       id="path14"
       inkscape:connector-curvature="0"
       style="fill:#d3725f" />
    <path
       d="m 1.4779341,7.596851 c -1.42916001,0.3909401 -2.44330895,3.302089 0.181901,4.174939 0.4284386,0.143581 0.8524614,0.166263 1.2655559,0.103353 l 0.020672,-0.05168 C 3.380976,10.702976 4.5129497,9.6261009 5.5319517,8.7962609 6.0414514,8.38133 6.523958,8.0315865 6.8796731,7.7844366 6.9949436,7.7043432 7.0741583,7.65157 7.1556251,7.596851 Z"
       id="path16"
       inkscape:connector-curvature="0"
       style="fill:#5f98d3;paint-order:stroke markers fill" />
    <path
       d="M 2.3807214,3.2984042 C 2.1152402,3.2967142 1.8474368,3.3373002 1.5792199,3.4286289 -1.0772601,4.346799 0.14965527,7.3302433 1.4841349,7.5963332 l 5.6709718,0.00103 c 0.028892,-0.019407 0.071894,-0.049447 0.097669,-0.066663 C 7.1879376,7.4334727 7.1096442,7.315196 7.0026615,7.1612161 6.7605156,6.8127062 6.4180934,6.3390403 6.0140914,5.8429503 5.2714935,4.931086 4.3062342,3.9474676 3.4251021,3.5107929 3.4244406,3.5105336 3.4236998,3.5105346 3.4230384,3.5102637 3.0828863,3.3780234 2.7340086,3.300656 2.3807248,3.2983901 Z"
       id="path18"
       inkscape:connector-curvature="0"
       style="fill:#87b2de;paint-order:stroke markers fill" />
    <path
       d="m 8.0475591,7.5958165 c -0.0293,0.019783 -0.073098,0.050183 -0.099219,0.067696 0.065169,0.097189 0.1448205,0.2151999 0.2516643,0.36897 0.2421461,0.3485197 0.5840513,0.8221758 0.9880534,1.3182656 0.7433225,0.9127559 1.7084062,1.8966449 2.5900232,2.3326739 0.595441,0.231272 1.218532,0.294383 1.843298,0.08165 v -5.29e-4 c 2.656486,-0.91817 1.429034,-3.9016143 0.09457,-4.1677045 z"
       id="path20"
       inkscape:connector-curvature="0"
       style="fill:#f7f090" />
    <path
       d="M 7.5338954,7.9441156 C 7.4366573,8.0093137 7.3189304,8.0892877 7.1649257,8.1962966 6.8164157,8.4384367 6.3422321,8.7808668 5.8461431,9.1848667 4.9383442,9.9241502 3.9597652,10.882245 3.5201867,11.759903 c -0.2365653,0.600448 -0.3025574,1.228758 -0.08785,1.859319 0.9181708,2.656479 3.9016192,1.429564 4.1677043,0.09508 L 7.601071,8.0417801 C 7.581478,8.0129607 7.5512245,7.9698249 7.5338938,7.9441156 Z"
       id="path22"
       inkscape:connector-curvature="0"
       style="fill:#aade87" />
    <path
       d="m 10.107834,0.02676465 c -1.1216245,-0.1718 -2.3493035,0.62012 -2.5156085,1.45416995 l -10e-4,5.67201 c 0.01989,0.0295 0.05063,0.0735 0.06821,0.0997 0.09693,-0.0652 0.213735,-0.14556 0.367936,-0.2527 0.34851,-0.24215 0.822177,-0.58405 1.318266,-0.98805 0.496091,-0.404 1.0133735,-0.87401 1.4526245,-1.36012 0.219625,-0.24306 0.419644,-0.4902 0.587561,-0.73536 0.103117,-0.15055 0.166871,-0.29629 0.242879,-0.4439 0.249762,-0.61271 0.350821,-1.25171 0.131258,-1.89652 C 11.415647,0.57981465 10.780839,0.12980465 10.107865,0.02673465 Z"
       id="path24"
       inkscape:connector-curvature="0"
       style="fill:#de9587" />
  </g>
  <circle
     inkscape:export-ydpi="1616.6899"
     inkscape:export-xdpi="1616.6899"
     inkscape:export-filename="C:\Users\Allie\Downloads\path839.png"
     r="7.6006951"
     cy="1025.2258"
     cx="4.9691582"
     id="path839"
     style="display:none;opacity:0.14285703;fill:#000000;fill-opacity:1;stroke:none;stroke-width:56.73089981;stroke-linecap:round;stroke-linejoin:round;stroke-miterlimit:4;stroke-dasharray:none;stroke-opacity:1;paint-order:stroke markers fill" />
</svg>
