<svg xmlns="http://www.w3.org/2000/svg" viewBox="0 0 15.201 15.192"><path fill="#d3725f" d="M9.6846249.00558966c-.98866.0479-1.946862.74557-2.092378 1.47536004l-.0011 5.6719996c.0199.0295.05063.0735.06821.0997.09693-.0652.213733-.14556.367935-.2527.348509-.24215.822177-.58405 1.318265-.98805.496091-.40401 1.0133761-.87402 1.4526261-1.36013.219626-.24306.419643-.49019.58756-.73535.103117-.1505496.166871-.2962896.24288-.4438996.249761-.61271.350822-1.25171.131257-1.89653-.344313-.99618004-.97912-1.44618004-1.652095-1.54926004-.1402028-.0215-.2819931-.028-.4232301-.0212zm-4.340818.0346c-.780339.0253-1.552377.47721-1.934249 1.62574004-.142168.42423-.165986.84389-.10542 1.25315l.06305.0243c1.120495.43491 2.195807 1.5689596 3.025655 2.5879596.414924.5095.764674.99201 1.011825 1.34772.07671.11041.133377.19516.186526.27388l.0011-5.6719996C7.3723909.67703966 6.3471479.00762966 5.3438539.04019966z"/><path fill="#8dd35f" d="M7.5338999 7.9441113c-.09724.0652-.214965.145172-.36897.252181-.34851.24214-.822693.58457-1.318782.98857-.907799.739283-1.886378 1.6973784-2.325957 2.5750354-.236565.600448-.302557 1.228758-.08785 1.859319.915181 2.647829 3.881279 1.437399 4.164087.108003.40661 1.421462 3.2998861 2.419917 4.1697721-.19637.143058-.426881.166426-.849231.104386-1.260905l-.04393-.01705c-1.120496-.43492-2.1973571-1.568956-3.0272051-2.5879554-.414924-.509511-.762606-.992001-1.009758-1.347721-.08026-.115513-.134341-.195488-.188619-.275436-.0027-.004-.0063-.009-.0093-.01344-.01904-.02773-.04294-.06207-.05788-.08423z"/><path fill="#5f98d3" d="M2.3745193 3.2989165c-.265481-.0017-.533284.0389-.801501.130225-2.6564798.91817-1.42956481 3.901614-.09508 4.167704l2.835486.000529h-2.841687c-1.42915981.3909279-2.44330881 3.3020762.181901 4.1749262.428439.143581.852461.166263 1.265556.103353l.02067-.05168c.434913-1.12049 1.566887-2.197365 2.585889-3.0272049.509499-.414931.9920055-.7646747 1.3477205-1.0118244.115022-.079921.194153-.1324754.275435-.1870694.000176-.000117.000344-.000396.000529-.000529.02889-.01942.07153-.04903.09715-.06615-.06484-.09723-.143131-.215506-.250114-.369486-.242146-.34851-.584568-.822176-.9885695-1.318266-.742598-.911864-1.707857-1.895483-2.588989-2.332157-.000662-.00026-.0014-.000246-.0021-.00053-.340152-.13224-.68903-.209607-1.042313-.211873z" paint-order="stroke markers fill"/><path fill="#f2e540" d="M12.713871 3.2849501v.000529c-.144399-.002-.287372.01092-.429432.03152l-.02066.05323c-.434912 1.12049-1.566886 2.197355-2.5858867 3.027205-.509503.41492-.994074.764675-1.34979 1.011825-.11607.0806-.19513.133709-.276468.188619h.0011c-.02927.01981-.07159.04902-.09715.06615.06517.0972.144819.215199.251663.368969.242105.34852.58401.822176.988013 1.318266.7433229.9127596 1.7084037 1.8966536 2.5900217 2.3326736.595442.23128 1.218533.293922 1.843299.08113v-.000531c2.656484-.91817 1.429029-3.9016136.09457-4.1677036h-.0072c1.427511-.39433 2.438289-3.301693-.185-4.173906-.274621-.092-.547637-.135136-.817004-.137976z"/><path fill="#8dd35f" d="M7.591773 8.028347v5.684408c.390938 1.42916 3.301573 2.443299 4.174422-.181901.143059-.426881.166426-.849231.104387-1.260905l-.04392-.01705c-1.120501-.434923-2.1973626-1.568958-3.0272108-2.5879585-.4149241-.5095108-.7626054-.9920013-1.0097574-1.3477214-.0841865-.121167-.1410439-.2051077-.1979208-.2888721z"/><path fill="#f2e540" d="M12.706706 3.2849672c-.144398-.00153-.28737.011364-.429431.032039l-.02067.053227c-.434915 1.1204901-1.566889 2.1973556-2.5858904 3.0272057-.509501.4149209-.9940735.7646747-1.3497886 1.0118246-.1160698.0806424-.1951312.1337157-.2764689.1886188h5.6611539c1.429162-.3909398 2.443304-3.302089-.181901-4.1749391-.274622-.0920324-.547638-.1351325-.817005-.137976z"/><path fill="#d3725f" d="M5.3521163.03710342C4.5717769.06243736 3.7997391.51431467 3.4178673 1.662844c-.1421688.4242255-.165985.8439032-.1054198 1.2531536l.063045.024289c1.1204951.43491 2.1958073 1.5689557 3.0256552 2.5879558.4149241.5095.7646726.9920113 1.0118247 1.3477214.076708.1104043.1261668.1843056.1793171.2630329V1.480943C7.3723855.6770405 6.3554097.00453123 5.3521163.03710342z"/><path fill="#5f98d3" d="M1.4779341 7.5968489c-1.42916001.3909401-2.44330895 3.3020891.181901 4.1749391.4284386.143581.8524614.166263 1.2655559.103353l.020672-.05168c.434913-1.120487 1.5668867-2.1973622 2.5858887-3.0272022.5094997-.4149309.9920063-.7646744 1.3477214-1.0118243.1152705-.0800934.1944852-.1328666.275952-.1875856z" paint-order="stroke markers fill"/><path fill="#87b2de" d="M2.3807214 3.2984021c-.2654812-.00169-.5332846.038896-.8015015.1302247-2.65648.9181701-1.42956463 3.9016144-.095085 4.1677043l5.6709718.00103c.028892-.019407.071894-.049447.097669-.066663-.0648381-.0972275-.1431315-.2155042-.2501142-.3694841-.2421459-.3485099-.5845681-.8221758-.9885701-1.3182658-.7425979-.9118643-1.7078572-1.8954827-2.5889893-2.3321574-.0006615-.0002593-.0014023-.0002583-.0020637-.0005292-.3401521-.1322403-.6890298-.2096077-1.0423136-.2118736z" paint-order="stroke markers fill"/><path fill="#f7f090" d="M8.0475591 7.5958144c-.0293.019783-.073098.050183-.099219.067696.065169.097189.1448205.2151999.2516643.36897.2421461.3485197.5840513.8221758.9880534 1.3182656.7433225.912756 1.7084062 1.896645 2.5900232 2.332674.595441.231272 1.218532.294383 1.843298.08165v-.000529c2.656486-.91817 1.429034-3.9016144.09457-4.1677046z"/><path fill="#aade87" d="M7.5338954 7.9441135c-.0972381.0651981-.214965.1451721-.3689697.252181-.34851.2421401-.8226936.5845702-1.3187826.9885701-.9077989.7392835-1.8863779 1.6973784-2.3259564 2.5750364-.2365653.600448-.3025574 1.228758-.08785 1.859319.9181708 2.656479 3.9016192 1.429564 4.1677043.09508l.00103-5.672522c-.019593-.0288194-.0498465-.0719552-.0671772-.0976645z"/><path fill="#de9587" d="M10.107834.0267625c-1.1216245-.1718-2.3493035.62012-2.5156085 1.45417l-.001 5.67201c.01989.0295.05063.0735.06821.0997.09693-.0652.213735-.14556.367936-.2527.34851-.24215.822177-.58405 1.318266-.98805.496091-.404 1.0133735-.87401 1.4526245-1.36012.219625-.24306.419644-.4902.587561-.73536.103117-.15055.166871-.29629.242879-.4439.249762-.61271.350821-1.25171.131258-1.89652-.344313-.99618-.979121-1.44619-1.652095-1.54926z"/></svg>