<?xml version="1.0" encoding="UTF-8" standalone="no"?>
<svg
   xmlns:dc="http://purl.org/dc/elements/1.1/"
   xmlns:cc="http://creativecommons.org/ns#"
   xmlns:rdf="http://www.w3.org/1999/02/22-rdf-syntax-ns#"
   xmlns:svg="http://www.w3.org/2000/svg"
   xmlns="http://www.w3.org/2000/svg"
   id="svg8"
   preserveAspectRatio="xMidYMid meet"
   viewBox="0 0 591.49237 700.09998"
   height="700.09998pt"
   width="591.49237pt"
   version="1.0">
  <defs
     id="defs12" />
  <metadata
     id="metadata2">
Created by potrace 1.11, written by Peter Selinger 2001-2013
<rdf:RDF>
  <cc:Work
     rdf:about="">
    <dc:format>image/svg+xml</dc:format>
    <dc:type
       rdf:resource="http://purl.org/dc/dcmitype/StillImage" />
    <dc:title></dc:title>
  </cc:Work>
</rdf:RDF>
</metadata>
  <g
     style="fill:#000000;stroke:none"
     id="g6"
     transform="matrix(0.1,0,0,-0.1,-53.925,700.1)">
    <path
       style="fill:#3f51b5;fill-opacity:1"
       id="path4"
       d="m 540,6923 c -1,-82 -1,-631 0,-719 v -51 l 163,-31 c 215,-41 197,-38 317,-62 58,-11 123,-23 144,-26 22,-4 58,-11 80,-18 l 40,-12 V 3501 c 1,-1376 -1,-2506 -4,-2510 -4,-7 -165,-41 -255,-56 -19,-3 -44,-7 -105,-20 C 906,912 861,903 820,895 779,887 734,878 720,875 670,865 576,848 558,847 541,846 540,832 540,625 539,369 539,18 540,8 540,3 1191,0 1988,0 h 1447 l -1,418 c -2,461 -1,433 -11,430 -8,-2 -18,-1 -213,37 -381,73 -506,98 -512,104 -6,5 -12,1153 -8,1511 v 35 l 623,2 c 577,2 866,7 927,17 14,3 57,7 95,11 39,3 77,8 85,10 8,2 37,6 63,10 68,8 228,42 317,66 543,148 947,410 1264,819 132,171 287,507 331,720 2,8 8,36 14,63 6,26 13,64 16,85 3,20 11,66 17,102 13,75 17,478 5,590 -80,757 -503,1355 -1197,1691 -240,116 -593,217 -855,244 -27,3 -56,6 -180,21 -22,3 -858,7 -1857,10 l -1818,5 z M 4075,5907 c 11,-2 43,-8 70,-11 86,-12 254,-65 333,-105 96,-48 137,-76 219,-148 60,-54 178,-197 191,-233 3,-8 15,-31 27,-50 38,-64 96,-223 110,-305 2,-16 7,-41 10,-55 19,-86 24,-268 12,-400 -26,-270 -127,-491 -307,-670 -88,-87 -95,-94 -176,-143 -110,-67 -266,-120 -444,-152 -19,-4 -349,-9 -732,-12 l -698,-5 v 104 c -1,120 -1,1699 0,1994 v 201 l 683,-3 c 375,-1 691,-4 702,-7 z" />
  </g>
</svg>