<svg version="1" xmlns="http://www.w3.org/2000/svg" viewBox="0 0 2133.000000 2133.000000"><path
  fill="#3f51b5"
  d="M164 128.9v128.9l2.3.5c1.2.3 51.3 10.1 111.2 21.6 60 11.6 110 21.3 111.3 21.6l2.2.5V1832.7l-24.7 4.8c-13.7 2.6-64.6 12.5-113.3 21.9l-88.5 17.2-.3 128.2-.2 128.2h883l-.2-128.2-.3-128.3-91.5-17.6c-50.3-9.7-101.5-19.5-113.7-21.9l-22.3-4.3V1360h177.3c219.1-.1 254.1-.8 314.7-7.1 182.1-18.7 331.2-78.7 446.2-179.6 99.5-87.3 164.9-197 193.7-324.8 23-102.2 23.7-221.6 2-324.5-16.3-76.9-44.8-146-86.6-210-48.1-73.5-116.7-140.3-195.3-190.2-86.5-54.9-190.2-92-308-110.2-31.5-4.9-66.2-8.5-113-11.8C1237.9 1 1090.1.6 698.8.3L164 0v128.9zm1070.5 203.4c28 3.2 45.3 6.3 66 11.7 59.2 15.3 105.7 41.5 143.5 80.6 66.4 68.9 99.6 162.1 96.6 271.4-1.9 71.2-18.2 130.6-50.2 182.8-49.7 81.2-122.5 127.9-225.4 144.7-37.8 6.1-28 5.8-246.2 6.2l-199.8.4V329.9l200.8.4c178.6.3 202.2.5 214.7 2z"/></svg>
