<svg version="1" xmlns="http://www.w3.org/2000/svg" width="1166.667" height="1166.667" viewBox="0 0 875.000000 875.000000"><path d="M68 52.9v52.9l3.2.8c1.8.4 4.2.8 5.3 1 3 .5 7.7 1.4 10.5 2 1.4.3 3.6.8 5 1 1.4.3 4.8.9 7.5 1.4 2.8.5 6.2 1.2 7.8 1.5 2.6.5 4.5.9 9.7 2 1.4.3 3.6.8 5 1 1.4.2 3.4.6 4.5.8 1.1.3 4 .8 6.5 1.2 2.5.4 5.4.9 6.5 1.2 1.1.2 3.1.6 4.5.7 1.4.2 4.3.8 6.5 1.4 3.7 1.1 7.9 1.9 9.8 2.1.4.1.7 141.2.7 313.6l-.2 313.4-3.3 1.1c-1.8.6-4.6 1.3-6.2 1.6-1.5.3-4.5 1-6.7 1.5-2.1.6-4 .8-4.3.5-.3-.3-1.3-.1-2.2.3-.9.5-3.2 1.2-5.1 1.5-5.9 1-8.6 1.5-34.6 6.6-13.9 2.8-26.1 5-27.2 5-1.4 0-2.1.9-2.5 2.7-.3 1.6-.6 25.1-.7 52.4l-.1 49.7 2.9.4c1.6.2 82.9.4 180.8.4l177.9-.1v-52.2c-.1-28.7-.3-52.4-.5-52.6-.4-.4-4-1.1-12-2.3-1.4-.2-4.7-.8-7.5-1.4-2.7-.6-5.9-1.2-7-1.4-1.1-.2-3.1-.7-4.5-1-1.4-.3-3.8-.7-5.5-1-1.6-.2-4.1-.7-5.5-1-2.5-.6-6.8-1.4-10.5-2.1-1.1-.2-5.6-1.1-10-2-9-1.8-11.7-2.3-16-3-1.6-.2-4.4-.8-6.2-1.4-1.7-.5-3.4-.7-3.6-.4-.3.3-1.2-.6-2-1.9-1.1-1.8-1.5-8.8-1.7-35.8-.4-56.4-.6-152.4-.2-154.7l.4-2.2 44.7-.1c90.4-.3 141.4-1.1 150.1-2.4 1.4-.2 5.4-.7 9-1.1 3.6-.3 9.2-1 12.5-1.5 3.3-.5 7.8-1.2 10-1.5 2.2-.4 5.4-.9 7-1.2 1.7-.3 3.7-.6 4.5-.8.8-.1 3.3-.6 5.5-1.2s6.5-1.6 9.5-2.2c3-.7 9.6-2.4 14.5-3.8 5-1.4 9.7-2.6 10.5-2.8 4.5-1 27.7-10 36.5-14.1 3.3-1.5 6.2-2.8 6.5-2.9 1.4-.3 19.2-9.9 27-14.7 31.9-19.3 66.7-53.4 83.5-81.8 3.4-5.8 16.5-30.7 16.4-31.3 0-.1.4-1.5 1-3 .6-1.6 1.1-3.3 1.1-3.8s.4-.9.9-.9 1.1-1 1.4-2.3c.3-1.2 2.3-7.4 4.6-13.9 2.2-6.4 4.2-12.7 4.4-14 .2-1.2.7-3.1 1.2-4.1.4-1 .5-2.1.2-2.4-.4-.3-.2-1.3.2-2.2.9-1.6 1.1-2.4 3-13.6.6-3.3 1.3-7.1 1.6-8.5 1.9-8.8 3-68.1 1.4-80.5-1.3-10.5-2.4-18-3.2-21.5-.2-.8-.8-3.8-1.2-6.5-1-5.7-1.2-6.4-1.5-6.8-.1-.1-.3-.9-.5-1.7-.1-.8-.8-3.5-1.5-6s-1.3-5.2-1.5-6.1c-.5-2.6-7.7-23.3-8.5-24.4-.4-.6-1.1-2.1-1.5-3.5-1.2-4.1-11.8-24.8-17-33.5-7.4-12.2-17.5-25.9-26.5-36-12.2-13.7-32.9-32-46.5-41-3.3-2.2-6.2-4.2-6.5-4.6-1-1-11.1-6.9-11.9-6.9-.5 0-1.1-.4-1.3-.8-.1-.4-4.6-3-9.8-5.7-5.2-2.6-9.8-5.2-10.1-5.7-.3-.6-1-1-1.5-1-1.1 0-2.6-.6-14.9-5.7-5.5-2.3-10.2-4.2-10.5-4.3-.3 0-1.5-.4-2.8-.9-1.3-.5-3.5-1.2-5-1.5-1.5-.4-3.2-1.1-3.8-1.5-.6-.5-2.1-1.1-3.5-1.3-1.3-.3-2.4-.5-2.4-.6 0-.1-.7-.3-1.5-.5s-6.4-1.7-12.5-3.4c-6-1.6-12.1-3.2-13.5-3.5-1.4-.2-4.5-.9-7-1.5-7.4-1.7-12.3-2.5-21-3.6-3-.4-6.6-.9-8-1.1-1.4-.2-5.2-.7-8.5-1-3.3-.3-7.1-.8-8.5-1-3.9-.7-95.4-1.3-287.7-1.9L68.1 0 68 52.9zm349.9 83.5c.6.4 1.1.4 1.1-.1 0-.4 4.3-.8 9.5-.8s9.5.4 9.5.8.8.4 1.7-.2c.9-.5 2.6-.6 3.7-.2 1.2.4 3.2.6 4.6.4 3.5-.4 10.3-.4 18.8-.1 3.9.2 7.2-.1 7.2-.5 0-.5.5-.5 1.1-.1.6.4 8.8.8 18.3.9 17.4.3 25.8 1 28.7 2.6.9.4 1.9.6 2.1.4.3-.3 2.4.1 4.6.9 2.3.9 4.2 1.3 4.2 1.1 0-.4 15.1 4.6 19.5 6.4 4.4 1.9 16.2 7.8 19 9.6 5.5 3.5 16.6 12.7 20.8 17.3 2.3 2.5 4.7 5 5.3 5.6 9.3 9.6 24 36.2 27 48.8.1.5.3 1 .4 1.3.1.3.3.8.5 1.2.1.5.4 1.5.7 2.3.6 1.8 2.6 10.4 3.2 14 .2 1.4.7 4.4 1.1 6.7.4 2.4.8 8.5 1 13.5.2 5.1.4 9.4.5 9.5.3.4.3 4.2 0 4.5-.1.2-.3 4.1-.4 8.8-.3 9.1-1.5 21-2.2 22.2-.3.4-.7 2.1-.9 3.8-.2 1.6-1.1 5.6-2 8.7-1 3.2-1.8 6.5-2 7.3-.8 3.8-7.5 18.2-11.9 25.5-8.4 14-27.8 34.8-38.1 41-15.6 9.2-37.3 17.5-49.5 18.9-.9.1-2 .5-2.6.8-2.9 1.9-33.1 2.6-136.4 3.2l-49.5.3V279.6c0-115.1.2-143.2 1.3-143.6 1.9-.8 78.8-.4 80.1.4z"/></svg>