<svg xmlns="http://www.w3.org/2000/svg" width="933.333" height="933.333" version="1" viewBox="0 0 700 700"><path d="M436.5 1c-9.7 1.6-12.1 2.1-20.9 5.1-30.8 10.3-55.8 32-64.2 55.7-1.3 3.7-2.4 5.7-2.4 4.5 0-3.1-6.9-16-12.3-23.1C320.8 22.6 290.5 5.8 263 2.4c-48.6-5.9-88.1 21.3-105.3 72.7-4.5 13.4-6.1 22.6-6.3 37.9-.3 22.4-1 20.7 10.9 26 33 14.5 67.6 42.8 110.2 90.1 19.5 21.6 50.8 62.2 71 91.9 4.3 6.3 8.2 11.9 8.6 12.3 1.9 2.3 63.9-43.4 93.9-69.3 13.6-11.7 15.3-13.3 32.6-30.5 41.3-41.2 56.4-63.9 65-98.2 2.3-9.3 2.7-12.9 2.8-26.3.1-21.3-1-27.2-8.4-45.4C524.4 30.2 500.5 8.5 470 2c-6.9-1.5-26.9-2.1-33.5-1zM573.8 151.6c-.2.2-2.1.4-4.2.6-3.7.2-4 .5-6.3 5.8-9.2 20.7-22.2 41.2-37.7 59.5-2.8 3.3-6.4 7.6-8.1 9.5-5.3 6.2-34.7 35.3-44 43.6-4.9 4.3-9.2 8.1-9.5 8.4-1.7 1.7-20.3 17-30 24.6-16.7 13.2-35.4 26.9-60.7 44.5l-7.3 5 5.2 7.7c49.5 73.5 105 134.7 148.8 164.2 17.1 11.5 28.9 16.8 46.5 20.7 9.6 2.1 33.8 2.6 43.6.8 30.5-5.5 59.9-23.2 75.1-45.3 4.4-6.4 9.5-17.8 12-26.7 3.1-11.4 3.1-36.3-.1-48-8.9-33.5-29.2-61.1-53.2-72.5-3.5-1.6-7.2-3-8.1-3-3.2 0-1.9-1.5 3-3.4 8.2-3.4 18.5-10.6 26.5-18.8 34.9-35.7 42.8-91.2 18.2-128.2-15.6-23.5-46.8-42.2-79.5-47.7-6.2-1.1-29.5-2.1-30.2-1.3zM89.5 153.6c-41.6 7.7-74.6 33.7-85.3 67.4-11 34.5 1.1 79.6 29.1 108.2 9.7 9.9 19.5 16.3 31.2 20.2 1.6.6.9 1.2-3.6 3C26.6 366.3 0 411.1 1.5 452.5c.9 25.4 9 44.2 26.4 61.5 8.7 8.6 16.5 14.2 27.9 19.9 24.6 12.4 45.6 16.2 76 13.9 2-.2 3.3-2.2 8.1-12.3 13.5-28.2 31.8-52.5 63.6-84 17.6-17.4 17.7-17.6 34.5-31.9l14-12c4.2-3.6 33.1-26 40.5-31.4 3.9-2.7 14.8-10.5 24.2-17.2l17.3-12.1-4.2-6.2c-14-20.9-45.2-62.9-55.2-74.4-1.3-1.6-7.4-8.7-13.6-15.8-32.9-38.1-68.8-69.8-96.5-85.1-20-11.1-51.8-16.1-75-11.8zM323.1 382.5c-47.5 33.8-78.8 59.9-109.6 91.5-5.6 5.8-12 12.5-14.1 15-2.2 2.5-4.1 4.7-4.4 5-1.7 1.6-13.4 16.8-18.2 23.5-5.5 7.8-7.4 10.9-12.9 21-4.5 8.1-9 23.5-10.9 37.3-1 7.3-.7 29 .5 34.7 6.5 31.1 22.6 58.4 43.2 73.1 7.7 5.6 20.7 11.6 29.8 14 9.5 2.4 29.4 2.8 40.5.8 34.1-6 66.7-28.5 78.9-54.4 1.7-3.6 3.1-7.4 3.1-8.4 0-2.7 1.3-1 3.4 4.3 8.9 23 39.8 47.3 69.9 55.1 9.2 2.3 24.6 4.1 30.7 3.5 13.4-1.3 17-1.9 23-3.7 32.6-10 56.1-37.1 67.9-78.3 3.7-13 5-31.3 3.3-47.1-.4-4.1-.5-4.2-7-7-9.2-3.9-20-9.6-28.2-14.8-5.1-3.3-25.7-18.5-28-20.7-.9-.8-4.5-3.8-8-6.8-6.7-5.7-35.2-33.8-43-42.6-27.8-31.1-46.8-55.6-81.4-104.8-2.6-3.7-4.8-6.7-5-6.7-.2 0-10.8 7.4-23.5 16.5z"/></svg>