<svg xmlns="http://www.w3.org/2000/svg" xmlns:svg="http://www.w3.org/2000/svg" id="svg28" width="980.1" height="236.8" x="0" y="0" enable-background="new 0 0 1000 1000" version="1.1" viewBox="0 0 980.1 236.8" xml:space="preserve"><metadata id="metadata2">Svg Vector Icons : http://www.onlinewebfonts.com/icon</metadata><g id="g26" transform="translate(-10,-381.6)"><path id="path4" d="m 763.8,447.5 c -6.5,-2.7 -13.4,-4 -20.4,-4.1 H 743 c -7.9,0.1 -15.6,1.6 -22.8,4.7 -7,3 -13.3,7.2 -18.7,12.6 -5.4,5.4 -9.7,11.7 -12.6,18.7 -3.1,7.2 -4.7,15 -4.7,22.9 v 0 0 c 0,0 0,0 0,0 0,0 0,0.1 0,0.1 v 0 0.1 c 0,8.1 1.7,15.9 4.8,23.2 3,7.1 7.3,13.5 12.8,19 5.5,5.5 11.8,9.8 18.9,12.9 7.3,3.1 15.1,4.8 23.2,4.9 h 0.2 c 0,0 0,0 0.1,0 h 0.1 0.1 v 0 h 0.1 c 8.9,-0.1 17.4,-2.1 25.3,-6 7.4,-3.6 14,-8.7 19.4,-15 l -14.9,-11.9 c -3.7,4.3 -8,7.7 -13,10.1 -5.4,2.6 -11.1,4 -17.1,4 v 0 c -4.6,0 -9.2,-0.8 -13.5,-2.3 -4.2,-1.5 -8.1,-3.6 -11.6,-6.3 -3.5,-2.7 -6.5,-5.9 -8.9,-9.6 -2.5,-3.7 -4.3,-7.8 -5.5,-12.1 l -0.2,-0.7 91.4,-0.1 0.1,-16.3 c 0,-7.1 -1.4,-14.1 -4.2,-20.6 -2.7,-6.3 -6.5,-11.9 -11.3,-16.8 -4.8,-4.9 -10.4,-8.7 -16.7,-11.4 m -59.6,46.3 0.2,-0.7 c 1,-4.3 2.7,-8.3 5.1,-12 2.3,-3.6 5.2,-6.8 8.6,-9.5 3.4,-2.7 7.2,-4.8 11.3,-6.3 4.2,-1.5 8.7,-2.3 13.2,-2.3 8.4,0 16.4,3.1 22.6,8.7 6.1,5.6 10,13.2 10.9,21.4 l 0.1,0.7 z" style="fill:#f33b1c;fill-opacity:1"/><path id="path6" d="m 182.7,559.9 h -20 l -0.3,-156.7 h 20 z" style="fill:#ffa300;fill-opacity:1"/><path id="path8" d="m 546.5,443.6 c -32.7,0 -59.3,26.4 -59.6,59.1 l 0.2,115.7 h 20 l -0.1,-74 c 10,10.5 23.8,17.4 39.2,18.5 0.1,0 0.3,0 0.4,0 32.9,0 59.6,-26.7 59.5,-59.7 0,-31.3 -24.2,-56.9 -54.9,-59.3 -0.2,0 -1.1,-0.1 -1.2,-0.1 -1.2,-0.1 -2.3,-0.2 -3.5,-0.2 m 39.3,61.3 c 0,21.7 -17.5,39.3 -39.2,39.3 -21.7,0 -39.2,-17.5 -39.3,-39.2 0,-0.5 0,-1 0,-1.5 0,-0.5 0,-1 0,-1.5 0,-21.7 17.5,-39.2 39.2,-39.3 21.7,0 39.3,17.5 39.3,39.2 0,0.5 0,1 0,1.5 0,0.4 0,0.9 0,1.5" style="fill:#f33b1c;fill-opacity:1"/><path id="path10" d="m 280,539.3 -0.1,-48.7 64.3,-0.1 v -19.4 l -64.3,0.1 -0.1,-47.6 72.4,-0.1 V 403 l -92.9,0.1 0.2,156.7 98.5,-0.1 v -20.5 z" style="fill:#f33b1c;fill-opacity:1"/><path id="path12" d="M 90.6,403.3 H 69.9 L 10,560.2 h 19.6 l 14.4,-37.7 72.8,-0.1 14.5,37.6 h 19.6 z m -38.7,98.6 28.4,-74.3 28.6,74.3 z" style="fill:#ffa300;fill-opacity:1"/><path id="path14" d="m 478,447 h -23.7 l -31.7,41.3 -31.8,-41.2 h -23.7 l 43.4,56.2 -43.3,56.3 h 23.7 l 31.7,-41.3 31.8,41.2 h 23.7 l -43.4,-56.2 z" style="fill:#f33b1c;fill-opacity:1"/><path id="path16" d="m 881.6,502.6 c -3.4,-2.6 -7.4,-4.6 -11.9,-6.2 -4.5,-1.5 -9.3,-2.8 -14.3,-3.7 -3.7,-0.6 -7.3,-1.4 -10.8,-2.4 -3.5,-1 -6.5,-2.1 -9.2,-3.4 -2.7,-1.3 -4.8,-2.8 -6.3,-4.5 -1.5,-1.7 -2.3,-3.8 -2.3,-6.2 0,-2.6 0.7,-4.9 2.1,-6.9 1.4,-2 3.1,-3.7 5.2,-5 2.1,-1.3 4.5,-2.3 7.1,-2.9 2.6,-0.6 5.3,-1 7.9,-1 0.5,0 1,0 1.5,0 9.8,0.3 18.4,5.3 23.7,12.8 l 14.9,-10.1 C 880.6,450.9 866.5,443 850.5,443 c -5.6,0 -10.7,0.8 -15.7,2.2 -5,1.5 -9.5,3.6 -13.5,6.3 -4,2.8 -7.3,6.2 -9.7,10.4 -2.4,4.2 -3.6,9 -3.6,14.5 0,5.8 1.1,10.6 3.3,14.3 2.2,3.7 5.1,6.7 8.7,9.1 3.6,2.3 7.9,4.2 12.7,5.7 4.8,1.4 9.9,2.7 15.2,3.9 3.1,0.6 6.1,1.4 9,2.2 2.9,0.8 5.5,1.9 7.7,3.3 2.3,1.4 4.1,3 5.5,5 1.4,1.9 2.1,4.4 2.1,7.5 0,3.1 -0.7,5.7 -2.2,7.9 -1.4,2.2 -3.4,4 -5.8,5.5 -2.4,1.4 -5.1,2.5 -8.1,3.2 -2.7,0.6 -5.4,0.9 -8.1,1 -12.2,0 -22.9,-5.8 -29.5,-14.8 L 803.3,542 c 10.8,12.4 26.7,20.3 44.5,20.3 5.5,-0.1 10.7,-0.8 15.9,-2 5.4,-1.3 10.3,-3.4 14.5,-6.2 4.3,-2.8 7.7,-6.5 10.3,-11 2.6,-4.5 3.9,-10 3.9,-16.5 0,-5.6 -1,-10.4 -2.9,-14.3 -1.9,-3.9 -4.5,-7.1 -7.9,-9.7" style="fill:#f33b1c;fill-opacity:1"/><path id="path18" d="m 987.1,512.1 c -1.9,-3.9 -4.6,-7.1 -8,-9.7 -3.4,-2.6 -7.4,-4.6 -11.9,-6.2 -4.5,-1.5 -9.3,-2.8 -14.3,-3.7 -3.7,-0.6 -7.3,-1.4 -10.8,-2.4 -3.5,-1 -6.5,-2.1 -9.2,-3.4 -2.7,-1.3 -4.8,-2.8 -6.3,-4.5 -1.5,-1.7 -2.3,-3.7 -2.3,-6.2 0,-2.6 0.7,-4.9 2,-6.9 1.4,-2 3.1,-3.7 5.2,-5 2.1,-1.3 4.5,-2.3 7.1,-2.9 2.7,-0.6 5.3,-1 7.9,-1 0.5,0 1,0 1.5,0 9.8,0.3 18.4,5.3 23.7,12.8 v 0 l 14.9,-10.1 h -0.1 0.1 c -8.6,-12.1 -22.7,-20 -38.7,-20 -0.1,0 -0.2,0 -0.2,0 -5.3,0 -10.5,0.8 -15.5,2.2 -5,1.5 -9.5,3.6 -13.5,6.3 -4,2.7 -7.2,6.2 -9.7,10.4 -2.4,4.2 -3.6,9 -3.6,14.5 0,5.8 1.1,10.6 3.3,14.3 2.2,3.7 5.1,6.7 8.7,9.1 3.6,2.3 7.9,4.2 12.7,5.7 4.8,1.5 9.9,2.7 15.3,3.9 3.1,0.6 6.1,1.4 9,2.2 2.9,0.8 5.5,1.9 7.7,3.3 2.3,1.4 4.1,3 5.5,4.9 1.4,1.9 2.1,4.4 2.1,7.5 0,3.1 -0.7,5.7 -2.2,7.9 -1.5,2.2 -3.4,4 -5.8,5.5 -2.4,1.5 -5.1,2.5 -8.1,3.2 -2.7,0.6 -5.4,0.9 -8.1,1 v 0 c -0.1,0 -0.1,0 -0.2,0 v 0 0 c -12,0 -22.7,-5.8 -29.2,-14.7 L 901,541.9 c 10.8,12.4 26.7,20.3 44.5,20.3 v 0 c 5.5,-0.1 10.7,-0.7 15.9,-1.9 5.4,-1.3 10.3,-3.4 14.5,-6.2 4.3,-2.8 7.7,-6.5 10.3,-11 2.6,-4.5 3.9,-10 3.9,-16.5 -0.1,-5.8 -1.1,-10.6 -3,-14.5" style="fill:#f33b1c;fill-opacity:1"/><path id="path20" d="m 640.7,446.5 h -20 l 0.1,53.7 c 0,0.9 0,1.7 0,2.6 0,0 0.1,56.5 0.1,56.5 h 20 l -0.1,-56.5 c 0,-21.9 17.6,-39.6 39.4,-39.6 v -20.1 c -15,0 -28.8,5.7 -39.4,15 z" style="fill:#f33b1c;fill-opacity:1"/><path id="path22" d="M 231,559.9 H 211 L 210.8,448 h 20 z" style="fill:#ffa300;fill-opacity:1"/><path id="path24" d="m 220.7,381.6 c -0.5,0 -0.9,0.4 -0.9,0.9 0,16.2 -13,29.3 -29.1,29.3 -0.5,0 -0.9,0.4 -0.9,0.9 0,0.5 0.4,0.9 0.9,0.9 16.1,0 29.1,13.1 29.2,29.3 0,0.5 0.4,0.9 0.9,0.9 v 0 c 0.5,0 0.9,-0.4 0.9,-0.9 0,-16.1 13.1,-29.2 29.1,-29.2 0.5,0 0.9,-0.4 0.9,-0.9 0,-0.5 -0.4,-0.9 -0.9,-0.9 -16.1,0 -29.2,-13.1 -29.2,-29.3 v -0.1 c 0,-0.2 -0.1,-0.5 -0.2,-0.6 -0.3,-0.2 -0.5,-0.3 -0.7,-0.3" style="fill:#ffa300;fill-opacity:1"/></g></svg>