<svg xmlns="http://www.w3.org/2000/svg" xmlns:svg="http://www.w3.org/2000/svg" id="svg8" width="65.454" height="71.304" version="1.1" viewBox="0 0 65.454 71.304"><metadata id="metadata14"/><path style="fill:#226cb4" id="path2" d="m 9.908719,37.576 c 7.75,-1.665 6.692,-10.937 6.465,-12.962 -0.382,-3.125 -4.055,-8.582 -9.039,-8.146 -6.275,0.559 -7.19099996,9.623 -7.19099996,9.623 -0.85,4.197 2.02799996,13.155 9.76499996,11.485 m 14.392,-15.543 c 4.278,0 7.736,-4.93 7.736,-11.021 0,-6.09 -3.458,-11.012 -7.736,-11.012 -4.28,0 -7.747,4.922 -7.747,11.013 0,6.09 3.467,11.02 7.747,11.02 m 18.444,0.725 c 5.726,0.75 9.396,-5.359 10.13,-9.988 0.75,-4.623 -2.949,-10 -6.995,-10.923 -4.063,-0.934 -9.135,5.57 -9.592,9.813 -0.558,5.191 0.737,10.365 6.457,11.098 m 22.679,7.777 c 0,-2.214 -1.833,-8.888 -8.66,-8.888 -6.839,0 -7.744,6.298 -7.744,10.748 0,4.248 0.354,10.171 8.848,9.987 8.486,-0.188 7.556,-9.617 7.556,-11.847 m -8.66,19.435 c 0,0 -8.852,-6.846 -14.019,-14.251 -7.015,-10.918 -16.97,-6.471 -20.298,-0.927 -3.318,5.558 -8.476,9.068 -9.214,10 -0.745,0.912 -10.692,6.287 -8.485,16.101 2.212,9.808 9.969,9.622 9.969,9.622 0,0 5.717,0.559 12.347,-0.924 6.644,-1.479 12.36,0.363 12.36,0.363 0,0 15.498,5.197 19.732,-4.803 4.242,-9.991 -2.392,-15.181 -2.392,-15.181"/><path style="fill:#fff" id="path4" d="m 25.675719,40.425 v 6.588 h -5.368 c 0,0 -5.365,0.445 -7.243,6.525 -0.655,4.06 0.578,6.451 0.793,6.963 0.217,0.51 1.951,3.479 6.305,4.35 h 10.073 V 40.496 Z m -0.081,20.429 h -4.058 c 0,0 -2.827,-0.147 -3.688,-3.401 -0.444,-1.443 0.066,-3.109 0.29,-3.764 0.205,-0.656 1.154,-2.172 3.111,-2.755 h 4.344 z m 7.11,-13.25 v 12.823 c 0,0 0.21,3.193 4.71,4.355 h 11.592 V 47.604 h -5.003 v 12.897 h -4.775 c 0,0 -1.526,-0.221 -1.812,-1.449 V 47.528 Z"/></svg>