<?xml version="1.0" encoding="UTF-8" standalone="no"?>
<svg
   xmlns:dc="http://purl.org/dc/elements/1.1/"
   xmlns:cc="http://creativecommons.org/ns#"
   xmlns:rdf="http://www.w3.org/1999/02/22-rdf-syntax-ns#"
   xmlns:svg="http://www.w3.org/2000/svg"
   xmlns="http://www.w3.org/2000/svg"
   id="svg3141"
   version="1.1"
   width="122.88538"
   height="163.61676">
  <metadata
     id="metadata3171">
    <rdf:rdf>
      <cc:work
         rdf:about="">
        <dc:format>image/svg+xml</dc:format>
        <dc:type
           rdf:resource="http://purl.org/dc/dcmitype/StillImage" />
      </cc:work>
    </rdf:rdf>
    <rdf:RDF>
      <cc:Work
         rdf:about="">
        <dc:format>image/svg+xml</dc:format>
        <dc:type
           rdf:resource="http://purl.org/dc/dcmitype/StillImage" />
        <dc:title></dc:title>
      </cc:Work>
    </rdf:RDF>
  </metadata>
  <defs
     id="defs3169" />
  <g
     id="layer1"
     transform="matrix(5.2116752,0,0,5.2116752,-22.410203,-5319.375)">
    <path
       d="m 12.168448,1020.6651 c -2.018389,0 -4.0185,0.7736 -5.5584822,2.3135 -3.0799544,3.0798 -3.0799544,8.067 0,11.1471 0.7940471,0.794 1.7212668,1.3879 2.7041265,1.7726 l -2.7041265,2.6742 c -3.0799544,3.0797 -3.0799544,8.097 0,11.1771 3.0799546,3.0797 8.0670552,3.0797 11.1470092,0 l 7.811923,-7.8121 c 3.079956,-3.0798 3.079956,-8.067 0,-11.1471 l -7.811923,-7.8118 c -1.539981,-1.5399 -3.570141,-2.3135 -5.588527,-2.3135 z"
       id="LOGO_BROWN"
       style="fill:#463a32;fill-opacity:1" />
    <path
       d="m 12.168448,1024.4808 c -1.038827,0 -2.061761,0.4094 -2.8543557,1.202 -1.5851901,1.5851 -1.5851901,4.1535 0,5.7387 1.5851907,1.5851 4.1535677,1.5851 5.7387577,0 1.58519,-1.5852 1.58519,-4.1536 0,-5.7387 -0.792595,-0.7926 -1.845574,-1.202 -2.884402,-1.202 z m 7.811922,7.8121 c -1.038828,0 -2.061761,0.4091 -2.854357,1.2017 -0.198148,0.1983 -0.392212,0.406 -0.540825,0.6311 -0.01279,0.02 -0.0176,0.04 -0.0301,0.06 l -6.6100879,6.58 c -0.2250792,0.1486 -0.432814,0.3126 -0.6309628,0.5107 -1.5851901,1.5853 -1.5851901,4.1837 0,5.7689 1.5851907,1.5851 4.1535667,1.5851 5.7387567,0 0.162516,-0.1625 0.291451,-0.3598 0.420643,-0.5409 0.02836,-0.038 0.06345,-0.08 0.0901,-0.1202 l 6.640132,-6.6402 c 0.04048,-0.028 0.08048,-0.061 0.120182,-0.091 0.181103,-0.1291 0.378309,-0.258 0.540825,-0.4206 1.58519,-1.5852 1.58519,-4.1536 0,-5.7387 -0.792595,-0.7926 -1.845572,-1.2017 -2.8844,-1.2017"
       id="LOGO_WHITE"
       style="fill:#ffffff;fill-opacity:1" />
  </g>
</svg>
