<?xml version="1.0" encoding="UTF-8" standalone="no"?>
<svg
   xmlns:dc="http://purl.org/dc/elements/1.1/"
   xmlns:cc="http://creativecommons.org/ns#"
   xmlns:rdf="http://www.w3.org/1999/02/22-rdf-syntax-ns#"
   xmlns:svg="http://www.w3.org/2000/svg"
   xmlns="http://www.w3.org/2000/svg"
   xmlns:sodipodi="http://sodipodi.sourceforge.net/DTD/sodipodi-0.dtd"
   xmlns:inkscape="http://www.inkscape.org/namespaces/inkscape"
   width="1000"
   height="1381.233"
   viewBox="0 0 999.99998 1381.233"
   id="svg3019"
   version="1.1"
   inkscape:version="0.48.5 r10040"
   sodipodi:docname="icon-ch-c4.svg">
  <metadata
     id="metadata3029">
    <rdf:RDF>
      <cc:Work
         rdf:about="">
        <dc:format>image/svg+xml</dc:format>
        <dc:type
           rdf:resource="http://purl.org/dc/dcmitype/StillImage" />
      </cc:Work>
    </rdf:RDF>
  </metadata>
  <defs
     id="defs3027" />
  <sodipodi:namedview
     pagecolor="#ffffff"
     bordercolor="#666666"
     borderopacity="1"
     objecttolerance="10"
     gridtolerance="10"
     guidetolerance="10"
     inkscape:pageopacity="0"
     inkscape:pageshadow="2"
     inkscape:window-width="860"
     inkscape:window-height="996"
     id="namedview3025"
     showgrid="false"
     fit-margin-left="0.5"
     fit-margin-bottom="0.5"
     fit-margin-top="0.5"
     fit-margin-right="0.5"
     inkscape:zoom="0.30490661"
     inkscape:cx="863.72699"
     inkscape:cy="479.17099"
     inkscape:window-x="1052"
     inkscape:window-y="24"
     inkscape:window-maximized="0"
     inkscape:current-layer="svg3019" />
  <path
     d="M 0.49999999,0.49999469 H 998.5334 V 1380.733 H 0.49999999 z"
     id="path3021"
     inkscape:connector-curvature="0"
     style="fill:none" />
  <path
     d="M 256.52361,1268.7927 H 368.46395 V 1380.733 H 256.52361 V 1268.7927 z M 623.92515,1380.733 H 903.63599 V 1268.7927 H 623.92515 V 1380.733 z M 0.49999999,925.35839 H 552.0235 V 813.41806 H 0.49999999 V 925.35839 z M 440.36559,1380.733 H 552.30593 V 997.26003 H 440.36559 V 1380.733 z M 368.18396,516.51091 V 338.59013 L 42.230807,741.51642 H 186.31652 L 368.18396,516.50848 z M 640.55904,2.4842747 623.93002,23.069685 V 200.99046 L 727.69705,72.696235 640.55904,2.4867047 z M 807.76712,813.41563 V 925.35595 H 999.49998 V 813.41563 H 807.76712 z M 735.86548,176.74082 623.92515,314.90047 V 1196.8886 H 735.86548 V 176.74326 z M 440.36559,741.51398 H 552.30593 V 111.61009 L 440.36559,249.76973 v 491.74669 z"
     id="path3023"
     inkscape:connector-curvature="0"
     style="fill:#192d48" />
</svg>
