<svg xmlns="http://www.w3.org/2000/svg" fill-rule="evenodd" stroke-linejoin="round" stroke-miterlimit="2" clip-rule="evenodd" viewBox="0 0 72 55"><path fill="#5865f2" fill-rule="nonzero" d="M60.1 4.49A58.57 58.57 0 0045.65 0a.22.22 0 00-.23.11 40.69 40.69 0 00-1.8 3.7 54.05 54.05 0 00-16.23 0 37.3 37.3 0 00-1.83-3.7.23.23 0 00-.23-.1c-5.07.87-9.92 2.4-14.45 4.48a.2.2 0 00-.1.08C1.58 18.32-.94 31.73.3 44.97c0 .07.04.14.1.18A58.9 58.9 0 0018.1 54.1c.1.03.2 0 .25-.08a42.08 42.08 0 003.63-5.9.22.22 0 00-.12-.32 38.87 38.87 0 01-5.54-2.64.23.23 0 01-.02-.37c.37-.28.74-.57 1.1-.87a.22.22 0 01.23-.03 41.99 41.99 0 0035.68 0 .22.22 0 01.23.03c.36.3.73.59 1.1.87.13.1.12.3-.02.37a36.36 36.36 0 01-5.54 2.64.23.23 0 00-.12.32 47.17 47.17 0 003.63 5.9c.05.07.15.1.24.08 5.8-1.8 11.69-4.5 17.76-8.96.05-.04.09-.1.1-.17 1.47-15.31-2.49-28.62-10.5-40.41a.18.18 0 00-.1-.08zM23.73 36.9c-3.5 0-6.39-3.2-6.39-7.15s2.83-7.16 6.39-7.16c3.58 0 6.43 3.24 6.38 7.16 0 3.94-2.83 7.15-6.38 7.15zm23.59 0c-3.5 0-6.38-3.2-6.38-7.15s2.82-7.16 6.38-7.16c3.58 0 6.43 3.24 6.38 7.16 0 3.94-2.8 7.15-6.38 7.15z"/></svg>