<svg xmlns="http://www.w3.org/2000/svg" fill="none" viewBox="0 0 400 94"><path fill="#50c800" d="M50.26 0c-5.28 0-12.02 6.74-12.02 18.47v5.72c-3.49-2.23-7.56-3.45-12.65-3.45A25.38 25.38 0 000 46.2c0 14.05 10.71 25.4 25.5 25.4 7.12 0 12.74-2.57 16.42-6.11 2.43 3.34 5.43 5.19 8.05 5.19 2.04 0 3.05-1.12 3.05-3.6V3.35c0-2.23-1.01-3.34-2.76-3.34zM26.61 58.26c-7.13 0-11.63-5.19-11.63-12.12 0-6.93 4.5-12.12 11.63-12.12 7.12 0 11.63 5.19 11.63 12.12 0 6.98-4.5 12.12-11.63 12.12zm80.99-35.63h-5c-3.58 0-4.89 1.46-4.89 4.9V45.8c0 7.37-3.78 11.73-9.89 11.73-6.3 0-9.5-4.17-9.5-11.92V27.53c0-3.59-1.45-4.9-4.9-4.9h-4.98c-3.45 0-4.9 1.31-4.9 4.9V46c0 15.8 7.95 25.59 21.9 25.59a20.9 20.9 0 0015.61-6.64c2.33 3.68 5.53 5.72 8.39 5.72 1.74 0 3.05-1.12 3.05-3.6V27.54c0-3.59-1.45-4.9-4.9-4.9zm39.35 48.96c14.98 0 26.13-11.35 26.13-25.4 0-14.4-11.2-25.4-26.13-25.4-14.88 0-26.12 11.34-26.12 25.4 0 14.4 11.24 25.4 26.12 25.4zm0-13.33c-6.73 0-11.2-5.19-11.2-12.12 0-6.93 4.42-12.12 11.2-12.12 6.84 0 11.2 5.19 11.2 12.12-.05 6.98-4.36 12.12-11.2 12.12zm39.16 11.48h5c3.39 0 4.9-1.3 4.9-4.9V3.6C196 1.1 194.97 0 192.94 0c-5 0-11.73 6.74-11.73 18.47v46.38c0 3.59 1.45 4.9 4.9 4.9zm28.74-53.84c4.51 0 8.34-3.5 8.34-7.95 0-4.46-3.83-7.95-8.34-7.95-4.6 0-8.33 3.49-8.33 7.95s3.68 7.95 8.33 7.95zm-2.51 53.84h4.99c3.58 0 4.9-1.45 4.9-4.9V27.54c0-3.44-1.32-4.9-4.9-4.9h-5c-3.58 0-4.89 1.46-4.89 4.9v37.32c0 3.4 1.3 4.9 4.9 4.9zm48.75-48.95c-6.1 0-11.92 2.47-16 6.84-2.41-3.88-5.61-5.92-8.38-5.92-2.03 0-3.05 1.12-3.05 3.59v39.55c0 3.59 1.46 4.9 4.9 4.9h4.99c3.58 0 4.9-1.46 4.9-4.9V46.53c0-7.32 4.26-11.73 10.51-11.73 6.35 0 9.7 4.26 9.7 11.92v18.13c0 3.59 1.45 4.9 4.89 4.9h5c3.43 0 4.89-1.31 4.89-4.9V46c0-15.42-7.86-25.2-22.35-25.2zm71.3 34.37a16.97 16.97 0 007.03-13.77c0-2.33-.49-4.41-1.41-6.45 4.9-2.42 6.74-6.83 6.74-11s-1.65-5.38-4.07-4.26c-8.68 3.97-9.9 4.17-15.61 3.15-3.59-.63-6.2-1.12-9.7-1.12a24.52 24.52 0 00-16.18 5.72 17.94 17.94 0 00-6.3 13.96 16.7 16.7 0 007.03 13.77c-5.82 3.05-9.9 9.5-9.9 17.15 0 12.65 10.19 21.43 26.04 21.43 16.62 0 26.12-9.7 26.12-22.35.1-7.66-3.98-13.37-9.8-16.23zm-16.24-21.43c5.38 0 8.68 2.77 8.68 8.34a8.5 8.5 0 01-8.68 8.34 8.4 8.4 0 01-8.58-8.34c0-5.23 3.4-8.34 8.58-8.34zm0 47.84c-6.44 0-11.24-4.17-11.24-9.5 0-5.91 4.5-9.5 11.24-9.5 6.84 0 11.34 3.59 11.34 9.5 0 5.43-4.7 9.5-11.34 9.5zm57.73-9.98c14.97 0 26.12-11.35 26.12-25.4 0-14.4-11.2-25.4-26.12-25.4-14.88 0-26.13 11.34-26.13 25.4 0 14.4 11.25 25.4 26.13 25.4zm0-13.33c-6.74 0-11.2-5.19-11.2-12.12 0-6.93 4.41-12.12 11.2-12.12 6.83 0 11.2 5.19 11.2 12.12 0 6.98-4.37 12.12-11.2 12.12z"/></svg>