<svg xmlns="http://www.w3.org/2000/svg" viewBox="0 0 1365.3 1365.3"><path fill="#1877f2" d="M1365.3 682.7A682.7 682.7 0 1 0 576 1357V880H402.7V682.7H576V532.3c0-171.1 102-265.6 257.9-265.6A1050 1050 0 0 1 986.7 280v168h-86.1c-84.8 0-111.3 52.6-111.3 106.6v128h189.4L948.4 880h-159v477a682.8 682.8 0 0 0 576-674.3"/><path fill="#fff" d="M948.4 880l30.3-197.3H789.3v-128c0-54 26.5-106.7 111.3-106.7h86V280s-78-13.3-152.7-13.3c-156 0-257.9 94.5-257.9 265.6v150.4H402.7V880H576v477a687.7 687.7 0 0 0 213.3 0V880h159.1"/></svg>