<svg sodipodi:docname="Fandom-MINI.svg" inkscape:version="1.1 (c68e22c387, 2021-05-23)" xmlns:inkscape="http://www.inkscape.org/namespaces/inkscape" xmlns:sodipodi="http://sodipodi.sourceforge.net/DTD/sodipodi-0.dtd" xmlns="http://www.w3.org/2000/svg" viewBox="0 0 106.03 147.291"><sodipodi:namedview pagecolor="#505050" bordercolor="#eeeeee" borderopacity="1" inkscape:pageshadow="0" inkscape:pageopacity="0" inkscape:pagecheckerboard="0" showgrid="false" fit-margin-top="0" fit-margin-left="0" fit-margin-right="0" fit-margin-bottom="0" inkscape:zoom="1.827" inkscape:cx="-68.423" inkscape:cy="77.729" inkscape:window-width="1920" inkscape:window-height="964" inkscape:window-x="1920" inkscape:window-y="30" inkscape:window-maximized="1" inkscape:current-layer="svg8"/><path fill="#fa005a" d="M101.72 71.93L30.54.77a2.63 2.63 0 00-4.49 1.85v59.84L4.49 40.92A2.64 2.64 0 000 42.78v61.79a14.68 14.68 0 004.31 10.42l28.05 28c2.76 2.75 6.5 4.3 10.4 4.3h20.53c3.9 0 7.63-1.55 10.39-4.3l28.05-28a14.67 14.67 0 004.3-10.39V82.33a14.66 14.66 0 00-4.31-10.4z"/><path fill="#ffc500" d="M80.01 97.99c0 1.17-.47 2.28-1.29 3.11l-22.6 22.68a4.4 4.4 0 01-6.25 0l-22.55-22.71a4.42 4.42 0 01-1.3-3.08v-8.66a4.42 4.42 0 011.3-3.12l8.12-8.12a4.42 4.42 0 016.24 0l11.35 11.36 11.33-11.36a4.42 4.42 0 016.24 0l8.11 8.12a4.41 4.41 0 011.3 3.12z"/></svg>