<svg xmlns="http://www.w3.org/2000/svg" width="836.04" height="279.42"><defs><radialGradient id="a" cx="-896.08" cy="-367.31" r="317.73" fx="-884.72" gradientTransform="translate(1258.44 532.89)" gradientUnits="userSpaceOnUse"><stop offset="0" stop-color="#fff44f"/><stop offset=".29" stop-color="#ff980e"/><stop offset=".43" stop-color="#ff5d36"/><stop offset=".53" stop-color="#ff3750"/><stop offset=".75" stop-color="#f5156c"/><stop offset=".76" stop-color="#f1136e"/><stop offset=".88" stop-color="#da057a"/><stop offset=".95" stop-color="#d2007f"/></radialGradient><radialGradient id="b" cx="-1123.24" cy="-354.17" r="188.04" fx="-1116.51" gradientTransform="translate(1258.44 532.89)" gradientUnits="userSpaceOnUse"><stop offset="0" stop-color="#b5007f"/><stop offset="1" stop-color="#f5156c" stop-opacity="0"/></radialGradient><radialGradient id="c" cx="-868.92" cy="-385.39" r="373.1" fx="-855.58" fy="-391.99" gradientTransform="translate(1258.44 532.89)" gradientUnits="userSpaceOnUse"><stop offset="0" stop-color="#fd0" stop-opacity=".6"/><stop offset=".09" stop-color="#ffd702" stop-opacity=".58"/><stop offset=".2" stop-color="#fec606" stop-opacity=".52"/><stop offset=".32" stop-color="#fda90e" stop-opacity=".43"/><stop offset=".45" stop-color="#fc8119" stop-opacity=".3"/><stop offset=".57" stop-color="#fa4e27" stop-opacity=".14"/><stop offset=".66" stop-color="#f92433" stop-opacity="0"/></radialGradient><radialGradient id="d" cx="260" cy="268.08" r="481.33" gradientUnits="userSpaceOnUse"><stop offset=".15" stop-color="#960e18"/><stop offset=".18" stop-color="#b11927" stop-opacity=".74"/><stop offset=".22" stop-color="#db293d" stop-opacity=".34"/><stop offset=".26" stop-color="#f5334b" stop-opacity=".09"/><stop offset=".27" stop-color="#ff3750" stop-opacity="0"/></radialGradient><radialGradient id="e" cx="223.57" cy="262.03" r="481.33" gradientUnits="userSpaceOnUse"><stop offset=".11" stop-color="#960e18"/><stop offset=".15" stop-color="#b11927" stop-opacity=".74"/><stop offset=".21" stop-color="#db293d" stop-opacity=".34"/><stop offset=".26" stop-color="#f5334b" stop-opacity=".09"/><stop offset=".28" stop-color="#ff3750" stop-opacity="0"/></radialGradient><linearGradient id="f" x1="-986.03" x2="-903.68" y1="-393.08" y2="-250.43" gradientTransform="translate(1258.44 532.89)" gradientUnits="userSpaceOnUse"><stop offset="0" stop-color="#ffbc04"/><stop offset=".17" stop-color="#ffab02" stop-opacity=".62"/><stop offset=".34" stop-color="#ff9b01" stop-opacity=".29"/><stop offset=".45" stop-color="#ff9200" stop-opacity=".08"/><stop offset=".51" stop-color="#ff8e00" stop-opacity="0"/></linearGradient><radialGradient id="g" cx="-1047.86" cy="26.94" r="311.02" fx="-1036.73" gradientTransform="matrix(.96 0 0 .96 1360.44 129.02)" gradientUnits="userSpaceOnUse"><stop offset="0" stop-color="#ff980e"/><stop offset=".3" stop-color="#ff7139"/><stop offset=".48" stop-color="#ff5b51"/><stop offset=".63" stop-color="#ff4f5e"/><stop offset=".74" stop-color="#ff4055"/><stop offset=".84" stop-color="#ff3750"/></radialGradient><radialGradient id="h" cx="-1047.86" cy="26.94" r="311.02" fx="-1036.73" gradientTransform="matrix(.96 0 0 .96 1360.44 129.02)" gradientUnits="userSpaceOnUse"><stop offset=".08" stop-color="#ffde08"/><stop offset=".15" stop-color="#ffdb08" stop-opacity=".97"/><stop offset=".25" stop-color="#ffd209" stop-opacity=".88"/><stop offset=".37" stop-color="#ffc40b" stop-opacity=".73"/><stop offset=".51" stop-color="#ffb00d" stop-opacity=".53"/><stop offset=".67" stop-color="#ff970f" stop-opacity=".28"/><stop offset=".82" stop-color="#ff7b12" stop-opacity="0"/></radialGradient><radialGradient id="i" cx="286.79" cy="247.62" r="146.26" gradientTransform="matrix(.25 .97 -1.01 .26 466.28 -94.16)" gradientUnits="userSpaceOnUse"><stop offset=".36" stop-color="#ff3750"/><stop offset=".44" stop-color="#ff4d47" stop-opacity=".63"/><stop offset=".55" stop-color="#ff673d" stop-opacity=".18"/><stop offset=".59" stop-color="#ff7139" stop-opacity="0"/></radialGradient><radialGradient id="j" cx="261.58" cy="260.01" r="146.26" gradientTransform="translate(0 -.78)" gradientUnits="userSpaceOnUse"><stop offset=".22" stop-color="#ff3750" stop-opacity=".8"/><stop offset=".27" stop-color="#ff444b" stop-opacity=".63"/><stop offset=".41" stop-color="#ff643e" stop-opacity=".18"/><stop offset=".47" stop-color="#ff7139" stop-opacity="0"/></radialGradient><radialGradient id="k" cx="-985.78" cy="-8.2" r="525.68" gradientTransform="matrix(.96 0 0 .96 1360.44 129.02)" gradientUnits="userSpaceOnUse"><stop offset=".05" stop-color="#fff44f"/><stop offset=".46" stop-color="#ff980e"/><stop offset=".52" stop-color="#ff8424"/><stop offset=".59" stop-color="#ff7634"/><stop offset=".64" stop-color="#ff7139"/></radialGradient><linearGradient id="l" x1="318.57" x2="175.67" y1="137.31" y2="384.81" gradientUnits="userSpaceOnUse"><stop offset="0" stop-color="#fff44f" stop-opacity=".8"/><stop offset=".09" stop-color="#fff44f" stop-opacity=".7"/><stop offset=".75" stop-color="#fff44f" stop-opacity="0"/></linearGradient><linearGradient id="m" x1="-985.36" x2="-985.36" y1="-244.54" y2="-418.45" gradientTransform="translate(1258.44 532.89)" gradientUnits="userSpaceOnUse"><stop offset="0" stop-color="#3a8ee6"/><stop offset=".24" stop-color="#5c79f0"/><stop offset=".63" stop-color="#9059ff"/><stop offset="1" stop-color="#c139e6"/></linearGradient><linearGradient id="n" x1="-1049.36" x2="-908.25" y1="-419.25" y2="-278.13" gradientTransform="translate(1258.44 532.89)" gradientUnits="userSpaceOnUse"><stop offset=".81" stop-color="#9059ff" stop-opacity="0"/><stop offset="1" stop-color="#6e008b" stop-opacity=".5"/></linearGradient></defs><g style="isolation:isolate"><path fill="#20133a" d="M336.33 83.16h74.87v20.26h-53.39v27.46h53.39v20.1h-53.39v44.19h-21.48zm100.34-7.82c7.36 0 12.43 5.37 12.43 12.58s-4.91 12.58-12.59 12.58c-7.36 0-12.42-5.21-12.42-12.27 0-7.67 5.67-12.89 12.58-12.89zm-10.63 37h21.17v82.85h-21.17zm82.55 23a17.1 17.1 0 0 0-10.28-3.68c-8.6 0-13.51 5.52-13.51 17.64v45.88h-21v-82.84h20.1v12c4.3-9.36 10.9-12.73 19.8-12.73a25.09 25.09 0 0 1 14.11 4.29zm8.74 18.87c0-23.78 17.64-43.57 42.65-43.57 25.01 0 42.5 17.64 42.5 42.19v8.75h-64.44c2.3 10.43 10.44 17.33 22.86 17.33 9.67 0 16.27-4.6 20.56-12.27l17.65 10.59c-8.75 12.88-21.18 19.63-38.82 19.63-26.81-.01-42.92-17.96-42.92-42.66zm21-9.36h43.57c-2.3-10.58-10.89-16.41-22.09-16.41-10.07-.01-18.5 5.66-21.42 16.4zm69.41-32.51h14.88v-4.15c0-22.55 9.51-31.91 30.38-31.91h7.37v18.26h-6c-9.82 0-12 3.37-12 13.65v4.15h18v19h-17.5v63.83h-20.25v-63.83h-14.88zm56.61 41.42c0-23.78 18.11-43.11 43.27-43.11a43.11 43.11 0 1 1 0 86.22c-25.77-.02-43.27-18.89-43.27-43.13zm66 0c0-13.19-9.82-23.47-22.71-23.47-13 0-22.71 10.28-22.71 23.47s9.67 23.48 22.71 23.48c12.87-.02 22.69-10.3 22.69-23.5zm49.1-.92l-29.94-40.5h24.85l17.68 25.45 18.07-25.45h24.4l-30.38 40.35 31.91 42.48h-24.7l-19.79-27-19.18 27h-24.7z"/><path fill="url(#a)" d="M363.81 167.49c-25.31-33.25-64.76-54-106.25-54.8-32.51-.64-55 9.1-67.67 16.94 17-9.84 41.6-15.42 63.14-15.14 55.41.7 114.91 38.34 123.75 106.19 10.14 77.89-44.23 142.89-120.73 143.09-84.16.21-135.34-74.13-122-140.9.67-3.33.33-6.58 1.45-9.73.63-11.74 5.08-30.14 14.67-48.94-9.69 5-22 20.82-28.12 35.48-8.79 21.13-11.88 46.4-9.1 70.44.21 1.81.4 3.62.64 5.41a140.2 140.2 0 1 0 250.18-108zm-221.89 12.17z" transform="translate(-111.96 -112.66)"/><path fill="url(#b)" d="M363.81 167.49c-25.31-33.25-64.76-54-106.25-54.8-32.51-.64-55 9.1-67.67 16.94 17-9.84 41.6-15.42 63.14-15.14 55.41.7 114.91 38.34 123.75 106.19 10.14 77.89-44.23 142.89-120.73 143.09-84.16.21-135.34-74.13-122-140.9.67-3.33.33-6.58 1.45-9.73.63-11.74 5.08-30.14 14.67-48.94-9.69 5-22 20.82-28.12 35.48-8.79 21.13-11.88 46.4-9.1 70.44.21 1.81.4 3.62.64 5.41a140.2 140.2 0 1 0 250.18-108zm-221.89 12.17z" opacity=".67" transform="translate(-111.96 -112.66)"/><path fill="url(#c)" d="M363.81 167.49c-25.31-33.25-64.76-54-106.25-54.8-32.51-.64-55 9.1-67.67 16.94 17-9.84 41.6-15.42 63.14-15.14 55.41.7 114.91 38.34 123.75 106.19 10.14 77.89-44.23 142.89-120.73 143.09-84.16.21-135.34-74.13-122-140.9.67-3.33.33-6.58 1.45-9.73.63-11.74 5.08-30.14 14.67-48.94-9.69 5-22 20.82-28.12 35.48-8.79 21.13-11.88 46.4-9.1 70.44.21 1.81.4 3.62.64 5.41a140.2 140.2 0 1 0 250.18-108zm-221.89 12.17z" transform="translate(-111.96 -112.66)"/><path fill="url(#d)" d="M363.81 167.49c-25.31-33.25-64.76-54-106.25-54.8-32.51-.64-55 9.1-67.67 16.94 17-9.84 41.6-15.42 63.14-15.14 55.41.7 114.91 38.34 123.75 106.19 10.14 77.89-44.23 142.89-120.73 143.09-84.16.21-135.34-74.13-122-140.9.67-3.33.33-6.58 1.45-9.73.63-11.74 5.08-30.14 14.67-48.94-9.69 5-22 20.82-28.12 35.48-8.79 21.13-11.88 46.4-9.1 70.44.21 1.81.4 3.62.64 5.41a140.2 140.2 0 1 0 250.18-108zm-221.89 12.17z" transform="translate(-111.96 -112.66)"/><path fill="url(#e)" d="M363.81 167.49c-25.31-33.25-64.76-54-106.25-54.8-32.51-.64-55 9.1-67.67 16.94 17-9.84 41.6-15.42 63.14-15.14 55.41.7 114.91 38.34 123.75 106.19 10.14 77.89-44.23 142.89-120.73 143.09-84.16.21-135.34-74.13-122-140.9.67-3.33.33-6.58 1.45-9.73.63-11.74 5.08-30.14 14.67-48.94-9.69 5-22 20.82-28.12 35.48-8.79 21.13-11.88 46.4-9.1 70.44.21 1.81.4 3.62.64 5.41a140.2 140.2 0 1 0 250.18-108zm-221.89 12.17z" transform="translate(-111.96 -112.66)"/><path fill="url(#f)" d="M376.78 220.68a142.39 142.39 0 0 1 1.05 25.3c4.65-.68 9.3-1.31 14-1.85a139.5 139.5 0 0 0-28-76.64c-25.31-33.25-64.76-54-106.25-54.8-32.51-.64-55 9.1-67.67 16.94 17-9.84 41.6-15.42 63.14-15.14 55.39.7 114.89 38.34 123.73 106.19z" transform="translate(-111.96 -112.66)"/><path fill="url(#g)" d="M380.19 216.81C372.31 145.9 308.92 114 253 114.49c-21.54.17-46.14 5.3-63.14 15.14a69.56 69.56 0 0 0-12.46 9.43c.45-.37 1.8-1.48 4-3l.22-.16.2-.13a93.31 93.31 0 0 1 26.98-12.47c14.77-4.32 30.76-5.77 46.14-5.38 63.21 3.63 107.82 56 109.37 111.69 1.29 46.11-36.54 82.89-80.15 85-31.72 1.54-61.6-13.77-76.2-44.4a75.69 75.69 0 0 1-6.87-22.11c-6.92-46.61 24.46-86.37 53.24-96.21-15.53-13.53-54.42-12.61-83.37 8.64-20.85 15.3-34.37 38.58-38.85 66.35-3.42 21.18-.2 43.2 8.19 62.86a123.53 123.53 0 0 0 105.31 74.86c3.47.26 7 .39 10.44.39 92.62.01 132.81-70.12 124.14-148.18z" transform="translate(-111.96 -112.66)"/><path fill="url(#h)" d="M380.19 216.81C372.31 145.9 308.92 114 253 114.49c-21.54.17-46.14 5.3-63.14 15.14a69.56 69.56 0 0 0-12.46 9.43c.45-.37 1.8-1.48 4-3l.22-.16.2-.13a93.31 93.31 0 0 1 26.98-12.47c14.77-4.32 30.76-5.77 46.14-5.38 63.21 3.63 107.82 56 109.37 111.69 1.29 46.11-36.54 82.89-80.15 85-31.72 1.54-61.6-13.77-76.2-44.4a75.69 75.69 0 0 1-6.87-22.11c-6.92-46.61 24.46-86.37 53.24-96.21-15.53-13.53-54.42-12.61-83.37 8.64-20.85 15.3-34.37 38.58-38.85 66.35-3.42 21.18-.2 43.2 8.19 62.86a123.53 123.53 0 0 0 105.31 74.86c3.47.26 7 .39 10.44.39 92.62.01 132.81-70.12 124.14-148.18z" transform="translate(-111.96 -112.66)"/><path fill="url(#i)" d="M380.19 216.81C372.31 145.9 308.92 114 253 114.49c-21.54.17-46.14 5.3-63.14 15.14a69.56 69.56 0 0 0-12.46 9.43c.45-.37 1.8-1.48 4-3l.22-.16.2-.13a93.31 93.31 0 0 1 26.98-12.47c14.77-4.32 30.76-5.77 46.14-5.38 63.21 3.63 107.82 56 109.37 111.69 1.29 46.11-36.54 82.89-80.15 85-31.72 1.54-61.6-13.77-76.2-44.4a75.69 75.69 0 0 1-6.87-22.11c-6.92-46.61 24.46-86.37 53.24-96.21-15.53-13.53-54.42-12.61-83.37 8.64-20.85 15.3-34.37 38.58-38.85 66.35-3.42 21.18-.2 43.2 8.19 62.86a123.53 123.53 0 0 0 105.31 74.86c3.47.26 7 .39 10.44.39 92.62.01 132.81-70.12 124.14-148.18z" opacity=".53" style="mix-blend-mode:multiply" transform="translate(-111.96 -112.66)"/><path fill="url(#j)" d="M380.19 216.81C372.31 145.9 308.92 114 253 114.49c-21.54.17-46.14 5.3-63.14 15.14a69.56 69.56 0 0 0-12.46 9.43c.45-.37 1.8-1.48 4-3l.22-.16.2-.13a93.31 93.31 0 0 1 26.98-12.47c14.77-4.32 30.76-5.77 46.14-5.38 63.21 3.63 107.82 56 109.37 111.69 1.29 46.11-36.54 82.89-80.15 85-31.72 1.54-61.6-13.77-76.2-44.4a75.69 75.69 0 0 1-6.87-22.11c-6.92-46.61 24.46-86.37 53.24-96.21-15.53-13.53-54.42-12.61-83.37 8.64-20.85 15.3-34.37 38.58-38.85 66.35-3.42 21.18-.2 43.2 8.19 62.86a123.53 123.53 0 0 0 105.31 74.86c3.47.26 7 .39 10.44.39 92.62.01 132.81-70.12 124.14-148.18z" opacity=".53" style="mix-blend-mode:multiply" transform="translate(-111.96 -112.66)"/><path fill="url(#k)" d="M284.16 314.63c59.86-3.64 85.47-53.07 87.07-88.15 2.51-54.8-30.08-113.89-116.29-108.56-15.38-.39-31.37 1.06-46.14 5.38a101.08 101.08 0 0 0-26.92 12.47l-.2.13-.22.16q-2 1.4-3.93 2.94c2.4-1.64 32.13-19.16 73.43-13.75 49.49 6.48 94.74 44.9 94.74 95.58 0 39-30.21 68.77-65.58 66.65-52.55-3.16-65.79-56.92-38.46-80.15-7.37-1.59-21.23 1.52-30.87 15.9-8.66 12.91-8.17 32.86-2.83 47 14.6 30.63 44.5 46.32 76.2 44.4z" transform="translate(-111.96 -112.66)"/><path fill="url(#l)" d="M363.8 167.49a139.38 139.38 0 0 0-12.18-13.91 111.75 111.75 0 0 0-11.12-10.22 88.75 88.75 0 0 1 6.47 6.25 78.55 78.55 0 0 1 17.09 28.44c7.31 22.1 6.83 49.76-7.13 71.48-16.63 25.88-43.72 38.66-73 38-1.27 0-2.54 0-3.82-.09-52.55-3.16-65.79-56.92-38.46-80.15-7.37-1.59-21.23 1.52-30.87 15.9-8.66 12.91-8.17 32.86-2.83 47a75.69 75.69 0 0 1-6.87-22.11c-6.92-46.61 24.46-86.37 53.24-96.21-15.53-13.53-54.42-12.61-83.37 8.64-16.87 12.38-28.94 30-35.31 51 .94-11.78 5.4-29.36 14.56-47.32-9.69 5-22 20.82-28.12 35.48-8.79 21.13-11.88 46.4-9.1 70.44.21 1.81.4 3.62.64 5.41a140.19 140.19 0 1 0 250.17-108z" transform="translate(-111.96 -112.66)"/><path fill="url(#m)" d="M364.05 178.05A78.39 78.39 0 0 0 347 149.61c-8.93-9.64-20.06-17-31.83-22.67a142.12 142.12 0 0 0-31.29-11.06 139.61 139.61 0 0 0-58-.34c-19.89 4.18-37.38 12.77-48.44 23.51 8.29-5 19.86-9.11 28.1-11.19 38.26-9.64 80.39.8 109.11 28.28a94.59 94.59 0 0 1 15.15 18.52c17.13 27.79 15.51 62.73 2.15 83.33-9.92 15.31-31.17 29.67-51 29.51 30.42 1.59 58.79-11.2 76-38 13.94-21.69 14.42-49.35 7.1-71.45z" transform="translate(-111.96 -112.66)"/><path fill="url(#n)" d="M364.05 178.05A78.39 78.39 0 0 0 347 149.61c-8.93-9.64-20.06-17-31.83-22.67a142.12 142.12 0 0 0-31.29-11.06 139.61 139.61 0 0 0-58-.34c-19.89 4.18-37.38 12.77-48.44 23.51 8.29-5 19.86-9.11 28.1-11.19 38.26-9.64 80.39.8 109.11 28.28a94.59 94.59 0 0 1 15.15 18.52c17.13 27.79 15.51 62.73 2.15 83.33-9.92 15.31-31.17 29.67-51 29.51 30.42 1.59 58.79-11.2 76-38 13.94-21.69 14.42-49.35 7.1-71.45z" transform="translate(-111.96 -112.66)"/></g></svg>