<svg xmlns="http://www.w3.org/2000/svg" class="flicon-FlLogo" viewBox="0 0 300 72.45"><path fill="#29B2FE" d="M56.9 0l6.62 9.29L97.04 0M22.07 72.33l18.14-17.72L29.28 42.9M54.15 0l-9.69 8.74 16.3.6M16.48 0l3.48 7.13 19.18 1.2M26.75 36.99l14.17-26.44L-.23 8.33M28.4 38.66l13.38 14.38 14.77-14.47 4.58-26.96-18-.92"/><path fill="#161F2B" d="M85.22 33.9h-3.67L78.34 54.2c-.09.53-.6.96-1.12.96h-7.34a.8.8 0 0 1-.82-.96l4.5-28.45c1.15-7.2 4.78-8.8 9.76-8.8 1.54 0 3.16.15 4.43.4.56.1.94.43.86.96l-.73 4.6c-.09.52-.58.9-1.16.9h-2.03c-1.2 0-1.62.49-1.85 1.94l-.2 1.3h3.66c.54 0 .9.44.82.97l-.78 4.93c-.09.53-.6.96-1.12.96zm18.32.34h-.68c-2.07 0-4.1.29-5.73 1.11l-2.96 18.74c-.09.53-.56 1.06-1.14 1.06H85.8a.91.91 0 0 1-.9-1.06l4.13-26.08c.09-.53.45-.97 1.12-.97h6.96c.67 0 .93.25.81.97l-.18 1.16c2.53-2.27 4.3-2.51 6.87-2.51.82 0 .93.19.81.96l-.93 5.9c-.1.58-.31.72-.94.72zm24.27 9.47h-15.02l-.02.1c-.4 2.55.4 4.15 3.93 4.15 2.56 0 7.33-.24 9.24-.4.78-.04 1.04.1.93.83l-.69 4.35c-.12.77-.37 1.1-1.18 1.35a35.06 35.06 0 0 1-10.72 1.5c-6.52 0-12-3.43-10.55-12.66l.5-3.18c1.35-8.5 7.01-13.14 14.93-13.14 8.46 0 11.52 5.36 10.29 13.13l-.46 2.9c-.1.63-.6 1.06-1.19 1.06zm-7.04-5.27c.46-2.9-.43-4.63-2.84-4.63-2.32 0-3.85 1.73-4.3 4.63l-.03.15h7.15l.02-.15zm33.77 5.27h-15.02l-.02.1c-.4 2.55.4 4.15 3.93 4.15 2.56 0 7.33-.24 9.24-.4.78-.04 1.05.1.93.83l-.68 4.35c-.13.77-.37 1.1-1.18 1.35a35.06 35.06 0 0 1-10.72 1.5c-6.52 0-12.01-3.43-10.55-12.66l.5-3.18c1.35-8.5 7-13.14 14.93-13.14 8.45 0 11.51 5.36 10.28 13.13l-.46 2.9c-.1.63-.6 1.06-1.18 1.06zm-7.04-5.27c.46-2.9-.43-4.63-2.84-4.63-2.32 0-3.85 1.73-4.3 4.63l-.03.15h7.14l.03-.15zm16.84 16.71h-7.3a.94.94 0 0 1-.89-1.06l5.6-35.3c.08-.54.68-.97 1.21-.97h7.3c.53 0 .9.43.8.96l-5.59 35.31c-.08.53-.6 1.06-1.13 1.06zm25.67 0h-6.72a.8.8 0 0 1-.8-.96l.15-1.02a13.6 13.6 0 0 1-7.28 2.42c-3.82 0-7.93-2.13-6.9-8.65l.1-.58c.92-5.8 5.64-7.87 13.7-7.87h2.08l.22-1.4c.38-2.37-.33-2.8-2.74-2.8-2.7 0-7.1.24-8.46.34-.83.05-1-.39-.9-.97l.73-4.68c.12-.73.54-.97 1.15-1.16a41.44 41.44 0 0 1 9.03-1.16c7 0 11.72 2.51 10.47 10.43l-2.71 17.1c-.09.53-.6.97-1.12.97zm-6.18-11.64h-2.36c-2.42 0-3.5.78-3.83 2.8l-.07.49c-.26 1.64.77 2.12 2.12 2.12 1.16 0 2.52-.34 3.4-.72l.74-4.69zm34.07 11.64h-7.25a.91.91 0 0 1-.89-1.06l2.6-16.37c.4-2.56-.3-3.38-2.47-3.38a9.6 9.6 0 0 0-3.78 1.01l-2.97 18.74c-.08.53-.55 1.06-1.13 1.06h-7.25a.91.91 0 0 1-.89-1.06L198 28.01c.09-.53.59-.97 1.12-.97h6.71c.53 0 .9.44.82.97l-.18 1.11a14.3 14.3 0 0 1 8.36-2.46c7.58 0 7.7 5.3 6.8 11.06l-2.6 16.37c-.08.53-.55 1.06-1.13 1.06zm21.42-.33c-1.7.38-3.89.77-6.74.77-7.39 0-10.79-4.74-9.53-12.66l.57-3.62c1.25-7.87 6.17-12.7 13.56-12.7 2.85 0 5.2.43 6.49.77.6.14.9.39.8 1.01l-.86 5.46c-.1.58-.45 1.02-1.16.92-1.62-.14-3.13-.34-5.5-.34-2.08 0-3.49 1.3-4.06 4.88l-.57 3.62c-.57 3.58.44 4.83 2.52 4.83 2.36 0 3.93-.1 5.6-.29.74-.1.97.3.87.92l-.86 5.41c-.1.63-.48.87-1.13 1.02zm28.35-11.11h-15.02l-.02.1c-.4 2.55.41 4.15 3.93 4.15 2.56 0 7.33-.24 9.24-.4.78-.04 1.05.1.93.83l-.69 4.35c-.12.77-.36 1.1-1.18 1.35a35.05 35.05 0 0 1-10.71 1.5c-6.52 0-12.02-3.43-10.55-12.66l.5-3.18c1.35-8.5 7-13.14 14.93-13.14 8.45 0 11.51 5.36 10.28 13.13l-.46 2.9c-.1.63-.6 1.06-1.18 1.06zm-7.04-5.27c.46-2.9-.42-4.64-2.84-4.64-2.32 0-3.85 1.74-4.3 4.64l-.03.15h7.15l.02-.15zm22.23-11.4l-4.3 27.05c-.09.53-.56 1.06-1.14 1.06h-7.24a.91.91 0 0 1-.9-1.06l2.86-17.9 10.72-9.14z" class="flicon-text"/><path fill="#29B2FE" d="M285.33 27.04l-1.49 9.28 15.93-9.28"/></svg>