<svg xmlns="http://www.w3.org/2000/svg" viewBox="0 0 170.1 38"><path fill="#cc2f2f" d="M50 0c-3.55 0-6.81 1.26-9.38 3.34-.24-.31-.6-.54-1.02-.54H20.8c-.7 0-1.3.6-1.3 1.3v.14c-.3-.19-.59-.37-.9-.54-1.7-.9-3.6-1.3-5.7-1.3-2.2 0-4.3.5-6.3 1.5C4.5 5 2.8 6.7 1.6 9 .5 11.1 0 13.7 0 16.8c0 3.1.5 5.6 1.6 7.6a11 11 0 0 0 4.6 4.7c1.8 1 4.4 1.3 4.4 1.3.7.1 1.8.1 2.3.1.6 0 2.6-.3 3.3-.3h23.4c.7 0 1.3-.6 1.3-1.3v-.8a66.01 66.01 0 0 0 5.9 6.7L50 38l3.3-3.2a58.3 58.3 0 0 0 8.14-9.98 10.92 10.92 0 0 0 4.36 4.28c1.8 1 4.4 1.3 4.4 1.3.7.1 1.8.1 2.3.1.6 0 2.6-.3 3.3-.2h7.5c.6 0 1.11-.44 1.26-1 .3.15.61.29.94.4 1.6.6 4 .8 4 .8.8.1 2 0 2.7-.1 0 0 3.25-.58 5.6-1.8v.3c0 .7.6 1.3 1.3 1.3h18.8c.43 0 .8-.23 1.03-.57a14.84 14.84 0 0 0 6.17.77s2.5-.2 4.1-1.1a9.7 9.7 0 0 0 2.53-1.7c.88.76 1.87 1.39 2.97 1.9 1.5.7 3.8.9 3.8.9.8.1 2 .1 2.7 0 0 0 2.5-.2 4.1-1.1l.32-.17c.12.6.66 1.07 1.28 1.07h22.3c.7 0 1.1-.5.8-1.2l-3.3-8.3c-.3-.7-.3-1.5 0-1.8l.2-.3c1.1-1.5 1.6-3.3 1.6-5.4 0-2.1-.5-3.9-1.5-5.6-1.1-1.7-2.7-3-4.6-3.8-1.7-.7-5.9-.9-5.9-.9-.8-.1-2-.1-2.7-.1h-6.9c-.64 0-1.19.5-1.28 1.12-.38-.22-.78-.43-1.22-.62-1.4-.6-3-.9-4.7-.9-3.1 0-5.6.9-7.6 2.7-.14.13-.27.28-.4.42a12.39 12.39 0 0 0-3.4-2.22c-1.4-.6-3-.9-4.7-.9-1.76 0-3.33.3-4.72.89a1.29 1.29 0 0 0-.98-.49H80.2c-.69 0-1.27.58-1.3 1.26-.2-.12-.39-.25-.6-.36-1.7-.9-3.6-1.3-5.7-1.3-2.2 0-4.3.5-6.3 1.5a11.42 11.42 0 0 0-3.69 3.07A14.99 14.99 0 0 0 50 0z"/><path fill="#fff" d="M17.5 23.4c-.7.8-1.5 1.4-2.2 1.8-1 .5-2.2.8-3.4.8-1.2 0-2.4-.3-3.5-.9-1.1-.6-2-1.6-2.8-2.9-.8-1.3-1.1-3.1-1.1-5.4 0-2.4.4-4.3 1.1-5.7.8-1.4 1.8-2.5 3.1-3.2 1.3-.7 2.7-1 4.2-1 1.4 0 2.6.3 3.6.8s1.9 1.2 2.5 2.2c.4.6.8 1.4 1 2.4l-2.9 1a4.32 4.32 0 0 0-4.2-3.3c-1.4 0-2.5.5-3.4 1.4-.9.9-1.3 2.6-1.3 5 0 1.7.2 3 .6 3.9.4.9.9 1.5 1.6 2 .7.5 1.5.7 2.3.7.6 0 1.2-.1 1.8-.4.6-.3 1.1-.6 1.5-.9.4-.4.7-.7.8-1.1.1-.4.4-.9.5-1.5h-4.8v-2.7h7.7v9.4h-2.9v-2.4zm6.6-16.1h12.3v3.2h-8.7v4H33v2.7h-5.3v5.2h8.7v3.2H24.1zm53 16.1c-.7.8-1.5 1.4-2.2 1.8-1 .5-2.2.8-3.4.8-1.2 0-2.4-.3-3.5-.9-1.1-.6-2-1.6-2.8-2.9-.8-1.3-1.1-3.1-1.1-5.4 0-2.4.4-4.3 1.1-5.7.8-1.4 1.8-2.5 3.1-3.2 1.3-.7 2.7-1 4.2-1 1.4 0 2.6.3 3.6.8s1.9 1.2 2.5 2.2c.4.6.8 1.4 1 2.4l-2.9 1a4.32 4.32 0 0 0-4.2-3.3c-1.4 0-2.5.5-3.4 1.4-.9.9-1.3 2.6-1.3 5 0 1.7.2 3 .5 3.9.4.9.9 1.5 1.6 2 .7.5 1.5.7 2.3.7.6 0 1.2-.1 1.8-.4.6-.3 1.1-.6 1.5-.9.4-.4.7-.7.8-1.1.1-.4.3-.9.5-1.5H72v-2.7h8v9.4h-2.9zm6.4-16.1h3.6v11.2c0 1.4.3 2.4 1 3.1.6.7 1.5 1 2.6 1 .7 0 1.3-.1 1.9-.4.6-.3 1-.7 1.3-1.4.3-.6.5-1.4.5-2.4V7.3H98V19c0 2.2-.6 4-1.8 5.2-1.2 1.2-3 1.8-5.4 1.8-1.4 0-2.6-.2-3.8-.6a4.83 4.83 0 0 1-3-2.9c-.3-.8-.6-1.9-.6-3.3zm18.8 0h12.3v3.2h-8.7v4h5.3v2.7h-5.3v5.2h8.7v3.2h-12.3zm17.8 13.2c.6.9 1.2 1.6 1.8 2 .6.4 1.3.5 2.1.5 1 0 1.7-.2 2.2-.7.5-.5.8-1 .8-1.7 0-.6-.2-1.1-.6-1.5-.4-.4-1.4-.8-2.9-1.2-2-.5-3.5-1.2-4.4-2-1.1-1-1.6-2.2-1.6-3.6 0-1.5.5-2.8 1.6-3.8s2.6-1.5 4.5-1.5c1.1 0 2.1.2 2.9.5.8.4 1.6.8 2.2 1.4.4.4.8.9 1.1 1.5l-3 1.2c-.5-.7-1-1.3-1.6-1.6-.5-.3-1.1-.5-1.8-.5-.8 0-1.5.2-1.9.7-.5.5-.7 1-.7 1.6 0 .5.2 1 .6 1.3.4.4 1.4.8 2.9 1.1 1.6.4 2.8.8 3.6 1.4.8.5 1.4 1.2 1.8 2 .4.8.6 1.7.6 2.6 0 .9-.3 1.9-.8 2.8-.5.9-1.3 1.7-2.3 2.2-1 .5-2.2.8-3.5.8-1.3 0-2.3-.2-3.3-.6-.9-.4-1.7-1-2.3-1.7-.4-.5-.8-1.1-1.3-1.9zm16.1 0c.6.9 1.2 1.6 1.8 2 .6.4 1.3.5 2.1.5 1 0 1.7-.2 2.2-.7.5-.5.8-1 .8-1.7 0-.6-.2-1.1-.6-1.5-.4-.4-1.4-.8-2.9-1.2-2-.5-3.5-1.2-4.4-2-1.1-1-1.6-2.2-1.6-3.6 0-1.5.5-2.8 1.6-3.8s2.6-1.5 4.5-1.5a6.92 6.92 0 0 1 5.1 1.9c.4.4.8.9 1.1 1.5l-3 1.2c-.5-.7-1-1.3-1.6-1.6-.5-.3-1.1-.5-1.8-.5-.8 0-1.5.2-1.9.7-.5.5-.7 1-.7 1.6 0 .5.2 1 .6 1.3.4.4 1.4.8 2.9 1.1 1.6.4 2.8.8 3.6 1.4.8.5 1.4 1.2 1.8 2 .4.8.6 1.7.6 2.6 0 .9-.3 1.9-.8 2.8-.5.9-1.3 1.7-2.3 2.2-1 .5-2.2.8-3.5.8-1.3 0-2.3-.2-3.3-.6-.9-.4-1.7-1-2.3-1.7-.4-.5-.8-1.1-1.3-1.9zm13.9-13.2h5c2.7 0 4.5.2 5.5.6 1 .4 1.8 1.1 2.4 2 .6.9.9 2 .9 3.2 0 1.1-.3 2-.8 2.7-.5.7-1.4 1.3-2.7 1.8l3.3 8h-3.6l-3.1-7.4h-3.3v7.4h-3.6zm3.6 3.2v4.9h2.9a4 4 0 0 0 2.7-.9c.5-.4.7-1 .7-1.7s-.3-1.2-.8-1.7-1.4-.7-2.6-.7h-2.9zM60.4 15c0-5.8-4.6-10.4-10.4-10.4-5.8 0-10.4 4.7-10.4 10.4 0 0-.3 5.8 10.4 16.5C60.8 20.8 60.4 15 60.4 15zM50 15c-1.5 0-2.7-1.2-2.7-2.7 0-1.5 1.2-2.7 2.7-2.7 1.5 0 2.7 1.2 2.7 2.7 0 1.4-1.2 2.7-2.7 2.7z"/></svg>