<svg xmlns="http://www.w3.org/2000/svg" viewBox="0 0 163.8 35"><path d="M52.9 3.2C42.7 3.2 38 10.5 38 17.6c0 7.1 4.1 14.3 14.8 14.3 5.3 0 10-1.8 11.7-5.3V14.5H51.2v6h6.9V24c-1.5 1.1-3.8 1.4-5.2 1.4-5.5 0-7.3-4.3-7.3-7.8 0-5.4 2.9-8 7.3-8 1.8 0 4.2.5 6.2 2.4l4.5-4.4C60 4 56.7 3.2 52.9 3.2zM4 4v27h20V4H4zm64.2 0v27.2h7.6V4h-7.6zm12.4 0v27.1h7.7v-7.3h5.5c7.3 0 10.9-4.3 10.9-9.9 0-5.3-3.6-9.9-10.9-9.9H80.6zm26.9 0v27.2h7.7V20.9h9.8v10.3h7.6V4H125v10.3h-9.8V4h-7.7zM135 4v.3l10.3 16v10.8h7.7V20.3l10.8-16V4h-8.7l-5.9 9.3-5.5-9.3H135zm-46.7 6.6h5.5c2.1 0 3.2 1.6 3.2 3.4 0 1.7-1.1 3.3-3.2 3.3h-5.5v-6.7z" fill-rule="evenodd"/><path d="M0 3h4v29H0z" fill="#04ff8e"/><path d="M24 11h4v21h-4z" fill="#8e2eff"/><path d="M0 31h28v4H0z" fill="#00c5ff"/><path d="M0 0h16v4H0z" fill="#fff152"/><path d="M24 8V4h-4V0h-4v12h12V8" fill="#ff5b5b"/><path d="M24 16v-4h4" fill="#551c99"/><path d="M16 0v4h-4" fill="#999131" fill-rule="evenodd"/></svg>