<svg xmlns="http://www.w3.org/2000/svg" xmlns:svg="http://www.w3.org/2000/svg" id="logo_art" width="1017.43" height="311.005" data-name="logo art" version="1.1" viewBox="0 0 1017.43 311.005"><metadata id="metadata38"/><defs id="defs4"><style id="style2">.cls-1{fill:#8c929d}.cls-2{fill:#fc6d26}.cls-3{fill:#e24329}.cls-4{fill:#fca326}</style></defs><title id="title6">gitlab-logo-gray-rgb</title><path style="fill:#8c929d;fill-opacity:1" id="path14" d="m 715.65956,74.195085 h -21.8 l 0.1,162.500005 h 88.3 v -20.1 h -66.5 z" class="cls-1"/><g style="fill:#8c929d;fill-opacity:1" id="g24" transform="translate(-124.04044,-123.99491)"><path style="fill:#8c929d;fill-opacity:1" id="path26" d="m 990.33,332.18 a 37.2,37.2 0 0 1 -27,11.4 c -16.6,0 -23.3,-8.2 -23.3,-18.9 0,-16.1 11.2,-23.8 35,-23.8 a 104.65,104.65 0 0 1 15.4,1.2 v 30.1 z m -22.6,-98.5 a 72.19,72.19 0 0 0 -46.4,16.7 l 7.7,13.4 c 8.9,-5.2 19.8,-10.4 35.5,-10.4 17.9,0 25.8,9.2 25.8,24.6 v 7.9 a 99.42,99.42 0 0 0 -15.1,-1.2 c -38.2,0 -57.6,13.4 -57.6,41.4 0,25.1 15.4,37.7 38.7,37.7 15.7,0 30.8,-7.2 36,-18.9 l 4,15.9 h 15.4 v -83.2 c -0.1,-26.3 -11.5,-43.9 -44,-43.9 z" class="cls-1"/></g><g style="fill:#8c929d;fill-opacity:1" id="g28" transform="translate(-124.04044,-123.99491)"><path style="fill:#8c929d;fill-opacity:1" id="path30" d="m 1082.07,344.32 c -8.2,0 -15.4,-1 -20.8,-3.5 v -75.1 c 7.4,-6.2 16.6,-10.7 28.3,-10.7 21.1,0 29.2,14.9 29.2,39 0,34.2 -13.1,50.3 -36.7,50.3 m 9.2,-110.6 a 39.93,39.93 0 0 0 -30,13.3 V 226 l -0.1,-27.8 h -21.3 l 0.1,158.5 c 10.7,4.5 25.3,6.9 41.2,6.9 40.7,0 60.3,-26 60.3,-70.9 -0.1,-35.5 -18.2,-59 -50.2,-59" class="cls-1"/></g><g style="fill:#8c929d;fill-opacity:1" id="g32" transform="translate(-124.04044,-123.99491)"><path style="fill:#8c929d;fill-opacity:1" id="path34" d="m 602.34,215.82 c 19.3,0 31.8,6.4 39.9,12.9 l 9.4,-16.3 c -12.7,-11.2 -29.9,-17.2 -48.3,-17.2 -46.4,0 -78.9,28.3 -78.9,85.4 0,59.8 35.1,83.1 75.2,83.1 a 127.79,127.79 0 0 0 48.4,-9.4 l -0.5,-63.9 v -20.1 H 588 v 20.1 h 38 l 0.5,48.5 c -5,2.5 -13.6,4.5 -25.3,4.5 -32.2,0 -53.8,-20.3 -53.8,-63 -0.1,-43.5 22.2,-64.6 54.9,-64.6" class="cls-1"/></g><g style="fill:#8c929d;fill-opacity:1" id="g36" transform="translate(-124.04044,-123.99491)"><path style="fill:#8c929d;fill-opacity:1" id="path38" d="m 755.87,198.17 h -21.3 l 0.1,27.3 v 94.3 c 0,26.3 11.4,43.9 43.9,43.9 a 70.14,70.14 0 0 0 13.1,-1.2 v -19.1 a 62.36,62.36 0 0 1 -9.9,0.7 c -17.9,0 -25.8,-9.2 -25.8,-24.6 v -65 h 35.7 v -17.8 H 756 l -0.1,-38.5 z" class="cls-1"/></g><path style="fill:#8c929d;fill-opacity:1" id="path40" d="m 556.35956,236.69509 h 21.3 v -124 h -21.3 z" class="cls-1"/><path style="fill:#8c929d;fill-opacity:1" id="path42" d="m 556.35956,95.595085 h 21.3 v -21.3 h -21.3 z" class="cls-1"/><g id="g44" transform="translate(-124.04044,-123.99491)"><path id="path46" d="M 461,301.81 442.09,243.69 404.67,128.41 a 6.47,6.47 0 0 0 -12.27,0 L 355,243.62 H 230.66 L 193.24,128.41 a 6.47,6.47 0 0 0 -12.27,0 l -37.35,115.21 -18.92,58.19 a 12.89,12.89 0 0 0 4.66,14.39 L 292.82,435 456.28,316.2 A 12.9,12.9 0 0 0 461,301.81" class="cls-2" style="fill:#fc6d26"/></g><g style="fill:#e24329;fill-opacity:1" id="g48" transform="translate(-124.04044,-123.99491)"><path style="fill:#e24329;fill-opacity:1" id="path50" d="m 292.86,434.89 v 0 L 355,243.61 H 230.7 Z" class="cls-3"/></g><g style="fill:#fc6d26;fill-opacity:1" id="g56" transform="translate(-124.04044,-123.99491)"><path style="fill:#fc6d26;fill-opacity:1" id="path58" d="M 292.82,434.9 230.66,243.61 h -87 z" class="cls-2"/></g><g id="g64" transform="translate(-124.04044,-123.99491)"><path style="fill:#fca326;fill-opacity:1" id="path66" d="m 143.59,243.68 v 0 l -18.92,58.12 a 12.89,12.89 0 0 0 4.66,14.39 L 292.79,435 Z" class="cls-4"/></g><g style="fill:#e24329;fill-opacity:1" id="g72" transform="translate(-124.04044,-123.99491)"><path style="fill:#e24329;fill-opacity:1" id="path74" d="m 143.61,243.68 h 87.11 L 193.23,128.47 a 6.47,6.47 0 0 0 -12.27,0 z" class="cls-3"/></g><g style="fill:#fc6d26;fill-opacity:1" id="g76" transform="translate(-124.04044,-123.99491)"><path style="fill:#fc6d26;fill-opacity:1" id="path78" d="M 292.86,434.9 355,243.61 h 87.1 z" class="cls-2"/></g><g style="fill:#fca326;fill-opacity:1" id="g80" transform="translate(-124.04044,-123.99491)"><path style="fill:#fca326;fill-opacity:1" id="path82" d="m 442.07,243.68 v 0 L 461,301.8 a 12.89,12.89 0 0 1 -4.66,14.39 l -163.47,118.7 z" class="cls-4"/></g><g style="fill:#e24329;fill-opacity:1" id="g84" transform="translate(-124.04044,-123.99491)"><path style="fill:#e24329;fill-opacity:1" id="path86" d="M 442.12,243.68 H 355 l 37.42,-115.21 a 6.47,6.47 0 0 1 12.27,0 l 37.42,115.21 z" class="cls-3"/></g></svg>