<?xml version="1.0" encoding="UTF-8" standalone="no"?>
<svg
   xmlns:dc="http://purl.org/dc/elements/1.1/"
   xmlns:cc="http://creativecommons.org/ns#"
   xmlns:rdf="http://www.w3.org/1999/02/22-rdf-syntax-ns#"
   xmlns:svg="http://www.w3.org/2000/svg"
   xmlns="http://www.w3.org/2000/svg"
   viewBox="0 0 241.33333 190.66667"
   height="190.66667"
   width="241.33333"
   xml:space="preserve"
   id="svg2"
   version="1.1"><metadata
     id="metadata8"><rdf:RDF><cc:Work
         rdf:about=""><dc:format>image/svg+xml</dc:format><dc:type
           rdf:resource="http://purl.org/dc/dcmitype/StillImage" /></cc:Work></rdf:RDF></metadata><defs
     id="defs6" /><g
     transform="matrix(1.3333333,0,0,-1.3333333,0,190.66667)"
     id="g10"><g
       transform="scale(0.1)"
       id="g12"><path
         id="path14"
         style="fill:#0dab40;fill-opacity:1;fill-rule:evenodd;stroke:none"
         d="m 1803.99,278.707 c 0,1.984 -1.41,4.254 -3.11,5.106 -3.97,2.269 -9.93,3.683 -22.12,3.683 -27.51,0 -51.61,-13.609 -62.1,-36.578 v 27.789 c 0,2.27 -1.98,4.254 -4.53,4.254 h -40.84 c -2.27,0 -4.25,-1.703 -4.25,-4.254 V 90.4258 c 0,-2.2656 1.98,-4.25 4.53,-4.25 l 43.11,-0.0039 c 2.26,0 4.25,1.9883 4.25,4.2539 v 84.7812 c 0,37.715 26.37,56.43 60.11,56.43 7.94,0 15.88,-1.414 19.85,-2.836 2.84,-0.852 5.39,1.137 5.39,4.254 v 45.937 z m -274.48,9.074 c 60.4,0 105.49,-41.683 105.49,-103.211 0,-61.25 -45.09,-103.2145 -105.2,-103.2145 -60.12,0 -104.92,41.6795 -104.92,103.2145 -0.28,61.528 44.52,103.211 104.63,103.211 z m 0,-155.39 c 29.49,0 52.18,20.703 52.18,52.179 0,31.473 -22.69,52.453 -52.18,52.453 -29.2,0 -51.89,-20.98 -51.89,-52.453 0.29,-31.476 22.97,-52.179 51.89,-52.179 z m -238.75,155.39 c 60.4,0 105.2,-41.683 105.2,-103.211 0,-61.25 -45.08,-103.2145 -104.92,-103.2145 -60.39,0 -105.48,41.6795 -105.48,103.2145 0,61.528 44.8,103.211 105.2,103.211 z m 0,-155.39 c 29.49,0 52.17,20.703 52.17,52.179 0,31.473 -22.68,52.453 -51.89,52.453 -29.2,0 -51.89,-20.98 -51.89,-52.453 -0.28,-31.761 22.4,-52.461 51.61,-52.179 z m -141.49,229.117 c 2.27,0 4.25,-1.703 4.25,-4.254 V 90.4258 c 0,-2.2656 -1.7,-4.25 -4.25,-4.25 l -43.11,-0.0039 c -2.27,0 -4.25,1.9883 -4.25,4.2539 v 23.2502 c -14.46,-20.4143 -36.58,-32.6057 -64.93,-32.6057 -48.492,0 -89.039,36.8597 -89.039,103.4957 0,66.633 40.547,103.497 88.189,103.497 30.62,0 52.46,-14.461 65.78,-33.458 V 357.25 c 0,2.27 1.98,4.539 4.54,4.539 l 42.82,-0.281 z m -96.98,-229.965 c 28.92,0 51.33,20.414 51.33,52.742 0,32.606 -22.41,52.738 -51.33,52.738 -29.21,0 -51.32,-20.98 -51.32,-52.738 0,-32.043 22.11,-52.742 51.32,-52.742 z m -132.704,13.895 c 0,-44.805 -32.324,-64.0825 -84.5,-64.0825 -35.727,0 -66.918,9.9218 -84.496,29.7695 -1.422,1.703 -1.422,3.973 0,5.672 l 24.664,32.609 c 1.703,2.27 4.82,2.27 6.523,0.285 13.043,-13.613 33.457,-21.836 58.414,-21.836 14.461,0 26.368,3.973 26.368,15.032 0,10.773 -10.774,13.043 -43.664,20.129 -28.926,5.957 -64.938,19.285 -64.938,62.101 0,39.981 31.477,62.664 82.516,62.664 33.742,0 57.847,-10.207 74.859,-26.371 1.703,-1.699 1.703,-4.25 0.285,-5.957 l -23.539,-30.906 c -1.414,-1.984 -4.25,-2.266 -6.234,-0.848 -11.344,10.489 -30.625,16.731 -49.625,16.731 -15.879,0 -24.953,-5.106 -24.953,-13.614 0,-9.925 10.777,-12.191 45.371,-19.566 34.308,-7.371 62.949,-20.414 62.949,-61.812 z m -198.488,0 c 0,-44.805 -32.325,-64.0825 -84.5,-64.0825 -36.012,0 -66.914,9.9218 -84.782,29.7695 -1.136,1.703 -1.136,3.973 0,5.672 l 24.954,32.328 c 1.414,2.266 4.82,2.266 6.519,0.281 13.047,-13.609 33.461,-21.832 58.414,-21.832 14.461,0 26.371,3.969 26.371,15.028 0,10.773 -10.773,13.043 -43.668,20.132 -28.922,5.954 -64.933,19.282 -64.933,62.102 0,39.98 31.187,62.66 82.515,62.66 33.739,0 57.848,-10.207 74.856,-26.371 1.703,-1.414 1.703,-4.25 0.285,-5.949 l -23.535,-30.629 c -1.414,-1.984 -4.535,-2.266 -6.239,-0.848 -11.339,10.489 -30.625,16.731 -49.621,16.731 -15.882,0 -24.953,-5.106 -24.953,-13.614 0,-9.925 10.774,-12.191 45.371,-19.566 34.028,-7.371 62.661,-20.414 62.946,-61.812 z M 429.887,287.215 c 56.996,0 85.633,-25.238 85.633,-79.965 V 89.8594 c 0,-2.2696 -1.985,-4.2539 -4.536,-4.2539 h -43.101 c -2.266,0 -4.25,1.6992 -4.25,4.2539 v 22.4026 c -9.926,-15.8831 -29.488,-30.6253 -60.117,-30.6253 -38.848,0 -66.067,24.9533 -66.067,61.2503 0,35.726 26.656,58.41 62.668,61.812 l 53.59,4.824 c 7.086,0.848 9.926,3.118 9.926,7.934 v 3.121 c 0,11.344 -10.778,19.567 -34.028,19.567 -18.714,0 -38.281,-5.387 -46.785,-21.27 -1.136,-2.266 -3.972,-2.551 -5.957,-1.133 l -31.191,22.688 c -1.703,1.133 -2.27,3.683 -1.133,5.386 13.609,27.504 44.516,41.114 85.348,41.114 z M 463.633,165.57 v 7.938 l -48.207,-5.957 C 399.547,165.285 391.324,157.063 391.324,146 c 0,-12.758 9.922,-20.98 27.785,-20.98 27.223,0 44.805,19 44.524,40.55 z M 302.285,357.254 V 90.4258 c 0,-2.5508 -1.984,-4.5352 -4.25,-4.5352 h -43.387 c -2.265,0 -4.535,1.9844 -4.535,4.5352 V 357.254 c 0,2.266 1.985,4.25 4.254,4.25 l 43.383,0.004 c 2.551,0 4.535,-1.988 4.535,-4.254 z m -99.242,-74.012 c 2.266,0 4.539,-1.984 4.539,-4.535 V 99.2188 c 0,-50.7579 -24.105,-96.69536 -106.336,-96.69536 -37.7108,0 -63.8007,10.77736 -83.6483,28.07426 -1.418,1.1328 -1.7032,3.6875 0.8515,7.9375 l 19.2813,32.8945 c 1.1367,2.2656 4.2539,2.8359 6.2383,0.8516 15.5937,-13.8946 33.1757,-21.2657 55.2929,-21.2657 43.6683,0 57.2773,22.3985 57.2773,50.7544 v 12.476 C 143.777,95.8164 121.945,84.1914 93.875,84.1914 41.6992,84.1914 2,119.918 2,185.418 c 0,65.789 41.6836,102.367 90.4531,102.367 30.0589,0 52.7459,-14.465 63.8049,-32.328 v 22.969 c 0,2.269 1.984,4.535 4.535,4.535 l 42.25,0.281 z M 106.352,131.828 c 29.203,0 50.753,20.414 50.753,52.742 0,32.606 -21.55,52.739 -50.753,52.739 -29.4926,0 -51.3247,-20.985 -51.3247,-52.739 0,-31.761 22.1133,-52.742 51.3247,-52.742" /><path
         id="path16"
         style="fill:#0dab40;fill-opacity:1;fill-rule:evenodd;stroke:none"
         d="M 1083.2,694.398 H 602.574 c 0,-66.918 53.59,-120.793 120.223,-120.793 H 1083.2 c 66.35,0 119.94,54.161 119.94,120.793 v 496.792 c 0,2.27 -1.98,4.53 -4.25,4.53 h -111.44 c -2.27,0 -4.25,-1.98 -4.25,-4.53 V 694.398 Z m 0,725.902 c 66.35,0 119.94,-54.16 119.94,-121.08 H 722.516 V 802.434 c 0,-2.27 -1.985,-4.539 -4.536,-4.539 H 606.543 c -2.27,0 -4.539,1.988 -4.539,4.539 v 496.786 c 0,66.92 53.594,121.08 120.23,121.08 H 1083.2 v 0" /></g></g></svg>