<svg viewBox="0 0 48 48" xmlns="http://www.w3.org/2000/svg"><path d="M4.25 14.25l7.4 5.66a13.06 13.06 0 0 0 0 8.18l-7.4 5.66A22 22 0 0 1 2 24a22 22 0 0 1 2.25-9.75z" fill="#fbbc05"/><path d="M4.25 14.25A21.93 21.93 0 0 1 24 2c5.6 0 10.6 2.1 14.5 5.5l-6.4 6.4c-2.2-1.8-5-2.9-8.1-2.9a12.97 12.97 0 0 0-12.35 8.91l-7.4-5.66z" fill="#ea4335"/><path d="M44.5 20c.3 1.3.5 2.7.5 4 0 14-10 22-21 22-8.7 0-16.17-4.98-19.75-12.26l7.4-5.67C13.35 33.27 18.22 37 24 37c6.1 0 10.7-3.1 11.8-8.5H24V20h20.5z" fill="#34a853"/><path d="M44.5 20c.3 1.3.5 2.7.5 4 0 7.17-2.62 12.77-6.66 16.52l-7.03-5.44a9.91 9.91 0 0 0 4.49-6.58H24V20h20.5z" fill="#4285f4"/></svg>