<svg xmlns="http://www.w3.org/2000/svg" xmlns:svg="http://www.w3.org/2000/svg" id="brand-logomark" width="100.1" height="88.6" version="1.1" viewBox="0 0 100.1 88.6"><metadata id="metadata11"/><g id="g4" transform="translate(-16.5,-20.8)"><path style="fill:#f5c400;fill-opacity:1" id="path2" d="M 38.8,40.7 A 63.26,63.26 0 0 0 44.9,65 C 51,76.9 59.5,84.5 66.5,87.5 73.7,84 80.7,78 84.6,71.6 H 64.7 C 59.5,67.2 55.5,60 54.5,51.6 h 59.2 a 90.55,90.55 0 0 1 -15,33.8 71,71 0 0 1 -31.9,24 H 66.2 C 45.1,100.8 33.8,87.3 26.3,72.1 21.5,62.3 16.5,44.6 16.5,20.8 h 100.1 a 153.89,153.89 0 0 1 -1.3,20 H 38.8 Z"/></g></svg>