<svg xmlns="http://www.w3.org/2000/svg" xmlns:svg="http://www.w3.org/2000/svg" id="Layer_1" width="117.044" height="117" x="0" y="0" version="1.1" viewBox="0 0 117.044 117" xml:space="preserve"><metadata id="metadata39"/><style id="style2" type="text/css">.st0{fill:#ad29b6}</style><g id="g32" transform="translate(-383.7,-52.3)"><path style="fill:#ad29b6" id="path6" d="M 499.5,98.2 H 458.6 L 434.7,122 h 32.8 c -4.3,9.6 -13.9,16.3 -25.1,16.3 -15.2,0 -27.5,-12.3 -27.5,-27.5 0,-15.2 12.3,-27.5 27.5,-27.5 5.5,0 10.6,1.6 14.9,4.4 l 22.1,-22.1 c -10.1,-8.3 -23,-13.3 -37.2,-13.3 -32.3,0 -58.5,26.2 -58.5,58.5 0,32.3 26.2,58.5 58.5,58.5 32.3,0 58.5,-26.2 58.5,-58.5 0.2,-4.3 -0.3,-8.6 -1.2,-12.6" class="st0"/></g></svg>