<?xml version="1.0" encoding="UTF-8" standalone="no"?>
<svg
   xmlns:dc="http://purl.org/dc/elements/1.1/"
   xmlns:cc="http://creativecommons.org/ns#"
   xmlns:rdf="http://www.w3.org/1999/02/22-rdf-syntax-ns#"
   xmlns:svg="http://www.w3.org/2000/svg"
   xmlns="http://www.w3.org/2000/svg"
   height="105.8"
   width="121.9"
   xml:space="preserve"
   enable-background="new 0 0 456.5 105.7"
   viewBox="0 0 121.9 105.80001"
   y="0px"
   x="0px"
   id="Layer_1"
   version="1.1"><metadata
     id="metadata45"><rdf:RDF><cc:Work
         rdf:about=""><dc:format>image/svg+xml</dc:format><dc:type
           rdf:resource="http://purl.org/dc/dcmitype/StillImage" /><dc:title></dc:title></cc:Work></rdf:RDF></metadata><defs
     id="defs43" /><path
     style="fill:#231f20"
     id="path22"
     d="m 117.2,55.6 c 2.3,1.7 4.7,2.9 4.7,5.6 0,0.8 -1,1.6 -3.2,1.6 -1.7,0 -3.5,-0.5 -4.4,-1.7 -0.7,-0.9 0.3,-2.2 -0.3,-3.1 -0.5,-0.8 -1.5,-0.4 -2.2,-0.8 -0.8,-0.5 -0.9,-0.8 -1.5,-2 -0.6,-1.4 -2.7,-3.7 -5.2,-6.2 -2.1,-2.1 -4.3,-3.2 -5.3,-3.1 -0.7,0.1 -0.9,0.1 -1.6,0.1 -1.8,0 -3.3,1.7 -5.9,2.8 -1.8,0.8 -2.8,1.2 -3.9,1.4 l -0.4,0.5 2.3,-0.1 c 2.2,0 5,-0.3 7.2,-0.3 2.2,0 3.3,2 4.2,4.1 1.7,4.2 4.2,10.3 7.3,15.4 1.5,2.4 2.7,3.9 2.7,6.9 0,0.9 -0.1,2.2 -1.3,2.2 -1.7,0 -6,-1.8 -6,-3.7 0,-1.5 1.2,-2.1 1.2,-3.6 0,-0.9 -1.4,-0.8 -1.7,-1.6 -1.1,-4.5 -2.4,-9 -4.9,-11.7 -1.3,-1.4 -1.5,-2 -2.8,-2 -0.7,0 -1.4,0.2 -2,0.4 -3.5,1.3 -8.2,5.3 -14.1,7 -2.2,0.7 -2.6,-0.6 -4.9,-0.2 h 0.2 c -1.9,0.4 -3.3,1.5 -5.9,2.2 -3.5,1 -9.6,1.5 -14.5,0.8 -3.5,-0.5 -8,-1.2 -9.9,-1.1 -1.5,4.2 -4.6,9.8 -9.3,12 -2.5,1.1 -3.2,2.6 -2.5,5.4 0.9,3.5 4,6 5.6,9 1.5,2.5 3.9,6.6 6.4,7.9 2.5,1.3 4.1,3.2 4.1,4.9 0,0.8 -0.3,1.2 -1.1,1.2 h -5.1 c -0.8,0 -1.2,-0.5 -1.3,-0.8 -0.7,-1.3 -0.2,-2.5 -1.2,-3.7 -0.7,-0.8 -1.2,-0.6 -2.1,-1.3 -1.5,-1.5 -0.4,-2.3 -1.5,-4.2 -3.2,-5.1 -4.6,-6.3 -7.3,-10 -1.5,-1.9 -3.4,-2.9 -3.4,-5.4 0,-3.1 3.1,-3.6 3,-6.7 -2,1.5 -4.3,2.6 -7.9,3.1 -0.5,0.1 -1.7,1 -2.2,1.6 -1.2,1.2 -1.7,2.5 -1.9,4.3 -0.4,4.2 -1.2,8.4 -0.7,12.6 0.7,2.7 1.2,3.6 3.4,5.1 1.4,0.9 3,2.2 3.2,4.2 0,0.5 -0.2,1.2 -0.9,1.2 h -5.5 c -0.5,0 -1,-0.4 -1.2,-0.7 -0.6,-1.1 -0.2,-1.8 -0.5,-3.1 -0.5,-2.5 -3.4,-2.4 -3.4,-5 0,-0.8 0.5,-1.8 0.5,-3.4 0.2,-3.5 1.2,-9.3 0.2,-16.2 -0.5,-4 3.7,-4.2 5.9,-7.7 1.3,-2 0.9,-1.2 1.7,-2.6 0.8,-1.5 0.6,-2.6 0.5,-3.5 0,-1.2 -1.2,-3.6 -0.4,-8.6 0.3,-2.2 1.4,-4.5 2.9,-6.4 0,-0.1 0,-0.4 -0.5,-0.4 -2.2,0.2 -2.2,-0.4 -3.6,-0.4 -1.4,0 -2.5,1.2 -2.7,1.8 -0.7,-0.3 -1,-1.1 -1,-1.5 0,-0.8 0.2,-1.5 0.9,-2.2 0.3,-0.3 0,-0.5 -0.4,-0.5 -1.7,0 -3.3,2.1 -3.7,3.5 -1,-0.2 -1.1,-1.5 -1.5,-1.5 -0.5,0 -0.8,0.7 -0.8,1.4 0,4.9 8,6 8,12.5 0,7.5 -9,5.9 -9,8.6 0,0.5 0.4,1 1.1,1.3 -0.3,0.7 -1.1,1 -1.9,1 C 6,72.2 4.5,70.7 4.5,68.7 4.5,64.6 10,64.5 10,61.4 10,59.9 9.1,59.5 8.2,58.8 3,55.1 0,51.4 0,45.3 0,38.7 4.6,33.7 10.5,33.7 c 8.6,0 8.9,10 16.7,10.8 2.9,-2 6.4,-3.2 9.8,-3.2 5.1,0 7.3,1.3 12.7,1.3 2.2,0 5.8,-0.6 10.1,-3.6 1.6,-1.1 2.3,-1.3 3.8,-2.6 3.4,-2.9 6.6,-8.6 6.6,-12.7 v 0.2 c 0,-1.3 -0.3,-2.1 -0.9,-2.1 -1.8,0 -3.5,1.7 -5.3,3.5 -1.2,1.2 0.6,1.8 -2,3.2 -0.9,0.5 -2,-0.4 -3,-0.4 -2.1,0 -3,-2.5 -3,-4.6 0,-1.1 0.8,-1.4 1.3,-2.4 1.1,-2.1 1,-2.9 2,-4.9 0.6,-1.4 1.7,-2.3 1.6,-3.3 0,-0.4 -0.3,-0.6 -0.3,-1 0,-2.1 2.8,-3.5 2.8,-5.6 0,-1.2 -1.3,-1.7 -1.6,-2.6 -0.3,-0.9 -0.1,-1.2 -0.1,-1.2 0.1,-0.2 0.2,-0.2 0.4,-0.2 1.1,0 1.5,1.2 2.5,1.8 C 64.7,2.7 64.2,2.4 64.2,1.4 64.2,0.9 64.1,0 64.7,0 c 0.7,0 0.6,0.9 1.2,1.4 0.8,0.6 1.5,0.5 2.3,1.1 1.1,0.7 1.7,1.9 2.1,1.9 1.1,0.2 1.4,-1.2 0.8,-1.9 1.2,-0.1 2.5,0.9 4.1,0.9 2.5,0 3.4,0.7 3.9,1.1 1.6,1.4 1.9,2.5 3.7,2.5 0.9,0 1.4,-0.8 1.6,-1.1 1.2,0.9 1.3,3.2 0,5.2 0.5,1.6 2.8,1.8 3.9,2.6 1.1,0.8 0.9,1.2 1.7,1.6 0.6,0.4 1.2,0.3 1.6,0 0.5,2.2 -1.3,4.1 -3.6,4.4 0.1,2.8 3,4.5 4.3,5.2 -0.8,1.7 -2.2,2.2 -3.4,2.5 0.4,1.7 2.2,4.2 1.3,6.4 -0.8,-0.4 -2.1,0 -2.1,1.2 0,1.4 1.8,2.1 -0.1,3.1 -0.8,0.5 -1,1.7 0.5,2.9 2,-0.5 3.9,-0.5 6.2,-0.5 1.4,0 3.2,-0.4 4.5,-0.4 2.3,0 3.7,0.9 5.4,2.8 4.3,4.5 8.2,9.4 12.6,12.7" /><path
     style="fill:#6d6e70"
     id="path24"
     d="m 2.7,43.3 c 0.9,0 2.6,-5.1 6.1,-5.1 1,0 1.2,0.4 1.2,0.8 0,0.7 -1.2,1.3 -1.2,2.2 0,0.2 0.1,0.4 0.4,0.4 0.8,0 1.5,-1.9 4.9,-1.9 0.9,0 1.7,0.1 2.5,0.3 0.4,0.1 1.2,0.5 0.8,-0.6 -0.8,-2.4 -3.5,-4.6 -7.2,-4.6 -3.7,0 -7.6,3.3 -8,7.3 0.1,0.7 0.1,1.2 0.5,1.2" /><path
     style="fill:#6d6e70"
     id="path26"
     d="m 66.7,11.5 c -1,-0.4 -1.2,-0.9 -0.8,-2.2 0.2,-1.3 0.3,-1.9 -0.3,-2 -0.5,-0.2 -1.2,0.2 -1.9,0.9 -0.6,0.8 -1.6,1.9 -1.9,2.7 -0.3,1.1 1,0.9 0.1,2.7 -1.6,2.9 -2,3.6 -2.8,5.6 -0.7,2.2 -1.2,2.5 -1.6,3.2 -0.5,0.6 0.6,0.7 1.8,0.3 1.3,-0.5 1.4,1.1 0.9,2.2 -0.4,0.8 -0.1,1.1 1,0.2 1,-0.8 -0.5,-1.4 -0.2,-3.9 0.4,-2.2 0.8,-3.5 2.2,-5.7 1.2,-1.9 2.2,-3.3 4.2,-2.6 0.8,0.4 0.4,-0.9 -0.7,-1.4" /><path
     style="fill:#6d6e70"
     id="path28"
     d="m 109.6,77 c 0.4,0 0.5,-0.5 0.5,-1 0,-1.1 -0.6,-2.7 -1.5,-3.4 -0.2,1.6 -1,2.7 -1,3.4 0,0.5 1.5,1 2,1" /><path
     style="fill:#6d6e70"
     id="path30"
     d="m 119.2,61.5 c 0.6,0 1.5,-0.2 1.5,-0.7 0,-0.9 -1.4,-2.5 -2.6,-2.9 0.8,1.6 0,3.6 1.1,3.6" /><path
     style="fill:#6d6e70"
     id="path32"
     d="m 76.8,40.4 c 8.7,4 8.2,11.3 8.9,9.5 C 86,49.1 87.2,45.5 84.1,42 81.7,39.2 80.8,39.9 81.7,37.6 85.5,28.4 87.9,14.5 76.5,9.7 75.2,9.2 74.1,9.2 74.1,9.4 c 0,0.2 1.2,0.6 2.7,1.6 7.6,5 5.2,18.7 -1.7,25.3 -2.2,2.3 -1.1,2.8 1.7,4.1" /><path
     style="fill:#6d6e70"
     id="path34"
     d="m 47,104.4 c 0.6,0 0.3,-0.9 0.1,-1.3 -0.5,-0.9 -1.5,-1.5 -2.4,-1.9 0.2,0.9 0.3,3.2 1.2,3.2 H 47" /><path
     style="fill:#6d6e70"
     id="path36"
     d="m 20.7,104.4 c 0.6,0 0.2,-0.9 -0.1,-1.3 -0.5,-0.9 -1.6,-1.5 -2.5,-1.9 0.2,0.9 0.4,3.2 1.3,3.2 h 1.3" /><path
     style="fill:#6d6e70"
     id="path38"
     d="m 52.6,52.1 c 4.8,-0.5 5.6,-1.6 6.4,-5.2 0.4,-1.7 1.6,-3.5 2.7,-4.6 0.7,-0.8 1.4,-1.4 2.1,-2.5 0.2,-0.5 0.4,-0.8 0,-0.7 -0.5,0.4 -2.2,1.5 -2.9,2 -3.4,2.4 -8.6,3.5 -10.6,3.5 -4.4,0 -8.2,-1.3 -12.2,-1.3 -12,0 -16.5,9.4 -15.9,14.9 0.1,0.9 0.2,0.9 0.5,0.9 0.8,0 1.6,-3.2 4.6,-6.1 4.4,-4.2 9.2,-6.6 16,-6.6 4.9,0 7,1.6 7,2.2 0,1.2 -2.1,1.3 -1.9,2.5 -0.1,0.5 1,1.4 4.2,1" /></svg>