<svg xmlns="http://www.w3.org/2000/svg" xmlns:svg="http://www.w3.org/2000/svg" style="display:block" id="svg" width="400.064" height="400.032" version="1.1"><metadata id="metadata4493"/><g id="svgg" transform="translate(-65.315718,-52.158273)"><path style="fill:#db1e29;fill-rule:evenodd;stroke:none" id="path1" d="m 167.34772,52.702273 c -48.89,6.191 -87.083002,40.704996 -99.434002,89.855997 l -2.11,8.4 -0.244,150.616 -0.244,150.616 150.616002,-0.244 150.616,-0.244 8.4,-2.11 c 45.307,-11.385 76.449,-42.527 87.834,-87.834 l 2.11,-8.4 0.244,-150.6 0.244,-150.599997 -147.816,0.12 c -81.299,0.066 -148.896,0.256 -150.216,0.424 m 185.588,45.387996 c 6.502,6.894001 15.111,43.506001 12.482,53.079001 -3.934,14.319 -23.972,16.581 -31.159,3.516 -6.041,-10.979 5.952,-59.327001 14.716,-59.327001 0.761,0 2.544,1.229 3.961,2.732 m -44.533,47.336001 c 0.995,0.698 6.18,7.088 11.52,14.2 21.323,28.398 31.587,33.366 45.243,21.899 10.732,-9.013 18.201,2.857 25.316,40.233 3.717,19.53 10.699,76.312 9.538,77.568 -0.188,0.202 -7.855,-3.376 -17.038,-7.951 l -16.698,-8.319 -0.545,-3.638 c -1.893,-12.621 -10.894,-28.584 -23.75,-42.118 -71.728,-75.51 -177.546,-44.454 -161.763,47.475 10.72,62.436 92.585,89.402 208.397,68.643 12.565,-2.252 12.192,-2.417 10.703,4.75 -3.35,16.126 -13.094,25.154 -28.951,26.822 -9.559,1.006 -205.057,0.982 -213.825,-0.026 -15.785,-1.814 -25.306,-11.085 -28.438,-27.694 -2.007,-10.639 -1.354,-182.111 0.717,-188.25 3.709,-10.995 12.212,-18.311 24.711,-21.258 7.319,-1.725 76.523,-1.74 86.397,-0.018 15.758,2.747 35.859,13.498 52.611,28.137 l 5.2,4.544 0.492,-12.734 c 0.808,-20.88 3.553,-26.894 10.163,-22.265"/></g></svg>