<svg xmlns="http://www.w3.org/2000/svg" id="f4e937f0-60dd-45a9-b4ba-2cf1d78ddb08" width="189.625" height="168.325"><style id="style2"/><g id="g50" transform="translate(-.675 -.8)"><linearGradient id="SVGID_1_" gradientUnits="userSpaceOnUse" x1="1468.454" y1="-2300.509" x2="1564.468" y2="-2219.888" gradientTransform="scale(1 -1) rotate(-45 3471.96 467.631)"><stop offset=".001" id="stop24" stop-color="#d3368a"/><stop offset=".285" id="stop26" stop-color="#dd4c7e"/><stop offset=".679" id="stop28" stop-color="#ea5c7b"/><stop offset="1" id="stop30" stop-color="#ff7575"/><stop offset="1" id="stop32" stop-color="#ff7575"/></linearGradient><path d="M173.9 17.6C152.3-4 117.1-4.1 95.4 17.5c21.4 21.5 21.3 56.4-.1 77.9-2.2 2.2-5 3.3-6.7 5.7-7.3 10.3-.1 16.7 8.5 25.5l16.5 17c4.6 4.5 5.4 7.5 7.1 6L174 96.3c21.7-21.7 21.8-56.9-.1-78.7.1 0 .1 0 0 0z" id="path35" fill="url(#SVGID_1_)"/><linearGradient id="SVGID_2_" gradientUnits="userSpaceOnUse" x1="-482.763" y1="-1040.454" x2="-390.694" y2="-1046.892" gradientTransform="matrix(1 0 0 -1 483.82 -994.574)"><stop offset="0" id="stop37" stop-color="#038ef5"/><stop offset=".168" id="stop39" stop-color="#038ef5"/><stop offset=".377" id="stop41" stop-color="#4570fc"/><stop offset="1" id="stop43" stop-color="#4869fd"/></linearGradient><path d="M95.6 17.1c-21.8-21.8-57-21.7-78.7.1C-4.8 39-4.7 74.3 17 96l26.2-26.2-.1-.1c-7.2-7.2-7.2-19.1 0-26.3 7.2-7.2 19.1-7.2 26.3 0l.1.1L95.1 18l.7-.7z" id="path46" fill="url(#SVGID_2_)"/><path d="M88.9 116.3c-3.7-3.9-3.6-10.1.2-13.8.2-.2.3-.3.5-.4 3.3-2.9 6.5-6.3 9.2-9.7 17.6-21.1 17.3-51.8-.7-72.6-.8-.9-1.7-1.8-2.4-2.5L69.5 43.4c7.2 7.2 7.2 19.1 0 26.3-7.2 7.2-19.1 7.2-26.3 0L17 96l69.4 69.3c5.1 5.1 13.4 5.1 18.5 0l16.5-16.5" id="path48" fill="#32325d"/></g></svg>