<svg xmlns="http://www.w3.org/2000/svg" height="474.92" width="3417.32" xml:space="preserve"><path style="fill:#ff424d;fill-opacity:1;fill-rule:nonzero;stroke:none" d="M1863.2 2250.3c0 314.6-212.99 585.63-542.06 585.63H783.977V1664.84h537.163c329.07 0 542.06 270.86 542.06 585.46zM0 3474.71h1417.88c750.16 0 1234.17-566.28 1234.17-1224.41 0-658.13-484.01-1224.23-1234.17-1224.23H783.977V87.14H0v3387.57M4921.7 2506.86l-416.21-1393.82h822.66zM5652.51 87.14l-130.54 411.34H4316.9L4186.18 87.14h-837.3l1209.94 3387.57h721.05L6504.29 87.14h-851.78M7820.55 2797.23H7056.1v677.48h2317.93v-677.48h-769.51V87.14h-783.97v2710.09M12456.8 2250.3c0 314.6-213 585.63-542.1 585.63h-537.2V1664.84h537.2c329.1 0 542.1 270.86 542.1 585.46zm-1863.2 1224.41h1422.9c750 0 1234-566.28 1234-1224.41 0-474.25-251.7-895.17-672.8-1093.69l677.7-1069.47h-909.8l-600.3 938.93h-367.8V87.14h-783.9v3387.57M15365.4 2845.52v-769.34h1282.4v-614.73h-1282.4V716.352h1282.4V87.141h-2066.4V3474.71h2066.4v-629.19h-1282.4M20708.2 1780.93c0 556.52-377.6 1074.34-992.1 1074.34-619.5 0-992.1-517.82-992.1-1074.34 0-556.52 372.6-1074.352 992.1-1074.352 614.5 0 992.1 517.832 992.1 1074.352zm-2787.7 0c0 929.16 667.9 1780.93 1795.6 1780.93 1122.6 0 1790.5-851.77 1790.5-1780.93C21506.6 851.77 20838.7 0 19716.1 0c-1127.7 0-1795.6 851.77-1795.6 1780.93M24850.8 1267.98v2206.73h779.1V87.14h-817.8l-1219.7 2177.8V87.14h-784v3387.57h817.8l1224.6-2206.73" transform="matrix(.13333 0 0 -.13333 0 474.92)"/></svg>