<svg viewBox="0 0 24 24" xmlns="http://www.w3.org/2000/svg"><g fill="none" fill-rule="evenodd"><path d="M8.62 23.47c1.06.34 2.63-.86 3.8-.86C17.63 18.92 23 19.07 23 13A11 11 0 1 0 8.62 23.47z" fill="#FFF"/><path d="M0 12a12 12 0 0 0 7.63 11.17c-.1-.95-.2-2.4.04-3.44l1.4-5.96s-.36-.72-.36-1.78c0-1.67.97-2.92 2.18-2.92 1.02 0 1.51.77 1.51 1.7 0 1.02-.65 2.56-.99 3.99-.28 1.2.6 2.17 1.78 2.17 2.13 0 3.77-2.25 3.77-5.5 0-2.87-2.06-4.88-5.01-4.88a5.2 5.2 0 0 0-5.42 5.2c0 1.04.4 2.14.9 2.75.09.11.1.22.07.34l-.33 1.36c-.05.22-.17.27-.4.16-1.5-.7-2.44-2.89-2.44-4.65 0-3.78 2.75-7.26 7.93-7.26 4.16 0 7.4 2.97 7.4 6.93 0 4.14-2.6 7.46-6.23 7.46-1.21 0-2.36-.63-2.75-1.37l-.74 2.85c-.27 1.04-1 2.35-1.5 3.14A12 12 0 1 0 0 12z" fill="#e60023"/></g></svg>