<svg viewBox="0 0 180 70" xmlns="http://www.w3.org/2000/svg"><path d="M51.7 23.4c-4.6-4-11-6.4-18.6-6.4C13.4 17 0 32 0 32l3.8 6s2 .2 1-3.3c1-1.8 2.8-4.2 6.4-7v39.6c-1.6.5-3.6 1.3-2.2 2.7h10.8c1.4-1.4-.8-2.3-2.2-2.7V58s7.5 2.9 15.5 2.9c7 0 13.4-2.1 18.2-5.9C56 51.3 59 45.7 59 39.4a21 21 0 0 0-7.4-16zM46 51.9c-3.3 3.2-8 5.3-13.6 5.3-6.2 0-11.4-1.2-14.8-2.9V24.6c3.8-2.6 9.9-4.3 14.8-4.3 6 0 10.7 2.3 13.8 5.7 3.2 3.4 5 8 5 13.3 0 5.1-2 9.4-5.2 12.6zM68.6 17h-2.2c-1 0-1.7.8-1.7 1.8v40.5c0 1 .8 1.7 1.7 1.7h2.2c1 0 1.8-.8 1.8-1.7V18.8c0-1-.8-1.8-1.8-1.8zm57.7 0h-2.2c-1 0-1.8.8-1.8 1.8v40.5c0 1 .8 1.7 1.8 1.7h2.2c1 0 1.8-.8 1.8-1.7V18.8c0-1-.8-1.8-1.8-1.8zm51.9 0h-2c-1.7 0-2.1.2-2.9 1.7l-16.7 32.9-16.7-33c-.7-1.4-1.1-1.6-2.7-1.6H135c-1.5 0-2.3.7-1.5 2.4l20.6 40c.5 1 1.4 1.6 2.4 1.6s2-.6 2.5-1.5l20.6-40.1c.8-1.7 0-2.4-1.5-2.4zm-69.3 42.6c.8 1 1.4 1.4 3 1.4h3.3c2.1 0 1.4-1 .8-1.7l-16-20.2 16.5-20.4c.6-.8 1.3-1.7-.7-1.7h-3.3c-1.7 0-2.3.4-3 1.5-1 1-13.1 16-13.1 16l-13-16c-1-1-1.5-1.5-3.1-1.5H77c-2.1 0-1.4 1-.8 1.7l16.5 20.4s-15 18.3-16.4 20.2c-.6.8-1.3 1.7.8 1.7h3.3c1.6 0 2.2-.4 3-1.4l13-16 12.5 16zM67.5 0A4.5 4.5 0 0 0 63 4.6c0 1.3.5 2.4 1.4 3.2.8 1 2 1.3 3.2 1.3a4.5 4.5 0 0 0 4.6-4.5A4.5 4.5 0 0 0 67.5 0zm57.7 0a4.5 4.5 0 0 0-4.6 4.6c0 1.3.4 2.4 1.3 3.2.9 1 2 1.3 3.3 1.3a4.5 4.5 0 0 0 4.6-4.5 4.5 4.5 0 0 0-4.6-4.6z" fill="#009cff" fill-rule="evenodd"/></svg>