<svg xmlns="http://www.w3.org/2000/svg" xml:space="preserve" version="1.0" viewBox="0 0 64.668 65.17"><path fill="#c91f6f" d="M57.578 38.723a8.515 8.515 0 0 1-6.049 2.506h-5.106l-.05-.001c-.221.001-.803.01-1.566.178-.753.177-1.752.483-2.676 1.385a4.758 4.758 0 0 0-1.209 2.144 6.312 6.312 0 0 0-.192 2.1v4.993a8.508 8.508 0 0 1-2.506 6.049 8.501 8.501 0 0 1-6.048 2.505 8.505 8.505 0 0 1-6.048-2.505 8.514 8.514 0 0 1-2.505-6.049v-4.995c.01-.115.017-.274.017-.472 0-.404-.031-.964-.208-1.625-.179-.654-.515-1.446-1.21-2.145-.924-.901-1.922-1.207-2.676-1.384a7.411 7.411 0 0 0-1.622-.177h-4.785a8.518 8.518 0 0 1-6.048-2.506 8.526 8.526 0 0 1-2.506-6.047 8.523 8.523 0 0 1 2.506-6.048 8.522 8.522 0 0 1 6.048-2.506h4.839a7.305 7.305 0 0 0 1.564-.177c.754-.176 1.752-.482 2.679-1.386.695-.697 1.032-1.49 1.21-2.145.176-.661.208-1.22.208-1.625a5.66 5.66 0 0 0-.017-.473V13.14a8.516 8.516 0 0 1 2.505-6.049 8.511 8.511 0 0 1 6.048-2.505 8.514 8.514 0 0 1 6.048 2.505 8.513 8.513 0 0 1 2.506 6.049v5.172a6.294 6.294 0 0 0 .192 2.101 4.752 4.752 0 0 0 1.212 2.145c.923.903 1.922 1.208 2.677 1.385a7.3 7.3 0 0 0 1.564.177h5.154a8.52 8.52 0 0 1 6.049 2.506 8.51 8.51 0 0 1 2.505 6.048 8.509 8.509 0 0 1-2.504 6.049m7.09-6.048c0-7.259-5.881-13.139-13.139-13.141h-2.434v-.009H45.89a.567.567 0 0 1-.566-.567v-3.206h-.007V13.14C45.315 5.88 39.433 0 32.176 0c-7.065.001-12.821 5.573-13.125 12.563v6.396a.566.566 0 0 1-.565.567h-3.208v.009h-2.139C5.882 19.536.001 25.417 0 32.676c.001 7.162 5.73 12.979 12.855 13.132h5.613c.313 0 .566.255.566.567v3.207h.002v2.446c.002 7.258 5.88 13.14 13.14 13.142 7.257-.002 13.14-5.884 13.142-13.142v-2.446h.007v-3.207c0-.312.253-.567.566-.567h5.924c7.126-.154 12.853-5.971 12.853-13.133"/></svg>