<svg xmlns="http://www.w3.org/2000/svg" xml:space="preserve" version="1.0" viewBox="0 0 150 39.27"><path fill="#892063" d="M11 24.8c3.2 0 4.79-3.34 4.79-6.2 0-2.91-1.58-6.3-4.8-6.3-3.29 0-4.83 3.09-4.83 6.08 0 3 1.46 6.42 4.84 6.42M0 17.28C0 12.8 2.88 6.66 11.4 6.66c6.63 0 10.55 6.2 10.55 12.2 0 5.81-3.93 11.6-10.14 11.6a8.78 8.78 0 0 1-5.65-2.15v7.53c0 2.06-1.28 3.43-3.08 3.43S0 37.89 0 35.84ZM27.05 3.42c0-2.05 1.28-3.42 3.08-3.42s3.08 1.37 3.08 3.42v23.35c0 2.06-1.29 3.43-3.08 3.43-1.8 0-3.08-1.37-3.08-3.43V3.42M39.2 10.34c0-2.06 1.28-3.42 3.08-3.42s3.08 1.36 3.08 3.42v11a3.84 3.84 0 0 0 3.98 3.98 3.84 3.84 0 0 0 3.98-3.98v-11c0-2.06 1.29-3.42 3.08-3.42 1.8 0 3.08 1.36 3.08 3.42v11.12c0 5.48-3.63 9-10.14 9-6.5 0-10.14-3.52-10.14-9V10.34M106.45 27.03c0 2.05-1.28 3.42-3.08 3.42s-3.08-1.37-3.08-3.42v-11a3.84 3.84 0 0 0-3.98-3.98 3.84 3.84 0 0 0-3.98 3.98v11c0 2.05-1.28 3.42-3.08 3.42s-3.08-1.37-3.08-3.42V15.9c0-5.48 3.63-8.99 10.14-8.99 6.5 0 10.14 3.51 10.14 9v11.12M78.53 13.85c-1.16 0-3.51-1.8-5.52-1.8-1.11 0-2.1.51-2.1 1.71 0 2.87 10.7 2.44 10.7 9.46 0 4.1-3.47 7.23-8.78 7.23-3.46 0-8.6-1.97-8.6-4.75 0-.94.94-2.74 2.66-2.74 2.4 0 3.46 2.1 6.37 2.1 1.89 0 2.44-.6 2.44-1.76 0-2.82-10.7-2.4-10.7-9.45 0-4.28 3.47-7.2 8.35-7.2 3.04 0 7.7 1.42 7.7 4.46 0 1.41-1.07 2.74-2.52 2.74M126.72 16.5c-.34-2.7-2.06-4.7-4.92-4.7-2.74 0-4.58 2.1-4.88 4.7h9.8m-9.67 4.11c.42 3.04 2.95 4.45 5.81 4.45 3.17 0 5.36-2.48 6.98-2.48 1.33 0 2.53 1.33 2.53 2.65 0 2.65-5.48 5.22-10.06 5.22-6.93 0-11.55-5.05-11.55-11.85 0-6.25 4.53-11.94 11.04-11.94 6.67 0 11.08 6.08 11.08 11.21 0 1.84-.81 2.74-2.7 2.74h-13.13zM139.13 12.56h-1.37c-1.67 0-2.7-1.02-2.7-2.7 0-1.53 1.16-2.69 2.7-2.69h1.37V3.5c0-2.06 1.28-3.42 3.08-3.42s3.08 1.36 3.08 3.42v3.68h1.76c1.58 0 2.95.73 2.95 2.7 0 1.92-1.37 2.7-2.96 2.7h-1.75v14.2c0 2.06-1.28 3.42-3.08 3.42s-3.08-1.36-3.08-3.42v-14.2"/></svg>