<svg xmlns="http://www.w3.org/2000/svg" fill="none" viewBox="0 0 1000 254.7"><path fill="#6d4aff" d="M205.7 250.8v-99.5c0-40.6 23.7-73 71-73a90.8 90.8 0 0 1 22.6 2.6v41c-5.3-.5-10-.5-12.2-.5-25 0-35.8 11.5-35.8 34.9v94.5zM313 166.4c0-50 37.6-88 90-88s90 38 90 88-37.6 88.3-90 88.3-90-38.4-90-88.3zm135.2 0c0-28.4-19-48.5-45.2-48.5-26.2 0-45.2 20-45.2 48.5 0 28.7 19 48.5 45.2 48.5 26.2 0 45.2-19.8 45.2-48.5zm176.9-48.2h-49.2v62.9c0 21.9 8 32 30.5 32 2.2 0 7.6 0 14.4-.4v37c-9.3 2.5-17.6 4-26.6 4-38 0-63.8-23-63.8-66.5v-69h-30.5V82h7.6a22.9 22.9 0 0 0 22.9-23V25h45.5v57h49.2v36.3zm13.6 48.2c0-50 37.7-88 90-88 52.5 0 90.1 38 90.1 88s-37.7 88.3-90 88.3c-52.4 0-90-38.4-90-88.3zm135.3 0c0-28.4-19-48.5-45.2-48.5-26.2 0-45.2 20-45.2 48.5 0 28.7 19 48.5 45.2 48.5 26.2 0 45.2-19.8 45.2-48.5zm68.5 84.4v-96c0-44.5 28.3-76.4 79-76.4 50.2 0 78.5 32 78.5 76.5v95.9h-45.2v-92.3c0-24.8-11.1-40.3-33.4-40.3-22.2 0-33.3 15.5-33.3 40.3v92.3h-45.6ZM0 185.5v65.2h45.8v-62.4a23 23 0 0 1 22.9-23h47a82.5 82.5 0 0 0 58.3-24.2 82.7 82.7 0 0 0 0-116.9A82.5 82.5 0 0 0 115.6 0H0v81.6h45.8V43.1h66.7a39 39 0 0 1 39.1 39.1 39.1 39.1 0 0 1-39 39.2H64a64 64 0 0 0-59.2 39.5A64.1 64.1 0 0 0 0 185.5Z"/></svg>