<svg xmlns="http://www.w3.org/2000/svg" viewBox="0 0 533.33 84.68"><g fill="#8b89cc"><path d="M118.25 38.39c0 4.84-1.23 8.16-3.76 10.14-2.18 1.7-5.33 2.5-9.92 2.5h-7.72V26.4h7.72c9.2 0 13.68 3.92 13.68 11.98zm4.78-16.31c-4.55-3.44-11.07-5.19-19.4-5.19H85.35v67.67h11.5V60.64h6.97c8.07 0 14.43-1.71 18.9-5.09 5.05-3.8 7.6-9.6 7.6-17.26 0-7.09-2.45-12.55-7.3-16.21M161.3 31.08c-3.2 0-6.04 1-8.46 3a17.72 17.72 0 00-3.8 4.52l-.7-6.39h-9.95v52.35h11.22V54.24c.77-3.04 3.66-12.13 10.65-12.13 1.65 0 2.58.16 4.05.53l1.3.32 2.07-10.99-1.15-.29c-1.54-.38-3.45-.6-5.23-.6M191.65 75.04c-7.8 0-11.6-5.8-11.6-17.74 0-6.14 1.06-10.75 3.13-13.72 1.94-2.77 4.74-4.12 8.57-4.12 3.76 0 6.52 1.34 8.43 4.1 2.04 2.95 3.07 7.54 3.07 13.64 0 12-3.8 17.84-11.6 17.84zm.1-45.1c-7.23 0-13.27 2.67-17.45 7.73-4 4.84-6.13 11.63-6.13 19.63 0 8.14 2.1 14.96 6.09 19.73 4.11 4.93 10.13 7.53 17.4 7.53 7.18 0 13.19-2.67 17.36-7.73 4-4.84 6.11-11.63 6.11-19.63 0-8.15-2.08-14.97-6.03-19.72-4.1-4.93-10.1-7.54-17.35-7.54M248.1 72.87c-2.26 1.39-4.05 1.98-5.96 1.98-2.97 0-4.7-1-4.7-6.11V40.22h11.36l1.44-9.14h-12.8V18.62l-11.21 1.35v11.1h-7.95v9.15h7.95v28.61c0 10 5.35 15.73 14.68 15.73 4.54 0 8.77-1.3 11.92-3.66l.88-.66-4.49-8.07-1.12.7M278.07 75.04c-7.8 0-11.6-5.8-11.6-17.74 0-6.14 1.06-10.75 3.13-13.72 1.94-2.77 4.74-4.12 8.57-4.12 3.76 0 6.52 1.34 8.43 4.1 2.04 2.95 3.07 7.54 3.07 13.64 0 12-3.8 17.84-11.6 17.84zm.1-45.1c-7.23 0-13.27 2.67-17.45 7.73-4 4.84-6.13 11.63-6.13 19.63 0 8.14 2.1 14.96 6.09 19.73 4.11 4.93 10.13 7.53 17.4 7.53 7.18 0 13.19-2.67 17.36-7.73 4-4.84 6.11-11.63 6.11-19.63 0-8.15-2.08-14.97-6.03-19.72-4.1-4.93-10.1-7.54-17.35-7.54M337.26 31.08c-5.44 0-10.83 2.3-14.9 6.25l-.5-5.12h-9.88v52.35h11.22V47.58c1.7-2.4 5.75-7.18 11.13-7.18 4.85 0 6.5 1.83 6.5 7.25v36.91h11.21V47.09c0-5.16-1.13-8.98-3.45-11.68-2.47-2.87-6.28-4.33-11.33-4.33M408.83 16.9l-13.06 45-13.51-45h-14.2l-5.6 67.66h11.05l2.64-34.54c.38-4.84.6-10.66.73-15.13l13.44 42.77h10.47l12.92-42.71c.16 4.25.43 9.85.86 15.08l2.94 34.53h11.23l-5.6-67.67h-14.3M464.4 58.84V69.5c-2.7 4-6.1 6.02-10.09 6.02-5.41 0-7.72-2.39-7.72-8 0-2.81.88-4.85 2.68-6.23 2.12-1.62 5.63-2.44 10.43-2.44zm11.22 12.07V47.46c0-7.99-3.37-17.52-19.42-17.52a49.5 49.5 0 00-17.07 3.3l-1.17.42 3.1 8.8 1.19-.42c4.48-1.58 9.08-2.49 12.63-2.49 6.85 0 9.52 2.35 9.52 8.39v2.61h-5.17c-7.78 0-13.87 1.48-18.11 4.4-4.32 2.96-6.6 7.44-6.6 12.94 0 10.13 6.84 16.67 17.43 16.67 3.25 0 6.25-.62 8.9-1.84 2.14-.98 4.01-2.33 5.6-4.03 1.79 3.36 4.87 5.29 9.35 5.86l1.02.13 2.82-8.19-1.16-.42c-1.98-.74-2.86-1.66-2.86-5.16M494.59 9.05c-2.05 0-3.92.73-5.26 2.05a7.05 7.05 0 00-2.05 5.07c0 4.18 3.07 7.22 7.3 7.22a7.5 7.5 0 005.31-2.07 7.13 7.13 0 002.1-5.15c0-4.06-3.18-7.12-7.4-7.12M488.98 84.56h11.22V32.21h-11.22v52.35M530.2 73.9l-1.2.48c-.8.32-1.7.47-2.74.47-.95 0-1.86 0-1.86-2.7V9.82l-11.22 1.34V71.4c0 4.38 1.09 7.75 3.22 10 1.98 2.1 4.76 3.17 8.26 3.17 2.53 0 5.1-.61 7.63-1.83l1.04-.5-3.12-8.33M47.17 37.13H13.01V26.86c3.47-13.74 17.08-13.93 17.08-13.93s13.62.19 17.08 13.93zM30.1.01S5.14-.81 0 26.86V45.7s.21 2.01 5.89 6.11c5.67 4.1 20.36 15.63 24.2 15.63 3.85 0 18.53-11.53 24.2-15.63 5.68-4.1 5.9-6.11 5.9-6.11V26.86C55.03-.81 30.08 0 30.08 0"/><path d="M30.1 71.7s-3.87-.38-6.9-2.48C20.17 67.12 0 52.7 0 52.7v28.54s.17 3.32 3.83 3.32h52.52c3.66 0 3.83-3.32 3.83-3.32V52.7s-20.17 14.42-23.2 16.52a16.51 16.51 0 01-6.89 2.48"/></g></svg>