<svg xmlns="http://www.w3.org/2000/svg" fill="none" viewBox="0 0 1000 1265"><path fill="url(#a)" d="M0 936v329h231V950a116 116 0 0 1 34-82 115 115 0 0 1 82-34h236a416 416 0 0 0 0-834H0v412h231V218h337a197 197 0 0 1 139 58 198 198 0 0 1 58 139 198 198 0 0 1-58 140 197 197 0 0 1-139 57H323a322 322 0 0 0-124 25 323 323 0 0 0-104 70 323 323 0 0 0-70 105A324 324 0 0 0 0 936Z"/><path fill="url(#b)" d="M346 834a346 346 0 0 0-245 102A347 347 0 0 0 0 1181v84h231V950a116 116 0 0 1 34-82 115 115 0 0 1 81-34z"/><defs><radialGradient id="a" cx="0" cy="0" r="1" gradientTransform="matrix(1272 0 0 1274 1004 -176)" gradientUnits="userSpaceOnUse"><stop stop-color="#A995FF"/><stop offset="1" stop-color="#6652F5"/></radialGradient><linearGradient id="b" x1="86.3" x2="86.3" y1="599.3" y2="358.5" gradientTransform="matrix(2 0 0 2 0 -2)" gradientUnits="userSpaceOnUse"><stop stop-color="#6D4BFD"/><stop offset="1" stop-color="#1C0554"/></linearGradient></defs></svg>