<svg xmlns="http://www.w3.org/2000/svg" fill="none" aria-labelledby="riot-logo-id-0-title" class="riot-logo grid-page-web__logo" viewBox="0 0 56 56"><defs/><circle cx="28" cy="28" r="19.28" fill="#f9f9f9" fill-opacity=".99" class="riot-logo__fist"/><path fill="#d13639" fill-rule="evenodd" d="M56 28a28 28 0 11-56 0 28 28 0 0156 0zM30.64 12.85l-18.63 8.8 2.9 13.26h3.79l-.66-9.5.6-.18 2.27 9.68h3.95l-.16-11.54.6-.2 1.98 11.74h4.2l.97-13.97.59-.16 1.03 14.13h5.53l1.93-19.42-10.89-2.64zm-3.17 27.5l-1.4-3.55 13.29.66-.56 5.7-11.33-2.8z" class="riot-logo__fill" clip-path="url(#riot-logo-id-0-clip)" clip-rule="evenodd"/><defs id="defs9"><clipPath id="riot-logo-id-0-clip"><path id="path6" d="M0 0h56v56H0V0z"/></clipPath></defs></svg>