<svg xmlns="http://www.w3.org/2000/svg" viewBox="0 0 216 198.63"><path d="M178.43 0H38.26C17.17 0 0 16.66 0 37.12v124.51c0 20.75 16.65 37 37.92 37h140.16c21.27 0 37.92-16.25 37.92-37V37.12C216 16.31 199.5 0 178.43 0zm33.31 161.62c0 18.36-14.79 32.75-33.67 32.75H37.92c-18.87 0-33.66-14.38-33.66-32.75V37.11c0-18.43 14.94-32.85 34.01-32.85h140.17c18.68 0 33.31 14.43 33.31 32.85v124.51z"/><path fill="#FFAB00" d="M178.43 4.25H38.26C19.2 4.25 4.25 18.68 4.25 37.11v124.51c0 18.36 14.79 32.75 33.66 32.75h140.16c18.88 0 33.67-14.38 33.67-32.75V37.11c0-18.43-14.63-32.86-33.31-32.86z"/><path d="M185.49 118.2h-27.06l-4.29-26.98-15.86 26.79h-2.97c-1.8-3.1-2.51-7.64-2.51-10.42 0-4.61.33-9.1.33-14.95 0-7.76-2.28-11.92-8.37-13.38v-.23c12.94-1.8 18.81-10.36 18.81-22.42 0-17.13-11.39-20.84-26.32-20.84H77.08l-16.98 80.4h21.35l6.18-29.25h14.19c7.57 0 10.67 3.71 10.67 10.79 0 5.39-.56 9.66-.56 13.82 0 1.54.35 5.11 1.39 6.49l15.43 16.28-13.28 28.55 28.4-16.87 21.16 16.26-3.95-26.93 24.41-17.11zM108.2 71.86H91.23l4.06-19.38h15.79c5.62 0 11.47 1.46 11.47 8.34 0 8.67-6.65 11.04-14.35 11.04z"/><path fill="#FFF" d="M173.04 122.13h-17.96l-3.11-19.53-11.44 19.34h-18.11l11.01 11.6-9.05 19.44 19.78-11.75 15.58 11.98-2.9-19.75z"/></svg>