<svg xmlns="http://www.w3.org/2000/svg" viewBox="0 0 1000 285.36"><g fill-rule="evenodd" clip-rule="evenodd" fill="#EF3A24"><path d="M572.55 206.93h-11.8v-38.9h11.8V137h45.3v31.03h18.01v38.9h-18.02v29.82a6.2 6.2 0 006.19 6.19c4.34 0 12.27 0 16.18-.06v39.4h-25.97c-22.49 0-41.69-14.27-41.69-41.67v-33.68zM705.13 169.7c39.15-5.96 67.93 17.2 69.3 54.8 0 35.16-34.74 59.14-67.45 59.14-33.02 0-60.36-22.07-60.36-56.34-.27-19.41 9.67-34.62 24.8-44.69a91.63 91.63 0 00-16.23 1.45c-2 .54-2.16.08-.36-3.04 5.95-8.62 15.06-11.9 24.25-10.14l-9.8-8.55 8.4-6.98 8.9 13.2c3.65-8.64 15.15-14.92 23.17-8.54.74.59.92.9.92 1.18 0 .92-.91.5-2.27 1.22-2.73 1.45-3.81 4.02-3.83 7.34l.56-.04zM326.92 32.45c35.78 0 63.39 19.38 63.39 59.71s-27.61 59.72-63.39 59.72-63.38-21.66-63.38-59.72 27.6-59.71 63.38-59.71zM312.9 70.99c2.61 1.64 4.92 3.23 6.2 6.2 1.4 3.74.67 7.27-3.8 7.93-3.77.55-5.57-.7-7.54-3.75-1.85-2.87-4.13-6.8-7.4-8.18a11.1 11.1 0 00-7.42-.21c-7 2.33-7.72 10.17-2.04 14.69 2.84 2.25 9.11 3.14 12.7 4.26 2.58.81 5.34 2.08 5.11 5.28-.18 2.54-2 3.23-4.25 3.3-1.65.06-3.34-.04-5-.08-3.83-.08-7.94-.36-10.57 2.99-2.25 2.86-2.54 7.19-.92 10.4 2.95 5.9 10.4 5.64 15.2 2.23 2.4-1.61 4.17-4.1 5.88-6.38 2.9-3.86 9.16-3.58 9.29 1.94.11 4.61-2.58 8.28-1.85 13.47 1.33 9.4 18.8 8.94 18.98-1.3.06-3.02-1.9-5.74-3.03-8.43-3-7.24 3.18-11.01 8.38-5.28 3.77 4.14 5.05 8.1 10.45 11.27 18.24 10.68 25.2-12.89 8.05-18.54-4.76-1.57-9.94-1.43-14.63-3.31-6.96-2.8-5.75-10.78-.43-12 5.99-1.36 11.69.78 15.73-4.34 3.3-4.17 3.04-10.65-.23-14.76-4.53-5.68-13.95-4.28-16.95 2.23-1 2.17-1.58 4.62-2.47 6.86-1.74 4.38-5.4 6.87-9.89 4.23-4.23-2.5-3.87-7.12-2.85-11.25.47-1.92 1.07-3.84 1.4-5.79.61-3.46.1-7.06-2.47-9.64-4.73-4.77-14.3-3.08-17.4 2.8A9.78 9.78 0 00312.9 71zM167.96 164.7c35.21 0 62.38 19.37 62.38 59.7s-27.17 59.72-62.38 59.72-62.38-21.66-62.38-59.71 27.17-59.72 62.38-59.72zm.13 39.46c11.04 0 19.56 6.03 19.56 18.57 0 12.53-8.52 18.56-19.56 18.56s-19.55-6.73-19.55-18.56c0-11.84 8.51-18.57 19.55-18.57z"/><path d="M183.82 149.24h-45.75V0h65.96c37.1 0 59.76 20.28 59.76 51.69 0 19.03-6.26 34.92-24.12 44.33l31.15 53.22h-51.9l-28.08-47.98h-7.02v47.98zm0-114.08V66.1h13.13c12.2 0 19.38-6.1 19.38-15.48 0-9.16-7.83-15.47-19.38-15.47h-13.13zM488 74.57h-11.81v-38.9h11.8V4.63h45.3v31.02h18v38.9h-18v29.83a6.2 6.2 0 006.18 6.18c4.34 0 12.27 0 16.18-.06v39.4h-25.97c-22.49 0-41.69-14.27-41.69-41.66V74.57zM405.15 74.57h-11.8v-38.9h11.8V4.63h45.29v31.02h18.02v38.9h-18.02v29.83a6.2 6.2 0 006.18 6.18c4.35 0 12.27 0 16.19-.06v39.4h-25.97c-22.49 0-41.7-14.27-41.7-41.66V74.57zM121.36 175.78H82.51v105.95H38.63V175.78H0v-43.29h121.36v43.29zM479.6 164.7c11.58 0 21.98 5.9 28.94 15.65v-12.58h44.32v113.35h-44.32v-12.16c-7.3 9.79-17.51 15.16-28.94 15.16-29.7 0-52.61-22.3-52.61-59.71 0-36.62 22.91-59.72 52.6-59.72zm10.12 41.33c9.67 0 18.02 7.29 18.02 17.85 0 10.57-6.6 18.5-18.02 18.5s-18.33-7.93-18.33-18.5c0-10.56 8.67-17.85 18.33-17.85zM309.52 164.72c-10.27 0-20.49 3.68-27.76 10.95v-7.9h-44.32v113.35h44.32v-60.25c0-21.9 23.69-18.13 23.69-2.2v62.45h44.74v-60.25c0-21.9 24.17-18.13 24.17-2.2v62.45h45.47v-71.8c0-26.21-15.83-44.6-45.04-44.6a41.09 41.09 0 00-30.77 14.27c-6.22-10.28-17.38-14.27-34.5-14.27zM726.76 35.88H681v113.36h45.75V90.12c0-22.99 25.54-19.89 25.54-3.33v62.45h45.62V77.43c0-22.16-12.41-45.21-41.62-45.21-11.23 0-22.2 5-29.54 13.86v-10.2zM617.46 6.22c34.48 0 61 25.15 56.84 70.63h-75.42c3.97 10.17 14.44 13.38 22.62 13.38 9.01 0 15.58-2.62 23.99-9l27.4 26.07c-12.64 14.4-30.4 19.67-54.5 19.67-32.88 0-60.32-21.82-60.32-59.22 0-38.33 27.21-61.53 59.39-61.53zm16.71 48c-2.2-8.78-9.06-13.84-17.52-13.84-7.33 0-14.05 4.74-17.32 13.85h34.84zM838.24 163.92c34.49 0 61 25.16 56.85 70.63h-75.43c3.98 10.16 14.45 13.38 22.63 13.38 9.01 0 15.57-2.62 23.99-9l27.4 26.07c-12.64 14.39-30.4 19.67-54.51 19.67-32.87 0-60.3-21.82-60.3-59.22 0-38.33 27.2-61.53 59.37-61.53zm16.72 48c-2.2-8.78-9.07-13.84-17.52-13.84-7.33 0-14.05 4.74-17.32 13.85h34.84zM950.01 164.53c17.7 0 33.97 5.43 45.93 13.7l-17.2 27.8c-12.9-6.4-25.98-8.86-31.16-8.76-3.46 0-7.52 2.06-7.52 4.72 0 3.1 2.19 4.58 7.16 4.76 30.18.03 52.78 9.16 52.78 37.82 0 21.67-21.16 40.79-51.5 40.79-15.6-.08-39.76-4.26-51.1-15.52l18.06-30.2c11.45 7.56 21.28 11.14 32.37 11.14 5.95 0 10.42-2.48 10.42-5.8 0-3.25-1.91-3.75-8.9-3.87-22.1.84-49.5-11.83-49.5-37.08 0-21.06 22.94-39.5 50.16-39.5z"/></g></svg>