<svg xmlns="http://www.w3.org/2000/svg" viewBox="0 0 138.75 141.25"><g fill="#f93208"><path d="M20.15 40.83c-28.14 27.62-13.65 61.01-5.73 71.93 35.25 41.95 92.8 25.34 111.89-5.9 4.76-8.21 22.55-53.47-23.98-78.02z"/><path d="M39.61 39.27l4.78-8.87 28.4-5.03 11.13 9.2z"/></g><path fill="#02902e" d="M39.44 8.57l8.96-5.28 6.76 15.48c3.8-6.33 13.8-16.32 24.94-4.67-4.73 1.26-7.52 3.85-7.74 8.47 15.15-4.17 31.34 3.22 33.54 9.1C94.95 27.35 78.2 42.04 64.13 34c0 15.04-12.62 16.64-19.9 17.08 2.07-5 5.59-10 1.47-15-7.62 8.18-13.87 10.68-33.17 4.68 4.88-1.68 14.84-11.4 24.45-11.43-6.78-2.47-12.3-2.09-17.82-1.47 2.92-3.96 12.15-15.2 28.63-8.48z"/></svg>