<svg xmlns="http://www.w3.org/2000/svg" width="96" height="19" viewBox="0 0 96 19"><path d="M95.113 4.578c-3.03-1.301-7.086-.602-7.086 2.789 0 3.825 5.875 3.03 5.875 5.099 0 1.661-2.775 1.829-4.78.24-.14-.12-.28-.19-.443-.19-.233 0-.372.095-.372.431v.937c0 .267.07.482.35.626C91.243 15.713 96 15.739 96 11.31c0-3.8-5.944-2.934-5.944-4.833 0-1.563 2.913-1.418 4.591-.242.14.096.327.193.442.193.233 0 .374-.097.374-.432v-.795c0-.265-.07-.505-.35-.624m-7.273-.364c1.091 0 2.32-4.213.302-4.213h-1.09c-.255 0-.301.19-.301.334 0 .288.694 1.006.694 1.987 0 1.004-.37 1.364-.37 1.676 0 .121.116.216.278.216h.487m-5.915 7.466l-.14-.457-2.217-6.743c-.07-.192-.162-.266-.373-.266h-2.38c-.14 0-.21.074-.21.218 0 .072.023.145.117.385l3.873 9.704c.654 1.639-1.26 2.818-3.104 2.289-.28-.073-.466-.145-.723-.145-.162 0-.303.169-.303.336v1.374c0 .29.187.626 1.213.626 2.474 0 3.804-1.3 4.994-4.359l3.826-9.897c.047-.144.093-.216.093-.313a.214.214 0 00-.209-.218h-1.658c-.162 0-.279.098-.326.266l-2.286 6.743-.187.457m-9.647-4.241c0-1.161.396-1.887 2.82-1.234.302.073.49.145.746.145.161 0 .302-.167.302-.337V4.584c0-.242-.163-.433-.467-.507-1.677-.412-2.702.385-3.564 1.234l-.046-.026v-.798c0-.168-.117-.291-.28-.291h-2.027c-.118 0-.234.123-.234.291v10.259c0 .165.116.289.234.289h2.235c.165 0 .281-.124.281-.29V7.439m-4.743 7.315V4.504c0-.168-.117-.291-.234-.291h-2.244c-.164 0-.28.123-.28.291v8.266c-.444.266-1.38.749-2.175.749-1.542 0-1.637-.964-1.637-1.788V4.504c0-.168-.117-.291-.233-.291h-2.244c-.165 0-.282.123-.282.291v7.468c0 1.957 1.006 3.31 3.251 3.31 1.285 0 2.641-.652 3.343-1.085h.047v.557c0 .165.116.288.28.288h2.174c.117 0 .234-.123.234-.288M47.123.457c0-.17.116-.292.233-.292h2.24c.162 0 .278.121.278.292v4.829-.024c.444-.386 1.47-1.233 3.058-1.233 2.403 0 3.918 2.174 3.918 5.072 0 3.718-2.495 6.182-5.575 6.182-1.68 0-2.917-.605-3.733-1.258-.35-.264-.42-.72-.42-1.108V.457zm3.08 13.257c.232.144.582.264 1.258.264 1.494 0 2.543-1.593 2.543-4.296 0-1.016-.21-3.867-2.333-3.867-.839 0-1.446.485-1.797.75v6.52c0 .22.048.435.328.63zm-5.241-9.136c-3.03-1.301-7.088-.602-7.088 2.789 0 3.825 5.875 3.03 5.875 5.099 0 1.661-2.775 1.829-4.78.24-.14-.12-.28-.19-.442-.19-.233 0-.373.095-.373.431v.937c0 .267.07.482.35.626 2.587 1.203 7.343 1.229 7.343-3.199 0-3.8-5.945-2.934-5.945-4.833 0-1.563 2.914-1.418 4.594-.242.14.096.325.193.442.193.233 0 .374-.097.374-.432v-.795c0-.265-.07-.505-.35-.624M27.11 4.496v10.25c0 .165.116.289.233.289h2.245c.163 0 .28-.124.28-.289V6.48c.445-.267 1.38-.749 2.175-.749 1.544 0 1.637.966 1.637 1.787v7.23c0 .164.116.288.234.288h2.245c.162 0 .28-.124.28-.289v-7.47c0-1.958-1.006-3.312-3.251-3.312-1.286 0-2.642.653-3.344 1.089H29.8v-.558c0-.167-.117-.29-.281-.29h-2.175c-.117 0-.233.123-.233.29m-5.025.008v10.242c0 .165.116.289.23.289h2.205c.16 0 .276-.124.276-.289V4.504c0-.168-.115-.291-.276-.291h-2.205c-.114 0-.23.123-.23.29m1.339-4.42c-1.013 0-1.498.629-1.498 1.356 0 .87.599 1.452 1.498 1.452s1.452-.582 1.452-1.452c0-.727-.484-1.356-1.452-1.356M15.89 3.965c-1.258 0-2.702.267-3.634.747a.64.64 0 00-.348.578v1.083c0 .34.256.482.396.482.28 0 .489-.265.629-.36.86-.601 1.722-1.013 2.864-1.013 1.419 0 1.629.963 1.629 2.144l-.005.044c0 .552-.181.654-2.206.92-1.235.168-4.052.746-4.052 3.37 0 2.167 1.676 3.323 3.632 3.323 1.071 0 1.956-.484 2.701-1.156l.046.625c0 .169.117.289.233.289h2.118c.163 0 .28-.12.28-.289V7.265c0-1.951-1.002-3.3-4.284-3.3zm1.49 8.765c0 .315-.795 1.162-1.87 1.162-1.238 0-1.706-.92-1.706-1.837 0-1.306.981-2.513 3.576-2.513v3.188zM.397 14.403c3.916 1.902 9.49.794 9.49-4.046 0-4.456-7.391-4.169-7.391-6.916 0-1.107 1.026-1.853 2.33-1.853 1.167 0 2.053.41 2.986 1.11.257.19.42.312.629.312.257 0 .327-.17.327-.387V1.228c0-.219-.046-.34-.257-.435C7.718.48 6.319.165 4.78.165 1.68.165 0 2.142 0 4.382c0 4.866 7.275 3.856 7.275 7.155 0 2-2.797 3.396-6.038 1.058-.304-.216-.444-.336-.654-.336-.396 0-.467.217-.467.434v1.227c0 .217.048.339.281.483" fill="#F06C00" fill-rule="evenodd"/></svg>