<svg xmlns="http://www.w3.org/2000/svg" xmlns:svg="http://www.w3.org/2000/svg" style="fill:#fff" id="svg20" width="187.812" height="212.7" class="Sidebar-logoSign" data-icon="sr_logo" version="1.1" viewBox="0 0 187.812 212.7"><metadata id="metadata26"/><path style="fill:#3483f4;fill-opacity:1;stroke-width:5.87569046" id="path2" d="m 136.31602,21.15248 c -0.81186,12.736768 -1.93818,24.196653 -2.93785,38.191988 -43.143816,-3.722262 -67.766525,25.655467 -45.830381,62.282322 -25.684153,23.05834 -11.160828,51.36505 33.491431,64.04502 v 1.17514 c -12.00106,10.87921 -27.851856,25.68139 -41.129829,25.85304 -11.535278,-0.27404 -33.828024,-19.1388 -48.76823,-34.07901 -4.762238,-6.3886 -4.954856,-11.75926 -5.875691,-18.80221 -1.762707,-1.17513 -2.937845,-1.17513 -4.700552,-1.17513 h -2.350276 c 0,1.17513 0,1.7627 -1.175138,2.35027 v 6.46326 H 14.101658 6.463256 v -1.76271 L 4.11298,161.58148 c 0,-1.17514 0,-2.35028 -1.17513,-3.52541 v -2.35028 -2.35028 c 0,-1.7627 0,-2.93784 1.17513,-4.11298 l 1.76271,-3.52541 c 0,-1.17514 1.175141,-1.76271 1.175141,-1.76271 h 9.988673 v 4.11298 c 1.175138,0 1.175138,1.76271 1.762707,2.35028 h 7.050829 v -8.22597 -11.75138 -9.98867 -7.6384 c -2.225033,-0.047 -4.495176,-0.0229 -5.875691,0 v 1.17514 l -1.175138,2.35027 v 1.76271 h -2.350276 c 0,1.17514 -1.762707,1.17514 -2.937845,1.17514 h -2.350277 c -1.175137,0 -1.762707,0 -1.762707,-1.17514 v -1.76271 l -2.350275,-3.52541 c -1.175141,0 -1.762711,-1.76271 -1.762711,-2.93785 v -2.93784 -1.76271 c 0,-1.17514 0,-2.35027 1.175136,-3.52541 0,0 0,-1.762709 1.175137,-2.937847 v -1.762707 h 11.163818 v 2.937845 c 1.175138,0 1.175138,1.175139 1.175138,1.762709 v 2.35027 h 8.813535 C 29.422274,90.856177 28.166049,76.931426 25.85304,65.807727 h -2.937846 -5.87569 c 0,0 0,1.175139 -1.175139,1.762707 v 3.525414 h -1.175137 c 0,1.175139 -1.175138,1.175139 -1.762708,1.175139 H 5.28812 3.52542 V 69.92071 L 1.17514,66.395296 c 0,-1.175137 0,-2.350276 -1.17514,-3.525414 v -2.350277 -2.350276 l 1.76271,-3.525414 1.76271,-3.525414 v -1.762708 h 11.163808 c 0,1.175139 0,1.762708 1.175137,2.350277 v 2.350277 c 0,1.175137 0,1.762707 1.175139,2.350275 h 9.988673 C 26.459424,42.78103 25.044912,30.625451 24.090332,18.80221 35.954926,13.01963 62.120056,0.92791 80.496961,0 99.682441,1.20478 123.74805,8.51471 136.31602,21.15248 Z"/><g style="fill:none;fill-rule:evenodd" id="g18" transform="matrix(5.8756904,0,0,5.8756904,-29.96602,-10.57625)"><path style="opacity:.97000002;fill:#3483f4;fill-opacity:1;stroke-width:.88847721" id="path16" d="m 19.312426,26.263272 c -0.06042,-0.543748 0.0382,-0.973771 0.294974,-1.290068 0.25677,-0.317187 0.550856,-0.566849 0.883146,-0.74721 0.450669,-0.189731 0.921711,-0.326871 1.403794,-0.408699 0.531887,-0.06091 1.07059,-0.01439 1.584155,0.136825 0.442659,0.09877 0.864367,0.275029 1.245645,0.520648 0.407811,0.25677 0.717001,0.64148 0.928459,1.15502 0.151041,0.422027 0.317186,0.777418 0.497547,1.063507 0.18125,0.286979 0.392707,0.506432 0.634373,0.657474 0.453123,0.36161 1.071504,0.542859 1.856917,0.542859 0.935567,0 1.599259,-0.195465 1.991966,-0.58906 0.362499,-0.302082 0.543748,-0.663693 0.543748,-1.086608 0,-0.483331 -0.241665,-0.860046 -0.724108,-1.13192 -0.302083,-0.211457 -1.20833,-0.453123 -2.717852,-0.724997 -0.964796,-0.17227 -1.923682,-0.376137 -2.875113,-0.611273 -0.769421,-0.195465 -1.350485,-0.369606 -1.743192,-0.520647 -0.906247,-0.422027 -1.64546,-1.011087 -2.219416,-1.766293 -0.320333,-0.399381 -0.551751,-0.862521 -0.678797,-1.358482 -0.121427,-0.488528 -0.1823,-0.990138 -0.181249,-1.49353 0,-1.238537 0.317186,-2.264728 0.950671,-3.079462 0.675318,-0.862173 1.588336,-1.507709 2.626338,-1.856917 0.671552,-0.250367 1.371264,-0.417462 2.083479,-0.497548 0.811591,-0.09411 1.628067,-0.139799 2.44509,-0.136825 1.781397,0 3.245607,0.166145 4.392631,0.498436 0.935567,0.302082 1.720981,0.799629 2.354465,1.494418 0.634373,0.69479 1.163016,1.615252 1.585043,2.763164 0.151041,0.39093 0.09063,0.701898 -0.181249,0.927571 -0.270986,0.226561 -0.604165,0.399814 -0.995095,0.520647 -0.242554,0.06042 -0.491328,0.120833 -0.748098,0.18125 -0.276007,0.06358 -0.555885,0.108985 -0.837834,0.135937 -0.302082,0.03021 -0.724108,0 -1.267857,-0.09062 -0.371257,-0.07179 -0.735028,-0.17798 -1.086607,-0.317186 -0.381286,-0.142481 -0.712005,-0.394385 -0.950671,-0.724109 -0.151041,-0.573957 -0.408699,-0.996872 -0.77031,-1.267857 -0.512651,-0.362499 -1.116815,-0.543748 -1.811605,-0.543748 -0.755205,0 -1.282961,0.135937 -1.584155,0.407811 -0.33229,0.270985 -0.498435,0.604164 -0.498435,0.995094 0,0.423804 0.211457,0.755206 0.633484,0.996872 0.302082,0.211457 1.208329,0.407811 2.717852,0.58906 2.112799,0.271874 3.697842,0.633484 4.754241,1.086608 0.936455,0.392707 1.720981,1.041295 2.354465,1.947542 0.573956,0.844942 0.860935,1.780508 0.860935,2.807588 0,0.512651 -0.08352,1.018195 -0.248774,1.51663 -0.171743,0.510567 -0.391902,1.003544 -0.657473,1.472207 -0.603276,0.965775 -1.508635,1.735196 -2.716964,2.309153 -1.116815,0.573956 -2.822692,0.860046 -5.11674,0.860046 -3.049254,0 -5.222469,-0.467339 -6.521423,-1.403794 -1.297177,-0.935567 -2.127903,-2.248736 -2.490401,-3.939509 z"/></g></svg>