<svg xmlns="http://www.w3.org/2000/svg" xmlns:xlink="http://www.w3.org/1999/xlink" xml:space="preserve" viewBox="0 0 251.59 251.33"><defs><clipPath id="p" clipPathUnits="userSpaceOnUse"><use xlink:href="#a" width="100%" height="100%"/></clipPath><clipPath id="o" clipPathUnits="userSpaceOnUse"><use xlink:href="#a" width="100%" height="100%"/></clipPath><clipPath id="n" clipPathUnits="userSpaceOnUse"><use xlink:href="#a" width="100%" height="100%"/></clipPath><clipPath id="m" clipPathUnits="userSpaceOnUse"><use xlink:href="#a" width="100%" height="100%"/></clipPath><clipPath id="l" clipPathUnits="userSpaceOnUse"><use xlink:href="#a" width="100%" height="100%"/></clipPath><clipPath id="k" clipPathUnits="userSpaceOnUse"><use xlink:href="#a" width="100%" height="100%"/></clipPath><clipPath id="j" clipPathUnits="userSpaceOnUse"><use xlink:href="#a" width="100%" height="100%"/></clipPath><clipPath id="i" clipPathUnits="userSpaceOnUse"><use xlink:href="#a" width="100%" height="100%"/></clipPath><clipPath id="h" clipPathUnits="userSpaceOnUse"><use xlink:href="#a" width="100%" height="100%"/></clipPath><clipPath id="g" clipPathUnits="userSpaceOnUse"><use xlink:href="#a" width="100%" height="100%"/></clipPath><clipPath id="f" clipPathUnits="userSpaceOnUse"><use xlink:href="#a" width="100%" height="100%"/></clipPath><clipPath id="e" clipPathUnits="userSpaceOnUse"><use xlink:href="#a" width="100%" height="100%"/></clipPath><clipPath id="d" clipPathUnits="userSpaceOnUse"><use xlink:href="#a" width="100%" height="100%"/></clipPath><clipPath id="c" clipPathUnits="userSpaceOnUse"><use xlink:href="#a" width="100%" height="100%"/></clipPath><clipPath id="b" clipPathUnits="userSpaceOnUse"><use xlink:href="#a" width="100%" height="100%"/></clipPath><path id="a" d="M0 0h595.28v841.89H0Z"/></defs><g transform="translate(-628.82 -1530.96) scale(1.9014)"><ellipse cx="150.03" cy="135.64" stroke="#fffeff" stroke-linecap="round" stroke-linejoin="round" stroke-opacity=".49" stroke-width="2.52" rx="124.51" ry="124.39" transform="matrix(.526 0 0 .526 317.96 799.92)"/><path fill="#fff" d="M280.59 177.52c-1.02-4.42-6.6-.91-7.95-6.3-1.27-5.1 3.96-10.38.85-10.19-4.25.25-9.46 1.48-6.7-6.11-1.31 8.8 7.8 2.2 9.93 5.1 2.12 2.88-3.1 10.08 1.47 10.02 4.58-.05 6.24-1.04 8.18 1.82-2.27 1.47-3.73 2.95-5.78 5.66" clip-path="url(#b)" transform="matrix(1.3333 0 0 -1.3333 0 1122.52)"/><path fill="#fff" d="M316.77 189.2a19.15 19.15 0 1 0-38.3 0 19.15 19.15 0 0 0 38.3 0" clip-path="url(#c)" transform="matrix(1.3333 0 0 -1.3333 0 1122.52)"/><path fill="#fff" d="M293.14 209.37c6.14 6.5-1.44 4.77-1.44 9.53.03 2.72 7.93 3.52 8.95 6.32 1.02 2.8-10.57 4.99-3.06 9.5-4.23-5.8 5.7-5.17 5.47-9.5-.19-3.47-5.81-4.71-5.81-6.33-.11-2.92 8.21-3 4.82-9.6-2.69.62-5.3.74-8.93.08" clip-path="url(#d)" transform="matrix(1.3333 0 0 -1.3333 0 1122.52)"/><path fill="#fff" d="M309.11 206.34c.98 2.39 3.14 5.48 7.66 4.21 7.55-2.14.77 4.93 5.5 7.46 4.03 2.15 5.8-3.22 10.91-1.74-3.46-4.11-7.42 2.18-9.7-1.17-2.02-2.97 1.65-5.84.48-8-1.85-3.33-5.44-.4-7.24-1.74-1.8-1.33-1.56-3.6-1.56-5.44-1.3 2.55-3.81 4.77-6.05 6.42" clip-path="url(#e)" transform="matrix(1.3333 0 0 -1.3333 0 1122.52)"/><path fill="#fff" d="M317.97 193.23c5.41-4.98 5.8 1.83 9.25 1.84 3.03 0 4.26-9.1 7.4-9.19 3.56-.1 5.59 8.23 9.83 2.63-5.05 2.77-5.85-5.17-9.72-5.23-5.69-.1-5.9 6.59-7.63 6.59-2.38-.11-2.36-9.15-9.39-5.47.74 2.43.86 5.62.26 8.83" clip-path="url(#f)" transform="matrix(1.3333 0 0 -1.3333 0 1122.52)"/><path fill="#fff" d="M308.45 171.58c4.62-3.1.35-6.23 2.9-8.7 1.8-1.74 7.28 2.12 9.75 1.32 1.59-.51-1.39-5.15 1-7.03 2.01-1.58 6.25-1.1 8.3.42-2.8-.33-5.84-.77-7.05 2.02-1.18 2.73 2 6.44.68 8.05-1.15 1.4-8.4-2.73-7.85 2.25.22 1.98 1.65 6.32-1.54 7.48a21.2 21.2 0 0 0-6.19-5.81" clip-path="url(#g)" transform="matrix(1.3333 0 0 -1.3333 0 1122.52)"/><path fill="#fff" d="M293.43 168.9c-1.27-5.72 3.2-6.5 3.28-8.54.13-3.1-4.87-3.64-4.78-7.38.05-2.42 8.51-4.75 5.5-9.48 4.23 3.28-2.08 7.14-2 9.4.15 4.19 7.38 3.21 7.24 7.9-.11 4.11-3.2 2.97-.5 8.1-3.17-.63-5.7-.54-8.74 0" clip-path="url(#h)" transform="matrix(1.3333 0 0 -1.3333 0 1122.52)"/><path fill="#fff" d="M277.35 192.86c-6.92 2.49-8.55-5.78-10.5-5.67-1.94.1-4.34 8.2-6.77 6.05-4.24-3.74-3.5-6.54-7.66-4.85 3.84-3.79 4.77 1 7.88 2.76 2.62 1.47 2.55-8.72 6.66-8.83 2.27-.06 4.98 3.66 6.39 3.66a5.9 5.9 0 0 0 4.27-2.04 20.45 20.45 0 0 0-.27 8.92" clip-path="url(#i)" transform="matrix(1.3333 0 0 -1.3333 0 1122.52)"/><path fill="#fff" d="M280.21 199.99c-4.4 1.23-3.43 5.68-3.04 8.51.38 2.75.2 4.6-4.2 2.05s-7.7 2.37-5.1 5.14c2.28 2.43-1.07 3.92-3.42 3.23.82 1 4.76 2.93 6.06-1.06.7-2.16-1.44-3.89-.28-4.77 2.14-1.65 5.13 4.42 8.56 3.2 3.04-1.07 1.78-3.32 2.99-7.2.57-1.81 2.04-2.84 4.06-3.02a20.19 20.19 0 0 1-5.63-6.08" clip-path="url(#j)" transform="matrix(1.3333 0 0 -1.3333 0 1122.52)"/><path fill="#231f20" d="M283.57 194.52c3.23 1.55 6.68-.47 8.7-1.06 5.26-1.53 4.89-.38 5.07.1.05-.35-.06-1.57-2.13-1.54-.37-.42-.48-1.92-3.45-1.9-3.6.01-3.78 2.68-3.83 3.3-.12 1.4-3 1.4-4.36 1.1m8.12-3.78c2.53.02 2.94 1.18 2.98 1.45-.77.16-1.17.2-1.65.27-.2-.31-.21-.82-1.2-.68-1.2.17-1 1.1-1 1.1l-1.36.52s-.44-2.66 2.23-2.66" clip-path="url(#k)" transform="matrix(1.3333 0 0 -1.3333 0 1122.52)"/><path fill="#231f20" d="M307.62 193.92c-.1-.49.07-2.64-2.84-3.29-2.8-.62-4.09.97-4.46 1.39-2.07-.03-2.24 1.75-2.15 2.55.8-1.58.14-2.57 5.5-.91 2 .61 5.56 4.17 8.63.86-2.18 1.64-4.83.3-4.68-.6m-1.4-.26s-.92-.36-1.37-.56c.26-.33.22-1.19-.7-1.32-.99-.14-1.13.3-1.27.75-.5-.1-1.24-.18-1.81-.3.04-.28.9-1.61 3.39-1.17 2.72.48 1.75 2.6 1.75 2.6" clip-path="url(#l)" transform="matrix(1.3333 0 0 -1.3333 0 1122.52)"/><path fill="#231f20" d="M285.1 184.88c.35-.86 4.66-3.71 12.33-3.7 8.46 0 11.56 2.95 12.77 5.6-.22.27-.79.52-1.36.6.78.32 1.78.37 2.51-.14.86-.6 1.44-2.22 1.36-3.96-.11.87-.67 2.41-1.5 2.68-.34-3.67-3-11.37-13.3-11.47-8.87-.08-13.53 5.93-13.79 9.5-.59-.64-.89-1.69-.88-3.03-.25.56-.56 3.15.82 4.17.35.26 1.02.41 1.74.12-.64-.34-.46-.13-.7-.37m-.01-.94c-.34-1.17 3.67-9.17 12.79-9.09 9.87.08 12.4 9.05 12.4 10.53-1.43-1.6-3.14-4.4-12.75-4.54-7.67-.12-11.57 2.04-12.44 3.1" clip-path="url(#m)" transform="matrix(1.3333 0 0 -1.3333 0 1122.52)"/><path fill="#231f20" d="M297.02 186.4c-.81.6-1.72.74-1.4-.44.17-.62-1.33.7-.16 1.13 1.12.4 1.85-.9 1.56-.7" clip-path="url(#n)" transform="matrix(1.3333 0 0 -1.3333 0 1122.52)"/><path fill="#231f20" d="M299.1 186.73c.77.58 1.62.68 1.32-.26-.38-1.14 1.07.72.16 1.1-.87.37-2.14-1.33-1.48-.84" clip-path="url(#o)" transform="matrix(1.3333 0 0 -1.3333 0 1122.52)"/><path fill="#fff" d="M347.24 188.45a49.58 49.58 0 0 0-49.6-49.56 49.58 49.58 0 0 0-49.6 49.56 49.58 49.58 0 0 0 49.6 49.56c27.4 0 49.6-22.2 49.6-49.56M297.64 237a48.6 48.6 0 0 1-48.62-48.56 48.6 48.6 0 0 1 48.62-48.57 48.6 48.6 0 0 1 48.61 48.57A48.6 48.6 0 0 1 297.64 237" clip-path="url(#p)" transform="matrix(1.3333 0 0 -1.3333 0 1122.52)"/></g></svg>