<svg sodipodi:docname="Threema-MINI.svg" inkscape:version="1.1 (c68e22c387, 2021-05-23)" xmlns:inkscape="http://www.inkscape.org/namespaces/inkscape" xmlns:sodipodi="http://sodipodi.sourceforge.net/DTD/sodipodi-0.dtd" xmlns="http://www.w3.org/2000/svg" viewBox="0 0 1024 1024"><sodipodi:namedview pagecolor="#505050" bordercolor="#eeeeee" borderopacity="1" inkscape:pageshadow="0" inkscape:pageopacity="0" inkscape:pagecheckerboard="0" showgrid="false" inkscape:zoom=".5" inkscape:cx="417.7" inkscape:cy="511.5" inkscape:window-width="1920" inkscape:window-height="964" inkscape:window-x="1920" inkscape:window-y="30" inkscape:window-maximized="1" inkscape:current-layer="g4"/><g fill="none" fill-rule="evenodd"><path d="M160 0C71 0 0 71 0 160v704c0 89 71 160 160 160h704c89 0 160-71 160-160V160c0-89-71-160-160-160z" fill="#323232"/><path d="M310 792a56 56 0 100 112 56 56 0 000-112zm202 0a56 56 0 100 112 56 56 0 000-112zm202 0a56 56 0 100 112 56 56 0 000-112z" fill="#05a63f"/><path d="M512 139c-182 0-329 130-329 290 0 59 20 114 55 160l-35 141 165-41c43 19 92 29 144 29 182 0 329-130 329-289 0-160-147-290-329-290zm0 135c52 0 93 42 93 93v37h4c8 0 15 7 15 15v132c0 8-7 15-15 15H415c-8 0-15-7-15-15V419c0-8 7-15 15-15h4v-37c0-51 41-93 93-93zm0 37c-31 0-56 25-56 56v37h112v-37c0-31-25-56-56-56z" fill="#fff"/></g></svg>