<svg xmlns="http://www.w3.org/2000/svg" xmlns:svg="http://www.w3.org/2000/svg" id="svg460" width="640" height="640" version="1.1"><metadata id="metadata464"/><path id="rect4" d="M 40,0 V 40 H 0 c 0,186.66667 0,373.33333 0,560 h 40 v 40 c 66.66667,0 133.33333,0 200,0 v -40 h 40 v 40 c 66.66667,0 133.33333,0 200,0 v -40 h 40 v -40 h 40 c 0,-53.33333 0,-106.66667 0,-160 h 40 v -40 h 40 c 0,-66.66667 0,-133.33333 0,-200 -26.66667,0 -53.33333,0 -80,0 0,-40 0,-80 0,-120 H 520 V 0 C 360,0 200,0 40,0 Z" style="fill:#f4f4f4;fill-opacity:1"/><path id="rect32" d="m 80,40 v 40 c 145.84604,0 268.87725,0 400,0 V 40 C 342.50262,40 198.55702,40 80,40 Z m 0,80 v 40 c 120,0 240,0 360,0 v -40 c -120,0 -240,0 -360,0 z M 40,520 v 40 c 146.66667,0 293.33333,0 440,0 v -40 c -146.66667,0 -293.33333,0 -440,0 z" style="fill:#29366f;fill-opacity:1"/><path id="rect58" d="m 40,80 c 0,146.66667 0,293.33333 0,440 146.66667,0 293.33333,0 440,0 0,-146.66667 0,-293.33333 0,-440 -146.66667,0 -293.33333,0 -440,0 z m 40,40 c 120,0 240,0 360,0 0,80 0,160 0,240 -120,0 -240,0 -360,0 0,-80 0,-160 0,-240 z m 80,280 h 40 v 40 c 40,0 80,0 120,0 v -40 h 40 v 40 h -40 v 40 c -40,0 -80,0 -120,0 v -40 h -40 z" style="fill:#41a6f6;fill-opacity:1"/><path id="rect80" d="m 480,80 c 0,146.53544 0,302.86621 0,440 h 40 c 0,-53.33333 0,-106.66667 0,-160 h 40 v -40 h -40 c 0,-80 0,-160 0,-240 z m 80,240 h 40 c 0,-40 0,-80 0,-120 h -40 c 0,40 0,80 0,120 z M 160,200 v 120 h 40 V 200 Z m 160,0 v 120 h 40 V 200 Z M 80,560 v 40 h 120 v -40 z m 240,0 v 40 h 120 v -40 z" style="fill:#1a1c2c;fill-opacity:1"/></svg>