<svg viewBox="0 0 258 292" xmlns="http://www.w3.org/2000/svg" fill-rule="evenodd" clip-rule="evenodd" stroke-linejoin="round" stroke-miterlimit="2"><path d="M191.102 105.182c18.814 13.442 41.862 21.351 66.755 21.351V78.656c-4.711.001-9.41-.49-14.019-1.466v37.686c-24.891 0-47.936-7.909-66.755-21.35v97.703c0 48.876-39.642 88.495-88.54 88.495-18.245 0-35.203-5.513-49.29-14.968 16.078 16.431 38.5 26.624 63.306 26.624 48.901 0 88.545-39.619 88.545-88.497v-97.701h-.002zm17.294-48.302c-9.615-10.499-15.928-24.067-17.294-39.067v-6.158h-13.285c3.344 19.065 14.75 35.353 30.579 45.225zM70.181 227.25a40.3 40.3 0 01-8.262-24.507c0-22.354 18.132-40.479 40.502-40.479a40.607 40.607 0 0112.286 1.897v-48.947a89.349 89.349 0 00-14.013-.807v38.098a40.56 40.56 0 00-12.292-1.896c-22.37 0-40.501 18.123-40.501 40.48 0 15.808 9.063 29.494 22.28 36.161z" fill="#ff004f" fill-rule="nonzero"/><path d="M177.083 93.525c18.819 13.441 41.864 21.35 66.755 21.35V77.189c-13.894-2.958-26.194-10.215-35.442-20.309-15.83-9.873-27.235-26.161-30.579-45.225h-34.896v191.226c-.079 22.293-18.18 40.344-40.502 40.344-13.154 0-24.84-6.267-32.241-15.975-13.216-6.667-22.279-20.354-22.279-36.16 0-22.355 18.131-40.48 40.501-40.48 4.286 0 8.417.667 12.292 1.896v-38.098c-48.039.992-86.674 40.224-86.674 88.474 0 24.086 9.621 45.921 25.236 61.875 14.087 9.454 31.045 14.968 49.29 14.968 48.899 0 88.54-39.621 88.54-88.496V93.525h-.001z" fill-rule="nonzero"/><path d="M243.838 77.189v-10.19a66.768 66.768 0 01-35.442-10.12 66.953 66.953 0 0035.442 20.31zm-66.021-65.534a68.282 68.282 0 01-.734-5.497V0h-48.182v191.228c-.077 22.29-18.177 40.341-40.501 40.341a40.352 40.352 0 01-18.222-4.318c7.401 9.707 19.087 15.973 32.241 15.973 22.32 0 40.424-18.049 40.502-40.342V11.655h34.896zm-77.123 102.753V103.56a89.432 89.432 0 00-12.149-.824C39.642 102.735 0 142.356 0 191.228c0 30.64 15.58 57.643 39.255 73.527-15.615-15.953-25.236-37.789-25.236-61.874 0-48.249 38.634-87.481 86.675-88.473z" fill="#00f2ea" fill-rule="nonzero"/></svg>