<svg xmlns="http://www.w3.org/2000/svg" viewBox="0 0 264.58 88"><path d="M218.15 62.53h18.57V39.37h4.64v23.16h18.57V30.11l-9.29-9.26h-13.92V4.63h-18.57v57.9m-81.22-9.26l9.28 9.26h25.53V44.01h-16.25v-4.64h16.25V20.85h-16.25V4.63h-18.56v48.64m39.45 0l9.28 9.26h27.85V44.01h-18.57v-4.64h18.57V20.85h-27.85l-9.28 9.26v23.16M113.72 4.63h18.56v11.58h-18.56V4.63M39.45 20.85H23.21V4.63H4.64v48.64l9.28 9.26h25.53V44.01H23.21v-4.64h16.24V20.85m4.65 32.42l9.28 9.26h55.7V20.85H90.5V44h-4.64V20.85H67.3V44h-4.64V20.85H44.1v32.42m69.62-32.42h18.56v41.68h-18.56V20.85" fill-rule="nonzero" fill="#fff" stroke-linecap="square" stroke-linejoin="bevel"/><path d="M259.93 62.53h-18.58V39.37h-4.64v23.16h-18.58V4.64h18.58v16.2h13.93l9.29 9.27v32.42M213.5 39.37h-18.58v4.65h18.58v18.53h-27.85l-9.29-9.27V30.11l9.3-9.26h27.84v18.52m-41.77 0h-16.26v4.65h16.26v18.53H146.2l-9.29-9.27V4.64h18.58v16.2h16.25l-.01 18.53m-39.46-23.16h-18.57V4.64h18.57v11.57m0 46.32h-18.57V20.85h18.57v41.68m-23.21 0h-55.7l-9.28-9.26V20.85h18.58V44h4.64V20.85h18.58V44h4.64V20.85h18.57l-.03 41.68M39.45 39.37H23.22v4.65h16.25v18.53H13.93l-9.29-9.27V4.64h18.58v16.2h16.25l-.02 18.53m213.51-23.16h-11.6V0h-25.48l-11.72 16.21h-20.82l-6.96 6.95v-6.95h-16.26V0h-51.04v16.21H37.25L25.55 0H0v55.59L32.5 88h32.48v-9.26L74.27 88h62.66v-9.26L146.2 88h30.17v-9.26l9.29 9.26h58.02l20.9-20.85V27.8l-11.63-11.58" fill-rule="nonzero" fill="#9147fe" stroke-linecap="square" stroke-linejoin="bevel"/></svg>