<svg color="n01" class="Logo__LogoSvg-sc-1jduxh5-0 kgNWtA" sodipodi:docname="Uphold-MINI.svg" inkscape:version="1.1 (c68e22c387, 2021-05-23)" xmlns:inkscape="http://www.inkscape.org/namespaces/inkscape" xmlns:sodipodi="http://sodipodi.sourceforge.net/DTD/sodipodi-0.dtd" xmlns="http://www.w3.org/2000/svg" viewBox="0 0 27.382 40"><sodipodi:namedview pagecolor="#505050" bordercolor="#eeeeee" borderopacity="1" inkscape:pageshadow="0" inkscape:pageopacity="0" inkscape:pagecheckerboard="0" showgrid="false" inkscape:zoom="5.657" inkscape:cx="55.331" inkscape:cy="33.057" inkscape:window-width="1920" inkscape:window-height="964" inkscape:window-x="1920" inkscape:window-y="30" inkscape:window-maximized="1" inkscape:current-layer="svg4" fit-margin-top="0" fit-margin-left="0" fit-margin-right="0" fit-margin-bottom="0"/><path d="M13.689 0C7.72 0 2.492 3.928.677 9.775l.004.002c-1.22 3.67-.784 8.595 1.168 13.182 2.664 6.26 7.498 10.61 11.78 10.61h.122c4.282-.001 9.117-4.35 11.782-10.61 1.952-4.588 2.387-9.513 1.168-13.184l-.004-.011-.004-.01a.268.268 0 01-.008-.024C24.857 3.908 19.641 0 13.689 0zm0 2.213c2.486 0 4.819.811 6.728 2.223-2.164-.093-4.522.862-6.726 2.77-2.204-1.908-4.564-2.865-6.729-2.772a11.285 11.285 0 016.727-2.221zM7.345 6.637c1.5.027 3.167.754 4.787 2.107-1.506 1.687-2.804 3.756-3.783 6.057-1.874 4.402-2.291 8.936-1.426 12.447-1.198-1.451-2.277-3.215-3.113-5.18-1.745-4.1-2.157-8.432-1.1-11.591.559-1.668 1.498-2.858 2.713-3.438a4.236 4.236 0 011.922-.402zm12.692 0a4.234 4.234 0 011.921.402c1.216.58 2.153 1.77 2.711 3.438 1.058 3.158.648 7.491-1.097 11.591-.837 1.965-1.916 3.73-3.114 5.18.866-3.51.448-8.045-1.425-12.447-.98-2.301-2.277-4.37-3.784-6.057 1.621-1.353 3.288-2.08 4.788-2.107zm-6.348 3.62c1.341 1.506 2.5 3.362 3.383 5.434 2.778 6.528 2.039 13.516-1.614 15.26-.544.26-1.139.396-1.767.404a4.204 4.204 0 01-1.77-.404c-3.652-1.744-4.39-8.732-1.613-15.26.881-2.07 2.04-3.929 3.38-5.433zm-3.98 26.481a1.292 1.292 0 00-1.215.95c-.203.702.185 1.441.865 1.65 1.428.44 2.862.662 4.26.662h.17c1.389 0 2.81-.219 4.23-.652.68-.208 1.07-.948.87-1.65-.202-.704-.916-1.105-1.597-.897a12.03 12.03 0 01-3.503.543h-.17c-1.15 0-2.338-.185-3.528-.551a1.249 1.249 0 00-.383-.055z" sodipodi:nodetypes="scccscccccccsscccssccccccssccccccscccccccsccsscccsscs" fill="#34cc72"/></svg>