<svg viewBox="0 0 120 40" color="n01" sodipodi:docname="Uphold.svg" inkscape:version="1.1 (c68e22c387, 2021-05-23)" xmlns:inkscape="http://www.inkscape.org/namespaces/inkscape" xmlns:sodipodi="http://sodipodi.sourceforge.net/DTD/sodipodi-0.dtd" xmlns="http://www.w3.org/2000/svg"><sodipodi:namedview pagecolor="#505050" bordercolor="#eeeeee" borderopacity="1" inkscape:pageshadow="0" inkscape:pageopacity="0" inkscape:pagecheckerboard="0" showgrid="false" inkscape:zoom="5.66" inkscape:cx="63.11" inkscape:cy="33.06" inkscape:window-width="1920" inkscape:window-height="964" inkscape:window-x="1920" inkscape:window-y="30" inkscape:window-maximized="1" inkscape:current-layer="svg4"/><path d="M13.69 0C7.72 0 2.49 3.93.68 9.78c-1.22 3.67-.78 8.6 1.17 13.18 2.66 6.26 7.5 10.6 11.78 10.6h.12c4.28 0 9.12-4.34 11.78-10.6 1.96-4.59 2.4-9.51 1.17-13.18v-.02l-.01-.03a13.66 13.66 0 00-13-9.73zm0 2.21c2.49 0 4.82.81 6.73 2.23-2.17-.1-4.52.86-6.73 2.77-2.2-1.91-4.56-2.87-6.73-2.78a11.29 11.29 0 016.73-2.22zM7.35 6.64c1.5.02 3.16.75 4.78 2.1a22.12 22.12 0 00-3.78 6.06c-1.87 4.4-2.3 8.94-1.43 12.45a21.28 21.28 0 01-3.1-5.18c-1.75-4.1-2.17-8.43-1.1-11.6.55-1.66 1.49-2.85 2.7-3.43.6-.28 1.24-.42 1.93-.4zm12.69 0c.68-.02 1.33.12 1.92.4 1.21.58 2.15 1.77 2.71 3.44 1.06 3.16.65 7.49-1.1 11.59a21.29 21.29 0 01-3.11 5.18c.86-3.51.45-8.05-1.43-12.45a22.13 22.13 0 00-3.78-6.06c1.62-1.35 3.29-2.08 4.79-2.1zm97.29.9a.28.28 0 00-.28.28v7a5.24 5.24 0 00-4.35-2.3c-3.49 0-6.02 2.83-6.02 7.36 0 4.64 2.56 7.37 6.02 7.37a5.4 5.4 0 004.35-2.27v1.64c0 .15.12.28.28.28h2.4c.15 0 .27-.13.27-.28V7.82a.28.28 0 00-.28-.28h-2.4zm-47.54 0a.28.28 0 00-.27.28v18.8c0 .15.12.28.27.28h2.4c.15 0 .28-.13.28-.28v-9.53a4.48 4.48 0 013.48-1.86c1.66 0 2.72.64 2.72 2.84v8.55c0 .15.13.28.28.28h2.4c.15 0 .28-.13.28-.28v-9.65c0-2.87-1.47-4.44-4.39-4.44a6.32 6.32 0 00-4.77 2.24V7.82a.28.28 0 00-.28-.28h-2.4zm31.5 0a.28.28 0 00-.28.28v18.8c0 .15.12.28.28.28h2.4c.14 0 .27-.13.27-.28V7.82a.28.28 0 00-.28-.28h-2.4zm-87.6 2.72c1.34 1.5 2.5 3.36 3.38 5.43 2.78 6.53 2.04 13.52-1.61 15.26a4.2 4.2 0 01-1.77.4 4.2 4.2 0 01-1.77-.4c-3.65-1.74-4.39-8.73-1.61-15.26a19.92 19.92 0 013.38-5.43zm47.12 2.27c-1.77 0-3.35.87-4.36 2.26v-1.63a.28.28 0 00-.27-.28h-2.4a.28.28 0 00-.28.28v18.8c0 .15.13.28.28.28h2.4c.15 0 .27-.13.27-.28v-7a5.39 5.39 0 004.36 2.29c3.51 0 6.01-2.76 6.01-7.38 0-4.61-2.5-7.34-6.01-7.34zm30.5 0c-4.32 0-6.96 3.3-6.96 7.35 0 4 2.64 7.37 6.97 7.37 4.32 0 6.97-3.37 6.97-7.38 0-4.03-2.65-7.34-6.97-7.34zm-53.18.35a.28.28 0 00-.27.28v9.65c0 2.84 1.46 4.44 4.38 4.44a6.4 6.4 0 004.78-2.2v1.57c0 .15.12.28.27.28h2.4c.15 0 .27-.13.27-.28V13.16a.28.28 0 00-.27-.28h-2.4a.28.28 0 00-.27.28v9.56a4.45 4.45 0 01-3.46 1.83c-1.69 0-2.76-.7-2.76-2.87v-8.52a.28.28 0 00-.27-.28h-2.4zm21.8 2.35c2.34 0 3.86 1.92 3.86 4.64 0 2.73-1.52 4.68-3.85 4.68a4.4 4.4 0 01-3.49-1.92V17.1a4.38 4.38 0 013.49-1.86zm31.39 0c2.52 0 3.9 2.18 3.9 4.64 0 2.5-1.38 4.68-3.9 4.68-2.5 0-3.9-2.18-3.9-4.68 0-2.46 1.4-4.64 3.9-4.64zm22.25 0c1.37 0 2.83.84 3.48 1.89v5.54a4.37 4.37 0 01-3.48 1.89c-2.36 0-3.85-1.95-3.85-4.68 0-2.7 1.49-4.64 3.85-4.64zM9.7 36.73a1.3 1.3 0 00-1.22.96c-.2.7.19 1.44.87 1.65 1.43.44 2.86.66 4.26.66h.17c1.39 0 2.81-.22 4.23-.65.68-.21 1.07-.95.87-1.65-.2-.7-.92-1.1-1.6-.9-1.18.36-2.36.54-3.5.54h-.17c-1.15 0-2.34-.18-3.53-.55a1.25 1.25 0 00-.38-.05z" fill="#34cc72"/></svg>
