<svg id="Layer_1" data-name="Layer 1" xmlns="http://www.w3.org/2000/svg" viewBox="0 0 35 35"><defs><style>.cls-1{fill:#107c10}</style></defs><path class="cls-1" d="M6.81 6.6a15.24 15.24 0 0 0-1.43 20.09.07.07 0 0 0 .08 0 .06.06 0 0 0 0-.08c-1.16-3.59 4.78-12.3 7.85-16a.07.07 0 0 0 0-.05c-5.16-5.14-6.54-4-6.52-4M28.19 6.6a15.24 15.24 0 0 1 1.42 20.08.07.07 0 0 1-.08 0 .06.06 0 0 1 0-.08c1.16-3.59-4.77-12.31-7.84-16a.07.07 0 0 1 0-.05c5.16-5.14 6.53-4 6.51-4M17.5 2.22a15 15 0 0 1 7.94 2.23.06.06 0 0 1 0 .08.06.06 0 0 1-.07 0c-3-.64-7.43 1.91-7.86 2.17h-.06c-1.11-.63-5.25-2.8-7.86-2.13a.06.06 0 0 1-.07 0 .06.06 0 0 1 0-.08 15 15 0 0 1 8-2.25M17.5 14.44c4.56 3.47 12.36 12 10 14.46a15.24 15.24 0 0 1-20.06 0c-2.38-2.42 5.42-11 10-14.46h.05"/></svg>