<?xml version="1.0" encoding="UTF-8" standalone="no"?>
<svg
   xmlns:dc="http://purl.org/dc/elements/1.1/"
   xmlns:cc="http://creativecommons.org/ns#"
   xmlns:rdf="http://www.w3.org/1999/02/22-rdf-syntax-ns#"
   xmlns:svg="http://www.w3.org/2000/svg"
   xmlns="http://www.w3.org/2000/svg"
   version="1.1"
   id="svg2"
   height="28.974039"
   width="63.225761">
  <defs
     id="defs4" />
  <metadata
     id="metadata7">
    <rdf:RDF>
      <cc:Work
         rdf:about="">
        <dc:format>image/svg+xml</dc:format>
        <dc:type
           rdf:resource="http://purl.org/dc/dcmitype/StillImage" />
        <dc:title></dc:title>
      </cc:Work>
    </rdf:RDF>
  </metadata>
  <g
     transform="translate(-174.65582,-240.09191)"
     id="layer1">
    <g
       style="fill:#f59812;fill-opacity:1"
       transform="translate(-174.82967,-127.67255)"
       id="g3015">
      <text
         style="font-size:40px;line-height:0%;font-family:'Continuum Light';letter-spacing:0;word-spacing:0;fill:#f59812;fill-opacity:1"
         x="111.43"
         y="278.07999"
         word-spacing="0"
         line-height="125%"
         letter-spacing="0"
         font-size="40"
         id="text3017">
        <tspan
           style="fill:#f59812;fill-opacity:1"
           x="111.43"
           y="278.07999"
           id="tspan3019" />
      </text>
      <g
         style="fill:#f59812;fill-opacity:1"
         transform="translate(-34.85,1.263)"
         id="g3021"><path
   style="fill:#f59812;fill-opacity:1"
   d="m 422.65625,368.1875 a 0.508367,0.508367 0 0 0 -0.34375,0.5 v 6.313 h -9.531 c -2.063,0 -3.742,0.548 -4.969,1.688 -1.234,1.146 -1.844,2.805 -1.844,4.875 v 8.938 0.063 c -0.025,0.234 -0.063,0.482 -0.063,0.75 0,1.27 0.37,2.458 1.094,3.5 0.73,1.051 1.737,1.772 2.938,2.094 0.669,0.183 1.597,0.25 2.875,0.25 h 4.688 c 2.264,0 4.03,-0.521 5.25,-1.625 1.219,-1.104 1.812,-2.745 1.813,-4.813 v -22.03 a 0.508367,0.508367 0 0 0 -0.5,-0.5 h -1.25 a 0.508367,0.508367 0 0 0 -0.15625,0 M 384.8125,375 a 0.508367,0.508367 0 0 0 -0.25,0.8125 l 8.03,10.313 -8.156,10.219 a 0.508367,0.508367 0 0 0 0.40625,0.8125 h 1.688 a 0.508367,0.508367 0 0 0 0.40625,-0.1875 l 7.094,-9 7.06,9 a 0.508367,0.508367 0 0 0 0.40625,0.1875 h 1.656 a 0.508367,0.508367 0 0 0 0.40625,-0.8125 l -8.06,-10.25 7.906,-10.281 A 0.508367,0.508367 0 0 0 403,375 h -1.688 a 0.508367,0.508367 0 0 0 -0.40625,0.1875 l -6.875,9.03 -6.969,-9.03 A 0.508367,0.508367 0 0 0 386.65625,375 h -1.688 a 0.508367,0.508367 0 0 0 -0.15625,0 m 44.75,0 a 0.508367,0.508367 0 0 0 -0.34375,0.5 v 1.281 a 0.508367,0.508367 0 0 0 0.5,0.5 h 11.594 c 1.426,0 2.405,0.329 3.03,0.938 0.626,0.608 0.969,1.556 0.969,2.938 v 0.875 h -10.125 c -1.806,0 -3.318,0.553 -4.406,1.656 -1.086,1.101 -1.625,2.597 -1.625,4.406 v 3.156 c 0,1.499 0.451,2.82 1.344,3.844 0.009,0.011 0.022,0.02 0.031,0.031 1.137,1.349 2.794,2.031 4.781,2.031 h 6.344 c 1.86,0 3.378,-0.555 4.406,-1.688 1.019,-1.122 1.5,-2.658 1.5,-4.531 v -9.531 c 0,-2.065 -0.557,-3.715 -1.75,-4.813 -1.193,-1.098 -2.945,-1.594 -5.156,-1.594 h -10.938 a 0.508367,0.508367 0 0 0 -0.15625,0 m -16.812,2.313 h 9.563 v 13.344 c 0,1.304 -0.375,2.226 -1.063,2.906 -0.677,0.67 -1.728,1.141 -3.219,1.313 -0.023,0.003 -0.04,-0.002 -0.063,0 h -0.344 a 0.508367,0.508367 0 0 0 -0.0625,0 c -0.157,0.023 -0.282,0.031 -0.375,0.031 h -4.406 c -1.798,0 -2.981,-0.398 -3.594,-1 -0.614,-0.603 -1,-1.736 -1,-3.531 v -8.719 c 0,-1.71 0.615,-2.902 1.875,-3.75 v 0.031 c 0.573,-0.375 1.469,-0.625 2.688,-0.625 m 22.344,6.969 h 10.188 v 6.969 c 0,1.305 -0.318,2.179 -0.875,2.75 -0.557,0.571 -1.414,0.906 -2.688,0.906 h -6.5 c -0.14,0 -0.336,-0.016 -0.594,-0.063 -1.133,-0.199 -1.927,-0.626 -2.438,-1.219 -0.511,-0.593 -0.781,-1.382 -0.781,-2.469 v -3.094 c 0,-1.131 0.284,-1.968 0.781,-2.563 0.492,-0.588 1.243,-0.98 2.313,-1.156 0.017,-0.003 0.015,0.002 0.031,0 0.295,-0.043 0.49,-0.063 0.563,-0.063"
   transform="translate(0,-1.683)"
   id="path3023" />

        path
           id=&quot;path3025&quot;
           transform=&quot;translate(0.893,0)&quot;
           d=&quot;M 540.25,366.53125 A 0.461794,0.461794 0 0 0 539.8125,367 v 28 a 0.461794,0.461794 0 0 0 0.46875,0.46875 h 1.25 A 0.461794,0.461794 0 0 0 542,395 v -28 a 0.461794,0.461794 0 0 0 -0.46875,-0.46875 h -1.25 a 0.461794,0.461794 0 0 0 -0.0312,0 m -71.5938,0.0312 a 0.461794,0.461794 0 0 0 -0.4375,0.46875 v 6.344 h -9.594 c -2.055,0 -3.72,0.557 -4.938,1.688 -1.227,1.14 -1.844,2.814 -1.844,4.875 v 8.969 0.031 c -0.026,0.276 -0.031,0.514 -0.031,0.75 0,1.261 0.378,2.407 1.094,3.438 0.72,1.037 1.682,1.743 2.875,2.063 0.666,0.182 1.631,0.281 2.906,0.281 h 4.656 c 2.256,0 4.01,-0.508 5.219,-1.594 1.208,-1.086 1.812,-2.722 1.813,-4.781 v -22.06 a 0.461794,0.461794 0 0 0 -0.46875,-0.46875 h -1.219 a 0.461794,0.461794 0 0 0 -0.0312,0 m 13.312,6.781 c -0.246,0 -0.544,0.003 -0.906,0.031 -2.043,0.165 -3.617,0.762 -4.594,1.844 -0.975,1.081 -1.406,2.687 -1.406,4.75 v 9 c -0.035,0.149 -0.063,0.304 -0.063,0.563 0,1.9 0.744,3.464 2.156,4.531 1.268,0.952 2.911,1.406 4.875,1.406 h 10.938 A 0.461794,0.461794 0 0 0 493.4375,395 v -1.25 a 0.461794,0.461794 0 0 0 -0.46875,-0.46875 h -11.219 c -1.721,0 -2.815,-0.365 -3.406,-1 -0.483,-0.526 -0.875,-1.678 -1.031,-3.5 L 477.25,388.19 l 15.91,-6.94 a 0.461794,0.461794 0 0 0 0.28125,-0.4375 v -0.563 c 0,-2.299 -0.441,-4.056 -1.406,-5.188 -0.98,-1.148 -2.651,-1.661 -4.906,-1.688 l -5.156,-0.031 m 42.875,0 c -0.246,0 -0.544,0.003 -0.906,0.031 -2.044,0.165 -3.59,0.766 -4.563,1.844 -0.972,1.077 -1.438,2.682 -1.438,4.75 v 9 c -0.007,0.056 -0.028,0.128 -0.031,0.188 -0.005,0.109 0,0.226 0,0.375 0,1.9 0.744,3.464 2.156,4.531 1.268,0.952 2.911,1.406 4.875,1.406 h 10.906 A 0.461794,0.461794 0 0 0 536.3125,395 v -1.25 a 0.461794,0.461794 0 0 0 -0.46875,-0.46875 h -11.188 c -1.721,0 -2.815,-0.365 -3.406,-1 -0.489,-0.531 -0.906,-1.683 -1.063,-3.5 l -0.031,-0.594 15.875,-6.938 a 0.461794,0.461794 0 0 0 0.28125,-0.4375 v -0.563 c 0,-2.299 -0.441,-4.056 -1.406,-5.188 -0.98,-1.148 -2.651,-1.661 -4.906,-1.688 l -5.156,-0.031 m 74.53,0 c -0.246,0 -0.544,0.003 -0.906,0.031 -2.044,0.165 -3.59,0.766 -4.563,1.844 -0.972,1.077 -1.438,2.682 -1.438,4.75 v 9 c -0.007,0.056 -0.028,0.128 -0.031,0.188 -0.005,0.109 0,0.226 0,0.375 0,1.9 0.744,3.464 2.156,4.531 1.268,0.952 2.911,1.406 4.875,1.406 h 10.906 A 0.461794,0.461794 0 0 0 610.84375,395 v -1.25 a 0.461794,0.461794 0 0 0 -0.46875,-0.46875 h -11.188 c -1.721,0 -2.815,-0.365 -3.406,-1 -0.489,-0.531 -0.906,-1.683 -1.063,-3.5 l -0.031,-0.594 15.875,-6.938 a 0.461794,0.461794 0 0 0 0.28125,-0.4375 v -0.563 c 0,-2.299 -0.441,-4.056 -1.406,-5.188 -0.98,-1.148 -2.651,-1.661 -4.906,-1.688 l -5.156,-0.031 m -104.81255,0.0311 a 0.461794,0.461794 0 0 0 -0.375,0.65625 l 9.531,20.406 A 0.461794,0.461794 0 0 0 503.75,394.5 c 0.179,0.282 0.265,0.469 0.313,0.563 a 0.461794,0.461794 0 0 0 0.0312,0.0312 c 0.228,0.344 0.609,0.594 1.031,0.594 0.318,0 0.609,-0.186 0.813,-0.406 0.204,-0.22 0.341,-0.498 0.5,-0.844 L 516,374.03 a 0.461794,0.461794 0 0 0 -0.40625,-0.65625 h -1.438 a 0.461794,0.461794 0 0 0 -0.40625,0.28125 l -8.688,18.563 -8.625,-18.563 a 0.461794,0.461794 0 0 0 -0.40625,-0.28125 h -1.438 a 0.461794,0.461794 0 0 0 -0.0312,0 m 58.812,0 c -1.893,0 -3.402,0.433 -4.5,1.313 h -0.031 c -0.847,0.682 -1.49,1.498 -1.813,2.438 -0.243,0.728 -0.344,1.717 -0.344,2.969 v 8.938 0.063 c -0.024,0.245 -0.031,0.493 -0.031,0.719 0,2.384 1.202,4.167 3.406,5.156 0.76,0.348 1.841,0.5 3.313,0.5 h 5.063 c 2.037,0 3.662,-0.532 4.75,-1.625 1.088,-1.093 1.594,-2.7 1.594,-4.75 v -9 c 0,-2.152 -0.51,-3.846 -1.594,-5 -1.084,-1.154 -2.708,-1.719 -4.75,-1.719 h -5.063 m 22.594,0 c -2.099,0 -3.754,0.509 -4.875,1.563 -1.121,1.054 -1.656,2.619 -1.656,4.594 v 22.469 a 0.461794,0.461794 0 0 0 0.46875,0.46875 h 1.219 A 0.461794,0.461794 0 0 0 571.59375,402 v -6.531 h 10.03 c 2.326,0 4.136,-0.908 5.281,-2.656 0.604,-0.935 0.906,-2.211 0.906,-3.813 v -9.5 c 0,-1.969 -0.582,-3.55 -1.781,-4.594 -1.199,-1.044 -2.96,-1.531 -5.188,-1.531 h -4.875 m 44.28,0 c -0.163,0.023 -0.283,0.031 -0.344,0.031 a 0.461794,0.461794 0 0 0 -0.0625,0 c -1.762,0.182 -3.159,0.837 -4.094,1.938 -0.935,1.101 -1.375,2.614 -1.375,4.5 L 614.34,395 a 0.461794,0.461794 0 0 0 0.46875,0.46875 h 1.281 A 0.461794,0.461794 0 0 0 616.5625,395 v -15.16 c 0,-1.372 0.295,-2.357 0.844,-3.03 0.549,-0.674 1.351,-1.076 2.531,-1.188 A 0.461794,0.461794 0 0 0 620,375.59375 c 0.06,-0.012 0.234,0 0.469,0 h 1.625 a 0.461794,0.461794 0 0 0 0.46875,-0.46875 v -1.281 a 0.461794,0.461794 0 0 0 -0.46875,-0.46875 h -1.781 a 0.461794,0.461794 0 0 0 -0.0625,0 m 8.938,0 c -1.698,0 -3.149,0.407 -4.281,1.219 -1.258,0.907 -1.906,2.277 -1.906,3.938 v 1.313 c 0,1.784 0.546,3.208 1.656,4.156 1.111,0.949 2.728,1.406 4.781,1.406 h 4.938 c 1.209,0 1.929,0.264 2.313,0.75 a 0.461794,0.461794 0 0 0 0.0312,0.0312 c 0.341,0.401 0.615,1.241 0.719,2.5 l 0.063,1 v 0.031 c 0,0.077 -0.006,0.323 -0.031,0.75 -0.074,1.012 -0.387,1.68 -0.906,2.125 -0.519,0.445 -1.288,0.688 -2.406,0.688 h -10.625 A 0.461794,0.461794 0 0 0 623.0625,393.75 V 395 a 0.461794,0.461794 0 0 0 0.46875,0.46875 h 10.563 c 2.32,0 4.095,-0.869 5.03,-2.594 0.435,-0.808 0.594,-1.869 0.594,-3.188 v -1.031 c 0,-1.765 -0.417,-3.163 -1.313,-4.125 -0.895,-0.962 -2.237,-1.437 -3.906,-1.438 h -5.03 c -1.499,0 -2.564,-0.231 -3.156,-0.625 -0.762,-0.493 -1.125,-1.309 -1.125,-2.656 v -1.313 c 0,-0.969 0.352,-1.692 1.188,-2.313 0.473,-0.35 1.426,-0.594 2.844,-0.594 h 10.156 A 0.461794,0.461794 0 0 0 639.845,375.123 v -1.281 a 0.461794,0.461794 0 0 0 -0.47,-0.467 h -10.188 m -146.91,2.219 h 4.281 c 1.605,0 2.76,0.325 3.5,0.906 0.74,0.581 1.119,1.405 1.156,2.656 0,0.026 -0.038,0.291 -0.063,0.5 l -13.938,6.125 v -6.188 c 0,-1.613 0.443,-2.623 1.313,-3.219 0.726,-0.499 1.985,-0.781 3.75,-0.781 m 42.906,0 h 4.25 c 1.605,0 2.76,0.325 3.5,0.906 0.74,0.581 1.119,1.405 1.156,2.656 0,0.077 -0.013,0.317 -0.031,0.531 l -13.938,6.094 v -6.188 c 0,-1.613 0.443,-2.623 1.313,-3.219 0.726,-0.499 1.985,-0.781 3.75,-0.781 m 28.22,0 h 4.969 c 1.485,0 2.524,0.348 3.188,1 0.664,0.652 1,1.651 1,3.094 v 9.875 c 0,1.776 -0.591,2.84 -1.906,3.438 -0.418,0.188 -1.19,0.281 -2.281,0.281 h -4.969 c -0.956,0 -1.632,-0.004 -1.906,-0.063 -0.911,-0.182 -1.541,-0.584 -1.969,-1.188 -0.428,-0.603 -0.656,-1.458 -0.656,-2.594 v -9.75 c 0,-1.967 0.638,-3.132 2.031,-3.781 0.376,-0.178 1.252,-0.312 2.5,-0.313 m 22.719,0 h 4.781 c 1.64,0 2.792,0.333 3.531,0.969 0.739,0.636 1.125,1.592 1.125,2.969 v 9.563 c 0,1.487 -0.34,2.525 -0.969,3.188 -0.629,0.662 -1.583,1 -2.969,1 h -10.03 v -13.625 c 0,-1.422 0.374,-2.409 1.094,-3.063 0.72,-0.653 1.841,-1 3.438,-1 m 23.594,0 h 4.25 c 1.605,0 2.76,0.325 3.5,0.906 0.74,0.581 1.119,1.405 1.156,2.656 0,0.077 -0.013,0.317 -0.031,0.531 l -13.938,6.094 v -6.188 c 0,-1.613 0.443,-2.623 1.313,-3.219 0.726,-0.499 1.985,-0.781 3.75,-0.781 m -141.13,0.031 h 9.625 v 13.375 c 0,1.311 -0.357,2.247 -1.063,2.938 -0.695,0.681 -1.783,1.14 -3.281,1.313 -0.023,0.003 -0.04,-0.002 -0.063,0 h -0.344 a 0.461794,0.461794 0 0 0 -0.0625,0 c -0.16,0.023 -0.281,0.031 -0.375,0.031 h -4.406 c -1.81,0 -3,-0.358 -3.625,-0.969 -0.618,-0.607 -0.969,-1.787 -0.969,-3.594 v -8.719 c 0,-1.727 0.575,-2.927 1.844,-3.781 0.584,-0.382 1.495,-0.594 2.719,-0.594&quot;
           inkscape:connector-curvature=&quot;0&quot;
           style=&quot;fill:#f59812;fill-opacity:1&quot; /&gt;
      </g>
    </g>
  </g>
</svg>
