<svg xmlns="http://www.w3.org/2000/svg" fill-rule="evenodd" stroke-linejoin="round" stroke-miterlimit="2" clip-rule="evenodd" viewBox="0 0 68 91"><path fill="#bf2519" fill-rule="nonzero" d="M31.87 2.45c-.3-1.1-1.2-1.9-2.4-2.3-3.8-1-18.6 3.2-21.3 6.1-.9.9-1.2 2.1-.9 3.1.4.9 18.7 30.1 18.7 30.1 2.7 4.4 4.9 3.8 5.6 3.5.7-.2 2.9-.9 2.7-6.1-.4-6.1-2.2-33.1-2.4-34.4zm-7.9 54.8c1.5-.4 2.5-1.8 2.6-3.5.1-1.8-.8-3.4-2.3-4l-4.2-1.7c-14.3-6-14.9-6.2-15.6-6.2-1.1-.1-2.1.5-2.8 1.6-1.4 2.3-2 9.7-1.5 14.6.2 1.6.5 3 .9 3.8.6 1.1 1.5 1.8 2.6 1.8.7 0 1.1-.1 14.4-4.4l5.9-2zm7.5 5.5c-1.6-.7-3.4-.3-4.4 1l-2.9 3.5c-10 12-10.4 12.5-10.7 13.2-.2.4-.2.9-.2 1.3 0 .6.3 1.3.8 1.8 2.3 2.8 13.4 7 17 6.4 1.2-.2 2.1-.9 2.5-2 .2-.7.3-1.2.3-15.3v-6.4c.2-1.5-.8-2.9-2.4-3.5zm34.8 2.8c-.6-.4-1-.6-14.3-5 0 0-5.8-2-5.9-2-1.4-.6-3-.1-4.1 1.3-1.1 1.4-1.3 3.2-.4 4.6l2.3 3.9c7.9 13 8.5 13.9 9 14.4.9.7 2 .8 3.2.3 3.4-1.4 10.7-10.8 11.2-14.5.2-1.2-.1-2.3-1-3zm-21.4-14.8c2.1-.4 19.3-4.5 20.7-5.5.9-.6 1.4-1.7 1.3-3v-.1c-.4-3.8-6.9-13.6-10.1-15.2-1.1-.5-2.3-.5-3.2.1-.6.4-1 1-9.1 12.2l-3.7 5.1c-1 1.2-1 2.9 0 4.4 1 1.6 2 2.4 4.1 2z"/></svg>