<svg xmlns="http://www.w3.org/2000/svg" fill-rule="evenodd" stroke-linejoin="round" stroke-miterlimit="2" clip-rule="evenodd" viewBox="0 0 356 80"><g fill="#2d8cff"><path d="M144.3 11.7C136.5 3.9 126.3 0 116 0c-10.2 0-20.5 3.9-28.3 11.7-15.6 15.6-15.6 40.9 0 56.6 15.6 15.6 40.9 15.6 56.6 0 15.6-15.6 15.6-41 0-56.6zM133 57c-9.4 9.4-24.6 9.4-33.9 0-9.4-9.4-9.4-24.6 0-33.9 9.4-9.4 24.6-9.4 33.9 0 9.3 9.3 9.3 24.5 0 33.9z"/><path d="M228.3 11.7C220.5 3.9 210.3 0 200 0c-10.2 0-20.5 3.9-28.3 11.7-15.6 15.6-15.6 40.9 0 56.6 15.6 15.6 40.9 15.6 56.6 0 15.6-15.6 15.6-41 0-56.6zM217 57c-9.4 9.4-24.6 9.4-33.9 0-9.4-9.4-9.4-24.6 0-33.9 9.4-9.4 24.6-9.4 33.9 0 9.3 9.3 9.3 24.5 0 33.9zM16 79.8l4 .2h60l-.2-4c-.5-6.6-5.2-11.4-11.8-11.8l-4-.2H28l48-48-.2-4C75.5 5.4 70.6.5 64 .2L60 0H0l.2 4C.7 10.5 5.5 15.4 12 15.8l4 .2h36L4 64l.2 4c.4 6.6 5.2 11.4 11.8 11.8zM289.8 24c1.4 2.4 1.8 5 2 8l.2 4v28l.2 4c.4 6.5 5.2 11.4 11.8 11.8l4 .2V36l.2-4c.2-3 .6-5.7 2-8.1 2.8-4.8 7.9-7.9 13.8-7.9s11.1 3.2 13.9 8c1.4 2.4 1.8 5.1 1.9 8l.2 4v28l.2 4c.4 6.6 5.2 11.4 11.8 11.8l4 .2V32c0-17.7-14.3-32-32-32-9.6 0-18.1 4.2-24 10.8C294.1 4.2 285.6 0 276 0c-6.6 0-12.8 2-17.9 5.5C255 2 248 0 244 0v80l4-.2c6.7-.4 11.5-5.2 11.8-11.8l.2-4V36l.2-4c.2-3 .6-5.7 2-8 2.8-4.8 7.9-8 13.8-8s11.1 3.2 13.8 8z"/></g></svg>