<?xml version="1.0" standalone="no"?>
<!DOCTYPE svg PUBLIC "-//W3C//DTD SVG 20010904//EN"
 "http://www.w3.org/TR/2001/REC-SVG-20010904/DTD/svg10.dtd">
<svg version="1.0" xmlns="http://www.w3.org/2000/svg"
 width="700.000000pt" height="700.000000pt" viewBox="0 0 700.000000 700.000000"
 preserveAspectRatio="xMidYMid meet">
<metadata>
Created by potrace 1.11, written by Peter Selinger 2001-2013
</metadata>
<g transform="translate(0.000000,700.000000) scale(0.100000,-0.100000)"
fill="#000000" stroke="none">
<path d="M540 6923 c-1 -82 -1 -631 0 -719 l0 -51 163 -31 c215 -41 197 -38
317 -62 58 -11 123 -23 144 -26 22 -4 58 -11 80 -18 l40 -12 0 -2503 c1 -1376
-1 -2506 -4 -2510 -4 -7 -165 -41 -255 -56 -19 -3 -44 -7 -105 -20 -14 -3 -59
-12 -100 -20 -41 -8 -86 -17 -100 -20 -50 -10 -144 -27 -162 -28 -17 -1 -18
-15 -18 -222 -1 -256 -1 -607 0 -617 0 -5 651 -8 1448 -8 l1447 0 -1 418 c-2
461 -1 433 -11 430 -8 -2 -18 -1 -213 37 -381 73 -506 98 -512 104 -6 5 -12
1153 -8 1511 l0 35 623 2 c577 2 866 7 927 17 14 3 57 7 95 11 39 3 77 8 85
10 8 2 37 6 63 10 68 8 228 42 317 66 543 148 947 410 1264 819 132 171 287
507 331 720 2 8 8 36 14 63 6 26 13 64 16 85 3 20 11 66 17 102 13 75 17 478
5 590 -80 757 -503 1355 -1197 1691 -240 116 -593 217 -855 244 -27 3 -56 6
-180 21 -22 3 -858 7 -1857 10 l-1818 5 0 -78z m3535 -1016 c11 -2 43 -8 70
-11 86 -12 254 -65 333 -105 96 -48 137 -76 219 -148 60 -54 178 -197 191
-233 3 -8 15 -31 27 -50 38 -64 96 -223 110 -305 2 -16 7 -41 10 -55 19 -86
24 -268 12 -400 -26 -270 -127 -491 -307 -670 -88 -87 -95 -94 -176 -143 -110
-67 -266 -120 -444 -152 -19 -4 -349 -9 -732 -12 l-698 -5 0 104 c-1 120 -1
1699 0 1994 l0 201 683 -3 c375 -1 691 -4 702 -7z"/>
</g>
</svg>
