<svg xmlns="http://www.w3.org/2000/svg" data-reactid="35" viewBox="0 0 80 80"><path fill="#ff9173" d="M9.52 51.86a3 3 0 1 0-3 3 3 3 0 0 0 3-3" data-reactid="37"/><path fill="#0bdcca" d="M21.36 51.86a3 3 0 1 0-3 3 3 3 0 0 0 3-3" data-reactid="38"/><path fill="#ff9173" d="M53.45 40a3 3 0 1 0-3 3 3 3 0 0 0 3-3" data-reactid="39"/><path fill="#0bdcca" d="M50.49 31.14a3 3 0 1 1 0-5.92h23a3 3 0 0 1 0 5.92z" data-reactid="40"/><path fill="#293754" d="M18.4 31.14a3 3 0 1 1 0-5.92h8.41a3 3 0 1 1 0 5.92z" data-reactid="41"/><path fill="#293754" d="M54.64 13.38a3 3 0 1 1 0 5.92h-4.15a3 3 0 1 1 0-5.92z" data-reactid="42"/><path fill="#ff9173" d="M69.45 16.34a3 3 0 1 0-3 3 3 3 0 0 0 3-3" data-reactid="43"/><path fill="#293754" d="M30.24 48.9a3 3 0 1 0 0 5.92h19.5a3 3 0 0 0 0-5.92z" data-reactid="44"/><path fill="#3f9fff" d="M4.52 43a3 3 0 1 1 0-5.92h34.13a3 3 0 1 1 0 5.92z" data-reactid="45"/><path fill="#3f9fff" d="M41 26.44c-2-2.87-2-5.44 0-8.36a3 3 0 1 0-4.78 0c2.09 2.87 2.09 5.49 0 8.36a3 3 0 1 0 4.78 0z" data-reactid="46"/><path fill="#3f9fff" d="M37.17 60.56a3 3 0 1 0 0 5.92h29.4a3 3 0 1 0 0-5.92z" data-reactid="47"/><path fill="#0bdcca" d="M26.81 19.3a3 3 0 1 0 0-5.92H13.54a3 3 0 0 0 0 5.92z" data-reactid="48"/><path fill="#0bdcca" d="M73.43 54.83a2.94 2.94 0 0 1-1.74-.57c-2.87-2.09-5.49-2.09-8.36 0a3 3 0 1 1 0-4.78c2.87 2.09 5.49 2.09 8.36 0a3 3 0 1 1 1.74 5.35" data-reactid="49"/><path fill="#293754" d="M25.33 66.48a3 3 0 0 1-1.74-.57c-2.87-2.09-5.49-2.09-8.36 0a3 3 0 1 1 0-4.78c2.87 2.09 5.49 2.09 8.36 0a3 3 0 1 1 1.74 5.35" data-reactid="50"/><path fill="#293754" d="M9.52 28.18a3 3 0 1 1-3-3 3 3 0 0 1 3 3" data-reactid="51"/><path fill="#3f9fff" d="M62.33 43a3 3 0 1 1 0-5.92h13.15a3 3 0 0 1 0 5.92z" data-reactid="52"/><path fill="#293754" d="M23.24 4.55a3 3 0 1 0 3-3 3 3 0 0 0-3 3" data-reactid="53"/><path fill="#3f9fff" d="M38 7.51a3 3 0 1 1 0-5.92h15.8a3 3 0 1 1 0 5.92z" data-reactid="54"/><path fill="#293754" d="M56.76 75.46a3 3 0 1 0-3 3 3 3 0 0 0 3-3" data-reactid="55"/><path fill="#3f9fff" d="M42 72.49a3 3 0 1 1 0 5.92H26.2a3 3 0 1 1 0-5.92z" data-reactid="56"/></svg>