<svg xmlns="http://www.w3.org/2000/svg" viewBox="0 0 320.1 99.9"><path fill="#ff5a5f" d="M168.7 25.1a6.5 6.5 0 1 1-13 0c0-3.6 2.8-6.5 6.5-6.5 3.7.1 6.5 3 6.5 6.5zm-26.8 13.1v1.6s-3.1-4-9.7-4a19.1 19.1 0 0 0-19.4 19.8c0 11.4 8.4 19.8 19.4 19.8 6.7 0 9.7-4.1 9.7-4.1V73c0 .8.6 1.4 1.4 1.4h8.1V36.8h-8.1c-.8 0-1.4.7-1.4 1.4zm0 24.1a10 10 0 0 1-8.1 4.1c-6.4 0-11.3-4-11.3-10.8s4.9-10.8 11.3-10.8c3.5 0 6.7 2 8.1 4.1v13.4zm15.5-25.5h9.6v37.6h-9.6V36.8zm143.4-1c-6.6 0-9.7 4-9.7 4V18.7h-9.6v55.7h8.1c.8 0 1.4-.7 1.4-1.4v-1.7s3.1 4.1 9.7 4.1c10.9 0 19.4-8.4 19.4-19.8s-8.5-19.8-19.3-19.8zm-1.6 30.5a9.8 9.8 0 0 1-8.1-4.1V48.8c1.5-2 4.7-4.1 8.1-4.1 6.4 0 11.3 4 11.3 10.8s-4.9 10.8-11.3 10.8zm-22.7-14.2v22.4h-9.6V53.2c0-6.2-2-8.7-7.4-8.7-2.9 0-5.9 1.5-7.8 3.7v26.2h-9.6V36.8h7.6c.8 0 1.4.7 1.4 1.4v1.6c2.8-2.9 6.5-4 10.2-4 4.2 0 7.7 1.2 10.5 3.6 3.4 2.8 4.7 6.4 4.7 12.7zm-57.7-16.3c-6.6 0-9.7 4-9.7 4V18.7h-9.6v55.7h8.1c.8 0 1.4-.7 1.4-1.4v-1.7s3.1 4.1 9.7 4.1c10.9 0 19.4-8.4 19.4-19.8a19 19 0 0 0-19.3-19.8zm-1.6 30.5a9.8 9.8 0 0 1-8.1-4.1V48.8c1.5-2 4.7-4.1 8.1-4.1 6.4 0 11.3 4 11.3 10.8s-4.9 10.8-11.3 10.8zm-26-30.5c2.9 0 4.4.5 4.4.5v8.9s-8-2.7-13 3v26.3H173V36.8h8.1c.8 0 1.4.7 1.4 1.4v1.6c1.8-2.1 5.7-4 8.7-4zM91.5 71L90 67.4l-2.3-5.1-.1-.1C80.7 47.2 73.3 32 65.5 17l-.3-.6-2.4-4.7c-1-1.8-2-3.7-3.6-5.5C56 2.2 51.4 0 46.5 0c-5 0-9.5 2.2-12.8 6a34.5 34.5 0 0 0-3.6 5.5l-2.4 4.7-.3.6C19.7 31.8 12.2 47 5.3 62l-.1.2-2.3 5.1-1.5 3.6a21.3 21.3 0 0 0 22.5 28.8c3.3-.4 6.7-1.5 10-3.4 4.1-2.3 8-5.6 12.4-10.4 4.4 4.8 8.4 8.1 12.4 10.4a26.4 26.4 0 0 0 12.6 3.6 21.2 21.2 0 0 0 21.1-18.2c.8-3.5.4-7-.9-10.7zm-45.1 5.2a49.3 49.3 0 0 1-10.1-18.6c-.5-2.3-.6-4.3-.3-6.1.2-1.6.8-3 1.6-4.2 1.9-2.7 5.1-4.4 8.8-4.4 3.7 0 7 1.6 8.8 4.4a9.7 9.7 0 0 1 1.6 4.2 16 16 0 0 1-.3 6.1 50.8 50.8 0 0 1-10.1 18.6zm39.9 4.7a14.9 14.9 0 0 1-16.7 12.7c-2.5-.3-5-1.1-7.6-2.6-3.6-2-7.2-5.1-11.4-9.7a56.4 56.4 0 0 0 12.1-22.1c.7-3.1.8-5.9.5-8.5-.4-2.5-1.3-4.8-2.7-6.8-3.1-4.5-8.3-7.1-14.1-7.1s-11 2.7-14.1 7.1c-1.4 2-2.3 4.3-2.7 6.8-.4 2.6-.3 5.5.5 8.5a58 58 0 0 0 12.1 22.2 45 45 0 0 1-11.4 9.7 19.7 19.7 0 0 1-7.6 2.6A14.9 14.9 0 0 1 6.5 81c-.3-2.5-.1-5 .9-7.8L8.7 70l2.3-5 .1-.2c6.9-14.9 14.3-30.1 22-44.9l.3-.6 2.4-4.6a22 22 0 0 1 2.8-4.4 10.5 10.5 0 0 1 16 0 22 22 0 0 1 2.8 4.4l2.4 4.6.3.6c7.6 14.9 15 30.1 21.9 45v.1l2.3 5 1.3 3.2c.8 2.6 1.1 5.1.7 7.7z"/></svg>