<?xml version="1.0" encoding="UTF-8" standalone="no"?>
<svg
   xmlns:dc="http://purl.org/dc/elements/1.1/"
   xmlns:cc="http://creativecommons.org/ns#"
   xmlns:rdf="http://www.w3.org/1999/02/22-rdf-syntax-ns#"
   xmlns:svg="http://www.w3.org/2000/svg"
   xmlns="http://www.w3.org/2000/svg"
   xml:space="preserve"
   enable-background="new 0 0 219 144"
   viewBox="0 0 69.065102 69.028"
   height="69.028"
   width="69.065102"
   y="0px"
   x="0px"
   id="Layer_1"
   version="1.1"><metadata
     id="metadata47"><rdf:RDF><cc:Work
         rdf:about=""><dc:format>image/svg+xml</dc:format><dc:type
           rdf:resource="http://purl.org/dc/dcmitype/StillImage" /><dc:title></dc:title></cc:Work></rdf:RDF></metadata><defs
     id="defs45" /><g
     transform="translate(-11.202,-35.246)"
     id="g40"><g
       id="g6"><path
         style="fill:#2ba6df"
         id="path2"
         d="m 20.984,35.246 h 49.468 c 3.34,0.394 6.483,2.344 8.227,5.239 0.878,1.479 1.509,3.154 1.556,4.887 -0.01,12.253 0,24.506 0,36.754 -2.521,-0.469 -4.968,-1.236 -7.418,-1.979 -5.192,-1.56 -10.25,-3.532 -15.35,-5.357 2.61,-4.56 4.541,-9.502 5.765,-14.602 -4.54,0.026 -9.079,0.01 -13.617,0.01 0.01,-1.629 -0.017,-3.263 0.01,-4.902 5.56,0.026 11.117,0 16.677,0.016 -0.021,-0.924 0.027,-1.852 -0.035,-2.775 -5.55,0.067 -11.106,0 -16.652,0.031 0.01,-2.724 -0.017,-5.442 0.01,-8.171 -2.307,0.015 -4.611,-0.031 -6.914,0.026 -0.638,-0.058 -1.11,0.571 -1.106,1.162 -0.026,2.329 -0.004,4.659 -0.004,6.982 -5.613,-0.01 -11.226,0.005 -16.829,-0.01 -0.016,0.917 -0.009,1.831 -0.009,2.754 5.612,-0.016 11.224,0.005 16.832,-0.016 0.005,1.645 -0.004,3.273 0.005,4.902 -4.648,0.016 -9.296,-0.032 -13.945,0.026 0.042,0.907 0.032,1.815 0.021,2.719 9.009,-0.006 18.022,0.016 27.033,-0.006 -0.96,3.201 -2.194,6.334 -3.782,9.285 -0.094,0.203 -0.243,0.25 -0.447,0.135 -5.923,-1.908 -11.962,-3.704 -18.197,-4.098 -3.58,-0.26 -7.253,0.497 -10.334,2.371 -2.882,1.738 -4.846,4.813 -5.456,8.097 -0.644,3.32 0.343,6.894 2.561,9.431 2.344,2.749 5.883,4.237 9.415,4.658 4.718,0.605 9.54,-0.467 13.728,-2.639 3.957,-2.039 7.413,-4.966 10.287,-8.343 0.269,-0.274 0.465,-0.675 0.824,-0.831 8.865,4.162 17.892,7.979 26.927,11.786 0.224,2.74 -0.736,5.511 -2.51,7.602 -1.754,2.125 -4.316,3.51 -7.044,3.884 H 20.747 c -3.036,-0.445 -5.899,-2.13 -7.615,-4.693 -1.081,-1.488 -1.675,-3.284 -1.93,-5.09 V 45.028 c 0.305,-2.188 1.182,-4.315 2.634,-5.986 1.795,-2.116 4.411,-3.434 7.148,-3.796 z" /><path
         style="fill:#2ba6df"
         id="path4"
         d="m 23.122,74.088 c 3.507,-1.628 7.532,-1.712 11.276,-0.98 4.524,0.902 8.747,2.869 12.865,4.882 -3.107,3.921 -6.93,7.476 -11.671,9.27 -3.393,1.329 -7.221,1.457 -10.697,0.373 -2.034,-0.654 -3.962,-1.871 -5.126,-3.702 -0.959,-1.469 -1.286,-3.333 -0.845,-5.031 0.566,-2.134 2.197,-3.925 4.198,-4.812 z" /></g></g></svg>