<svg xmlns="http://www.w3.org/2000/svg" viewBox="0 0 69.07 69.03"><g fill="#2ba6df"><path d="M9.78 0h49.47c3.34.4 6.48 2.34 8.23 5.24.87 1.48 1.5 3.15 1.55 4.89v36.75c-2.52-.47-4.96-1.24-7.42-1.98-5.19-1.56-10.24-3.53-15.34-5.36a55.5 55.5 0 0 0 5.76-14.6c-4.54.03-9.08.01-13.62.01.01-1.63-.01-3.26.01-4.9 5.56.03 11.12 0 16.68.02-.02-.93.03-1.86-.04-2.78-5.55.07-11.1 0-16.65.03.01-2.72-.01-5.44.01-8.17-2.3.02-4.6-.03-6.91.03-.64-.06-1.11.57-1.1 1.16-.03 2.33-.01 4.66-.01 6.98H13.57c-.02.9 0 1.82 0 2.74 5.6-.01 11.21.01 16.82-.01v4.9c-4.64.02-9.29-.03-13.94.03.04.9.03 1.81.02 2.72 9.01-.01 18.03.01 27.04-.01a49.7 49.7 0 0 1-3.79 9.28c-.09.2-.24.25-.44.14-5.93-1.9-11.96-3.7-18.2-4.1a17.5 17.5 0 0 0-10.33 2.37 12.08 12.08 0 0 0-5.46 8.1c-.64 3.32.34 6.9 2.56 9.43 2.35 2.75 5.88 4.24 9.42 4.66 4.71.6 9.54-.47 13.72-2.64a34.3 34.3 0 0 0 10.3-8.34c.26-.28.46-.68.82-.83 8.86 4.16 17.89 7.97 26.92 11.78.23 2.74-.73 5.51-2.5 7.6a11.14 11.14 0 0 1-7.05 3.89H9.55A11.15 11.15 0 0 1 0 59.24V9.78C.3 7.6 1.18 5.47 2.63 3.8A11.34 11.34 0 0 1 9.78 0z"/><path d="M11.92 38.84c3.5-1.63 7.53-1.71 11.28-.98 4.52.9 8.74 2.87 12.86 4.88-3.1 3.92-6.93 7.48-11.67 9.27a16.27 16.27 0 0 1-10.7.38 9.38 9.38 0 0 1-5.12-3.7 6.38 6.38 0 0 1-.85-5.04 7.5 7.5 0 0 1 4.2-4.8z"/></g></svg>