<svg xmlns="http://www.w3.org/2000/svg" xmlns:svg="http://www.w3.org/2000/svg" id="Layer_1" width="171.6" height="137.9" x="0" y="0" version="1.1" viewBox="0 0 171.6 137.9" xml:space="preserve"><metadata id="metadata59"/><style id="style2" type="text/css">.st0{fill:#fff}</style><g style="fill:#00bcf2;fill-opacity:1" id="g52" transform="translate(-22.4,-16.8)"><path style="fill:#00bcf2;fill-opacity:1" id="path4" d="m 104.5,84.8 0.3,-0.3 14.9,-0.9 C 95.5,98.5 76.8,110 64.7,117.5 77.8,106.8 96,91.8 104.5,84.8" class="st0"/><path style="fill:#00bcf2;fill-opacity:1" id="path6" d="m 145.4,48.4 c 3.8,-7.6 6.5,-12.9 7.9,-15.8 2.3,8.3 7.8,27.3 10.9,37.7 z" class="st0"/><path style="fill:#00bcf2;fill-opacity:1" id="path8" d="m 165.8,75.4 c 0,0 -0.1,-0.4 0,0 l -33,55.4 -5.7,20.3 c -0.1,-1.2 -0.1,-2.6 -0.1,-4.5 0,-9 0.8,-28.5 4.8,-70.6 16.5,-0.3 31.5,-0.6 34,-0.6" class="st0"/><path style="fill:#00bcf2;fill-opacity:1" id="path10" d="m 175.1,17 c 0,0.1 0,0.1 0,0.2 -0.2,1.7 -0.6,4 -1,6.9 -0.7,4.9 -1.7,11.6 -3,21.1 -1.4,10.1 -2.9,20.6 -3.8,26.6 L 154.9,30 Z" class="st0"/><path style="fill:#00bcf2;fill-opacity:1" id="path12" d="m 193.5,29.4 c 0.2,0.2 0.4,0.3 0.5,0.5 -0.2,0.1 -0.5,0.3 -1.2,0.5 -1.1,0.3 -4.9,1 -10.7,1.8 -2.2,0.3 -4.6,0.7 -7.1,1 l 2.3,-16.4 c 4.5,3.5 14.6,11.6 16.2,12.6" class="st0"/><path style="fill:#00bcf2;fill-opacity:1" id="path14" d="m 132.5,138.7 0.7,-2.9 9.5,15.8 -13.9,3.1 c 0,-0.1 0.1,-0.3 0.1,-0.4 0.2,-0.8 1.5,-6 3.6,-15.6" class="st0"/><path style="fill:#00bcf2;fill-opacity:1" id="path16" d="m 24.4,20.9 c 5.3,1.6 91.7,22 118,28.2 h 0.2 l -0.5,0.9 -0.9,1.8 c -4.7,9.2 -9.4,18.5 -11.2,22.1 -15.2,0.3 -41.3,0.8 -48.5,1 H 80.4 C 79,74.9 77.8,75 76.6,75 68.9,75 66.5,73.7 53,57.5 43.1,45.6 35.5,36.6 31,31.2 28.5,28.2 26.6,26 25.3,24.5 24.7,23.7 24.2,23.2 23.8,22.8 23.4,22.4 23.2,22.1 23,22 c 0.1,0 0.2,0.1 0.3,0.2 -0.2,-0.3 -0.4,-0.6 -0.5,-0.8 -0.2,-0.4 -0.4,-0.7 -0.4,-0.9 0,0 0.1,0 0.1,0 0.4,0 0.9,0.1 1.9,0.4" class="st0"/><path style="fill:#00bcf2;fill-opacity:1" id="path18" d="m 163.8,73.2 c -5,0.1 -17.4,0.3 -31.2,0.6 4.5,-9 8.5,-16.8 11.8,-23.3 z" class="st0"/><path style="fill:#00bcf2;fill-opacity:1" id="path20" d="m 77,127.9 c -9,0.4 -15.7,0.8 -19.7,1 -2.2,0.1 -3.9,0.2 -5.1,0.3 -0.6,0 -1.9,0.2 -1.9,0.2 5.9,-3.9 69.3,-43.1 69.3,-43.1 -7.2,9.8 -22.4,30.3 -25.3,35 -1.6,2.6 -2.6,4 -4.1,4.9 -0.1,0.1 -0.3,0.2 -0.5,0.2 -2.2,0.9 -5.8,1.2 -12.7,1.5" class="st0"/></g></svg>