<svg xmlns="http://www.w3.org/2000/svg" width="70.4" height="70.4" fill-rule="evenodd" clip-rule="evenodd"><path fill="#1073a8" stroke-width=".45" d="M0 0h70.4v70.4H0z"/><path fill="#0f6c9e" d="M0 35.2h70.4v35.2H0z"/><path fill="#fff" fill-rule="nonzero" d="M24.68 20.46c-1.12 0-2.47-.56-2.47-2.36v-2.59c0-4.05 5.96-5.5 11.8-5.5 8 0 18.34 2.02 18.34 15.4v30.93c0 2.14-1.01 3.15-3.04 3.15h-4.38c-1.92 0-2.93-.9-3.15-2.47-.23.34-3.15 3.37-8.55 3.37-9 .12-15.18-6.75-15.18-15.52 0-14.73 11.02-19 22.38-20.25-.23-3.26-1.46-5.62-6.64-5.62-5.28 0-7.3 1.46-9.1 1.46zm10.46 29.47c3.38 0 5.18-2.81 5.18-6.4V33.4c-5.3 1.24-10.46 3.04-10.46 10.12.1 3.49 1.68 6.41 5.28 6.41z"/></svg>