<svg xmlns="http://www.w3.org/2000/svg" xmlns:svg="http://www.w3.org/2000/svg" xmlns:xlink="http://www.w3.org/1999/xlink" id="Layer_1" width="70.396" height="70.396" version="1.1" viewBox="0 0 70.396 70.396"><metadata id="metadata111"/><style id="style2">.st11{clip-path:url(#SVGID_24_);fill:#fff}</style><defs id="defs5"><path id="SVGID_1_" d="m 45.6,53.1 c 0,1.8 -0.9,2.8 -2.8,2.8 H 37.7 C 35.9,55.9 35,55 35,53.1 V 2.8 C 35,0.9 35.9,0 37.7,0 h 5.1 c 1.9,0 2.8,0.9 2.8,2.8 v 50.3"/><clipPath id="SVGID_24_-1"><use id="use95-7" width="100%" height="100%" x="0" y="0" overflow="visible" xlink:href="#SVGID_23_"/></clipPath></defs><clipPath id="SVGID_2_"><use id="use7" width="100%" height="100%" x="0" y="0" overflow="visible" xlink:href="#SVGID_1_"/></clipPath><defs id="defs13"><path id="SVGID_3_" d="M 51.6,22.3 H 50.7 C 48.9,22.3 48,21.4 48,19.5 V 15.8 C 48,14 48.9,13 50.7,13 h 0.9 V 6.9 c 0,-1.8 0.3,-3.8 2.5,-4.4 l 4.3,-1.3 c 2.4,-0.7 3.7,0.2 3.7,2.5 V 13 h 3.5 c 1.8,0 2.7,0.9 2.7,2.8 v 3.7 c 0,1.8 -0.9,2.8 -2.7,2.8 H 62.1 V 45 c 0,2.2 1.2,2.9 2.8,2.9 H 66 c 1.2,0 2,0.4 2,2.3 v 2.9 c 0,2.8 -2.8,4 -5.7,4 C 56.9,57.1 51.5,54 51.5,46.5 V 22.3"/></defs><clipPath id="SVGID_4_"><use id="use15" width="100%" height="100%" x="0" y="0" overflow="visible" xlink:href="#SVGID_3_"/></clipPath><defs id="defs21"><path id="SVGID_5_" d="m 99.5,34.8 c 0,1.8 -0.9,2.8 -2.7,2.8 H 80.6 v 3 c 0,4.7 2.1,7.2 7.1,7.2 3.4,0 4.7,-1.4 6.9,-1.4 2,0 2.7,1.6 2.7,2.8 v 1.3 C 97.3,54 94,57 87,57 75.9,57 70,50.3 70,39.7 V 26.5 C 70,17.6 76.3,12 84.7,12 c 8.5,0 14.7,5.6 14.7,14.5 v 8.3 z M 89,26.5 c 0,-4 -1.6,-6 -4.2,-6 -2.6,0 -4.2,2 -4.2,6 v 2.8 H 89 Z"/></defs><clipPath id="SVGID_6_"><use id="use23" width="100%" height="100%" x="0" y="0" overflow="visible" xlink:href="#SVGID_5_"/></clipPath><defs id="defs29"><path id="SVGID_7_" d="m 113.6,53.3 c 0,1.8 -0.9,2.8 -2.8,2.8 h -5.1 c -1.8,0 -2.7,-0.9 -2.7,-2.8 V 15.7 c 0,-1.9 0.9,-2.8 2.7,-2.8 h 5.1 c 2,0 2.8,0.9 2.8,3 1.6,-1.8 4.2,-3.9 7.3,-3.9 2,0 2.2,1.3 2.2,2.3 v 4.4 c 0,2.4 -2,2.7 -4,2.9 -3.3,0.4 -5.5,3.2 -5.5,7.3 v 24.4"/></defs><clipPath id="SVGID_8_"><use id="use31" width="100%" height="100%" x="0" y="0" overflow="visible" xlink:href="#SVGID_7_"/></clipPath><defs id="defs37"><path id="SVGID_9_" d="m 145.9,27.2 c 0,-3.4 -1.5,-6 -4.6,-6 -3.1,0 -4.6,2.5 -4.6,6 v 26.2 c 0,1.8 -0.9,2.8 -2.8,2.8 h -5.1 c -1.8,0 -2.7,-0.9 -2.7,-2.8 V 15.7 c 0,-1.9 0.9,-2.8 2.7,-2.8 h 5.1 c 1.8,0 2.8,0.9 2.8,2.8 0,0 2.8,-3.6 8.2,-3.6 7.9,0 11.6,6 11.6,15.2 v 26.2 c 0,1.8 -0.9,2.8 -2.8,2.8 h -5.1 c -1.8,0 -2.7,-0.9 -2.7,-2.8 V 27.2"/></defs><clipPath id="SVGID_10_"><use id="use39" width="100%" height="100%" x="0" y="0" overflow="visible" xlink:href="#SVGID_9_"/></clipPath><defs id="defs45"><path id="SVGID_11_" d="m 165.9,21.3 c -1,0 -2.2,-0.5 -2.2,-2.1 v -2.3 c 0,-3.6 5.3,-4.9 10.4,-4.9 7.1,0 16.3,1.8 16.3,13.7 v 27.5 c 0,1.9 -0.9,2.8 -2.7,2.8 h -3.9 c -1.7,0 -2.6,-0.8 -2.8,-2.2 -0.2,0.3 -2.8,3 -7.6,3 -7.9,0 -13.4,-6.1 -13.4,-13.9 0,-13.1 9.8,-16.9 19.8,-18 -0.2,-2.9 -1.3,-4.9 -5.9,-4.9 -4.6,0 -6.4,1.3 -8,1.3 z m 9.3,26.2 c 3,0 4.6,-2.5 4.6,-5.7 v -9 c -4.7,1.1 -9.3,2.7 -9.3,9 0.1,3.1 1.5,5.7 4.7,5.7 z"/></defs><clipPath id="SVGID_12_"><use id="use47" width="100%" height="100%" x="0" y="0" overflow="visible" xlink:href="#SVGID_11_"/></clipPath><defs id="defs53"><path id="SVGID_13_" d="m 195.6,22.3 h -0.9 c -1.8,0 -2.7,-0.9 -2.7,-2.8 v -3.7 c 0,-1.8 0.9,-2.8 2.7,-2.8 h 0.9 V 6.9 c 0,-1.8 0.3,-3.8 2.5,-4.4 l 4.3,-1.3 c 2.4,-0.7 3.7,0.2 3.7,2.5 V 13 h 3.5 c 1.8,0 2.7,0.9 2.7,2.8 v 3.7 c 0,1.8 -0.9,2.8 -2.7,2.8 h -3.5 V 45 c 0,2.2 1.2,2.9 2.8,2.9 h 1.1 c 1.2,0 2,0.4 2,2.3 v 2.9 c 0,2.8 -2.8,4 -5.7,4 -5.4,0 -10.8,-3.1 -10.8,-10.6 V 22.3"/></defs><clipPath id="SVGID_14_"><use id="use55" width="100%" height="100%" x="0" y="0" overflow="visible" xlink:href="#SVGID_13_"/></clipPath><defs id="defs61"><path id="SVGID_15_" d="m 226.6,6.4 c 0,1.8 -0.9,2.8 -2.8,2.8 h -5.1 C 216.9,9.2 216,8.3 216,6.4 V 2.8 C 216,0.9 216.9,0 218.7,0 h 5.1 c 1.9,0 2.8,0.9 2.8,2.8 z m 0,46.7 c 0,1.8 -0.9,2.8 -2.8,2.8 h -5.1 C 216.9,55.9 216,55 216,53.1 V 15.5 c 0,-1.9 0.9,-2.8 2.7,-2.8 h 5.1 c 1.9,0 2.8,0.9 2.8,2.8 z"/></defs><clipPath id="SVGID_16_"><use id="use63" width="100%" height="100%" x="0" y="0" overflow="visible" xlink:href="#SVGID_15_"/></clipPath><defs id="defs69"><path id="SVGID_17_" d="m 260.6,13 c 1.8,0 3.1,1.3 2.3,3.7 l -11.8,36.8 c -0.4,1.4 -1.4,2.8 -3.5,2.8 h -3.7 c -2.1,0 -3.1,-1.3 -3.5,-2.8 L 229.3,16.7 c -0.7,-2.4 0.5,-3.7 2.3,-3.7 h 4.5 c 2.2,0 3.2,1.1 3.6,2.8 l 6.5,23.8 7,-23.8 c 0.5,-1.8 1.4,-2.8 3.6,-2.8 h 3.8"/></defs><clipPath id="SVGID_18_"><use id="use71" width="100%" height="100%" x="0" y="0" overflow="visible" xlink:href="#SVGID_17_"/></clipPath><defs id="defs77"><path id="SVGID_19_" d="m 293.5,34.8 c 0,1.8 -0.9,2.8 -2.7,2.8 h -16.2 v 3 c 0,4.7 2.1,7.2 7.1,7.2 3.4,0 4.7,-1.4 6.9,-1.4 2,0 2.7,1.6 2.7,2.8 v 1.3 C 291.3,54 288,57 281,57 269.9,57 264,50.3 264,39.7 V 26.5 c 0,-8.9 6.3,-14.5 14.7,-14.5 8.5,0 14.7,5.6 14.7,14.5 v 8.3 z M 283,26.5 c 0,-4 -1.6,-6 -4.2,-6 -2.6,0 -4.1,2 -4.1,6 v 2.8 h 8.4 v -2.8 z"/></defs><clipPath id="SVGID_20_"><use id="use79" width="100%" height="100%" x="0" y="0" overflow="visible" xlink:href="#SVGID_19_"/></clipPath><defs id="defs85"><path id="SVGID_21_" d="m 319.8,2.8 v 4 c 0,1.8 -0.9,2.8 -2.8,2.8 h -7 c -1.1,0 -1.6,0.6 -1.6,1.7 v 41.8 c 0,1.8 -0.9,2.8 -2.7,2.8 h -5.5 c -1.9,0 -2.8,-0.9 -2.8,-2.8 V 11.3 c 0,-1.1 -0.6,-1.7 -1.6,-1.7 h -7 C 286.9,9.6 286,8.7 286,6.8 v -4 C 286,0.9 286.9,0 288.8,0 H 317 c 1.9,0 2.8,0.9 2.8,2.8"/></defs><clipPath id="SVGID_22_"><use id="use87" width="100%" height="100%" x="0" y="0" overflow="visible" xlink:href="#SVGID_21_"/></clipPath><defs id="defs93"><path id="SVGID_23_" d="m 5.9,21.3 c -1,0 -2.2,-0.5 -2.2,-2.1 V 16.9 C 3.7,13.3 9,12 14.2,12 c 7.1,0 16.3,1.8 16.3,13.7 v 27.5 c 0,1.9 -0.9,2.8 -2.7,2.8 h -3.9 c -1.7,0 -2.6,-0.8 -2.8,-2.2 -0.2,0.3 -2.8,3 -7.6,3 C 5.5,56.9 0,50.8 0,43 0,29.9 9.8,26.1 19.9,25 19.7,22.1 18.6,20 14,20 9.3,20 7.5,21.3 5.9,21.3 Z m 9.3,26.2 c 3,0 4.6,-2.5 4.6,-5.7 v -9 c -4.7,1.1 -9.3,2.7 -9.3,9 0.1,3.1 1.5,5.7 4.7,5.7 z"/></defs><clipPath id="SVGID_24_"><use id="use95" width="100%" height="100%" x="0" y="0" overflow="visible" xlink:href="#SVGID_23_"/></clipPath><rect id="rect4607" width="70.396" height="70.396" x="0" y="0" fill="#1073a8" fill-opacity="1" stroke-width=".448" opacity="1"/><rect id="rect4609" width="70.396" height="35.198" x="0" y="35.198" fill="#0f6c9e" fill-opacity="1" stroke-width=".996" opacity="1"/><path id="path98" fill="#fff" fill-opacity="1" d="M -5,7 H 35.4 V 61.9 H -5 Z" class="st11" clip-path="url(#SVGID_24_)" transform="matrix(1.1247928,0,0,1.1247928,18.045095,-3.4953692)"/><defs id="defs101"><path id="SVGID_25_" d="m 313,26.3 c 0,-10 7.5,-14.3 15.1,-14.3 7.6,0 15.1,4.3 15.1,14.3 v 16.4 c 0,10 -7.5,14.3 -15.1,14.3 C 320.5,57 313,52.7 313,42.7 Z m 10.6,16.4 c 0,3.3 1.8,5 4.6,5 2.8,0 4.6,-1.8 4.6,-5 V 26.3 c 0,-3.3 -1.8,-5 -4.6,-5 -2.8,0 -4.6,1.8 -4.6,5 z"/></defs><clipPath id="SVGID_26_"><use id="use103" width="100%" height="100%" x="0" y="0" overflow="visible" xlink:href="#SVGID_25_"/></clipPath></svg>