<?xml version="1.0" encoding="utf-8"?>
<!-- Generator: Adobe Illustrator 16.0.0, SVG Export Plug-In . SVG Version: 6.00 Build 0)  -->
<!DOCTYPE svg PUBLIC "-//W3C//DTD SVG 1.1//EN" "http://www.w3.org/Graphics/SVG/1.1/DTD/svg11.dtd">
<svg version="1.1"
	 id="Layer_1" xmlns:cc="http://creativecommons.org/ns#" xmlns:dc="http://purl.org/dc/elements/1.1/" xmlns:inkscape="http://www.inkscape.org/namespaces/inkscape" xmlns:rdf="http://www.w3.org/1999/02/22-rdf-syntax-ns#" xmlns:sodipodi="http://sodipodi.sourceforge.net/DTD/sodipodi-0.dtd" xmlns:svg="http://www.w3.org/2000/svg"
	 xmlns="http://www.w3.org/2000/svg" xmlns:xlink="http://www.w3.org/1999/xlink" x="0px" y="0px" width="512px" height="512px"
	 viewBox="0 0 512 512" enable-background="new 0 0 512 512" xml:space="preserve">
<path id="rect2987" fill="#FFFFFF" d="M64,0h384c35.347,0,64,28.654,64,64v384c0,35.347-28.653,64-64,64H64
	c-35.346,0-64-28.653-64-64V64C0,28.654,28.654,0,64,0z"/>
<path d="M292.578,183.824c-9.683,0.765-20.854,1.502-32.021,3.006c-17.12,2.211-34.24,5.219-48.386,11.907
	c-27.544,11.208-46.163,35.053-46.163,70.114c0,44.018,28.298,66.354,64.026,66.354c11.93,0,21.606-1.466,30.522-3.71
	c14.156-4.481,26.07-12.67,40.209-27.596c8.192,11.205,10.413,16.428,24.575,28.338c3.725,1.502,7.448,1.502,10.413-0.742
	c8.932-7.458,24.561-20.873,32.773-28.33c3.71-3.012,2.955-7.463,0.739-11.204c-8.198-10.435-16.381-19.401-16.381-39.506v-67.131
	c0-28.359,2.214-54.453-18.614-73.822c-17.123-15.687-43.93-21.642-64.77-21.642c-2.99,0-5.949,0-8.947,0
	c-37.965,2.247-78.169,18.635-87.122,65.629c-1.462,5.955,3.012,8.198,5.989,8.962l41.677,5.224
	c4.471-0.773,6.691-4.491,7.432-8.233c3.74-16.388,17.136-24.583,32.024-26.087c0.754,0,1.504,0,2.998,0
	c8.905,0,18.586,3.743,23.813,11.168c5.932,8.965,5.21,20.904,5.21,31.339v5.961H292.578z M292.578,227.102
	c0,17.162,0.723,30.571-8.195,45.461c-5.208,10.437-14.141,17.154-23.827,19.4c-1.481,0-3.698,0.766-5.947,0.766
	c-16.371,0-26.077-12.673-26.077-31.334c0-23.856,14.159-35.056,32.023-40.277c9.687-2.241,20.86-2.982,32.021-2.982v8.966H292.578z
	"/>
<path fill="#FE9900" d="M429.71,404.303c18.201-15.398,25.89-43.349,26.29-57.939v-2.44c0-3.255-0.803-5.661-1.6-6.88
	c-3.646-4.445-30.369-8.523-53.402-1.627c-6.468,2.045-12.146,4.865-17.396,8.507c-4.051,2.854-3.238,6.464,0.802,6.08
	c4.447-0.823,10.126-1.208,16.594-2.048c14.159-1.18,30.742-1.592,34.784,3.662c5.642,6.87-6.468,36.868-11.749,49.838
	C422.44,405.521,426.063,407.152,429.71,404.303L429.71,404.303z"/>
<path fill="#FE9900" d="M58.008,346.364c52.17,47.404,120.925,75.775,197.791,75.775c47.725,0,102.727-13.381,145.199-38.899
	c5.676-3.27,11.316-6.912,16.565-10.952c7.286-5.25,0.817-13.38-6.463-10.147c-3.229,1.215-6.873,2.857-10.103,4.066
	c-46.539,18.248-95.441,26.76-140.762,26.76c-72.008,0-141.56-19.87-197.786-52.684C57.19,337.461,53.542,342.711,58.008,346.364
	L58.008,346.364z"/>
</svg>
