<?xml version="1.0" encoding="UTF-8" standalone="no"?>
<svg
   xmlns:dc="http://purl.org/dc/elements/1.1/"
   xmlns:cc="http://creativecommons.org/ns#"
   xmlns:rdf="http://www.w3.org/1999/02/22-rdf-syntax-ns#"
   xmlns:svg="http://www.w3.org/2000/svg"
   xmlns="http://www.w3.org/2000/svg"
   id="svg"
   version="1.1"
   width="300"
   height="300"
   viewBox="0 0 300 300">
  <metadata
     id="metadata4532">
    <rdf:RDF>
      <cc:Work
         rdf:about="">
        <dc:format>image/svg+xml</dc:format>
        <dc:type
           rdf:resource="http://purl.org/dc/dcmitype/StillImage" />
        <dc:title></dc:title>
      </cc:Work>
    </rdf:RDF>
  </metadata>
  <defs
     id="defs4530" />
  <g
     transform="translate(-50.121287,-50.044554)"
     id="svgg">
    <path
       id="path0"
       d="m 186.833,67.663 c -8.906,1.277 -15.812,6.619 -21.586,16.695 -3.229,5.637 -93.884,229.64 -95.373,235.663 -1.675,6.777 -0.016,10.836 4.959,12.132 2.805,0.73 33.162,0.75 36.59,0.024 4.396,-0.931 5.502,-1.78 16.747,-12.842 23.948,-23.557 44.941,-39.978 71.663,-56.057 10.564,-6.356 28.314,-15.995 28.642,-15.553 0.123,0.166 13.146,31.388 22.361,53.608 11.43,27.563 11.877,28.271 19.331,30.554 3.006,0.921 37.844,0.941 40.143,0.023 3.35,-1.338 4.995,-3.545 5.267,-7.067 0.329,-4.258 0.666,-3.386 -27.245,-70.676 -6.084,-14.667 -11.135,-26.847 -11.226,-27.067 -0.094,-0.228 0.367,-0.622 1.075,-0.918 3.756,-1.569 13.252,-5.086 19.791,-7.33 C 326.976,208.901 331,205.831 331,193.65 c 0,-11.556 -7.396,-21.143 -18.501,-23.984 -4.996,-1.277 -3.291,-1.745 -39.468,10.817 -6.675,2.318 -12.307,4.149 -12.516,4.069 C 260.102,184.393 253.998,170.418 232.758,121 215.481,80.801 214.731,79.306 209.321,74.215 203.809,69.03 195.064,66.482 186.833,67.663 m 6.68,97.63 c 4.066,1.847 7.569,9.326 18.007,38.449 l 0.445,1.242 -2.899,1.554 c -18.127,9.718 -36.174,21.48 -51.538,33.593 -2.002,1.578 -3.683,2.825 -3.736,2.772 -0.053,-0.053 2.577,-6.766 5.844,-14.917 3.268,-8.15 9.356,-23.444 13.528,-33.986 8.879,-22.433 9.949,-24.811 12.161,-27.023 2.314,-2.315 5.402,-2.95 8.188,-1.684"
       style="fill:#11d48f;fill-opacity:1;fill-rule:evenodd;stroke:none" />
  </g>
</svg>
