<svg xmlns="http://www.w3.org/2000/svg" xmlns:xlink="http://www.w3.org/1999/xlink" version="1.1" viewBox="0 0 1501 512"><g><path fill="currentColor" d="M47 431h1408v-419h-582v69h-47v-69h-779v419v0zM0 -35h1501v512h-1501v-512v0zM306 314h-39l-67 -174h39l17 49h61l17 -49h38l-66 174v0zM267 221l19 53l20 -53h-39v0zM640 314v-35h61v-139h40v139h62v35h-163zM1257 314l-44 -74l-43 74h-42l67 -110v-64h37v64l67 110 h-42zM1055 231q-9 7 -19.5 10t-20.5 6q-3 0 -5 0.5t-4 1.5h-1q-9 2 -17.5 6t-8.5 14t9 14t17 4t16.5 -3.5t11.5 -15.5v0h34v0q-1 24 -17 37t-44 13q-21 0 -41 -11t-20 -39q0 -29 21 -38.5t43 -15.5q2 0 4.5 -0.5t4.5 -1.5q11 -3 17 -8.5t6 -12.5q0 -16 -15 -19.5t-19 -3.5 q-15 0 -23.5 6t-10.5 18h-1h-34v-1q0 -10 2 -17t9 -15q12 -14 29 -18t28 -4q25 0 46.5 13t21.5 41q0 12 -5 23t-14 17v0zM556 214q10 7 15.5 19t5.5 25q0 15 -6.5 27.5t-18.5 19.5q-10 6 -20.5 7.5t-20.5 1.5h-77v-174h36v86l68 -86h44l-51 64q7 1 13 3t12 7v0zM470 233v46 h41q6 0 11.5 -0.5t9.5 -3.5q5 -3 7 -8t2 -11q0 -12 -8 -17.5t-25 -5.5h-38v0z" transform="matrix(1 0 0 -1 0 480)"/></g></svg>