<svg xmlns="http://www.w3.org/2000/svg" display="block" viewBox="0 0 394.202 394.037" height="776.254" width="788.403"><g fill-rule="evenodd"><path fill="#4db0ab" d="M311.007 85.184c-15.84 15.942-28.857 29.146-28.927 29.342-.07.196 1.205 2.03 2.834 4.075 3.147 3.951 7.961 11.142 10.466 15.635 1.443 2.588 1.556 2.691 2.371 2.159a671.45 671.45 0 0 1 5.456-3.43c2.53-1.58 7.39-4.649 10.8-6.822 3.41-2.172 7.28-4.625 8.6-5.451a3780.296 3780.296 0 0 0 21.8-13.784c4.672-2.997 9.833-6.238 18.2-11.43 3.08-1.912 5.759-3.618 5.954-3.791.662-.591-8.172-12.95-15.13-21.168-3.595-4.246-13.138-14.433-13.453-14.361-.094.022-13.131 13.083-28.971 29.026m68.8 51.369c-7.564 2.639-14.533 5.036-36 12.381L320.7 156.84c-7.649 2.618-13.976 4.831-14.06 4.919-.085.088.447 2.776 1.181 5.974 1.341 5.839 2.581 13.956 2.592 16.969.011 2.973-.389 2.906 10.268 1.722 5.239-.582 23.656-2.588 40.926-4.459 17.27-1.871 32.345-3.515 33.5-3.653l2.1-.251v-1.683c0-8.99-7.066-42.721-8.932-42.638-.257.011-4.068 1.277-8.468 2.813m-69.564 76.464c-.11.716-.404 2.832-.652 4.702-.473 3.571-2.268 11.958-3.542 16.551-.532 1.92-.619 2.755-.297 2.868a4621.274 4621.274 0 0 0 23.655 8.196 8805.5 8805.5 0 0 1 20.8 7.18c6.38 2.211 15.74 5.442 20.8 7.179 5.06 1.737 10.715 3.72 12.566 4.406 1.851.687 3.504 1.107 3.672.934 1.947-1.994 8.934-33.159 9.259-41.3l.103-2.566-19.2-2.089c-10.56-1.15-29.28-3.18-41.6-4.512-12.32-1.332-23.067-2.519-23.882-2.636-1.42-.206-1.489-.161-1.682 1.087m-18.819 53.802c-3.373 5.19-8.087 11.489-10.785 14.411l-1.21 1.311 29.048 29.047 29.048 29.048 5.472-5.559a209.475 209.475 0 0 0 20.558-24.305c3.384-4.683 3.299-4.177.951-5.624a434.746 434.746 0 0 1-5.362-3.4 2110.96 2110.96 0 0 0-16.975-10.823 6461.204 6461.204 0 0 1-11.762-7.438c-16.027-10.162-19.114-12.114-22.94-14.514a631.168 631.168 0 0 1-7.974-5.1c-2.152-1.405-4.044-2.554-4.204-2.554-.16 0-1.899 2.475-3.865 5.5"/><path fill="#452e59" d="M182.007.391c-19.055 1.396-45.614 6.702-55.755 11.138-.685.299-4.305 1.744-8.045 3.21-11.815 4.631-28.649 13.763-37.8 20.507-1.65 1.216-4.35 3.203-6 4.415C39.831 65.071 13.18 104.58 3.273 145.119c-2.375 9.716-2.955 12.539-3.901 19-7.166 48.903 2.12 99.036 25.154 135.8 4.231 6.752 5.73 8.963 9.493 14 22.239 29.767 53.575 53.961 85.788 66.238 2.86 1.09 5.76 2.232 6.445 2.539 20.967 9.391 68.025 13.957 100.955 9.796 12.823-1.62 32.059-6.074 40.8-9.448 15.017-5.796 23.001-9.432 31.572-14.379 4.181-2.413 4.115-2.093 1.31-6.376-2.191-3.346-3.364-5.201-10.163-16.08a856.244 856.244 0 0 0-4.74-7.49 2052.88 2052.88 0 0 1-7.47-11.8c-2.976-4.73-6.346-10.04-7.49-11.8a511.903 511.903 0 0 1-5.185-8.238c-1.707-2.771-3.508-5.543-4.001-6.161l-.896-1.124-2.568 1.731c-1.413.953-2.659 1.847-2.769 1.988-1.273 1.629-15.758 8.509-22.795 10.827-41.137 13.553-84.966 2.38-114.251-29.125-5.875-6.319-16.554-20.471-16.554-21.936 0-.164-.265-.592-.59-.951-1.893-2.092-8.618-17.374-10.742-24.411-4.155-13.767-5.646-24.446-5.643-40.4.002-13.116.053-13.719 2.198-26 7.409-42.416 39.437-80.062 78.305-92.038 12.246-3.773 31.358-5.754 41.956-4.349 9.785 1.298 12.833 1.816 17.716 3.011a96.945 96.945 0 0 1 34 15.729c4.516 3.271 3.617 3.625 7.803-3.068a2859.81 2859.81 0 0 1 12.71-20.093c1.902-2.974 2.863-4.491 9.88-15.592a7160.427 7160.427 0 0 1 9.887-15.6c7.326-11.528 6.938-9.703 2.613-12.287-17.601-10.515-34.258-16.902-59.093-22.658-14.343-3.324-43.774-5.246-61-3.983"/></g></svg>