<svg xmlns="http://www.w3.org/2000/svg" viewBox="0 0 468.79 58.04"><defs><clipPath id="a"><path d="M271.72 43.3h37.96V0h-37.96z"/></clipPath><clipPath id="b"><path d="M271.72 43.3h37.96V0h-37.96z"/></clipPath><clipPath id="c"><path d="M312.61 43.3h38.98V0h-38.98z"/></clipPath><clipPath id="d"><path d="M312.61 43.3h38.98V0h-38.98z"/></clipPath><clipPath id="e"><path d="M216.1 43.53H259V.3H216.1z"/></clipPath><clipPath id="f"><path d="M216.1 43.53h42.91V.3H216.1z"/></clipPath><clipPath id="g"><path d="M123.7 43.53h33.81V.3h-33.8z"/></clipPath><clipPath id="h"><path d="M123.7 43.53h33.81V.3h-33.8z"/></clipPath><clipPath id="i"><path d="M271.72 43.3h37.96V0h-37.96z"/></clipPath><clipPath id="j"><path d="M271.72 43.3h37.96V0h-37.96z"/></clipPath><clipPath id="k"><path d="M216.1 43.53H259V.3H216.1z"/></clipPath><clipPath id="l"><path d="M216.1 43.53h42.91V.3H216.1z"/></clipPath><clipPath id="m"><path d="M123.7 43.53h33.81V.3h-33.8z"/></clipPath><clipPath id="n"><path d="M123.7 43.53h33.81V.3h-33.8z"/></clipPath></defs><path d="M206.28 41.3l8.4 8.46.4-.38a29.12 29.12 0 0 0 3.82-4.55l-10.4-6.6a18.25 18.25 0 0 1-2.22 3.08" fill="#41b7b2"/><path d="M159.91 19.8c0-6.5-1.85-11.2-5.54-14.13-3.7-2.93-9.9-4.4-18.57-4.4h-21.15V57.1h12.45V39.28h8.62l12.38 17.8h15.33L149.3 37.14c7.07-2.61 10.61-8.39 10.61-17.33m-15 6.63c-1.55 1.38-4.45 2.07-8.7 2.07h-9.1V11.98h9.33c4 0 6.79.56 8.38 1.67 1.6 1.12 2.4 3.18 2.4 6.19 0 3-.77 5.2-2.31 6.59M29.86 11.9c5.85 0 10.75 2.44 14.69 7.34l7.74-8.78C46.12 3.49 38.45 0 29.3 0 21.1 0 14.17 2.77 8.5 8.3 2.83 13.84 0 20.75 0 29.02c0 8.28 2.78 15.13 8.34 20.56 5.56 5.43 12.64 8.14 21.24 8.14 8.6 0 16.06-3.56 22.4-10.7l-7.99-8.22c-3.88 4.85-8.89 7.27-15.01 7.27-4.47 0-8.28-1.57-11.42-4.71-3.14-3.14-4.7-7.3-4.7-12.5 0-5.19 1.66-9.31 4.98-12.37a17.12 17.12 0 0 1 12.02-4.6M92.45 24.59h-22.2V1.28H57.8v55.8h12.46V35.14h22.2v21.96h12.45V1.28H92.45zM400.37 44.31c-2.87 1.65-6.47 2.48-10.78 2.48-4.3 0-8.02-1.59-11.13-4.75-3.12-3.17-4.67-7.39-4.67-12.66 0-5.27 1.62-9.51 4.87-12.73a16.34 16.34 0 0 1 11.97-4.83c2.45 0 4.72.4 6.83 1.23 2.1.83 4.4 2.33 6.9 4.52l6.47-9.34A30.35 30.35 0 0 0 389.95.32a28.3 28.3 0 0 0-20.52 8.3c-3.33 3.26-5.66 7-7.03 11.22l.36.33a12.24 12.24 0 0 1 3.68 9.01c0 3.56-1.22 6.56-3.68 9-.15.16-.3.3-.46.44a26.75 26.75 0 0 0 6.97 11.28c5.56 5.43 12.44 8.14 20.64 8.14 9.8 0 17.46-3.08 23-9.26v-19.8h-12.54zM456.26 28.98v15.33c-2.88 1.65-6.47 2.48-10.78 2.48s-8.03-1.59-11.14-4.75c-3.11-3.17-4.67-7.39-4.67-12.66 0-5.27 1.62-9.51 4.87-12.73a16.34 16.34 0 0 1 11.98-4.83c2.44 0 4.72.41 6.82 1.23 2.1.83 4.4 2.33 6.91 4.52l6.47-9.34A30.35 30.35 0 0 0 445.84.32a28.3 28.3 0 0 0-20.52 8.3c-5.67 5.54-8.5 12.45-8.5 20.72 0 8.28 2.78 15.13 8.34 20.56 5.56 5.43 12.44 8.14 20.64 8.14 9.8 0 17.46-3.08 23-9.26v-19.8zM269.13 37.2L241.75 1.29h-11.66v55.8h12.46V22.12l26.58 34.96h12.46V1.28h-12.46zM344.75 38.19a12.26 12.26 0 0 1-3.67-9c0-3.56 1.22-6.56 3.67-9.02l.6-.54a27.17 27.17 0 0 0-7.08-11.36C332.63 2.75 325.68 0 317.43 0s-15.2 2.75-20.83 8.27c-5.65 5.5-8.47 12.36-8.47 20.55 0 8.2 2.82 15.05 8.47 20.56 5.64 5.5 12.58 8.27 20.83 8.27 8.25 0 15.2-2.76 20.84-8.27a27.3 27.3 0 0 0 6.9-10.82c-.15-.12-.29-.24-.42-.37m-15.5 3.37a15.34 15.34 0 0 1-11.78 5.23c-4.65 0-8.58-1.75-11.77-5.23a18.12 18.12 0 0 1-4.8-12.7c0-4.97 1.6-9.22 4.8-12.73a15.3 15.3 0 0 1 11.77-5.27 15.3 15.3 0 0 1 11.78 5.27 18.25 18.25 0 0 1 4.79 12.73c0 4.98-1.6 9.21-4.79 12.7" fill="#4e3363"/><path d="M348.39 34.55a7.3 7.3 0 0 1-2.2-5.37c0-2.12.74-3.9 2.2-5.37a7.31 7.31 0 0 1 5.37-2.19c2.12 0 3.9.73 5.37 2.2a7.3 7.3 0 0 1 2.19 5.36 7.3 7.3 0 0 1-2.2 5.37 7.3 7.3 0 0 1-5.36 2.2 7.3 7.3 0 0 1-5.37-2.2M210.74 31a19.01 19.01 0 0 1-.7 3.63l11.9 4.13c.7-2.02 1.17-4.15 1.41-6.39zM210.8 27.38L223.43 26c-.2-2.26-.62-4.4-1.27-6.44l-11.96 4.11c.32 1.19.51 2.42.6 3.71M208.76 19.98l10.48-6.63a28.82 28.82 0 0 0-4.16-5.08l-.02-.03-8.45 8.52a18.24 18.24 0 0 1 2.15 3.22" fill="#41b7b2"/><path d="M200.11 45.73a15.27 15.27 0 0 1-5.83 1.06c-.7 0-1.4-.05-2.07-.13a14.93 14.93 0 0 1-7.12-2.78c-.9-.66-1.77-1.44-2.58-2.32l-.35-.4a17.33 17.33 0 0 1-3.6-6.43 18.9 18.9 0 0 1-.72-3.64 21.71 21.71 0 0 1 .55-7.51 17.7 17.7 0 0 1 4.12-7.45c.73-.8 1.5-1.5 2.3-2.12a15.02 15.02 0 0 1 9.47-3.15 15.11 15.11 0 0 1 9.54 3.2l6.2-9.78a27.47 27.47 0 0 0-5.94-2.78A29.99 29.99 0 0 0 197.4.14a34.93 34.93 0 0 0-6.51.02c-2.18.22-4.26.64-6.24 1.27-2.1.67-4.1 1.58-5.97 2.72a29.55 29.55 0 0 0-5.27 4.11l-.12.13c-1.62 1.6-3 3.3-4.14 5.12a26.38 26.38 0 0 0-2.74 5.81 28.83 28.83 0 0 0-1.33 6.45 33.72 33.72 0 0 0 .08 6.8 28.4 28.4 0 0 0 1.45 6.37c.72 2 1.67 3.9 2.85 5.69a28.78 28.78 0 0 0 3.95 4.75l.23.22a29.27 29.27 0 0 0 5.34 4.08c1.85 1.1 3.8 1.96 5.87 2.6a30 30 0 0 0 6.1 1.2 34.47 34.47 0 0 0 6.36.03 30.1 30.1 0 0 0 6.5-1.29c2.07-.65 4.02-1.53 5.86-2.64l-6.15-9.73c-1.07.78-2.2 1.4-3.4 1.88" fill="#4e3363"/></svg>