<svg xmlns="http://www.w3.org/2000/svg" xmlns:svg="http://www.w3.org/2000/svg" id="Layer_1" width="60.071" height="60" x="0" y="0" enable-background="new 0 0 176 60" version="1.1" viewBox="0 0 60.071 60" xml:space="preserve"><metadata id="metadata59"/><g id="g52" transform="translate(-2.9945496e-4)"><g id="g38"><linearGradient id="SVGID_1_" x1="18.984" x2="64.924" y1="63.52" y2="17.579" gradientTransform="translate(-1.9997,1.260884e-4)" gradientUnits="userSpaceOnUse"><stop id="stop2" offset="0" stop-color="#58BBEA"/><stop id="stop4" offset=".192" stop-color="#5DB3E4"/><stop id="stop6" offset=".49" stop-color="#699DD4"/><stop id="stop8" offset=".857" stop-color="#7D79BA"/><stop id="stop10" offset="1" stop-color="#8669AE"/></linearGradient><path id="path13" fill="url(#SVGID_1_)" d="M 52.041,9.579 C 51.793,9.313 51.546,9.046 51.286,8.786 51.027,8.527 50.76,8.28 50.493,8.032 l -0.756,0.754 -0.793,0.792 -2.511,2.507 -0.083,0.083 -1.465,1.463 -2.539,2.535 v 0 l -1.549,1.546 c 0.274,0.24 0.552,0.475 0.812,0.735 0.26,0.26 0.496,0.537 0.737,0.811 2.615,2.978 4.057,6.745 4.057,10.742 0,4.363 -1.702,8.466 -4.794,11.552 -3.091,3.085 -7.201,4.785 -11.573,4.785 -4.004,0 -7.778,-1.44 -10.761,-4.05 l -0.423,0.422 -1.126,1.124 c 3.399,3.021 7.721,4.69 12.31,4.69 4.957,0 9.617,-1.927 13.122,-5.426 3.505,-3.497 5.435,-8.149 5.435,-13.097 0,-4.581 -1.672,-8.895 -4.698,-12.288 l 2.539,-2.535 c 3.699,4.068 5.723,9.289 5.723,14.822 0,5.898 -2.301,11.443 -6.479,15.613 -4.178,4.171 -9.734,6.468 -15.642,6.468 -5.542,0 -10.773,-2.021 -14.849,-5.713 l -1.549,1.546 c 4.49,4.105 10.27,6.354 16.398,6.354 6.494,0 12.599,-2.524 17.191,-7.109 4.592,-4.584 7.121,-10.677 7.121,-17.16 0,-6.117 -2.253,-11.886 -6.365,-16.369 l 2.51,-2.506 v 0 C 60.59,22.018 60.342,39.079 49.738,49.664 44.475,54.917 37.478,57.81 30.036,57.81 22.96,57.81 16.29,55.19 11.127,50.418 L 10.334,51.21 9.578,51.964 C 15.155,57.152 22.374,60 30.036,60 38.063,60 45.611,56.88 51.287,51.213 62.745,39.775 62.991,21.328 52.041,9.579 Z"/><g id="g36"><linearGradient id="SVGID_2_" x1="-1.484" x2="43.34" y1="43.05" y2="-1.773" gradientTransform="translate(-1.9997,1.260884e-4)" gradientUnits="userSpaceOnUse"><stop id="stop15" offset="0" stop-color="#ABCB37"/><stop id="stop17" offset=".269" stop-color="#A9CB38"/><stop id="stop19" offset=".424" stop-color="#A0C93B"/><stop id="stop21" offset=".55" stop-color="#92C741"/><stop id="stop23" offset=".66" stop-color="#7EC449"/><stop id="stop25" offset=".76" stop-color="#65C054"/><stop id="stop27" offset=".852" stop-color="#45BB61"/><stop id="stop29" offset=".938" stop-color="#20B570"/><stop id="stop31" offset="1" stop-color="#00B07D"/></linearGradient><path id="path34" fill="url(#SVGID_2_)" d="m 46.35,12.169 0.083,-0.083 C 41.943,7.981 36.163,5.732 30.036,5.732 23.542,5.732 17.437,8.256 12.845,12.84 8.253,17.424 5.724,23.517 5.724,30 c 0,6.117 2.253,11.886 6.365,16.369 l -2.51,2.506 C -0.518,37.979 -0.27,20.918 10.334,10.333 15.597,5.08 22.594,2.187 30.036,2.187 c 7.076,0 13.746,2.62 18.909,7.392 l -2.511,2.507 2.511,-2.507 0.793,-0.792 0.756,-0.754 C 44.916,2.848 37.697,0 30.036,0 22.008,0 14.461,3.12 8.785,8.787 -2.673,20.225 -2.92,38.672 8.03,50.42 c 0.248,0.266 0.495,0.533 0.755,0.793 0.259,0.259 0.526,0.506 0.793,0.754 l 0.756,-0.754 0.793,-0.792 2.511,-2.507 1.549,-1.546 2.539,-2.535 1.126,-1.124 0.423,-0.422 c -0.274,-0.24 -0.552,-0.475 -0.812,-0.735 -0.26,-0.26 -0.496,-0.537 -0.737,-0.811 C 15.111,37.763 13.669,33.995 13.669,30 c 0,-4.364 1.702,-8.467 4.794,-11.553 3.091,-3.085 7.202,-4.785 11.573,-4.785 4.004,0 7.778,1.44 10.761,4.05 l 1.549,-1.546 c -3.399,-3.021 -7.721,-4.691 -12.31,-4.691 -4.957,0 -9.617,1.927 -13.122,5.426 -3.505,3.499 -5.435,8.151 -5.435,13.098 0,4.581 1.672,8.895 4.699,12.288 l -2.539,2.535 C 9.939,40.754 7.915,35.533 7.915,30 c 0,-5.899 2.301,-11.443 6.479,-15.614 4.178,-4.171 9.733,-6.468 15.642,-6.468 5.542,0 10.773,2.021 14.848,5.714 l -2.539,2.535 v 0 l 2.539,-2.535 z"/></g></g><g id="g50">path fill=&quot;#4E4E50&quot; d=&quot;M162.967,38.899v0.502c0,0.209,0.169,0.378,0.378,0.378h0.504l0.882,0l10.474,0c0,0,0.001,0,0.001,0v0 h0.415c0.209,0,0.378-0.169,0.378-0.378v-0.414v0v0v-0.416c0-0.209-0.169-0.378-0.378-0.378h-0.415v0c0,0-0.001,0-0.001,0 l-10.473,0V30.47l6.061,0c0.001,0,0.002,0,0.002,0l0.412,0c0.209,0,0.378-0.169,0.378-0.378v-0.83 c0-0.209-0.169-0.378-0.378-0.378h-0.415l0,0l-6.061,0v-7.077l10.444,0c0.01,0,0.02-0.003,0.03-0.003v0.003h0.415 c0.209,0,0.378-0.169,0.378-0.378v-0.831c0-0.209-0.169-0.378-0.378-0.378h-0.415v0.003c-0.01,0-0.02-0.003-0.03-0.003l-11.831,0 c-0.209,0-0.378,0.169-0.378,0.378L162.967,38.899z&quot;/&gt;</g></g></svg>