<svg xmlns="http://www.w3.org/2000/svg" xmlns:svg="http://www.w3.org/2000/svg" id="logo" version="1.1" viewBox="0 0 138 26"><metadata id="metadata9"/><path id="path2" d="M15 8a7 7 0 1 0 0 10m7-8.7L33 2l11 7.3v7.4L33 24l-11-7.3zm0 0l11 7.4 11-7.4m0 7.4L33 9.3l-11 7.4M33 2v7.3m0 7.4V24M52 6h5a7 7 0 0 1 0 14h-5zm28 0h-9v14h9m-9-7h6m11 1h6a4 4 0 0 0 0-8h-6v14m26-14h-9v14h9m-9-7h6m11 7V6l11 14V6" style="stroke:#000;stroke-opacity:1;fill:none;stroke-width:2.3;stroke-miterlimit:4;stroke-dasharray:none;stroke-linecap:round;stroke-linejoin:round"/></svg>