<svg viewBox="0 0 292 57" xmlns="http://www.w3.org/2000/svg" fill-rule="evenodd" clip-rule="evenodd" stroke-linejoin="round" stroke-miterlimit="2"><g fill="#5865f2" fill-rule="nonzero"><path d="M61.8 4.73A59.42 59.42 0 0046.75 0a43.88 43.88 0 00-1.93 4 55.26 55.26 0 00-16.68 0 42.77 42.77 0 00-1.95-4 59.21 59.21 0 00-15.06 4.74C1.6 19.14-.98 33.17.3 47.01a60.17 60.17 0 0018.46 9.45 45.93 45.93 0 003.95-6.5 38.9 38.9 0 01-6.22-3.04c.52-.38 1.03-.79 1.52-1.2 12 5.61 25.05 5.61 36.9 0 .5.41 1.02.82 1.53 1.2a38.78 38.78 0 01-6.23 3.04 45.76 45.76 0 003.95 6.51 60.05 60.05 0 0018.47-9.46c1.52-16.04-2.59-29.95-10.84-42.28zM24.36 38.5c-3.6 0-6.56-3.37-6.56-7.46 0-4.1 2.89-7.47 6.56-7.47 3.66 0 6.62 3.36 6.56 7.47 0 4.1-2.9 7.46-6.56 7.46zm24.23 0c-3.6 0-6.55-3.37-6.55-7.46 0-4.1 2.89-7.47 6.55-7.47 3.67 0 6.63 3.36 6.56 7.47 0 4.1-2.89 7.46-6.56 7.46zM98.03 14.4h15.66c3.78 0 6.97.6 9.59 1.81a12.92 12.92 0 015.86 5.02c1.3 2.15 1.95 4.6 1.95 7.37 0 2.7-.68 5.16-2.03 7.36a13.8 13.8 0 01-6.19 5.23c-2.77 1.28-6.2 1.93-10.3 1.93H98.03V14.4zm14.38 21.42c2.54 0 4.5-.65 5.86-1.95 1.37-1.3 2.05-3.07 2.05-5.31 0-2.08-.6-3.74-1.82-4.98-1.22-1.24-3.06-1.87-5.52-1.87h-4.9v14.11h4.33zM154.54 43.08a21.01 21.01 0 01-5.86-2.5v-6.81a16.04 16.04 0 005.28 2.57c2.21.66 4.35 1 6.41 1 .96 0 1.7-.13 2.19-.39s.74-.57.74-.92c0-.41-.13-.75-.4-1.03s-.8-.5-1.57-.7l-4.82-1.1c-2.76-.66-4.72-1.57-5.88-2.74a6.16 6.16 0 01-1.75-4.57c0-1.59.5-2.96 1.53-4.14a9.69 9.69 0 014.34-2.73c1.87-.64 4.07-.96 6.58-.96 2.25 0 4.31.24 6.19.74 1.88.49 3.43 1.12 4.66 1.88v6.44a17.14 17.14 0 00-4.36-1.83 19.15 19.15 0 00-5.09-.67c-2.51 0-3.77.44-3.77 1.31 0 .41.2.72.58.92.4.2 1.11.42 2.15.64l4.02.74c2.62.46 4.58 1.28 5.86 2.44 1.29 1.16 1.93 2.88 1.93 5.15a6.84 6.84 0 01-3.2 5.93c-2.12 1.47-5.14 2.2-9.05 2.2-2.3 0-4.54-.3-6.7-.87zM182.98 42.22a12.12 12.12 0 01-5.2-4.68 12.86 12.86 0 01-1.74-6.64c0-2.46.6-4.67 1.8-6.6a12.2 12.2 0 015.3-4.58 19.3 19.3 0 018.36-1.66c4.02 0 7.35.86 10 2.59v7.5a12.7 12.7 0 00-7.27-2.21c-2.49 0-4.43.46-5.84 1.4-1.4.93-2.11 2.14-2.11 3.65 0 1.47.68 2.68 2.05 3.63 1.36.94 3.34 1.42 5.94 1.42a14.57 14.57 0 007.31-2.05v7.26a19.2 19.2 0 01-10.24 2.7c-3.27 0-6.06-.58-8.36-1.73zM211.52 42.22a12.53 12.53 0 01-5.3-4.72c-1.22-2-1.83-4.22-1.83-6.68 0-2.47.6-4.66 1.83-6.6a12.32 12.32 0 015.28-4.53 19 19 0 018.23-1.64 19 19 0 018.24 1.64c2.3 1.1 4.06 2.6 5.26 4.51 1.2 1.92 1.8 4.12 1.8 6.6 0 2.47-.6 4.7-1.8 6.7-1.2 2-2.97 3.57-5.28 4.71a18.3 18.3 0 01-8.22 1.73c-3.16 0-5.9-.57-8.21-1.72zm12.2-7.28c.98-1 1.47-2.31 1.47-3.95 0-1.65-.49-2.95-1.47-3.92a5.4 5.4 0 00-4-1.46c-1.7 0-3.05.49-4.03 1.46a5.28 5.28 0 00-1.46 3.92c0 1.64.48 2.95 1.46 3.95a5.4 5.4 0 004.04 1.5c1.69 0 3.02-.5 4-1.5zM259.17 19.58v8.86a7 7 0 00-3.98-1.03c-2.14 0-3.79.66-4.94 1.99-1.15 1.32-1.72 3.38-1.72 6.17v7.55h-9.84v-24h9.64v7.63c.53-2.79 1.4-4.84 2.59-6.17a5.9 5.9 0 014.6-1.99 6.6 6.6 0 013.65.99zM291.86 13.59v29.53h-9.84v-5.37a9.51 9.51 0 01-3.79 4.62 11.77 11.77 0 01-6.29 1.57 10.24 10.24 0 01-9.66-6.21c-.9-1.93-1.35-4.1-1.35-6.55-.03-2.51.45-4.77 1.43-6.76.98-2 2.36-3.56 4.14-4.68a11.19 11.19 0 016.09-1.68c4.68 0 7.83 2.08 9.43 6.23V13.6h9.84zm-11.3 21.19c1-1 1.5-2.3 1.5-3.88a5 5 0 00-1.46-3.73 5.48 5.48 0 00-4-1.44c-1.66 0-2.98.49-3.97 1.46a5.07 5.07 0 00-1.5 3.8c0 1.55.5 2.83 1.5 3.81.99.98 2.3 1.48 3.93 1.48 1.66 0 2.99-.5 4-1.5zM139.38 21.68c2.71 0 4.9-2.02 4.9-4.5 0-2.49-2.19-4.5-4.9-4.5-2.7 0-4.9 2.01-4.9 4.5 0 2.48 2.2 4.5 4.9 4.5zM134.47 24.78c3 1.32 6.74 1.38 9.81 0v18.47h-9.8V24.78z"/></g></svg>