<svg viewBox="0 0 410 100" fill="none" xmlns="http://www.w3.org/2000/svg"><path fill-rule="evenodd" clip-rule="evenodd" d="M405 69.2c-1.3-.9-2.3-1-3.1.7-14.3 30.9-38.3 15.5-35.9 16.8 5.3-2.4 19.3-13.6 17.2-29.1-1.2-9.5-9.4-13.7-18-12.2-15.1 2.6-20.6 19-17.8 33.3.5 2.5 1.3 4.5 2.3 6.5-17 13.9-23.8-12.4-24.6-15.5 0-.2 13.1-11.2 16.8-37.4C345.8 5 337 0 328 .1c-16.5.3-21 34.9-15 63.7-.5.1-2.8 1.4-6.6 1.6-2.7-8.6-14.3-16-17.3-13.2-7.6 7.3 1.8 21.3 8.5 22.4-4 24.6-29 18.5-24.3-12.3 8-15 14.3-37.4 13.1-51-.3-4.7-3.9-11.2-11.9-10.9-15.4.7-17 35.3-15.3 59.8 0-.6-1 3-7.2 4.8-1.5-8.3-14.8-16.6-18-12.6-5.9 7.5 4.3 20.8 9.1 21.7-4 24.6-28.9 18.5-24.2-12.2 8.1-15 14.3-37.5 13.2-51-.4-4.8-4-11.2-12-10.9-15.4.6-17 35.2-15.2 59.8-.1-.6-1 3.1-7.6 4.9-.2-10.8-13.6-15.7-16.8-12.3-5.7 6.1 1.3 18.7 7.8 21.7-4 24.6-28.9 18.5-24.2-12.2 8-15 14.3-37.5 13.1-51C177 6 173.3-.3 165.3 0c-15.4.6-16.6 37-14.8 61.6-5 21.7-22 48.8-19.9-5.6.3-3.8.5-5.2-1.4-6.7-1.4-1-4.7-.5-6.4-.5-2.2.1-2.7 1.4-3.2 3.3-1 4.9-1.3 9.6-1.5 16.1 0 3.1-.3 4.5-1.5 8.7-1.2 4.1-7.8 11.7-11.5 10.4-5-1.7-3.4-16-2.4-25.9.7-7.8-1.8-11.2-8.3-12.5-3.8-.8-6-.6-10-2-3.8-1-4.6-8.2-12.6-5.8-4.4 1.3-1.6 10.5-2.6 17.4C64 92.2 53.3 93 48.3 76.8 70.7 21.8 54.8.2 45.4.2c-9.7 0-20.8 6.7-16 49.5-2.4-.6-3-1-5.6-1C9.7 48.7 0 60.2 0 74.3c0 14.1 9.7 25.6 23.8 25.6 8.4 0 14.3-3.8 18.7-9.7 2.9 4.2 6.4 9.8 13 9.5 19.2-.8 24.8-40.2 25.4-42.5 2 .3 4 1 6 1.2 3 .5 3.3 1.8 3.2 5-.8 26.8 4.2 36.2 15.4 36.2 6.3 0 11.9-6.2 15.7-10.5 2.9 6 7.4 10.3 13.6 10.5 14.9.4 20.6-23.4 20-20.2-.3 2.4 4.9 20 20.2 20.1 19 .1 22.6-20.8 23-24.3 0-.6 0-.7 0 0v.3c6-1.2 9.1-4.4 9.1-4.4s4.9 28.8 22.7 28.5c18.6-.4 22.2-19.2 22.6-23 .1-.7 0-.8 0 0v.2c7.2-2.7 9-5.2 9-5.2s4 28.1 22.8 28.4c16.9.2 23.1-17 23.2-24.3 2.8 0 8-1.7 8-1.8 0 0 6 24.7 23.3 26 8.1.5 14.2-4.6 17.6-7 8.2 6.6 35.3 15 52.4-14 2.4-4.1-2.8-9-3.7-9.7zM23 90.2c-8.2 0-13.5-7.6-13.5-15.8 0-8.2 4.8-15.9 13.1-15.9 3.7 0 5.8.4 8.7 3 .5 2 2 6.8 2.8 9 1 2.9 2.1 5.4 3.2 8-1.7 7-7 11.8-14.3 11.8zm20.2-28.5l-.7-.8a80.4 80.4 0 0 1-4.8-23.7c-.4-11.8 1.6-25.7 7.4-25.7 4 0 8.2 28-2 50.2zm116.3-12.3c-.9-7-1-38.3 6.6-37.4 4.1 1.7-2.7 31.1-6.6 37.4zm54.9 0c-1-7-1-38.3 6.5-37.4 4.1 1.7-2.7 31.1-6.5 37.4zm54.3.4c-.9-7-1-38.2 6.5-37.4 4.2 1.7-2.6 31.2-6.5 37.4zm60-39.7c6.9-.7 6.6 29.3-7.1 48.2-1.8-6.9-4.5-45.8 7.1-48.2zm28.9 64.5c-2.2-11.1 3.5-18.4 9.4-19.2 2-.3 5 1 5.6 3.5 1 4.7-.2 11.6-13.3 20.4 0 0-1.2-2.2-1.7-4.7zM125.1 40.3a8.5 8.5 0 1 0 0-17 8.5 8.5 0 0 0 0 17z" fill="#444"/></svg>