<svg xmlns="http://www.w3.org/2000/svg" fill-rule="evenodd" stroke-linejoin="round" stroke-miterlimit="1.4" clip-rule="evenodd" viewBox="0 0 3611 1203"><path fill="#7ac142" d="M2485.4 557.3v-.8c0-60.3 21-111.5 62.9-153.7 42-42.2 92.5-63.3 151.8-63.3 40.3 0 77.2 9.6 110.6 28.7a209.3 209.3 0 0 1 79.3 79.6c17 29.7 26.5 61.4 28.6 95 .3 4.8.5 9.6.5 14.5h-.1c0 4.5-.1 9-.4 13.4v218.6c0 38.7-9.6 74.8-28.9 108.3-19.3 33.4-46 60-80.4 79.4a219 219 0 0 1-110 29.3c-54 0-101.8-18.7-143.3-56.3l-1.7-1.7 67.4-72.2a106.7 106.7 0 0 0 79.3 32.5c33 0 60-11 81.3-33.2 21-22.1 32.5-51 32.5-86.3v-47.4c-1.7 1-3.3 2.3-5 3.3a219 219 0 0 1-110.1 29.3c-54 0-101.7-18.8-143.3-56.3a209 209 0 0 1-71-160.7zm878-107.6a212.1 212.1 0 0 0-80-80.3c-33.7-19.3-71-29-111.6-29a208 208 0 0 0-153.2 63.9 211.7 211.7 0 0 0-63.5 155.1v.7c.2 65 24.1 119 71.7 162.3a209.4 209.4 0 0 0 144.6 56.8c39.4 0 76.4-9.9 111-29.6a214.2 214.2 0 0 0 81.1-80.1 215.2 215.2 0 0 0 29.2-109.3 219 219 0 0 0-29.4-110.5zm-1847.1-3.5a213.4 213.4 0 0 0-81.1-80.2 221.5 221.5 0 0 0-111-29.5c-54.5 0-102.6 19-144.6 56.8a211 211 0 0 0-71.7 162.2v.7c0 60.9 21.2 112.6 63.5 155.1a208 208 0 0 0 153.2 63.9c40.6 0 77.8-9.6 111.6-29A211.1 211.1 0 0 0 1516 666c19.6-34.2 29.4-71 29.4-110.4 0-39.1-9.8-75.6-29.2-109.3zM654.9 205.8V542a216.4 216.4 0 0 1 0 28.2A219.2 219.2 0 0 1 626 666a211.6 211.6 0 0 1-80 80.4c-33.7 19.3-70.9 28.9-111.6 28.9a208.1 208.1 0 0 1-153.2-63.9 211.7 211.7 0 0 1-63.4-155v-.8a211 211 0 0 1 71.7-162.2c41.9-37.9 90-56.8 144.5-56.8 39.4 0 76.4 9.9 111 29.5 1.9 1 3.4 2.3 5.2 3.4V205.9H655zM810 347.3v208.3c.4 35.1 3 60 8 74.2a71 71 0 0 0 26 35.5 74 74 0 0 0 44 12.6 77 77 0 0 0 44.4-12.4 73.2 73.2 0 0 0 27.1-36.7c4.2-11.6 6.4-36 6.6-73.2V347.2h104.7V524c0 11.1-.2 21.5-.5 31.5-1.4 55.8-7 95.3-16.8 118.1a163.4 163.4 0 0 1-62.1 75.4c-27.3 17.5-62.1 26.2-104.3 26.2-45.8 0-82.8-10.2-111-30.7a161.9 161.9 0 0 1-59.6-85.5c-6.7-20.6-10.6-55.3-11.9-103.5-.3-11-.4-22.3-.4-34.5V347.2H810zm1620 94.9a163.2 163.2 0 0 0-62-75.4c-27.5-17.5-62.2-26.2-104.4-26.2-45.8 0-82.8 10.2-111 30.6a161.8 161.8 0 0 0-59.7 85.6c-6.6 20.6-10.6 55.3-11.8 103.4-.3 11-.4 22.3-.4 34.6v173.7h105.8v-201-7.2c.4-35.2 3-60 8-74.2 5.5-15.2 14.1-27 26-35.5a74.2 74.2 0 0 1 44-12.6c17.5 0 32.3 4 44.4 12.4a73.4 73.4 0 0 1 27.1 36.6c4.2 11.6 6.4 36.1 6.6 73.2v208.3h104.7V591.6c0-11-.2-21.4-.5-31.5-1.4-55.8-7-95.3-16.8-118zm-734.4-236.4v343c.2 37.1 2.3 61.6 6.6 73.2a72.8 72.8 0 0 0 27 36.6 76.7 76.7 0 0 0 44.5 12.5h81.7v97.4h-80.8c-42.2 0-77-8.7-104.3-26.2a163.7 163.7 0 0 1-62.1-75.4c-9.8-22.8-15.3-62.3-16.8-118.1-.3-10-.5-20.4-.5-31.5V205.7h104.7zm320.8 158.6v403.5h-105.9V364.3h105.9zm1270.8 195.8c-.1 35.7-10.8 64.7-32 87a108.6 108.6 0 0 1-82 33.5c-32.6 0-59.7-11.3-81.3-34-21.5-22.5-32.4-51.3-32.4-86.5v-.3c0-36.3 10.6-65.7 32-88.2a107.3 107.3 0 0 1 81.3-33.7c32.8 0 60 11.3 81.8 34 21.8 22.8 32.7 52.1 32.7 87.9l-.1.3zm-1879.8 83.6a108.6 108.6 0 0 1-81.9 34.1c-32.8 0-59.9-11.3-81.2-33.7-21.4-22.5-32.1-52-32.1-88.2v-.4c.1-35.1 11-64 32.5-86.5 21.6-22.6 48.7-34 81.2-34 33.3 0 60.6 11.3 82 33.6 21.3 22.3 32 51.2 32 86.9l.1.4c0 35.8-10.9 65-32.6 87.8zm-890.1 0a108.6 108.6 0 0 1-81.9 34.1c-32.8 0-59.9-11.3-81.2-33.7-21.4-22.5-32.1-52-32.1-88.2v-.4c0-35.1 10.8-64 32.4-86.5 21.6-22.6 48.7-34 81.2-34 33.3 0 60.7 11.3 82 33.6 21.4 22.3 32 51.2 32.1 86.9v.4c0 35.8-10.8 65-32.5 87.8zm2297.2-86.4v-.4c0-35.5-10.8-64.5-32.3-87A107.5 107.5 0 0 0 2701 436c-32.5 0-59.4 11.2-80.5 33.5-21.2 22.3-31.9 51.4-31.9 87.4v.4c.1 34.8 10.8 63.4 32.2 85.7a106.8 106.8 0 0 0 80.5 33.6c33 0 60-11 81.3-33.2 21.1-22.1 31.7-50.8 31.8-86.1zM1960.3 213a56 56 0 1 0 0 112 56 56 0 0 0 0-112z"/></svg>