<svg xmlns="http://www.w3.org/2000/svg" fill-rule="evenodd" stroke-linecap="round" stroke-linejoin="round" stroke-miterlimit="10" clip-rule="evenodd" viewBox="0 0 420 382"><path fill="#fff" d="M185.84 361.025h-27.424c-9.685 0-17.536-7.851-17.536-17.536 0-5.803 2.819-10.948 7.162-14.14a136.603 136.603 0 0 1-44.12-35.746c-21.802 9.176-46.16 12.037-70.19 7.363-10.717-2.085-16.275-14.039-10.976-23.608l50.903-91.935V66.605c0-25.28 20.494-45.774 45.774-45.774a45.769 45.769 0 0 1 17.83 3.615c35.5 15.014 59.824 22.521 72.971 22.521 13.061 0 36.998-7.408 71.811-22.224 23.261-9.9 50.143.932 60.043 24.193a45.761 45.761 0 0 1 3.656 17.925v117.552l51.462 92.945c5.299 9.569-.259 21.523-10.976 23.608-24.183 4.704-48.699 1.776-70.606-7.539a136.625 136.625 0 0 1-43.906 35.74c4.486 3.176 7.415 8.407 7.415 14.322 0 9.685-7.851 17.535-17.536 17.536h-27.424c-9.541 0-17.303-7.62-17.531-17.107a137.73 137.73 0 0 1-13.272.029c-.243 9.474-7.998 17.077-17.53 17.078z"/><path fill="#f49000" d="M185.84 361.025h-27.424c-9.685 0-17.536-7.851-17.536-17.536 0-9.685 7.851-17.536 17.536-17.536h27.424c9.684 0 17.536 7.851 17.536 17.536 0 9.685-7.852 17.536-17.536 17.536zm75.757 0h-27.424c-9.685 0-17.536-7.851-17.536-17.536 0-9.685 7.851-17.536 17.536-17.536h27.424c9.684 0 17.536 7.851 17.536 17.536 0 9.685-7.852 17.536-17.536 17.536z"/><path fill="#78c800" d="M73.659 185.423V66.605c0-25.28 20.494-45.774 45.774-45.774a45.769 45.769 0 0 1 17.83 3.615c35.5 15.014 59.824 22.521 72.971 22.521 13.061 0 36.998-7.408 71.811-22.224 23.261-9.9 50.143.932 60.043 24.193a45.761 45.761 0 0 1 3.656 17.925v117.553l51.462 92.944c5.299 9.569-.259 21.523-10.976 23.608-24.183 4.704-48.699 1.776-70.606-7.539-24.938 30.9-63.122 50.665-105.923 50.665-42.719 0-80.839-19.69-105.779-50.489-21.801 9.176-46.16 12.037-70.19 7.363-10.717-2.085-16.275-14.039-10.976-23.608l50.903-91.935z"/><path fill="#8ee000" d="M192.667 276.883l34.239-.012c1.835-.001 3.136 1.693 2.569 3.345-2.726 7.936-10.649 13.419-19.695 13.422-9.046.003-16.965-5.474-19.684-13.408-.566-1.651.736-3.346 2.571-3.347zm-29.876-28.809l34.239-.012c1.836-.001 3.136 1.693 2.569 3.345-2.726 7.936-10.649 13.419-19.695 13.422-9.046.003-16.965-5.473-19.684-13.408-.566-1.651.736-3.346 2.571-3.347zm59.752 0l34.239-.012c1.836-.001 3.136 1.693 2.569 3.345-2.726 7.936-10.649 13.419-19.695 13.422-9.046.003-16.965-5.473-19.684-13.408-.566-1.651.736-3.346 2.571-3.347zm17.146-164.318l34.308-38.075c2.161-2.397 6.029-1.995 7.64.795 3.992 6.913 5.455 14.821 4.475 22.481l11.359-12.606c2.161-2.397 6.029-1.995 7.64.795 3.895 6.745 5.382 14.437 4.542 21.922 13.478 9.793 22.241 25.681 22.241 43.615v27.755c0 29.755-24.121 53.876-53.877 53.877h-.862c-21.903 0-40.772-13.075-49.192-31.87-4.397-.012-10.575-.006-18.533.018-3.144.01-7.95.029-14.418.057-8.434 18.744-27.273 31.795-49.162 31.795h-1.068c-29.758 0-53.883-24.124-53.883-53.883V122.69c0-16.718 7.614-31.659 19.564-41.542-1.39-8.127-.009-16.631 4.247-24.002 1.611-2.79 5.479-3.192 7.64-.795l11.391 12.642c-.98-7.66.483-15.569 4.475-22.482 1.611-2.789 4.605-3.192 6.766-.794l27.99 30.402a54.173 54.173 0 0 1 16.716 15.232c15.06 7.98 35.262 5.756 48.923-6.673.282-.257.554-.479.815-.669l.263-.253z"/><path fill="#fff" d="M144.081 88.012c20.625 0 37.345 16.72 37.345 37.345v22.407c0 20.625-16.72 37.345-37.345 37.345s-37.345-16.72-37.345-37.345v-22.407c0-20.625 16.72-37.345 37.345-37.345zm131.241 0c20.625 0 37.345 16.72 37.345 37.345v22.407c0 20.625-16.72 37.345-37.345 37.345s-37.345-16.72-37.345-37.345v-22.407c0-20.625 16.72-37.345 37.345-37.345z"/><path fill="#f49000" d="M210.09 150.965c10.527 0 19.061 8.534 19.061 19.061v6.082c0 10.527-8.534 19.061-19.061 19.061s-19.061-8.534-19.061-19.061v-6.082c0-10.527 8.534-19.061 19.061-19.061z"/><path fill="#ffc200" d="M183.56 171.238c2.26-11.676 13.457-20.273 26.675-20.273 12.378 0 23.388 8.8 25.608 20.273v1.067c0 .83-.268 1.143-1.067 1.067l-24.541 4.268a63.25 63.25 0 0 1-1.067 0l-24.541-4.268c-.798.076-1.067-.237-1.067-1.067v-1.067z"/><path fill="none" stroke="#ffde00" stroke-width="7.63" d="M203.833 159.501c3.668-1.467 7.58-1.467 11.737 0"/><path fill="#4b4b4b" d="M142.594 110.957a17.546 17.546 0 0 1 7.355-1.605c9.724 0 17.606 7.882 17.606 17.606v19.206c0 9.723-7.882 17.605-17.606 17.605-9.723 0-17.605-7.882-17.605-17.605v-15.386c.926.242 1.899.371 2.901.371 6.316 0 11.436-5.118 11.436-11.432 0-3.517-1.588-6.663-4.087-8.76zm118.136.705a17.52 17.52 0 0 1 8.723-2.31c9.724 0 17.606 7.882 17.606 17.606v19.206c0 9.723-7.882 17.605-17.606 17.605-9.723 0-17.605-7.882-17.605-17.605v-15.04c.253.016.509.025.767.025 6.316 0 11.436-5.118 11.436-11.432a11.39 11.39 0 0 0-3.321-8.055z"/></svg>