<?xml version="1.0" encoding="UTF-8" standalone="no"?>
<svg
   xmlns:dc="http://purl.org/dc/elements/1.1/"
   xmlns:cc="http://creativecommons.org/ns#"
   xmlns:rdf="http://www.w3.org/1999/02/22-rdf-syntax-ns#"
   xmlns:svg="http://www.w3.org/2000/svg"
   xmlns="http://www.w3.org/2000/svg"
   xmlns:sodipodi="http://sodipodi.sourceforge.net/DTD/sodipodi-0.dtd"
   xmlns:inkscape="http://www.inkscape.org/namespaces/inkscape"
   inkscape:version="1.0beta2 (2b71d25, 2019-12-03)"
   sodipodi:docname="Duolingo.svg"
   id="svg835"
   version="1.1"
   viewBox="0 0 3611 1203"
   clip-rule="evenodd"
   stroke-miterlimit="1.4"
   stroke-linejoin="round"
   fill-rule="evenodd">
  <metadata
     id="metadata841">
    <rdf:RDF>
      <cc:Work
         rdf:about="">
        <dc:format>image/svg+xml</dc:format>
        <dc:type
           rdf:resource="http://purl.org/dc/dcmitype/StillImage" />
      </cc:Work>
    </rdf:RDF>
  </metadata>
  <defs
     id="defs839" />
  <sodipodi:namedview
     inkscape:current-layer="layer1"
     inkscape:window-maximized="0"
     inkscape:window-y="23"
     inkscape:window-x="179"
     inkscape:cy="601.5"
     inkscape:cx="1969.017"
     inkscape:zoom="0.29354749"
     showgrid="false"
     id="namedview837"
     inkscape:window-height="998"
     inkscape:window-width="1704"
     inkscape:pageshadow="2"
     inkscape:pageopacity="0"
     guidetolerance="10"
     gridtolerance="10"
     objecttolerance="10"
     borderopacity="1"
     inkscape:document-rotation="0"
     bordercolor="#666666"
     pagecolor="#ffffff" />
  <g
     style="display:inline"
     inkscape:label="Layer 1"
     id="layer1"
     inkscape:groupmode="layer" />
  <g
     sodipodi:insensitive="true"
     style="display:inline"
     inkscape:label="Layer 2"
     id="layer2"
     inkscape:groupmode="layer">
    <path
       style="stroke-width:7.94947"
       inkscape:connector-curvature="0"
       d="m 615.15007,266.39839 c -41.99626,0 -95.55185,53.55512 -95.55185,146.79495 v 45.46381 c -27.74047,-17.72254 -60.10437,-27.35492 -100.56002,-27.35492 -114.43106,0.38476 -203.43255,90.54289 -203.43255,202.2767 0,111.7338 85.14918,201.89114 202.66224,201.89114 56.63681,0 101.33033,-20.42061 130.61221,-48.54663 19.26474,26.58542 43.1529,41.22596 63.95826,41.22596 16.18196,0 24.27292,-8.86127 24.27292,-28.51158 V 292.98333 c 0,-17.72326 -8.09096,-26.58494 -21.96121,-26.58494 z M 427.12916,729.51553 c -56.63759,0 -92.46904,-41.22596 -92.46904,-96.32216 0,-55.09619 35.83145,-96.32216 92.46904,-96.32216 56.63761,0 92.46906,41.22597 92.46906,96.32216 0,55.48175 -35.83145,96.32216 -92.46906,96.32216 z M 1070.945,446.32832 h -39.6838 c -28.5108,0 -38.91345,11.55854 -38.91345,38.91426 v 145.25354 c 0,58.56376 -30.05219,93.24014 -78.59882,93.24014 -50.08724,0 -75.5168,-33.13498 -75.5168,-94.78075 V 485.24258 c 0,-28.51158 -11.55854,-38.91426 -38.91426,-38.91426 h -39.68456 c -27.35572,0 -38.91425,10.40268 -38.91425,38.91426 v 146.79494 c 0,125.60404 63.18795,203.43255 174.15065,203.43255 49.31693,0 93.2402,-19.26476 124.06179,-52.7845 18.4985,29.28189 43.9209,45.46383 66.6564,45.46383 13.8718,0 24.2698,-8.86127 24.2698,-28.51158 V 485.24258 c 0,-28.51158 -11.5586,-38.91426 -38.9127,-38.91426 z m 312.8594,389.14175 c 119.0512,0 207.664,-90.15734 207.664,-201.89114 0,-114.43106 -88.9943,-201.89194 -207.664,-201.89194 -118.2882,0 -207.6721,90.15813 -207.6721,201.89194 0,114.43025 89.3839,201.89114 207.6721,201.89114 z m 0,-105.95454 c -53.5556,0 -89.0023,-41.22596 -89.0023,-96.32216 0,-55.09619 35.0572,-96.32216 89.0023,-96.32216 54.3266,0 89.0022,41.22597 89.0022,96.32216 -0.3894,55.48175 -34.6756,96.32216 -89.0022,96.32216 z m 311.3092,91.3132 h 39.6838 c 26.9726,0 38.9127,-10.40268 38.9127,-38.91425 V 294.90973 c 0,-19.64966 -8.0846,-28.51134 -24.2698,-28.51134 -39.6838,0 -93.2393,53.55512 -93.2393,146.79495 v 368.72114 c 0,28.51157 11.5585,38.91425 38.9126,38.91425 z m 228.4758,-428.056 c 35.8362,0 66.2748,-27.74047 66.2748,-63.18701 0,-35.44653 -30.4386,-63.18733 -66.2748,-63.18733 -36.5993,0 -66.2668,27.7408 -66.2668,63.18733 0,35.44654 29.2779,63.18701 66.2668,63.18701 z m -20.0327,428.056 h 39.6838 c 28.5148,0 38.9126,-11.55853 38.9126,-38.91425 v -296.6719 c 0,-27.35572 -10.3978,-38.91426 -38.9126,-38.91426 h -39.6838 c -28.5147,0 -38.9127,11.55854 -38.9127,38.91426 v 296.6719 c 0,26.97096 10.398,38.91425 38.9127,38.91425 z m 387.6004,-389.14174 c -48.5474,0 -94.7816,19.65029 -127.1439,54.32589 -19.2695,-30.82328 -44.6919,-47.00523 -66.6563,-47.00523 -16.1851,0 -24.2777,8.86207 -24.2777,28.51158 v 314.39525 c 0,28.51157 11.5665,38.91425 38.9206,38.91425 h 39.6838 c 28.5068,0 38.9127,-11.55853 38.9127,-38.91425 V 636.27539 c 0,-58.17821 33.9045,-93.23936 83.6045,-93.23936 50.4792,0 77.0622,33.90529 77.0622,94.78076 v 144.09769 c 0,28.51157 11.5585,38.91425 38.9127,38.91425 h 39.6838 c 27.3541,0 38.9126,-10.40268 38.9126,-38.91425 V 632.03752 c 0,-122.52203 -62.4113,-200.35053 -177.615,-200.35053 z m 566.7575,273.17007 c 34.6756,-25.81432 55.869,-64.72857 55.869,-109.42208 0,-18.49366 -3.8555,-35.06116 -11.177,-51.2431 38.9206,-19.26474 53.5556,-54.3259 53.5556,-87.46088 0,-33.13499 -13.1008,-42.76736 -32.3624,-33.90529 -68.9695,31.59359 -78.5963,33.13499 -124.0593,25.04401 -28.5149,-5.00896 -49.3186,-8.86207 -77.0622,-8.86207 -51.2423,0 -93.2394,16.18195 -128.6861,45.46382 -33.1334,27.74128 -50.0896,68.19614 -50.0896,110.96351 0,44.69351 20.4222,83.60776 55.8688,109.42208 -46.234,24.27292 -78.5963,75.51681 -78.5963,136.39227 0,100.56003 80.9096,170.29757 206.9008,170.29757 132.152,0 207.672,-77.05742 207.672,-177.61823 0.7712,-60.87547 -31.5991,-106.3393 -77.8333,-129.07161 z M 2728.8471,534.55951 c 42.7681,0 68.9616,21.96121 68.9616,66.26918 0,35.06194 -29.2779,66.26998 -68.9616,66.26998 -39.6838,0 -68.1986,-30.82328 -68.1986,-66.26998 0,-41.61071 26.9726,-66.26918 68.1986,-66.26918 z m 0,380.27967 c -51.2424,0 -89.3919,-33.13419 -89.3919,-75.516 0,-47.00523 35.8362,-75.5168 89.3919,-75.5168 54.3266,0 90.1549,28.51157 90.1549,75.5168 0,43.15212 -37.3704,75.516 -90.1549,75.516 z m 458.8753,-79.36911 c 119.0591,0 207.672,-90.15734 207.672,-201.89114 0,-114.43106 -89.0023,-201.89194 -207.672,-201.89194 -118.2803,0 -207.672,90.15813 -207.672,201.89194 0,114.43025 89.3917,201.89114 207.672,201.89114 z m 0,-105.95454 c -53.5557,0 -89.0023,-41.22596 -89.0023,-96.32216 0,-55.09619 35.0651,-96.32216 89.0023,-96.32216 54.3266,0 89.0023,41.22597 89.0023,96.32216 0,55.48175 -34.6757,96.32216 -89.0023,96.32216 z"
       fill="#50c800"
       id="path843" />
  </g>
</svg>
