<svg xmlns="http://www.w3.org/2000/svg" width="55.826" height="55.826" aria-hidden="true"><path fill="#f66401" d="M0 0h55.826408v55.826408H0z"/><path fill="#fff" d="M20.759664 10.194012v15.579176s5.489535 0 8.427485-.223005c2.310427-.404519 2.735691-.627523 3.160955-2.93795l.850528-3.383958h2.512686l-.425264 7.39544.223004 7.576955h-2.53343l-.627524-2.958694c-.627523-2.105573-1.478051-2.533431-3.160955-2.735691-2.105575-.223004-8.427485-.223004-8.427485-.223004v13.066488c0 2.512687 1.275792 3.58622 4.213743 3.58622h8.852748c2.735691 0 5.468788-.223005 7.172437-4.213743l2.289682-5.06427h2.12632c-.223005 1.052788-1.275792 10.3308-1.478051 12.418222 0 0-8.002221-.20226-11.365434-.20226H17.396451l-9.0550078.20226v-2.289682l2.9379508-.648268c2.126318-.425264 2.753843-1.052787 2.753843-2.735692 0 0 .223003-5.691792.223003-15.174655 0-9.459526-.223003-15.153913-.223003-15.153913 0-1.885162-.627525-2.310426-2.753843-2.7356899l-2.9379508-.622337V6.4055333l8.8527478.1815157H34.04916c3.363213 0 9.034262-.6067796 9.034262-.6067796s-.20226 3.5654744-.425264 11.9929586h-2.310427l-.850528-2.958695c-.829783-3.788479-2.087422-5.6736425-4.416001-5.6736425H21.833197c-1.073533.00254-1.073533.2048533-1.073533.8531215z"/></svg>