<?xml version="1.0" encoding="UTF-8" standalone="no"?>
<svg
   xmlns:dc="http://purl.org/dc/elements/1.1/"
   xmlns:cc="http://creativecommons.org/ns#"
   xmlns:rdf="http://www.w3.org/1999/02/22-rdf-syntax-ns#"
   xmlns:svg="http://www.w3.org/2000/svg"
   xmlns="http://www.w3.org/2000/svg"
   version="1.1"
   id="Layer_1"
   x="0px"
   y="0px"
   viewBox="0 0 198.62241 237.2924"
   xml:space="preserve"
   width="198.62241"
   height="237.2924"><metadata
     id="metadata23"><rdf:RDF><cc:Work
         rdf:about=""><dc:format>image/svg+xml</dc:format><dc:type
           rdf:resource="http://purl.org/dc/dcmitype/StillImage" /><dc:title></dc:title></cc:Work></rdf:RDF></metadata><defs
     id="defs21" /><style
     type="text/css"
     id="style2">
	.st0{fill:#2DBE60;}
	.st1{fill-rule:evenodd;clip-rule:evenodd;fill:#666666;}
</style><g
     id="g16"
     transform="matrix(5.9322477,0,0,5.9322477,-15.916023,-3.272105)"><g
       id="g14"><g
         id="g12"><path
           class="st1"
           d="M 35.252,7.514 C 34.953,5.918 34.004,5.131 33.145,4.822 32.219,4.488 30.341,4.141 27.982,3.863 26.084,3.639 23.852,3.658 22.504,3.699 22.342,2.592 21.565,1.576 20.695,1.226 18.379,0.294 14.829,0.52 13.91,0.777 c -0.731,0.204 -1.57,0.626 -2.019,1.27 -0.302,0.431 -0.466,0.982 -0.468,1.752 0,0.435 0.012,1.463 0.023,2.375 0.011,0.915 -0.007,1.734 -0.007,1.739 -10e-4,0.815 -0.662,1.508 -1.48,1.51 H 6.203 c -0.801,0 -1.413,0.135 -1.881,0.347 -0.468,0.213 -0.8,0.468 -1.052,0.807 -0.502,0.673 -0.589,1.504 -0.587,2.352 0,0 0.007,0.692 0.174,2.033 0.139,1.038 1.265,8.285 2.334,10.489 0.415,0.857 0.691,1.215 1.505,1.593 1.815,0.777 5.96,1.641 7.903,1.888 1.939,0.248 3.156,0.769 3.881,-0.751 0.002,-0.004 0.145,-0.378 0.342,-0.928 0.63,-1.907 0.718,-3.598 0.718,-4.823 0,-0.124 0.182,-0.13 0.182,0 0,0.864 -0.165,3.924 2.147,4.744 0.913,0.323 2.807,0.612 4.731,0.838 1.74,0.2 3.002,0.884 3.002,5.345 0,2.714 -0.57,3.086 -3.552,3.086 -2.417,0 -3.339,0.062 -3.339,-1.856 0,-1.552 1.535,-1.389 2.673,-1.389 0.508,0 0.139,-0.378 0.139,-1.334 0,-0.953 0.596,-1.521 0.032,-1.535 -3.934,-0.108 -6.248,0.014 -6.248,4.931 0,4.464 1.709,5.292 7.293,5.292 4.377,0 5.92,-0.143 7.728,-5.748 0.358,-1.107 1.223,-4.483 1.746,-10.153 0.331,-3.586 -0.312,-14.406 -0.822,-17.137 z m -7.631,11.96 c -0.541,-0.019 -1.061,0.015 -1.546,0.093 0.137,-1.102 0.592,-2.454 2.204,-2.398 1.785,0.062 2.034,1.748 2.041,2.889 -0.753,-0.335 -1.684,-0.549 -2.699,-0.584 z M 6.048,8.302 c 0,0 0,0 0.002,0 h 3.756 c 0.215,0 0.389,-0.175 0.389,-0.388 0,-10e-4 -0.046,-3.219 -0.046,-4.113 V 3.789 c 0,-0.735 0.154,-1.375 0.423,-1.912 L 10.7,1.636 C 10.686,1.638 10.672,1.645 10.657,1.659 L 3.36,8.893 C 3.346,8.904 3.337,8.919 3.333,8.935 3.484,8.86 3.69,8.758 3.719,8.745 4.354,8.458 5.125,8.302 6.048,8.302 Z"
           id="path10"
           style="clip-rule:evenodd;fill:#666666;fill-rule:evenodd" /></g></g></g></svg>