<svg xmlns="http://www.w3.org/2000/svg" xmlns:svg="http://www.w3.org/2000/svg" id="svg24" width="547.37" height="120.612" version="1.1" viewBox="0 0 547.37 120.612"><metadata id="metadata30"/><title id="title2">Evernote_Lockup_Primary_RGB</title><path id="path6" d="m 132.53,84.97 3.39,-0.7 c 3,-0.8 3.8,-1.2 3.8,-7.19 V 30 c 0,-6 -0.9,-6.5 -3.8,-7.19 l -3.39,-0.7 v -2.8 h 54.17 l 1,19.89 h -3.1 A 69.75,69.75 0 0 0 179,28.6 c -3.2,-4.6 -5.3,-5 -12.19,-5 a 32.54,32.54 0 0 0 -9.1,1 v 25.49 h 2.7 c 7,0 8.6,-0.8 9.8,-3 a 31,31 0 0 0 3.09,-7.59 h 3 v 25.78 h -3 a 45.23,45.23 0 0 0 -3.09,-8 c -1.2,-2.5 -2.5,-3 -9.8,-3 h -2.7 v 19.19 c 0,8.89 0.3,9.89 10,9.89 8,0 9.59,-1 12.89,-5.89 1.8,-2.7 3.7,-6.9 6.3,-13.2 h 3.2 l -1.4,23.52 h -56.07 l -0.1,-2.8 z"/><path id="path8" d="m 198.49,47.49 c -2.3,-5.6 -3.4,-7 -5.9,-7.79 l -1.89,-0.6 v -2.6 h 29.68 v 2.6 l -2.7,0.7 c -2.1,0.6 -3.1,1.6 -3.1,4 a 16.74,16.74 0 0 0 1.3,5.3 l 8.3,22.79 h 0.5 l 8,-22.79 a 16.21,16.21 0 0 0 1.3,-5.5 c 0,-2.19 -1,-3.29 -3.1,-3.79 l -2.7,-0.7 v -2.6 h 18.29 v 2.6 l -1.89,0.6 c -2.6,0.9 -3.7,2.39 -6.1,8.89 L 223.2,87.79 h -8.4 z"/><path id="path10" d="m 244.2,61.88 c 0,-17.19 12.69,-26.68 25.78,-26.68 13.59,0 22.09,6.79 22.39,24.69 h -32.61 c 0.3,16.19 6.39,20.58 16.59,20.58 a 30.94,30.94 0 0 0 14.49,-3.68 v 3.29 a 29.22,29.22 0 0 1 -20.89,9 C 252.76,88.87 244.2,78.67 244.2,61.88 Z m 15.59,-5.79 16.89,-0.9 c 0,-11.9 -1.6,-16.29 -7.5,-16.29 -4.98,0 -8.98,4.79 -9.42,17.19 z"/><path id="path12" d="m 318.43,42.79 c 2.79,-3 8.49,-7.89 15.09,-7.89 a 7.7,7.7 0 0 1 0,15.39 7.6,7.6 0 0 1 -7,-4.6 v 0 a 3.12,3.12 0 0 0 -2.8,-1.4 c -1.8,0 -3.89,1.3 -5.19,2.5 v 0 32 c 0,4.6 0.4,5.1 3.39,5.6 l 3.3,0.7 v 2.7 h -28.48 v -2.7 l 2.6,-0.7 c 3.29,-0.9 3.69,-1.4 3.69,-5.6 v -30.7 c 0,-4.2 -0.5,-4.5 -3.29,-6.4 l -3.3,-2.19 v -2 l 20.76,-2.4 1.1,0.8 -0.2,6.79 h 0.3"/><path id="path14" d="m 344.2,85.07 2.6,-0.7 c 3.3,-0.9 3.7,-1.4 3.7,-5.6 V 48.09 c 0,-4.2 -0.5,-4.5 -3.3,-6.4 l -3.3,-2.19 v -2 l 20.79,-2.4 1.1,0.7 -0.2,6.29 h 0.4 c 5.2,-3.69 11.69,-7 18.89,-7 8.4,0 12.89,4.3 12.89,13.19 v 30.38 c 0,4.3 0.4,4.8 3.6,5.6 l 2.6,0.7 v 2.7 h -27.48 v -2.7 l 2.4,-0.6 c 3,-0.8 3.3,-1.1 3.3,-5.7 V 52.19 c 0,-6 -2.2,-7.9 -6.8,-7.9 a 42.22,42.22 0 0 0 -9.19,1.3 v 33.2 c 0,4.7 0.3,4.9 3.3,5.7 l 2.4,0.6 v 2.7 h -27.49 v -2.7 z"/><path id="path16" d="m 405.88,62.18 c 0,-18.89 13.39,-27 26.68,-27 14.3,0 26.79,8.59 26.79,26.48 0,18.89 -13.19,27.19 -26.79,27.19 -14.29,0.02 -26.68,-8.58 -26.68,-26.67 z m 37,0.5 c 0,-19.89 -3.8,-23.68 -10.6,-23.68 -6.19,0 -9.89,4.49 -9.89,21.48 0,20.19 3.3,24.59 10.49,24.59 5.88,0 9.98,-3.5 9.98,-22.39 z"/><path id="path18" d="m 467.94,75.28 v -33 h -6.19 V 39.9 a 27.5,27.5 0 0 0 16.39,-16.6 h 5.6 v 13.2 h 13.09 l -1.3,5.79 h -11.79 v 32 c 0,4.89 1.5,6.89 6.39,6.89 a 36.12,36.12 0 0 0 7.1,-0.9 v 2.8 a 22.22,22.22 0 0 1 -15.59,5.8 c -8.9,-0.01 -13.7,-3.91 -13.7,-13.6 z"/><path id="path20" d="m 499.2,61.88 c 0,-17.19 12.69,-26.68 25.78,-26.68 13.6,0 22.09,6.79 22.39,24.69 h -32.55 c 0.3,16.19 6.4,20.58 16.59,20.58 a 30.94,30.94 0 0 0 14.49,-3.68 v 3.29 a 29.22,29.22 0 0 1 -20.89,9 C 507.72,88.87 499.2,78.67 499.2,61.88 Z m 15.49,-5.79 16.89,-0.9 c 0,-11.9 -1.6,-16.29 -7.5,-16.29 -4.96,0 -8.96,4.79 -9.36,17.19 z"/><path style="fill:#00a82d" id="path22" d="m 32.33,26.98 a 6.71,6.71 0 0 1 -1.32,4.5 c -1.3,1.21 -3.33,1.31 -4.5,1.31 h -12.8 a 67,67 0 0 0 -7.4,0.2 10.49,10.49 0 0 0 -2.3,0.7 c -0.15,0.06 -0.2,0 -0.1,-0.1 L 33.13,3.89 c 0.1,-0.1 0.16,-0.06 0.1,0.1 a 10.49,10.49 0 0 0 -0.7,2.3 67,67 0 0 0 -0.2,7.4 z m 27.15,89.81 a 15.24,15.24 0 0 1 -5.89,-6.9 15.08,15.08 0 0 1 14.14,-20.63 4.48,4.48 0 0 1 4.47,4.53 4.56,4.56 0 0 1 -2.33,3.93 5.62,5.62 0 0 1 -1.7,0.58 7.25,7.25 0 0 0 -3.29,1.08 4.45,4.45 0 0 0 -1.78,3.51 5.52,5.52 0 0 0 1.6,3.9 9.52,9.52 0 0 0 6.8,2.8 12.29,12.29 0 0 0 12.3,-12.3 c 0,-6.1 -4.1,-11.5 -9.5,-13.9 a 18.65,18.65 0 0 0 -3.3,-1 c -1.5,-0.3 -2.9,-0.5 -3,-0.5 -4.2,-0.5 -14.7,-3.8 -15.4,-13.1 0,0 -3.1,14 -9.3,17.8 a 10.22,10.22 0 0 1 -2.3,0.8 13.44,13.44 0 0 1 -2.2,0.3 c -10.1,0.6 -20.8,-2.6 -28.2,-10.2 0,0 -5,-4.1 -7.6,-15.6 -0.6,-2.8 -1.8,-7.8 -2.5,-12.5 -0.3,-1.7 -0.4,-3 -0.5,-4.2 0,-4.85 3,-8.2 6.75,-8.67 h 0.59 19.79 c 3.5,0 5.5,-0.9 6.8,-2.1 1.7,-1.6 2.1,-3.9 2.1,-6.6 V 7.34 c 0,-0.14 0,-0.47 0,-0.59 C 36.5,3.01 39.85,0 44.7,0 h 2.4 a 23.83,23.83 0 0 1 3.31,0.25 23.42,23.42 0 0 1 2.69,0.55 c 6.1,1.52 7.4,7.7 7.4,7.7 l 17.3,3 c 5.5,1 19.1,1.9 21.7,15.6 6.1,32.6 2.4,64.2 2.1,64.2 -4.3,30.8 -29.9,29.3 -29.9,29.3 A 22.22,22.22 0 0 1 59.48,116.79 Z M 82.53,51.22 c -3.31,-0.34 -6.12,1 -7.15,3.52 a 2.6,2.6 0 0 0 -0.28,1.4 0.81,0.81 0 0 0 0.51,0.49 22.59,22.59 0 0 0 6.12,1.23 c 2.89,0.35 4.92,0.54 6.23,0.26 a 0.81,0.81 0 0 0 0.61,-0.36 2.5,2.5 0 0 0 0.06,-1.43 c -0.43,-2.68 -2.81,-4.62 -6.1,-5.07 z"/></svg>