<svg xmlns="http://www.w3.org/2000/svg" xmlns:svg="http://www.w3.org/2000/svg" id="svg2" width="1000" height="1000" version="1.1"><metadata id="metadata7"/><g id="layer1" transform="translate(-39.499999,287.13782)"><g id="g3005" transform="matrix(1.7404181,0,0,1.7404181,-29.616725,-527.44586)"><path id="rect3000" fill="#3b579d" fill-opacity="1" stroke="none" d="m 71,138.36218 512,0 c 17.174,0 31,13.826 31,31 l 0,512 c 0,17.174 -13.826,31 -31,31 l -146.5,0 -45.81978,-37.88194 -44.18022,37.88194 -275.5,0 c -17.174,0 -31,-13.826 -31,-31 l 0,-512 c 0,-17.174 13.826,-31 31,-31 z"/><path id="path3002" fill="#fff" stroke="none" d="m 346.5,712.36218 0,-222.5 -75,0 0,-86.5 75,0 0,-66 c 0,-69.18633 42.89263,-112.18866 110.45353,-112.18866 40.67053,0 68.04647,3.18866 68.04647,3.18866 l 0,78 -45.82143,0 c -29.03699,0 -42.67857,10.21289 -42.67857,41 l 0,56 85.5,0 -11,86.5 -74.5,0 0,222.5 z"/></g></g></svg>