<?xml version="1.0" encoding="UTF-8" standalone="no"?>
<!-- Created with Inkscape (http://www.inkscape.org/) -->

<svg
   xmlns:dc="http://purl.org/dc/elements/1.1/"
   xmlns:cc="http://creativecommons.org/ns#"
   xmlns:rdf="http://www.w3.org/1999/02/22-rdf-syntax-ns#"
   xmlns:svg="http://www.w3.org/2000/svg"
   xmlns="http://www.w3.org/2000/svg"
   xmlns:sodipodi="http://sodipodi.sourceforge.net/DTD/sodipodi-0.dtd"
   xmlns:inkscape="http://www.inkscape.org/namespaces/inkscape"
   width="1000"
   height="1000"
   id="svg2"
   version="1.1"
   inkscape:version="0.48.2 r9819"
   sodipodi:docname="New document 1">
  <defs
     id="defs4" />
  <sodipodi:namedview
     id="base"
     pagecolor="#ffffff"
     bordercolor="#666666"
     borderopacity="1.0"
     inkscape:pageopacity="0.0"
     inkscape:pageshadow="2"
     inkscape:zoom="0.49497475"
     inkscape:cx="1268.2181"
     inkscape:cy="-8.1858472"
     inkscape:document-units="px"
     inkscape:current-layer="layer1"
     showgrid="false"
     fit-margin-left="0.5"
     fit-margin-bottom="0.5"
     fit-margin-top="0.5"
     fit-margin-right="0.5"
     inkscape:window-width="1920"
     inkscape:window-height="1028"
     inkscape:window-x="-8"
     inkscape:window-y="-8"
     inkscape:window-maximized="1">
    <inkscape:grid
       type="xygrid"
       id="grid2996"
       empspacing="5"
       visible="true"
       enabled="true"
       snapvisiblegridlinesonly="true" />
  </sodipodi:namedview>
  <metadata
     id="metadata7">
    <rdf:RDF>
      <cc:Work
         rdf:about="">
        <dc:format>image/svg+xml</dc:format>
        <dc:type
           rdf:resource="http://purl.org/dc/dcmitype/StillImage" />
        <dc:title></dc:title>
      </cc:Work>
    </rdf:RDF>
  </metadata>
  <g
     inkscape:label="Layer 1"
     inkscape:groupmode="layer"
     id="layer1"
     transform="translate(-39.499999,287.13782)">
    <g
       id="g3005"
       transform="matrix(1.7404181,0,0,1.7404181,-29.616725,-527.44586)">
      <path
         sodipodi:nodetypes="ssssscccssss"
         inkscape:connector-curvature="0"
         id="rect3000"
         d="m 71,138.36218 512,0 c 17.174,0 31,13.826 31,31 l 0,512 c 0,17.174 -13.826,31 -31,31 l -146.5,0 -45.81978,-37.88194 -44.18022,37.88194 -275.5,0 c -17.174,0 -31,-13.826 -31,-31 l 0,-512 c 0,-17.174 13.826,-31 31,-31 z"
         style="fill:#3b579d;fill-opacity:1;stroke:none" />
      <path
         sodipodi:nodetypes="ccccccccccccccccc"
         inkscape:connector-curvature="0"
         id="path3002"
         d="m 346.5,712.36218 0,-222.5 -75,0 0,-86.5 75,0 0,-66 c 0,-69.18633 42.89263,-112.18866 110.45353,-112.18866 40.67053,0 68.04647,3.18866 68.04647,3.18866 l 0,78 -45.82143,0 c -29.03699,0 -42.67857,10.21289 -42.67857,41 l 0,56 85.5,0 -11,86.5 -74.5,0 0,222.5 z"
         style="fill:#ffffff;stroke:none" />
    </g>
  </g>
</svg>
