<svg xmlns="http://www.w3.org/2000/svg" xmlns:svg="http://www.w3.org/2000/svg" id="Capa_1" width="129.751" height="86.025" x="0" y="0" enable-background="new 0 0 660.066 168.017" version="1.1" viewBox="0 0 129.751 86.025" xml:space="preserve"><metadata id="metadata38"/><path id="path4" d="m 66.712,35.213 c -1.45,-0.726 -2.337,-1.087 -2.662,-1.087 -0.225,0 -0.663,0.312 -1.313,0.938 -0.6,0.675 -1.05,1.012 -1.35,1.012 -0.3,0 -0.712,0.438 -1.238,1.313 -0.525,0.875 -0.912,1.362 -1.162,1.463 -0.175,0.15 -0.525,0.737 -1.05,1.763 -0.45,1.1 -0.737,2.737 -0.862,4.912 -0.025,1.601 0,2.649 0.075,3.15 0.101,0.5 0.438,1.3 1.013,2.399 0.65,1.25 1.225,2.162 1.725,2.738 0.525,0.574 1.525,1.362 3,2.362 1.325,0.949 2.325,1.462 3,1.537 0.5,0 1.287,-0.313 2.362,-0.938 1.05,-0.675 2.025,-1.45 2.925,-2.325 1.1,-1 1.95,-2.25 2.55,-3.75 0.65,-1.524 0.975,-3.074 0.975,-4.649 0,-1.4 -0.113,-2.163 -0.337,-2.288 -0.2,-0.124 -0.3,-0.387 -0.3,-0.787 0,-0.9 -0.8,-2.2 -2.4,-3.9 -1.576,-1.65 -3.226,-2.937 -4.951,-3.863 z M 51.825,11.363 53.513,6.825 65.326,7.501 c 5.575,0.7 9.637,1.149 12.188,1.35 5.425,0.6 8.6,0.975 9.525,1.125 0.35,0.075 0.6,0.45 0.75,1.125 0.125,0.625 0.313,2.125 0.563,4.5 0.075,0.9 0.175,1.475 0.3,1.725 0.125,0.275 0.413,0.513 0.863,0.713 0.425,0.2 0.8,0.3 1.125,0.3 0.3,0 0.775,-0.1 1.425,-0.3 0.95,-0.225 2,-0.338 3.15,-0.338 1.125,0 3.238,0.113 6.338,0.338 l 8.25,0.638 c 1.825,0.125 3.188,0.412 4.087,0.862 0.899,0.45 2.262,1.563 4.087,3.338 l 2.175,1.987 -2.025,2.063 c -1.3,1.3 -2.075,1.95 -2.325,1.95 -0.275,0 -0.638,0.287 -1.088,0.862 -0.425,0.524 -0.637,0.963 -0.637,1.313 0,0.675 0.537,1.85 1.612,3.524 1.2,1.95 2.063,3.888 2.587,5.813 0.3,0.875 0.713,1.463 1.238,1.763 0.525,0.275 1.775,0.587 3.75,0.938 l 6.487,1.275 v 1.95 c 0,1.149 -0.125,2.274 -0.375,3.375 -0.2,1.1 -0.475,1.837 -0.825,2.212 -0.225,0.25 -0.6,0.399 -1.125,0.45 -0.45,0.05 -1.476,0.075 -3.075,0.075 -2.475,0 -3.788,0.125 -3.938,0.375 -0.15,0.225 -0.575,0.337 -1.275,0.337 -0.5,0 -1.025,0.213 -1.575,0.638 -0.6,0.375 -0.9,0.75 -0.9,1.125 0,0.3 -0.475,1.113 -1.425,2.438 -0.95,1.351 -1.8,2.412 -2.55,3.188 -1.3,1.4 -1.875,2.476 -1.725,3.226 0.101,0.75 1.112,2.175 3.038,4.274 l 1.763,1.875 -1.125,1.125 c -0.275,0.275 -4.425,1.625 -12.45,4.05 -8,2.4 -12.3,3.601 -12.9,3.601 -1.325,0 -2.663,-0.338 -4.013,-1.013 -1.35,-0.7 -2.188,-0.975 -2.512,-0.825 -0.575,0.25 -1.212,1.463 -1.913,3.638 -0.2,0.575 -0.388,0.95 -0.563,1.125 -0.175,0.175 -0.513,0.274 -1.013,0.3 -0.35,0.024 -3.6,0.625 -9.75,1.8 -6.2,1.175 -9.325,1.801 -9.375,1.875 C 59.975,85.88 55.313,85.767 46.163,85.242 45.938,85.217 45.5,83.842 44.85,81.117 44.175,78.342 43.7,76.854 43.425,76.654 42.975,76.429 43.0494,73.6979 39.6244,72.7729 30.2992,65.807 14.625,19.802 21.038,15.601 l 3.075,-1.537 11.287,0.712 c 0.5,0.05 3.563,0.237 9.188,0.563 2.8,0.101 4.525,0.063 5.175,-0.112 0.6,-0.175 1.025,-0.737 1.275,-1.688 0.125,-0.576 0.387,-1.301 0.787,-2.176 z" style="clip-rule:evenodd;fill:#7f7f7f;fill-rule:evenodd"/><path id="path6" d="m 94.35,42.563 -0.188,0.412 1.35,-6.75 -0.113,-4.575 10.238,1.838 0.15,4.162 -0.975,4.088 z M 16.725,38.7 8.138,37.163 7.95,32.7 8.962,28.501 17.812,27.788 19.2,25.2 l 1.35,-2.55 3.9,-4.313 1.35,-0.638 1.2,0.676 4.95,-3.713 5.887,-2.963 -0.787,-1.05 6.45,-2.1 7.575,-1.2 2.587,-7.2 L 59.55,0 l 5.813,0.712 1.162,7.425 -0.075,0.113 6.788,1.8 6.337,2.85 0.188,0.112 5.288,3.525 4.35,4.313 3.075,4.875 1.688,5.175 0.188,5.325 -1.237,5.213 -2.7,4.987 -3.975,4.5 -5.175,3.862 -6.113,3.075 -6.862,2.175 -8.1,1.2 -6.75,0.112 -7.425,-0.9 -7.013,-1.875 -6.337,-2.813 -5.475,-3.675 -4.35,-4.313 -3.075,-4.875 -1.688,-5.175 -0.188,-5.287 1.237,-5.25 -1.313,0.6 -1.237,5.25 z m 73.8,-17.437 -4.688,-4.612 -5.475,-3.638 9.075,-3.824 4.275,2.85 3.413,3.412 z M 25.763,17.363 20.7,10.613 23.4,8.588 28.2,6.15 36.412,10.838 30.3,13.913 Z M 66.45,8.251 66.187,8.176 58.8,7.126 l -7.725,0.225 0.413,1.125 7.2,-0.15 7.125,0.863 z m -17.513,10.912 -4.05,1.275 -3.6,1.8 -3.038,2.287 -2.362,2.663 -1.575,2.925 -0.75,3.075 0.15,3.149 0.975,3.038 1.8,2.85 2.587,2.588 3.188,2.137 3.75,1.65 4.2,1.162 4.313,0.488 4.013,-0.075 4.763,-0.713 4.012,-1.274 3.638,-1.801 3.038,-2.287 2.362,-2.662 1.575,-2.926 0.75,-3.074 -0.15,-3.15 -0.975,-3.037 -1.8,-2.851 -2.587,-2.55 -3.188,-2.175 -3.788,-1.65 -4.125,-1.125 -4.35,-0.524 -4.462,0.074 z M 83.962,64.2 75.75,59.512 l 0.6,-0.375 6.112,-3.074 4.95,-3.713 0.038,0.037 2.625,3.075 0.038,0.038 2.7,3.262 -4.05,3 z M 21.6,49.013 l 4.388,4.275 5.813,4.05 -7.425,3.15 -4.612,-3.075 -3.563,-3.525 5.438,-4.8 z M 61.087,63.001 58.5,70.238 52.613,70.35 46.8,69.637 l -1.125,-7.35 -0.038,-0.075 7.8,0.938 z" style="clip-rule:evenodd;fill:#e97c20;fill-rule:evenodd"/><path id="path8" d="m 80.363,13.013 5.475,3.638 4.688,4.612 3.188,5.025 1.35,4.275 0.337,1.087 0.113,4.575 -1.35,6.75 -2.587,4.725 -4.163,4.65 -4.95,3.713 -6.112,3.074 -0.6,0.375 -0.6,-1.649 6.113,-3.075 5.175,-3.862 3.975,-4.5 2.7,-4.987 1.237,-5.213 -0.188,-5.325 -1.688,-5.175 -3.075,-4.875 -4.35,-4.313 -5.288,-3.525 z M 25.8,17.7 l -1.35,0.638 1.313,-0.975 4.538,-3.45 6.112,-3.075 0.638,-0.188 -6.075,3.188 z m 40.65,-9.449 -0.638,0.938 -7.125,-0.863 -7.2,0.15 -0.413,-1.125 7.725,-0.225 7.387,1.05 z" style="clip-rule:evenodd;fill:#983103;fill-rule:evenodd"/><path id="path10" d="m 66.187,20.03 -1.913,5.114 -3.337,-0.903 -3.563,-0.413 -3.6,0.075 -3.525,0.563 -1.313,-5.302 4.313,-0.715 4.462,-0.074 4.35,0.525 z" style="clip-rule:evenodd;fill:#744923;fill-rule:evenodd"/><path id="path12" d="M 8.962,28.501 7.95,32.7 8.138,37.163 6.525,36.863 6.337,32.7 7.35,28.613 Z M 20.7,10.613 l 5.063,6.75 -1.313,0.975 -5.1,-6.75 h 0.038 z m 55.65,30.825 -3.6,0.824 0.45,-0.824 0.637,-1.238 0.6,-2.512 -0.112,-2.551 -0.788,-2.475 -1.5,-2.325 -2.063,-2.1 -2.625,-1.726 -3.075,-1.387 1.913,-5.101 3.788,1.65 3.188,2.175 2.587,2.55 1.8,2.851 0.975,3.037 0.15,3.15 -0.75,3.074 z m -44.55,15.9 -5.813,-4.05 -4.388,-4.275 -3.15,-4.949 -1.725,-5.363 -0.15,-5.662 1.237,-5.25 1.313,-0.6 -1.237,5.25 0.188,5.287 1.688,5.175 3.075,4.875 4.35,4.313 5.475,3.675 6.337,2.813 7.013,1.875 -0.375,1.763 -7.275,-1.912 z m -15.6,-3.45 3.563,3.525 4.612,3.075 -1.65,0.675 -4.275,-2.85 -3.413,-3.413 z" style="clip-rule:evenodd;fill:#fdf1af;fill-rule:evenodd"/><path id="path14" d="m 15.038,54.9 -0.862,2.288 -0.488,-0.788 -1.95,-6.037 4.987,-11.663 1.725,5.363 3.15,4.949 0.038,0.075 -5.438,4.8 z M 6.525,36.863 0.188,48.301 0,43.613 1.125,38.963 7.35,28.613 6.337,32.7 Z m 66.675,4.575 -0.113,0.149 -1.05,-1.649 -2.063,-2.101 -2.625,-1.725 -3.075,-1.388 v -9.6 l 3.075,1.387 2.625,1.726 2.063,2.1 1.5,2.325 0.788,2.475 0.112,2.551 -0.6,2.512 z" style="clip-rule:evenodd;fill:#6c2b06;fill-rule:evenodd"/><path id="path16" d="m 94.35,42.563 10.462,-0.825 6.225,12.037 -11.813,0.938 z m -35.55,43.35 -6.638,0.112 -6.563,-0.787 1.2,-15.601 5.813,0.713 5.887,-0.112 z m 2.925,-8.175 -0.638,-14.737 7.575,-1.2 7.087,-2.288 2.513,14.325 -7.988,2.513 z M 8.138,37.163 16.725,38.7 11.738,50.363 0.188,48.3 6.525,36.862 Z M 64.275,25.126 v 9.6 l -3.337,-0.9 -3.563,-0.412 -3.6,0.075 -3.525,0.563 -3.3,1.05 -2.925,1.463 -2.475,1.837 v -9.6 l 2.475,-1.838 2.925,-1.462 3.3,-1.051 3.525,-0.563 3.6,-0.074 3.563,0.412 z" style="clip-rule:evenodd;fill:#2d1403;fill-rule:evenodd"/><path id="path18" d="m 72.75,42.263 3.6,-0.824 -2.362,2.662 -3.038,2.287 -3.638,1.801 -4.012,1.274 -4.763,0.713 -4.013,0.075 -4.313,-0.488 -4.2,-1.162 -3.75,-1.65 -3.188,-2.137 -2.587,-2.588 -1.8,-2.85 -0.975,-3.038 -0.15,-3.149 0.75,-3.075 1.575,-2.925 2.362,-2.663 3.038,-2.287 3.6,-1.8 4.05,-1.275 1.313,5.287 -3.3,1.051 -2.925,1.462 -2.475,1.838 -1.95,2.175 -1.275,2.4 -0.6,2.512 0.112,2.551 0.788,2.475 0.188,0.3 0.188,0.487 0.712,0.976 1.95,1.912 2.7,1.838 3.188,1.388 3.487,0.975 3.712,0.412 3.75,-0.074 3.638,-0.563 3.413,-1.088 3.075,-1.537 2.55,-1.913 z M 25.8,17.7 30.975,13.838 37.05,10.65 37.837,11.7 31.95,14.663 27,18.376 Z" style="clip-rule:evenodd;fill:#8f2c00;fill-rule:evenodd"/><path id="path20" d="m 90.525,21.263 6.6,-5.813 5.212,8.7 -7.275,6.413 -1.35,-4.275 z m 3.825,21.3 4.875,12.149 -3.15,5.775 -1.95,2.212 3.375,10.275 -4.538,3.412 -5.438,2.7 -3.563,-14.888 4.8,-2.438 4.05,-3 -2.7,-3.262 -0.038,-0.038 -2.625,-3.075 -0.038,-0.037 4.163,-4.65 2.587,-4.725 z m -75.862,33.113 4.237,-14.513 1.65,-0.675 7.425,-3.15 -3.113,14.025 z M 41.55,38.4 39.6,40.575 39,41.7 l -0.188,-0.487 -0.188,-0.3 -0.788,-2.475 -0.112,-2.551 0.6,-2.512 1.275,-2.4 1.95,-2.175 v 9.6 z" style="clip-rule:evenodd;fill:#1d0b00;fill-rule:evenodd"/><path id="path22" d="m 45.675,62.288 -1.35,14.588 -8.212,-2.213 -7.425,-3.3 3.113,-14.025 6.563,2.963 7.275,1.912 v 0.075 z m -26.325,-50.7 5.1,6.75 -3.9,4.313 -1.35,2.55 -4.575,-5.399 z" style="clip-rule:evenodd;fill:#61300d;fill-rule:evenodd"/><path id="path24" d="m 111.038,53.775 -6.225,-12.037 0.975,-4.088 -0.15,-4.162 6.337,10.987 0.188,4.688 z M 61.725,77.738 58.8,85.913 58.5,70.238 61.087,63.001 Z" style="clip-rule:evenodd;fill:#2f1003;fill-rule:evenodd"/><path id="path26" d="m 75.75,59.513 -7.087,2.288 -7.575,1.2 -7.65,0.149 -7.8,-0.938 0.375,-1.763 7.425,0.9 6.75,-0.112 8.1,-1.2 6.862,-2.175 z" style="clip-rule:evenodd;fill:#3d1000;fill-rule:evenodd"/><path id="path28" d="m 78.263,73.838 -2.513,-14.325 8.212,4.688 3.563,14.888 z M 46.8,69.638 45.6,85.239 44.325,76.914 h 0.038 l -0.038,-0.037 1.35,-14.588 z M 22.725,61.163 18.488,75.676 13.65,72.45 9.788,68.626 14.176,57.188 15.038,54.9 l 3.413,3.413 z" style="clip-rule:evenodd;fill:#551b00;fill-rule:evenodd"/></svg>