<svg xmlns="http://www.w3.org/2000/svg" viewBox="0 0 1788 400"><g fill="none" fill-rule="evenodd"><path fill="#FF9800" d="M3.23 164h285.4a3 3 0 0 0 2.72-1.74l24.97-54.04a3 3 0 0 0-2.73-4.26L24.51 104C58.48 42.02 124.33 0 200 0c110.46 0 200 89.54 200 200s-89.54 200-200 200S0 310.46 0 200c0-12.29 1.1-24.32 3.23-36zM126 328a4 4 0 0 0 4 4h5.18l63.5-80h49.22a3 3 0 0 0 2.72-1.74l25-53.97a3 3 0 0 0-2.72-4.26L126 192v136z"/><path fill="#444" d="M500.75 124.73c0-1.21.42-2.24 1.25-3.08a4.18 4.18 0 0 1 3.08-1.25h104.2a3 3 0 0 1 2.72 4.26l-9.6 20.78a4 4 0 0 1-3.63 2.32H530.4v42.86h46.43a3 3 0 0 1 2.73 4.26l-9.61 20.78a4 4 0 0 1-3.63 2.32h-35.92v57.69c0 1.21-.42 2.24-1.26 3.08a4.18 4.18 0 0 1-3.07 1.25h-20.98a4.18 4.18 0 0 1-3.08-1.25 4.18 4.18 0 0 1-1.25-3.08V124.73zm212.34 100.78l-22.8-50.16h-.69l-22.34 50.16h45.83zM618.47 280c-1.67 0-2.93-.6-3.76-1.82-.84-1.22-.88-2.59-.12-4.1l70.91-153.45c.91-1.67 2.2-2.51 3.88-2.51h2.28c1.21 0 2.09.23 2.62.68a4.6 4.6 0 0 1 1.25 1.83l70.23 153.44c.76 1.52.72 2.89-.12 4.1-.83 1.22-2.09 1.83-3.76 1.83h-19.84c-1.67 0-3-.34-3.99-1.03-.98-.68-1.86-1.86-2.62-3.53l-11.17-24.62h-68.17l-11.17 24.62a7.76 7.76 0 0 1-2.28 3.2c-1.07.9-2.51 1.36-4.34 1.36h-19.83zM798.5 122.22c0-1.21.42-2.2 1.26-2.96a4.4 4.4 0 0 1 3.08-1.14h5.7l94.84 100.78h.23v-94.17c0-1.21.42-2.24 1.26-3.08a4.18 4.18 0 0 1 3.07-1.25h20.98c1.22 0 2.24.42 3.08 1.25a4.18 4.18 0 0 1 1.25 3.08v153.45c0 1.21-.42 2.2-1.25 2.96a4.4 4.4 0 0 1-3.08 1.14h-5.47l-95.3-104.65h-.23v98.04c0 1.21-.42 2.24-1.26 3.08a4.18 4.18 0 0 1-3.08 1.25h-20.74a4.18 4.18 0 0 1-3.08-1.25 4.18 4.18 0 0 1-1.26-3.08V122.22zm266 103.29l-22.8-50.16h-.69l-22.34 50.16h45.83zM969.88 280c-1.68 0-2.93-.6-3.77-1.82-.83-1.22-.87-2.59-.11-4.1l70.9-153.45c.92-1.67 2.21-2.51 3.88-2.51h2.28c1.22 0 2.1.23 2.63.68a4.6 4.6 0 0 1 1.25 1.83l70.22 153.44c.76 1.52.73 2.89-.11 4.1-.84 1.22-2.09 1.83-3.76 1.83h-19.84c-1.67 0-3-.34-3.99-1.03-.99-.68-1.86-1.86-2.62-3.53l-11.17-24.62h-68.17l-11.18 24.62a7.76 7.76 0 0 1-2.28 3.2c-1.06.9-2.5 1.36-4.33 1.36h-19.83zm201.46-132.24h-34.88a4.18 4.18 0 0 1-3.08-1.25 4.18 4.18 0 0 1-1.25-3.08v-18.7c0-1.21.42-2.24 1.25-3.08a4.18 4.18 0 0 1 3.08-1.25h99.64c1.21 0 2.24.42 3.07 1.25a4.18 4.18 0 0 1 1.26 3.08v18.7c0 1.21-.42 2.24-1.26 3.08a4.18 4.18 0 0 1-3.07 1.25h-34.89v127.9c0 1.22-.42 2.25-1.25 3.09a4.18 4.18 0 0 1-3.08 1.25h-21.2a4.18 4.18 0 0 1-3.08-1.25 4.18 4.18 0 0 1-1.26-3.08V147.76zm104.8-23.03c0-1.21.42-2.24 1.25-3.08a4.18 4.18 0 0 1 3.08-1.25h21.2c1.22 0 2.25.42 3.08 1.25a4.18 4.18 0 0 1 1.26 3.08v150.94c0 1.21-.42 2.24-1.26 3.08a4.18 4.18 0 0 1-3.07 1.25h-21.2a4.18 4.18 0 0 1-3.09-1.25 4.18 4.18 0 0 1-1.25-3.08V124.73zm71.74 75.7c0-11.4 2.16-22.12 6.5-32.15a83.07 83.07 0 0 1 17.55-26.1 83.07 83.07 0 0 1 26.1-17.56 80.22 80.22 0 0 1 32.15-6.5c11.56 0 21.7 1.79 30.44 5.36 8.74 3.57 16.99 8.85 24.74 15.84 2.28 2.13 2.36 4.26.23 6.39l-13.91 14.36c-1.82 1.98-3.72 1.98-5.7 0a54.8 54.8 0 0 0-16.42-9.92 51.33 51.33 0 0 0-18.7-3.53 49.01 49.01 0 0 0-36.37 15.73 54.85 54.85 0 0 0-10.59 16.99 54.43 54.43 0 0 0-3.88 20.4c0 7.15 1.3 13.91 3.88 20.3a52.7 52.7 0 0 0 10.72 16.75 51.16 51.16 0 0 0 16.18 11.4c6.24 2.82 13 4.22 20.3 4.22 6.84 0 13.14-1.18 18.92-3.53a62.78 62.78 0 0 0 15.96-9.46 4.54 4.54 0 0 1 2.96-1.14c1.07 0 1.98.38 2.74 1.14l14.14 14.59c.9.76 1.29 1.78 1.14 3.08a5.03 5.03 0 0 1-1.37 3.07 73.94 73.94 0 0 1-25.88 16.76 83.22 83.22 0 0 1-29.53 5.36 81.45 81.45 0 0 1-32.14-6.38 81.51 81.51 0 0 1-26.11-17.45 83.43 83.43 0 0 1-17.56-25.99 79.4 79.4 0 0 1-6.5-32.03zm257.32 25.08l-22.8-50.16h-.68l-22.34 50.16h45.82zM1510.58 280c-1.67 0-2.92-.6-3.76-1.82-.83-1.22-.87-2.59-.11-4.1l70.9-153.45c.92-1.67 2.21-2.51 3.88-2.51h2.28c1.22 0 2.1.23 2.62.68a4.6 4.6 0 0 1 1.26 1.83l70.22 153.44c.76 1.52.72 2.89-.11 4.1-.84 1.22-2.1 1.83-3.76 1.83h-19.84c-1.67 0-3-.34-3.99-1.03-.99-.68-1.86-1.86-2.62-3.53l-11.17-24.62h-68.18l-11.17 24.62a7.76 7.76 0 0 1-2.28 3.2c-1.06.9-2.5 1.36-4.33 1.36h-19.84zm180.04-155.27c0-1.21.42-2.24 1.25-3.08a4.18 4.18 0 0 1 3.08-1.25h20.98c1.21 0 2.24.42 3.08 1.25a4.18 4.18 0 0 1 1.25 3.08v127.91h64.49a3 3 0 0 1 2.72 4.26l-9.6 20.78a4 4 0 0 1-3.63 2.32h-79.29a4.18 4.18 0 0 1-3.08-1.25 4.18 4.18 0 0 1-1.25-3.08V124.73z"/></g></svg>