<svg xmlns="http://www.w3.org/2000/svg" xmlns:svg="http://www.w3.org/2000/svg" id="svg8" width="399.764" height="400" preserveAspectRatio="xMinYMid meet" version="1.1" viewBox="0 0 399.764 400"><metadata id="metadata14"/><g style="fill:none;fill-rule:evenodd" id="g6"><path style="fill:#ff9800" id="path2" d="M 2.8756297,166.00561 H 287.54667 c 1.16928,0 2.23188,-0.68016 2.72206,-1.74236 l 25.86318,-56.04528 c 0.69459,-1.50404 0.0391,-3.28672 -1.46404,-3.98172 -0.39436,-0.18233 -0.82361,-0.27674 -1.25803,-0.27669 l -288.918179,0.0357 C 58.448239,42.018739 124.26099,0 199.88196,0 c 110.39176,0 199.88196,89.54305 199.88196,200 0,110.45695 -89.4902,200 -199.88196,200 C 89.490201,400 0,310.45695 0,200 0,188.41194 0.98494201,177.05407 2.8756297,166.00561 Z M 125.92563,328 c 0,2.20914 1.78981,4 3.99764,4 h 5.17224 l 62.83118,-79.01111 h 49.42911 c 1.16922,0 2.23178,-0.68009 2.72199,-1.74222 l 25.83492,-55.97589 c 0.18199,-0.39431 0.27624,-0.82345 0.27624,-1.25778 0,-1.65685 -1.34236,-3 -2.99823,-3 H 125.92563 Z"/></g></svg>