<svg xmlns="http://www.w3.org/2000/svg" version="1.2" height="250" width="256.8"><path d="M113 182.4c0 2.1-.5 5.1-3 7.4l-9 7.6-81.6-76.2v-30l89.8 83.9c1.5 1.4 3.9 4 3.9 7.4zm124.4-88.9v27.7l-101.6 97.3a7.6 7.6 0 0 1-5.5 2.3 8 8 0 0 1-5.8-2.3l-9.2-8.3zM160 143l-28.2 26.5-89.4-84.3a21.8 21.8 0 0 1 0-31.8l28.2-26.6L160 111c9.3 8.7 9.3 23 0 31.8zm-16.6-73.5l29.3-27.8a24.5 24.5 0 0 1 17-6.5c6.3 0 12.2 2.3 16.8 6.6l30.3 28.6-46.2 43.7-17-16zM256.2 65L189.8 1.3 188.4 0l-1.3 1.3-58 55.3L77.2 7.3l-6.6-5.2-1.2-1L68 2.2.6 65l-.6.5v63.3l.6.5L127 248.8l1.3 1.3 1.5-1.3L256 129.3l.6-.5V65.6z" fill="#08d7d7" fill-rule="evenodd"/></svg>