<svg xmlns="http://www.w3.org/2000/svg" version="1.2" viewBox="0 0 1167.3 250"><path d="M451.28 147.07l18.43-48.45a3.3 3.3 0 0 1 6.18 0l18.45 48.44h-43.06m41.81-89.65a8.92 8.92 0 0 0-8.36-5.77h-23.84a8.94 8.94 0 0 0-8.36 5.77l-50.6 133.48a6.07 6.07 0 0 0 5.69 8.2h19.66a6.1 6.1 0 0 0 5.68-3.9l5.28-13.88a6.08 6.08 0 0 1 5.68-3.92h57.76a6.08 6.08 0 0 1 5.68 3.92l5.29 13.86a6.06 6.06 0 0 0 5.67 3.91h19.66a6.08 6.08 0 0 0 5.7-8.22L493.09 57.4m667.86-5.76h-19.4a13.3 13.3 0 0 0-11.98 7.53l-38.5 80.56-38.52-80.56a13.3 13.3 0 0 0-11.98-7.53h-19.4a6.37 6.37 0 0 0-6.36 6.37v134.71a6.36 6.36 0 0 0 6.36 6.37h18.63a6.35 6.35 0 0 0 6.38-6.37v-69.87l35.3 72.66a6.4 6.4 0 0 0 5.75 3.59h7.65a6.4 6.4 0 0 0 5.74-3.59l35.33-72.66v69.87a6.36 6.36 0 0 0 6.36 6.37h18.63a6.37 6.37 0 0 0 6.36-6.37V58.01a6.37 6.37 0 0 0-6.36-6.37m-764.05 63.48h-61.63V81.97h77.98a6.3 6.3 0 0 0 5.91-4.16l6.37-17.79a6.29 6.29 0 0 0-5.92-8.39H311.14a6.28 6.28 0 0 0-6.28 6.28v134.9a6.28 6.28 0 0 0 6.28 6.28h17.8a6.28 6.28 0 0 0 6.28-6.28v-47.36h55.3a6.28 6.28 0 0 0 5.92-4.16l6.37-17.8a6.28 6.28 0 0 0-5.92-8.39v.02m369.7 54.9h-25.82v-89.3h25.82c27.35 0 45.79 18.16 45.79 44.66 0 26.48-18.45 44.63-45.79 44.63m-.9-118.37h-50.9a6.28 6.28 0 0 0-6.27 6.28v134.9a6.28 6.28 0 0 0 6.28 6.27h50.9c46.1 0 77.95-32.04 77.95-73.3v-.84c0-41.26-31.83-73.3-77.93-73.3h-.02m-85.33.2h-18.83a6.27 6.27 0 0 0-6.28 6.25v89.17L592.73 55.5a8.8 8.8 0 0 0-7.3-3.86h-23.67a6.26 6.26 0 0 0-6.25 6.26v134.94c0 3.45 2.8 6.26 6.26 6.26h18.87c3.46 0 6.26-2.8 6.26-6.26v-87.63l61.48 90.03a8.8 8.8 0 0 0 7.3 3.85h24.72c3.47 0 6.28-2.8 6.28-6.25V58.1a6.26 6.26 0 0 0-6.28-6.25h-.04m290.78 74.3a43.3 43.3 0 0 1-43.24 43.4 43.3 43.3 0 0 1-43.25-43.4v-1.57a43.33 43.33 0 0 1 43.25-43.4 43.32 43.32 0 0 1 43.25 43.4v1.59l-.01-.01m-43.25-75.32c-40.67 0-73.63 33.03-73.63 73.74v1.59c0 40.73 32.96 73.74 73.63 73.74 40.66 0 73.62-33 73.62-73.73v-1.58c0-40.7-32.96-73.73-73.62-73.73v-.03"/><path d="M112.96 182.42c0 2.1-.5 5.06-2.9 7.33l-9 7.66-81.7-76.2v-29.9l89.84 83.8c1.41 1.32 3.77 4.03 3.77 7.32zM237.41 93.5v27.73l-101.65 97.33a7.58 7.58 0 0 1-5.5 2.3 8.09 8.09 0 0 1-5.7-2.32l-9.3-8.34zm-77.44 49.4l-28.18 26.6-89.26-84.26a21.72 21.72 0 0 1-.03-31.86l28.2-26.63 89.26 84.29a21.65 21.65 0 0 1 0 31.86zm-16.64-73.4l29.38-27.73a24.5 24.5 0 0 1 16.88-6.57c6.4 0 12.38 2.34 16.87 6.59l30.31 28.6-46.23 43.65-16.88-15.91-30.3-28.63zm112.88-4.41L189.82 1.33 188.45 0l-1.38 1.3-57.99 55.27L77.26 7.4l-.07-.07-.05-.03-6.5-5.17-1.33-1.07-1.26 1.17L.59 64.97l-.59.55v63.27l.57.54 126.5 119.36 1.39 1.31 1.37-1.3 126.4-119.36.55-.54V65.62l-.55-.53z" fill="#08d7d7" fill-rule="evenodd"/></svg>