<svg xmlns="http://www.w3.org/2000/svg" viewBox="0 0 618 155"><path fill="#FA005A" d="M478.6 71.94L407.42.78a2.63 2.63 0 00-4.49 1.85v59.84l-21.56-21.54a2.64 2.64 0 00-4.49 1.86v61.79a14.68 14.68 0 004.31 10.42l28.05 28c2.76 2.75 6.5 4.3 10.4 4.3h20.53c3.9 0 7.63-1.55 10.39-4.3l28.05-28a14.67 14.67 0 004.3-10.39V82.34a14.66 14.66 0 00-4.31-10.4z"/><path fill="#FFC500" d="M456.89 98c0 1.17-.47 2.28-1.29 3.11L433 123.79a4.4 4.4 0 01-6.25 0l-22.55-22.71a4.42 4.42 0 01-1.3-3.08v-8.66a4.42 4.42 0 011.3-3.12l8.12-8.12a4.42 4.42 0 016.24 0l11.35 11.36 11.33-11.36a4.42 4.42 0 016.24 0l8.11 8.12a4.41 4.41 0 011.3 3.12V98z"/><path fill="#520044" d="M586.17 56.29a25.75 25.75 0 00-16 5.58l-3.63 3a3.14 3.14 0 01-3.85 0l-3.64-3a25.75 25.75 0 00-16-5.58h-.67c-8.75 0-16.43 4.78-20.7 13a.85.85 0 01-.94.44.84.84 0 01-.65-.81v-9.21a2.77 2.77 0 00-2.77-2.77h-19.23a2.8 2.8 0 00-2.78 2.79v75.9a2.81 2.81 0 002.81 2.81h19.16a2.81 2.81 0 002.81-2.81V90.35a9.48 9.48 0 019.48-9.48h4.85a9.48 9.48 0 019.49 9.48l.06 45.29a2.8 2.8 0 002.81 2.8h19.16a2.81 2.81 0 002.81-2.81V90.35a9.48 9.48 0 019.48-9.48h4.86a9.47 9.47 0 019.48 9.48l.07 45.29a2.8 2.8 0 002.8 2.8h19.17a2.8 2.8 0 002.8-2.81V88a31.3 31.3 0 00-31.24-31.71zM360 27.48l-17.8-17.8a2.73 2.73 0 00-4.67 1.93v48.48a1.6 1.6 0 01-2.5 1.32c-4.42-3-9.66-4.55-15-4.45h-11.19a31.61 31.61 0 00-31.61 31.6v18.38a31.62 31.62 0 0031.61 31.61h6.22c8.75 0 16.43-4.78 20.7-13a.85.85 0 01.94-.44.84.84 0 01.65.81v9.84a2.77 2.77 0 002.77 2.77h19.23a2.8 2.8 0 002.78-2.78V32.61c0-1.92-.77-3.77-2.13-5.13zm-58.09 78V90a9.49 9.49 0 019.48-9.48h15.93A9.48 9.48 0 01336.8 90v15.48a9.48 9.48 0 01-9.48 9.49h-15.93a9.49 9.49 0 01-9.48-9.48v-.01zM162.42 57H143.2a2.77 2.77 0 00-2.77 2.77v9.83a.84.84 0 01-1.59.37c-4.27-8.2-12-13-20.7-13h-6.23a31.6 31.6 0 00-31.6 31.6v18.38a31.6 31.6 0 0031.6 31.61h6.23c8.74 0 16.43-4.78 20.7-13a.85.85 0 01.94-.44.84.84 0 01.65.81v9.84a2.77 2.77 0 002.77 2.77h19.22a2.78 2.78 0 002.78-2.78v-76a2.76 2.76 0 00-2.78-2.76zm-22.54 48.53a9.5 9.5 0 01-9.49 9.49h-15.92a9.49 9.49 0 01-9.49-9.49V90a9.5 9.5 0 019.49-9.48h15.92a9.5 9.5 0 019.49 9.48v15.53zM231.78 57H230c-8.74 0-16.43 4.77-20.7 13a.85.85 0 01-.94.44.84.84 0 01-.65-.81v-9.9a2.77 2.77 0 00-2.77-2.73h-19.22a2.78 2.78 0 00-2.78 2.78v75.91a2.8 2.8 0 002.8 2.8h19.17a2.79 2.79 0 002.8-2.8l.07-44.69a9.48 9.48 0 019.48-9.48h11.8a9.49 9.49 0 019.48 9.48l.06 44.64a2.81 2.81 0 002.81 2.8h19.16a2.8 2.8 0 002.81-2.8V88.56A31.6 31.6 0 00231.78 57zM16.23 40.34A16.24 16.24 0 000 56.58v73.15c0 2.6 1.03 5.08 2.86 6.91l16.91 16.9a2.92 2.92 0 005-2.07V114a2.73 2.73 0 012.73-2.73H56a3.64 3.64 0 003.47-2.54l5.37-17a3.06 3.06 0 00-2.92-4H27.5A2.72 2.72 0 0124.77 85V66.45a2.7 2.7 0 012.73-2.72h43.74a3.63 3.63 0 003.46-2.53l5.41-16.86a3.06 3.06 0 00-2.92-4H16.23z"/></svg>