<svg xmlns="http://www.w3.org/2000/svg" height="38.904" width="30.26"><defs><clipPath id="a"><path d="M0 625V0h554.766v625z"/></clipPath></defs><g clip-path="url(#a)" transform="matrix(.13 0 0 -.13 -19.561 58.486)"><path d="M260.234 156.656h-51.867l-51.879 17.282h51.879l34.578 34.589v43.227h69.168l34.586 34.582v5.875l17.293-5.875v-51.883H260.234v-77.797m0 181.578h-17.289v43.2h103.754l34.571 34.589v5.868l17.3-5.868v-51.871H260.234v-25.918" fill="#c7c3c1"/><path d="M234.309 424.688v-95.133h103.734V294.98H234.309v-77.816h-34.59v242.09h172.91v-34.566h-138.32" fill="#fff"/><path d="M372.629 424.688v34.566h-172.91v-242.09h34.59v77.816h103.734v34.575H234.309v95.133zm8.641-8.665l-34.571-34.589H242.945v-43.2h103.754v-51.898l-34.586-34.582h-69.168v-43.227l-34.578-34.589h-51.879v259.386l34.578 34.567H381.27v-51.868" fill="#100f0d"/></g></svg>