<?xml version="1.0" encoding="UTF-8" standalone="no"?>
<svg
   xmlns:dc="http://purl.org/dc/elements/1.1/"
   xmlns:cc="http://creativecommons.org/ns#"
   xmlns:rdf="http://www.w3.org/1999/02/22-rdf-syntax-ns#"
   xmlns:svg="http://www.w3.org/2000/svg"
   xmlns="http://www.w3.org/2000/svg"
   viewBox="0 0 30.26025 38.904373"
   height="38.904373"
   width="30.26025"
   xml:space="preserve"
   version="1.1"
   id="svg2"><metadata
     id="metadata8"><rdf:RDF><cc:Work
         rdf:about=""><dc:format>image/svg+xml</dc:format><dc:type
           rdf:resource="http://purl.org/dc/dcmitype/StillImage" /><dc:title></dc:title></cc:Work></rdf:RDF></metadata><defs
     id="defs6"><clipPath
       id="clipPath18"
       clipPathUnits="userSpaceOnUse"><path
         id="path20"
         d="M 0,625 V 0 h 554.766 v 625 z" /></clipPath></defs><g
     transform="matrix(1.25,0,0,-1.25,-19.561,58.486375)"
     id="g10"><g
       transform="scale(0.1)"
       id="g12"><g
         id="g14"><g
           clip-path="url(#clipPath18)"
           id="g16"><path
             id="path22"
             style="fill:#c7c3c1;fill-opacity:1;fill-rule:nonzero;stroke:none"
             d="m 260.234,156.656 h -51.867 l -51.879,17.282 h 51.879 l 34.578,34.589 v 43.227 h 69.168 l 34.586,34.582 v 5.875 l 17.293,-5.875 V 234.453 H 260.234 v -77.797 m 0,181.578 h -17.289 v 43.2 h 103.754 l 34.571,34.589 v 5.868 l 17.3,-5.868 V 364.152 H 260.234 v -25.918" /><path
             id="path24"
             style="fill:#ffffff;fill-opacity:1;fill-rule:nonzero;stroke:none"
             d="M 234.309,424.688 V 329.555 H 338.043 V 294.98 H 234.309 v -77.816 h -34.59 v 242.09 h 172.91 v -34.566 h -138.32" /><path
             id="path26"
             style="fill:#100f0d;fill-opacity:1;fill-rule:nonzero;stroke:none"
             d="m 372.629,424.688 v 34.566 h -172.91 v -242.09 h 34.59 v 77.816 h 103.734 v 34.575 H 234.309 v 95.133 z m 8.641,-8.665 -34.571,-34.589 H 242.945 v -43.2 h 103.754 v -51.898 l -34.586,-34.582 h -69.168 v -43.227 l -34.578,-34.589 h -51.879 v 259.386 l 34.578,34.567 H 381.27 v -51.868" /></g></g></g></g></svg>