<svg xmlns="http://www.w3.org/2000/svg" id="Layer_1" data-name="Layer 1" viewBox="0 0 134.21 22.72"><defs id="defs19"><mask id="mask" x="0" y=".25" width="14.37" height="22.22" maskUnits="userSpaceOnUse"><g transform="translate(0 -.1)" id="g6"><g id="mask-2"><path id="path-1" class="cls-1" d="M0 22.57V.36h14.37v22.21H.01z"/></g></g></mask><mask id="mask-2-2" x="70.9" y="0" width="63.31" height="22.72" maskUnits="userSpaceOnUse"><g transform="translate(0 -.1)" id="g11"><g id="mask-4"><path id="path-3" class="cls-1" d="M102.55 22.82h31.66V.11H70.9v22.71h31.65z"/></g></g></mask><mask id="mask-4-3" x="70.9" y="0" width="63.31" height="22.72" maskUnits="userSpaceOnUse"><g transform="translate(0 -.1)" id="g16"><g id="mask-4-4" data-name="mask-4"><path id="path-3-3" data-name="path-3" class="cls-1" d="M102.55 22.82h31.66V.11H70.9v22.71h31.65z"/></g></g></mask></defs><path id="Fill-1" d="M0 .25h14.37v3.38H3.75v6.63h8.92v3.41H3.75v8.8H0V.25" fill="#2d2d2d"/><path id="Fill-4" d="M19.54 22.47h3.75V.25h-3.75z" fill="#2d2d2d"/><path d="M33.57 11.14h3.57c3 0 4.46-1.56 4.46-3.75 0-2.35-1.52-3.76-4.22-3.76h-3.8zm8.21 11.33l-5.26-7.92h-2.95v7.92h-3.74V.25h8.11c5.24 0 7.53 3.07 7.53 7.2 0 3.66-1.86 5.85-4.83 6.7v.09l5.63 8.23z" class="cls-3" id="Fill-5" fill="#2d2d2d"/><path id="Fill-6" d="M51.1.25h13.85v3.38h-10.1v6.13H63v3.38h-8.15v5.95H65.6v3.38H51.1V.25" fill="#2d2d2d"/><path d="M82.92 15.96c0-1.97-1.5-3.25-4.37-3.25h-3.9v6.38h3.84c2.63-.03 4.43-1.03 4.43-3.13zm-8.27-6.5h3.56c1.86 0 3.68-.85 3.68-2.95 0-1.75-1.17-2.91-4.05-2.88h-3.2zm12.17 6.9c0 3.54-2.36 6.1-7.22 6.1h-8.7V.26h7.65c4.52 0 7.15 1.78 7.15 5.41a5.21 5.21 0 0 1-3.25 5.04v.03a5.46 5.46 0 0 1 4.37 5.64z" class="cls-3" id="Fill-7" fill="#2d2d2d"/><path d="M108.78 11.36c0-4.57-3.13-7.82-7.19-7.82-4.3 0-7.25 3.47-7.25 7.82s2.95 7.82 7.25 7.82c4.06 0 7.19-3.28 7.19-7.82zm-18.3 0C90.47 4.82 95 0 101.58 0c6.35 0 11.1 4.57 11.1 11.36 0 6.76-4.75 11.36-11.1 11.36-6.6 0-11.12-4.82-11.12-11.36z" class="cls-3" id="Fill-9" fill="#2d2d2d"/><path id="Fill-10" d="M124.45 14.27h-.06l-5.36 8.2h-4.37l7.28-11.14L114.82.25h4.3l5.3 8.14h.03l5.3-8.14h4.27l-7.12 11.08 7.3 11.14h-4.39l-5.36-8.2" fill="#2d2d2d"/></svg>