<svg xmlns="http://www.w3.org/2000/svg" fill-rule="evenodd" stroke-linejoin="round" stroke-miterlimit="1.41" clip-rule="evenodd" viewBox="0 0 303 312"><g fill-rule="nonzero"><path fill="url(#_Radial1)" d="M262.81 71.56c-25.31-33.25-64.76-54-106.25-54.79-32.51-.65-55 9.1-67.67 16.93 17-9.84 41.6-15.42 63.14-15.14 55.41.71 114.91 38.34 123.75 106.19 10.14 77.89-44.23 142.9-120.73 143.09-84.16.22-135.34-74.12-122-140.89.67-3.34.33-6.58 1.45-9.73.63-11.74 5.08-30.15 14.67-48.95-9.69 5-22 20.83-28.12 35.48C12.3 124.89 9.21 150.16 12 174.2c.21 1.81.4 3.61.64 5.41 11.48 67.04 70.17 116.55 138.19 116.55 76.91 0 140.2-63.3 140.2-140.2 0-30.43-9.9-60.05-28.21-84.35l-.01-.05z"/><path fill="url(#_Radial2)" d="M262.81 71.56c-25.31-33.25-64.76-54-106.25-54.79-32.51-.65-55 9.1-67.67 16.93 17-9.84 41.6-15.42 63.14-15.14 55.41.71 114.91 38.34 123.75 106.19 10.14 77.89-44.23 142.9-120.73 143.09-84.16.22-135.34-74.12-122-140.89.67-3.34.33-6.58 1.45-9.73.63-11.74 5.08-30.15 14.67-48.95-9.69 5-22 20.83-28.12 35.48C12.3 124.89 9.21 150.16 12 174.2c.21 1.81.4 3.61.64 5.41 11.48 67.04 70.17 116.55 138.19 116.55 76.91 0 140.2-63.3 140.2-140.2 0-30.43-9.9-60.05-28.21-84.35l-.01-.05z"/><path fill="url(#_Radial3)" d="M262.81 71.56c-25.31-33.25-64.76-54-106.25-54.79-32.51-.65-55 9.1-67.67 16.93 17-9.84 41.6-15.42 63.14-15.14 55.41.71 114.91 38.34 123.75 106.19 10.14 77.89-44.23 142.9-120.73 143.09-84.16.22-135.34-74.12-122-140.89.67-3.34.33-6.58 1.45-9.73.63-11.74 5.08-30.15 14.67-48.95-9.69 5-22 20.83-28.12 35.48C12.3 124.89 9.21 150.16 12 174.2c.21 1.81.4 3.61.64 5.41 11.48 67.04 70.17 116.55 138.19 116.55 76.91 0 140.2-63.3 140.2-140.2 0-30.43-9.9-60.05-28.21-84.35l-.01-.05z"/><path fill="url(#_Radial4)" d="M262.81 71.56c-25.31-33.25-64.76-54-106.25-54.79-32.51-.65-55 9.1-67.67 16.93 17-9.84 41.6-15.42 63.14-15.14 55.41.71 114.91 38.34 123.75 106.19 10.14 77.89-44.23 142.9-120.73 143.09-84.16.22-135.34-74.12-122-140.89.67-3.34.33-6.58 1.45-9.73.63-11.74 5.08-30.15 14.67-48.95-9.69 5-22 20.83-28.12 35.48C12.3 124.89 9.21 150.16 12 174.2c.21 1.81.4 3.61.64 5.41 11.48 67.04 70.17 116.55 138.19 116.55 76.91 0 140.2-63.3 140.2-140.2 0-30.43-9.9-60.05-28.21-84.35l-.01-.05z"/><path fill="url(#_Radial5)" d="M262.81 71.56c-25.31-33.25-64.76-54-106.25-54.79-32.51-.65-55 9.1-67.67 16.93 17-9.84 41.6-15.42 63.14-15.14 55.41.71 114.91 38.34 123.75 106.19 10.14 77.89-44.23 142.9-120.73 143.09-84.16.22-135.34-74.12-122-140.89.67-3.34.33-6.58 1.45-9.73.63-11.74 5.08-30.15 14.67-48.95-9.69 5-22 20.83-28.12 35.48C12.3 124.89 9.21 150.16 12 174.2c.21 1.81.4 3.61.64 5.41 11.48 67.04 70.17 116.55 138.19 116.55 76.91 0 140.2-63.3 140.2-140.2 0-30.43-9.9-60.05-28.21-84.35l-.01-.05z"/><path fill="url(#_Linear6)" d="M275.78 124.75c1.1 8.39 1.45 16.86 1.05 25.31 4.67-.67 9.33-1.28 14-1.85a139.55 139.55 0 0 0-28-76.65c-25.31-33.25-64.76-54-106.25-54.79-32.51-.65-55 9.1-67.67 16.93 17-9.84 41.6-15.42 63.14-15.14 55.39.71 114.89 38.34 123.73 106.19z"/><path fill="url(#_Radial7)" d="M279.19 120.88C271.31 50 207.92 18.1 152 18.56c-21.54.18-46.14 5.3-63.14 15.14a69.34 69.34 0 0 0-12.46 9.44c.45-.37 1.8-1.48 4-3l.22-.15.2-.13a93.33 93.33 0 0 1 26.98-12.49c14.77-4.32 30.76-5.76 46.14-5.38 63.21 3.64 107.82 56 109.37 111.69 1.29 46.12-36.54 82.89-80.15 85-31.72 1.55-61.6-13.76-76.2-44.39a75.77 75.77 0 0 1-6.87-22.12c-6.92-46.61 24.46-86.36 53.24-96.2C137.8 42.46 98.91 43.38 70 64.62 49.11 79.92 35.59 103.2 31.11 131c-3.42 21.18-.2 43.2 8.19 62.87a124.3 124.3 0 0 0 39.92 50.71 125.56 125.56 0 0 0 65.39 24.14c3.47.26 7 .39 10.44.39 92.62-.03 132.81-70.11 124.14-148.23z"/><path fill="url(#_Radial8)" d="M279.19 120.88C271.31 50 207.92 18.1 152 18.56c-21.54.18-46.14 5.3-63.14 15.14a69.34 69.34 0 0 0-12.46 9.44c.45-.37 1.8-1.48 4-3l.22-.15.2-.13a93.33 93.33 0 0 1 26.98-12.49c14.77-4.32 30.76-5.76 46.14-5.38 63.21 3.64 107.82 56 109.37 111.69 1.29 46.12-36.54 82.89-80.15 85-31.72 1.55-61.6-13.76-76.2-44.39a75.77 75.77 0 0 1-6.87-22.12c-6.92-46.61 24.46-86.36 53.24-96.2C137.8 42.46 98.91 43.38 70 64.62 49.11 79.92 35.59 103.2 31.11 131c-3.42 21.18-.2 43.2 8.19 62.87a124.3 124.3 0 0 0 39.92 50.71 125.56 125.56 0 0 0 65.39 24.14c3.47.26 7 .39 10.44.39 92.62-.03 132.81-70.11 124.14-148.23z"/><path fill="url(#_Radial9)" d="M279.19 120.88C271.31 50 207.92 18.1 152 18.56c-21.54.18-46.14 5.3-63.14 15.14a69.34 69.34 0 0 0-12.46 9.44c.45-.37 1.8-1.48 4-3l.22-.15.2-.13a93.33 93.33 0 0 1 26.98-12.49c14.77-4.32 30.76-5.76 46.14-5.38 63.21 3.64 107.82 56 109.37 111.69 1.29 46.12-36.54 82.89-80.15 85-31.72 1.55-61.6-13.76-76.2-44.39a75.77 75.77 0 0 1-6.87-22.12c-6.92-46.61 24.46-86.36 53.24-96.2C137.8 42.46 98.91 43.38 70 64.62 49.11 79.92 35.59 103.2 31.11 131c-3.42 21.18-.2 43.2 8.19 62.87a124.3 124.3 0 0 0 39.92 50.71 125.56 125.56 0 0 0 65.39 24.14c3.47.26 7 .39 10.44.39 92.62-.03 132.81-70.11 124.14-148.23z"/><path fill="url(#_Radial10)" d="M279.19 120.88C271.31 50 207.92 18.1 152 18.56c-21.54.18-46.14 5.3-63.14 15.14a69.34 69.34 0 0 0-12.46 9.44c.45-.37 1.8-1.48 4-3l.22-.15.2-.13a93.33 93.33 0 0 1 26.98-12.49c14.77-4.32 30.76-5.76 46.14-5.38 63.21 3.64 107.82 56 109.37 111.69 1.29 46.12-36.54 82.89-80.15 85-31.72 1.55-61.6-13.76-76.2-44.39a75.77 75.77 0 0 1-6.87-22.12c-6.92-46.61 24.46-86.36 53.24-96.2C137.8 42.46 98.91 43.38 70 64.62 49.11 79.92 35.59 103.2 31.11 131c-3.42 21.18-.2 43.2 8.19 62.87a124.3 124.3 0 0 0 39.92 50.71 125.56 125.56 0 0 0 65.39 24.14c3.47.26 7 .39 10.44.39 92.62-.03 132.81-70.11 124.14-148.23z"/><path fill="url(#_Radial11)" d="M183.16 218.7c59.86-3.63 85.47-53.06 87.07-88.15C272.74 75.76 240.15 16.67 153.94 22c-15.38-.38-31.37 1.06-46.14 5.38-9.54 2.8-18.6 7.01-26.92 12.47l-.2.13-.22.15a87.66 87.66 0 0 0-3.93 2.94c2.4-1.64 32.13-19.15 73.43-13.74 49.49 6.47 94.74 44.89 94.74 95.58 0 39-30.21 68.77-65.58 66.64-52.55-3.16-65.79-56.92-38.46-80.15-7.37-1.58-21.23 1.52-30.87 15.91-8.66 12.91-8.17 32.85-2.83 47 14.6 30.63 44.5 46.31 76.2 44.39z"/><path fill="url(#_Linear12)" d="M262.8 71.56c-3.75-4.9-7.82-9.54-12.18-13.9a109.3 109.3 0 0 0-11.12-10.22 84.85 84.85 0 0 1 6.5 6.25 78.52 78.52 0 0 1 17.09 28.43c7.31 22.1 6.83 49.76-7.13 71.48-16.63 25.89-43.72 38.67-73 38-1.27 0-2.54 0-3.82-.09-52.55-3.16-65.79-56.92-38.46-80.15-7.37-1.58-21.23 1.52-30.87 15.91-8.66 12.91-8.17 32.85-2.83 47a75.77 75.77 0 0 1-6.87-22.12c-6.92-46.61 24.46-86.36 53.24-96.2C137.8 42.46 98.91 43.38 70 64.62 53.09 77 41 94.61 34.65 115.59c.94-11.77 5.4-29.36 14.56-47.32-9.69 5-22 20.83-28.12 35.48C12.3 124.89 9.21 150.16 12 174.2c.21 1.81.4 3.61.64 5.41 11.47 67.05 70.17 116.56 138.2 116.56 76.9 0 140.2-63.29 140.2-140.2 0-30.43-9.92-60.05-28.23-84.36l-.01-.05z"/><path fill="url(#_Linear13)" d="M263.05 82.12A78.35 78.35 0 0 0 246 53.69c-8.93-9.64-20.06-17-31.83-22.68A142.13 142.13 0 0 0 182.85 20a139.79 139.79 0 0 0-58-.34C105 23.8 87.49 32.39 76.43 43.12c8.29-5 19.86-9.1 28.1-11.18 38.26-9.65 80.39.8 109.11 28.28a94.22 94.22 0 0 1 15.15 18.51c17.13 27.79 15.51 62.73 2.15 83.34-9.92 15.3-31.17 29.66-51 29.51 30.42 1.59 58.79-11.21 76-38 13.95-21.7 14.43-49.36 7.11-71.46z"/><path fill="url(#_Linear14)" d="M263.05 82.12A78.35 78.35 0 0 0 246 53.69c-8.93-9.64-20.06-17-31.83-22.68A142.13 142.13 0 0 0 182.85 20a139.79 139.79 0 0 0-58-.34C105 23.8 87.49 32.39 76.43 43.12c8.29-5 19.86-9.1 28.1-11.18 38.26-9.65 80.39.8 109.11 28.28a94.22 94.22 0 0 1 15.15 18.51c17.13 27.79 15.51 62.73 2.15 83.34-9.92 15.3-31.17 29.66-51 29.51 30.42 1.59 58.79-11.21 76-38 13.95-21.7 14.43-49.36 7.11-71.46z"/></g><defs><radialGradient id="_Radial1" cx="0" cy="0" r="1" gradientTransform="translate(261.36 69.65) scale(317.73)" gradientUnits="userSpaceOnUse"><stop offset="0" stop-color="#fff44f"/><stop offset=".29" stop-color="#ff980e"/><stop offset=".43" stop-color="#ff5d36"/><stop offset=".53" stop-color="#ff3750"/><stop offset=".75" stop-color="#f5156c"/><stop offset=".76" stop-color="#f1136e"/><stop offset=".88" stop-color="#da057a"/><stop offset=".95" stop-color="#d2007f"/><stop offset="1" stop-color="#d2007f"/></radialGradient><radialGradient id="_Radial2" cx="0" cy="0" r="1" gradientTransform="translate(34.2 82.8) scale(188.04)" gradientUnits="userSpaceOnUse"><stop offset="0" stop-color="#b5007f" stop-opacity=".67"/><stop offset="1" stop-color="#f5156c" stop-opacity="0"/></radialGradient><radialGradient id="_Radial3" cx="0" cy="0" r="1" gradientTransform="translate(288.52 51.57) scale(373.1)" gradientUnits="userSpaceOnUse"><stop offset="0" stop-color="#fd0" stop-opacity=".6"/><stop offset=".09" stop-color="#ffd702" stop-opacity=".58"/><stop offset=".2" stop-color="#fec606" stop-opacity=".52"/><stop offset=".32" stop-color="#fda90e" stop-opacity=".43"/><stop offset=".45" stop-color="#fc8119" stop-opacity=".3"/><stop offset=".57" stop-color="#fa4e27" stop-opacity=".14"/><stop offset=".66" stop-color="#f92433" stop-opacity="0"/><stop offset="1" stop-color="#f92433" stop-opacity="0"/></radialGradient><radialGradient id="_Radial4" cx="0" cy="0" r="1" gradientTransform="translate(159 172.15) scale(481.33)" gradientUnits="userSpaceOnUse"><stop offset="0" stop-color="#960e18"/><stop offset=".15" stop-color="#960e18"/><stop offset=".18" stop-color="#b11927" stop-opacity=".74"/><stop offset=".22" stop-color="#db293d" stop-opacity=".34"/><stop offset=".26" stop-color="#f5334b" stop-opacity=".09"/><stop offset=".27" stop-color="#ff3750" stop-opacity="0"/><stop offset="1" stop-color="#ff3750" stop-opacity="0"/></radialGradient><radialGradient id="_Radial5" cx="0" cy="0" r="1" gradientTransform="translate(122.57 166.1) scale(481.33)" gradientUnits="userSpaceOnUse"><stop offset="0" stop-color="#960e18"/><stop offset=".11" stop-color="#960e18"/><stop offset=".15" stop-color="#b11927" stop-opacity=".74"/><stop offset=".21" stop-color="#db293d" stop-opacity=".34"/><stop offset=".26" stop-color="#f5334b" stop-opacity=".09"/><stop offset=".28" stop-color="#ff3750" stop-opacity="0"/><stop offset="1" stop-color="#ff3750" stop-opacity="0"/></radialGradient><linearGradient id="_Linear6" x2="1" gradientTransform="scale(164.7) rotate(60 .29 1.03)" gradientUnits="userSpaceOnUse"><stop offset="0" stop-color="#ffbc04"/><stop offset=".17" stop-color="#ffab02" stop-opacity=".62"/><stop offset=".34" stop-color="#ff9b01" stop-opacity=".29"/><stop offset=".45" stop-color="#ff9200" stop-opacity=".08"/><stop offset=".51" stop-color="#ff8e00" stop-opacity="0"/><stop offset="1" stop-color="#ff8e00" stop-opacity="0"/></linearGradient><radialGradient id="_Radial7" cx="0" cy="0" r="1" gradientTransform="translate(253.38 58.8) scale(298.579)" gradientUnits="userSpaceOnUse"><stop offset="0" stop-color="#ff980e"/><stop offset=".3" stop-color="#ff7139"/><stop offset=".48" stop-color="#ff5b51"/><stop offset=".63" stop-color="#ff4f5e"/><stop offset=".74" stop-color="#ff4055"/><stop offset=".84" stop-color="#ff3750"/><stop offset="1" stop-color="#ff3750"/></radialGradient><radialGradient id="_Radial8" cx="0" cy="0" r="1" gradientTransform="translate(253.38 58.8) scale(298.579)" gradientUnits="userSpaceOnUse"><stop offset="0" stop-color="#ffde08"/><stop offset=".08" stop-color="#ffde08"/><stop offset=".15" stop-color="#ffdb08" stop-opacity=".97"/><stop offset=".25" stop-color="#ffd209" stop-opacity=".88"/><stop offset=".37" stop-color="#ffc40b" stop-opacity=".73"/><stop offset=".51" stop-color="#ffb00d" stop-opacity=".53"/><stop offset=".67" stop-color="#ff970f" stop-opacity=".28"/><stop offset=".82" stop-color="#ff7b12" stop-opacity="0"/><stop offset="1" stop-color="#ff7b12" stop-opacity="0"/></radialGradient><radialGradient id="_Radial9" cx="0" cy="0" r="1" gradientTransform="matrix(36.565 141.872 -147.723 38.0276 186.5 152.19)" gradientUnits="userSpaceOnUse"><stop offset="0" stop-color="#ff3750"/><stop offset=".36" stop-color="#ff3750"/><stop offset=".44" stop-color="#ff4d47" stop-opacity=".63"/><stop offset=".55" stop-color="#ff673d" stop-opacity=".18"/><stop offset=".59" stop-color="#ff7139" stop-opacity="0"/><stop offset="1" stop-color="#ff7139" stop-opacity="0"/></radialGradient><radialGradient id="_Radial10" cx="0" cy="0" r="1" gradientTransform="translate(160.58 162.78) scale(146.26)" gradientUnits="userSpaceOnUse"><stop offset="0" stop-color="#ff3750" stop-opacity=".8"/><stop offset=".22" stop-color="#ff3750" stop-opacity=".8"/><stop offset=".27" stop-color="#ff444b" stop-opacity=".63"/><stop offset=".41" stop-color="#ff643e" stop-opacity=".18"/><stop offset=".47" stop-color="#ff7139" stop-opacity="0"/><stop offset="1" stop-color="#ff7139" stop-opacity="0"/></radialGradient><radialGradient id="_Radial11" cx="0" cy="0" r="1" gradientTransform="translate(312.97 25.07) scale(504.653)" gradientUnits="userSpaceOnUse"><stop offset="0" stop-color="#fff44f"/><stop offset=".05" stop-color="#fff44f"/><stop offset=".46" stop-color="#ff980e"/><stop offset=".52" stop-color="#ff8424"/><stop offset=".59" stop-color="#ff7634"/><stop offset=".64" stop-color="#ff7139"/><stop offset="1" stop-color="#ff7139"/></radialGradient><linearGradient id="_Linear12" x2="1" gradientTransform="rotate(120 96.84 83.5) scale(285.8)" gradientUnits="userSpaceOnUse"><stop offset="0" stop-color="#fff44f" stop-opacity=".8"/><stop offset=".09" stop-color="#fff44f" stop-opacity=".7"/><stop offset=".75" stop-color="#fff44f" stop-opacity="0"/><stop offset="1" stop-color="#fff44f" stop-opacity="0"/></linearGradient><linearGradient id="_Linear13" x2="1" gradientTransform="rotate(-90 182.25 10.17) scale(173.91)" gradientUnits="userSpaceOnUse"><stop offset="0" stop-color="#3a8ee6"/><stop offset=".24" stop-color="#5c79f0"/><stop offset=".63" stop-color="#9059ff"/><stop offset="1" stop-color="#c139e6"/></linearGradient><linearGradient id="_Linear14" x2="1" gradientTransform="scale(199.57) rotate(45 .16 .7)" gradientUnits="userSpaceOnUse"><stop offset="0" stop-color="#9059ff" stop-opacity="0"/><stop offset=".81" stop-color="#9059ff" stop-opacity="0"/><stop offset="1" stop-color="#6e008b" stop-opacity=".5"/></linearGradient></defs></svg>