<svg xmlns="http://www.w3.org/2000/svg" xmlns:svg="http://www.w3.org/2000/svg" id="svg2" width="30.26" height="38.904" version="1.1" viewBox="0 0 30.26 38.904" xml:space="preserve"><metadata id="metadata8"/><defs id="defs6"><clipPath id="clipPath18" clipPathUnits="userSpaceOnUse"><path id="path20" d="M 0,625 V 0 h 554.766 v 625 z"/></clipPath></defs><g id="g10" transform="matrix(1.25,0,0,-1.25,-19.561,58.486375)"><g id="g12" transform="scale(0.1)"><g id="g14"><g id="g16" clip-path="url(#clipPath18)"><path id="path22" fill="#c7c3c1" fill-opacity="1" fill-rule="nonzero" stroke="none" d="m 260.234,156.656 h -51.867 l -51.879,17.282 h 51.879 l 34.578,34.589 v 43.227 h 69.168 l 34.586,34.582 v 5.875 l 17.293,-5.875 V 234.453 H 260.234 v -77.797 m 0,181.578 h -17.289 v 43.2 h 103.754 l 34.571,34.589 v 5.868 l 17.3,-5.868 V 364.152 H 260.234 v -25.918"/><path id="path24" fill="#fff" fill-opacity="1" fill-rule="nonzero" stroke="none" d="M 234.309,424.688 V 329.555 H 338.043 V 294.98 H 234.309 v -77.816 h -34.59 v 242.09 h 172.91 v -34.566 h -138.32"/><path id="path26" fill="#100f0d" fill-opacity="1" fill-rule="nonzero" stroke="none" d="m 372.629,424.688 v 34.566 h -172.91 v -242.09 h 34.59 v 77.816 h 103.734 v 34.575 H 234.309 v 95.133 z m 8.641,-8.665 -34.571,-34.589 H 242.945 v -43.2 h 103.754 v -51.898 l -34.586,-34.582 h -69.168 v -43.227 l -34.578,-34.589 h -51.879 v 259.386 l 34.578,34.567 H 381.27 v -51.868"/></g></g></g></g></svg>