<svg xmlns="http://www.w3.org/2000/svg" overflow="visible" version="1" viewBox="0 0 564.893 171.084"><path fill="#0063db" d="M22.62244 81.12151H0V53.26947h23.26186V46.1985C23.26186 11.93691 38.8408 0 69.57134 0c8.32342 0 14.7253 1.32608 19.633 2.2116L86.8576 29.61978c-3.20039-1.10524-6.40187-1.76883-12.16323-1.76883-9.8165 0-13.6585 7.07315-13.6585 18.34756v7.07206h27.3159V81.1226h-27.3159v87.30696H22.62244zM108.40995 2.65326h38.41343v165.77522h-38.41343zM179.6875 5.30541h38.41453v29.17703H179.6875zM179.6875 53.26947h38.41453v115.1579H179.6875zM333.55657 86.2028c-7.0424-4.4177-14.08478-6.40846-23.26186-6.40846-16.64575 0-29.4506 11.9358-29.4506 31.83028 0 18.34647 14.93954 30.28008 31.58529 30.28008 8.7508 0 17.5016-1.98747 23.90238-5.52515l.85365 29.61869c-9.60446 3.31794-21.12717 5.08568-31.37104 5.08568-36.70832 0-64.66364-22.10387-64.66364-60.1218 0-38.23984 27.95532-60.34261 64.66364-60.34261 11.5249 0 21.76658 1.98967 30.51739 6.40956zM392.03257 111.4027h-.42738v57.02577h-38.41233V2.65326h38.41233v99.02522h.42738l32.01046-48.40901h42.0412l-38.62657 52.8267 41.82806 62.3323H422.762z"/><path fill="#ff0084" d="M562.97037 85.09755c-4.26828-1.32388-8.53766-1.32388-13.01688-1.32388-17.92569 0-27.95752 13.48162-27.95752 36.02825v48.62655h-38.41234v-115.159h34.99771v21.21945h.42738c6.61391-14.58906 16.21837-23.8716 32.86522-23.8716 4.47812 0 9.17378.66248 13.01908 1.32497z"/></svg>