<?xml version="1.0" encoding="UTF-8" standalone="no"?>
<svg
   xmlns:dc="http://purl.org/dc/elements/1.1/"
   xmlns:cc="http://creativecommons.org/ns#"
   xmlns:rdf="http://www.w3.org/1999/02/22-rdf-syntax-ns#"
   xmlns:svg="http://www.w3.org/2000/svg"
   xmlns="http://www.w3.org/2000/svg"
   id="svg8"
   version="1.1"
   viewBox="0 0 95 94.999878"
   height="94.999878mm"
   width="95mm">
  <defs
     id="defs2" />
  <metadata
     id="metadata5">
    <rdf:RDF>
      <cc:Work
         rdf:about="">
        <dc:format>image/svg+xml</dc:format>
        <dc:type
           rdf:resource="http://purl.org/dc/dcmitype/StillImage" />
        <dc:title></dc:title>
      </cc:Work>
    </rdf:RDF>
  </metadata>
  <g
     transform="translate(3.7799989,-84.595348)"
     id="layer1">
    <path
       transform="matrix(0.26458333,0,0,0.26458333,-3.7799988,79.59523)"
       id="path4538"
       d="M 280.10061,298.99677 A 142.23073,142.23073 0 0 1 179.52756,340.65593 142.23073,142.23073 0 0 1 78.958947,299.00122"
       style="opacity:1;fill:none;fill-opacity:1;stroke:#0085ca;stroke-width:74.59365082;stroke-miterlimit:4;stroke-dasharray:none;stroke-opacity:1" />
    <path
       transform="matrix(0.26458333,0,0,0.26458333,-3.7799988,79.59523)"
       id="path4528"
       d="M 280.1071,97.860102 A 142.23073,142.23073 0 0 1 321.75829,198.4252 v 0 a 142.23073,142.23073 0 0 1 -41.65768,100.57157"
       style="opacity:1;fill:none;fill-opacity:1;stroke:#006ca4;stroke-width:74.59365082;stroke-miterlimit:4;stroke-dasharray:none;stroke-opacity:1" />
    <path
       transform="matrix(0.26458333,0,0,0.26458333,-3.7799988,79.59523)"
       id="path4533"
       d="M 78.954359,97.853759 A 142.23073,142.23073 0 0 1 179.52756,56.194462 142.23073,142.23073 0 0 1 280.1071,97.860102"
       style="opacity:1;fill:none;fill-opacity:1;stroke:#0085ca;stroke-width:74.59275818;stroke-miterlimit:4;stroke-dasharray:none;stroke-opacity:1" />
    <path
       transform="matrix(0.26458333,0,0,0.26458333,-3.7799988,79.59523)"
       id="path815"
       d="M 78.958947,299.00122 A 142.23073,142.23073 0 0 1 37.296825,198.4252 142.23073,142.23073 0 0 1 78.954359,97.853759"
       style="opacity:1;fill:none;fill-opacity:1;stroke:#00a0dc;stroke-width:74.59365082;stroke-miterlimit:4;stroke-dasharray:none;stroke-opacity:1" />
  </g>
</svg>
