<svg xmlns="http://www.w3.org/2000/svg" xmlns:svg="http://www.w3.org/2000/svg" id="svg8" width="95mm" height="359.055" version="1.1" viewBox="0 0 95 95"><metadata id="metadata5"/><g id="layer1" transform="translate(3.7799989,-84.595348)"><path id="path4538" fill="none" fill-opacity="1" stroke="#0085ca" stroke-dasharray="none" stroke-miterlimit="4" stroke-opacity="1" stroke-width="74.594" d="M 280.10061,298.99677 A 142.23073,142.23073 0 0 1 179.52756,340.65593 142.23073,142.23073 0 0 1 78.958947,299.00122" opacity="1" transform="matrix(0.26458333,0,0,0.26458333,-3.7799988,79.59523)"/><path id="path4528" fill="none" fill-opacity="1" stroke="#006ca4" stroke-dasharray="none" stroke-miterlimit="4" stroke-opacity="1" stroke-width="74.594" d="M 280.1071,97.860102 A 142.23073,142.23073 0 0 1 321.75829,198.4252 v 0 a 142.23073,142.23073 0 0 1 -41.65768,100.57157" opacity="1" transform="matrix(0.26458333,0,0,0.26458333,-3.7799988,79.59523)"/><path id="path4533" fill="none" fill-opacity="1" stroke="#0085ca" stroke-dasharray="none" stroke-miterlimit="4" stroke-opacity="1" stroke-width="74.593" d="M 78.954359,97.853759 A 142.23073,142.23073 0 0 1 179.52756,56.194462 142.23073,142.23073 0 0 1 280.1071,97.860102" opacity="1" transform="matrix(0.26458333,0,0,0.26458333,-3.7799988,79.59523)"/><path id="path815" fill="none" fill-opacity="1" stroke="#00a0dc" stroke-dasharray="none" stroke-miterlimit="4" stroke-opacity="1" stroke-width="74.594" d="M 78.958947,299.00122 A 142.23073,142.23073 0 0 1 37.296825,198.4252 142.23073,142.23073 0 0 1 78.954359,97.853759" opacity="1" transform="matrix(0.26458333,0,0,0.26458333,-3.7799988,79.59523)"/></g></svg>