<?xml version="1.0" encoding="UTF-8" standalone="no"?>
<svg
   xmlns:dc="http://purl.org/dc/elements/1.1/"
   xmlns:cc="http://creativecommons.org/ns#"
   xmlns:rdf="http://www.w3.org/1999/02/22-rdf-syntax-ns#"
   xmlns:svg="http://www.w3.org/2000/svg"
   xmlns="http://www.w3.org/2000/svg"
   style="display:block"
   viewBox="0 0 394.2016 394.03739"
   height="776.25366"
   width="788.4032"
   version="1.1"
   id="svg">
  <metadata
     id="metadata10">
    <rdf:RDF>
      <cc:Work
         rdf:about="">
        <dc:format>image/svg+xml</dc:format>
        <dc:type
           rdf:resource="http://purl.org/dc/dcmitype/StillImage" />
        <dc:title></dc:title>
      </cc:Work>
    </rdf:RDF>
  </metadata>
  <defs
     id="defs8" />
  <g
     transform="translate(-3.6024257,0.11883099)"
     id="svgg">
    <path
       style="fill:#4db0ab;fill-rule:evenodd;stroke:none"
       d="m 313.8,85.065 c -15.84,15.942 -28.857,29.146 -28.927,29.342 -0.07,0.196 1.205,2.03 2.834,4.075 3.147,3.951 7.961,11.142 10.466,15.635 1.443,2.588 1.556,2.691 2.371,2.159 0.471,-0.307 2.926,-1.851 5.456,-3.43 2.53,-1.58 7.39,-4.649 10.8,-6.822 3.41,-2.172 7.28,-4.625 8.6,-5.451 5.374,-3.363 17.864,-11.261 21.8,-13.784 4.672,-2.997 9.833,-6.238 18.2,-11.43 3.08,-1.912 5.759,-3.618 5.954,-3.791 0.662,-0.591 -8.172,-12.95 -15.13,-21.168 -3.595,-4.246 -13.138,-14.433 -13.453,-14.361 -0.094,0.022 -13.131,13.083 -28.971,29.026 m 68.8,51.369 c -7.564,2.639 -14.533,5.036 -36,12.381 -5.06,1.731 -15.458,5.289 -23.107,7.906 -7.649,2.618 -13.976,4.831 -14.06,4.919 -0.085,0.088 0.447,2.776 1.181,5.974 1.341,5.839 2.581,13.956 2.592,16.969 0.011,2.973 -0.389,2.906 10.268,1.722 5.239,-0.582 23.656,-2.588 40.926,-4.459 17.27,-1.871 32.345,-3.515 33.5,-3.653 l 2.1,-0.251 v -1.683 c 0,-8.99 -7.066,-42.721 -8.932,-42.638 -0.257,0.011 -4.068,1.277 -8.468,2.813 m -69.564,76.464 c -0.11,0.716 -0.404,2.832 -0.652,4.702 -0.473,3.571 -2.268,11.958 -3.542,16.551 -0.532,1.92 -0.619,2.755 -0.297,2.868 9.848,3.436 16.198,5.636 23.655,8.196 5.06,1.737 14.42,4.968 20.8,7.18 6.38,2.211 15.74,5.442 20.8,7.179 5.06,1.737 10.715,3.72 12.566,4.406 1.851,0.687 3.504,1.107 3.672,0.934 1.947,-1.994 8.934,-33.159 9.259,-41.3 l 0.103,-2.566 -19.2,-2.089 c -10.56,-1.15 -29.28,-3.18 -41.6,-4.512 -12.32,-1.332 -23.067,-2.519 -23.882,-2.636 -1.42,-0.206 -1.489,-0.161 -1.682,1.087 M 294.217,266.7 c -3.373,5.19 -8.087,11.489 -10.785,14.411 l -1.21,1.311 29.048,29.047 29.048,29.048 5.472,-5.559 c 7.502,-7.619 14.354,-15.72 20.558,-24.305 3.384,-4.683 3.299,-4.177 0.951,-5.624 -1.044,-0.644 -3.457,-2.174 -5.362,-3.4 -6.203,-3.993 -11.715,-7.507 -16.975,-10.823 -2.839,-1.789 -8.132,-5.137 -11.762,-7.438 -16.027,-10.162 -19.114,-12.114 -22.94,-14.514 -2.233,-1.4 -5.821,-3.695 -7.974,-5.1 -2.152,-1.405 -4.044,-2.554 -4.204,-2.554 -0.16,0 -1.899,2.475 -3.865,5.5"
       id="path0" />
    <path
       style="fill:#452e59;fill-rule:evenodd;stroke:none"
       d="M 184.8,0.272 C 165.745,1.668 139.186,6.974 129.045,11.41 128.36,11.709 124.74,13.154 121,14.62 109.185,19.251 92.351,28.383 83.2,35.127 81.55,36.343 78.85,38.33 77.2,39.542 42.624,64.952 15.973,104.461 6.066,145 c -2.375,9.716 -2.955,12.539 -3.901,19 -7.166,48.903 2.12,99.036 25.154,135.8 4.231,6.752 5.73,8.963 9.493,14 22.239,29.767 53.575,53.961 85.788,66.238 2.86,1.09 5.76,2.232 6.445,2.539 20.967,9.391 68.025,13.957 100.955,9.796 12.823,-1.62 32.059,-6.074 40.8,-9.448 15.017,-5.796 23.001,-9.432 31.572,-14.379 4.181,-2.413 4.115,-2.093 1.31,-6.376 -2.191,-3.346 -3.364,-5.201 -10.163,-16.08 -1.475,-2.359 -3.608,-5.73 -4.74,-7.49 -1.132,-1.76 -4.494,-7.07 -7.47,-11.8 -2.976,-4.73 -6.346,-10.04 -7.49,-11.8 -1.144,-1.76 -3.477,-5.467 -5.185,-8.238 -1.707,-2.771 -3.508,-5.543 -4.001,-6.161 l -0.896,-1.124 -2.568,1.731 c -1.413,0.953 -2.659,1.847 -2.769,1.988 -1.273,1.629 -15.758,8.509 -22.795,10.827 -41.137,13.553 -84.966,2.38 -114.251,-29.125 -5.875,-6.319 -16.554,-20.471 -16.554,-21.936 0,-0.164 -0.265,-0.592 -0.59,-0.951 -1.893,-2.092 -8.618,-17.374 -10.742,-24.411 -4.155,-13.767 -5.646,-24.446 -5.643,-40.4 0.002,-13.116 0.053,-13.719 2.198,-26 7.409,-42.416 39.437,-80.062 78.305,-92.038 12.246,-3.773 31.358,-5.754 41.956,-4.349 9.785,1.298 12.833,1.816 17.716,3.011 12.316,3.014 23.749,8.303 34,15.729 4.516,3.271 3.617,3.625 7.803,-3.068 3.401,-5.438 9.028,-14.334 12.71,-20.093 1.902,-2.974 2.863,-4.491 9.88,-15.592 3.676,-5.815 6.331,-10.004 9.887,-15.6 7.326,-11.528 6.938,-9.703 2.613,-12.287 C 287.292,16.398 270.635,10.011 245.8,4.255 231.457,0.931 202.026,-0.991 184.8,0.272"
       id="path1" />
  </g>
</svg>
