<svg xmlns="http://www.w3.org/2000/svg" viewBox="0 0 1098.34 145.86"><g fill="#231f20"><path d="M800.27.5c3.17-.45 7.39-1.56 9.95.93.35 22.97.02 45.97.15 68.95.72 15.77 5.17 32.43 17 43.57 12.32 11.89 30.5 15.22 47.03 13.73 7.55-.56 14.82-2.77 21.77-5.68l1.56 1.3c-8.1 12.64-22.67 19.8-37.22 21.79-15.6 1.93-32.4.36-45.94-8.2-9.85-6.02-16.93-15.84-20.8-26.61-4.12-11.13-4.97-23.12-4.96-34.9.04-19.33-.06-38.67.04-58.01-.17-7.28 4.09-14.9 11.42-16.86z"/><path d="M887.53.68c3.46-.95 7.43-1.27 10.69.5-.14 22.39 0 44.78-.07 67.17-.4 8.04-1.51 16.42-5.88 23.36a25.13 25.13 0 0 1-16.15 11.23c-1.13.4-2.22-.16-3.24-.5a55.36 55.36 0 0 0 3.92-21.04c.03-21.67 0-43.35 0-65.02-.13-6.76 4.07-13.71 10.73-15.7zM230 5.4c3.78-3.38 9-4.75 14-4.56 1.53 1.06 1.09 2.98 1.19 4.57-.06 35.34 0 70.68-.03 106.02-.03 4.16 1.2 8.52 4.16 11.57 3.35 3.85 8.75 5.04 13.66 5.03 22.74-.04 45.49 0 68.24-.03 1.89 4.52-.17 9.8-3.3 13.25a16.18 16.18 0 0 1-11.92 4.52c-24.35-.04-48.7-.02-73.05-.02-5.31 0-10.75-2.01-14.42-5.92-3.23-3.67-4.74-8.64-4.73-13.48.02-35.32.03-70.64 0-105.96-.02-5.52 1.89-11.34 6.2-15zM444.27 1.59c3.13-.5 7.55-1.74 9.98.73.26 37.04.03 74.1.1 111.15.02 4.07 1.37 8.35 4.52 11.09 1.78 1.78 4.28 2.47 6.43 3.68 1.08 6.8-3.12 14.24-9.71 16.52-6.1 2.15-13.7 1.16-18.15-3.84-3.68-3.85-4.5-9.42-4.47-14.53.06-36.03-.03-72.07.04-108.1-.1-7.18 3.92-14.83 11.26-16.7zM534.18 2.43c3.7-1.95 8-1.45 12-1.2.59 4.02.34 8.08.37 12.12v60c-.04 4 .29 8.05-.51 12-3.26-1.84-4.5-5.56-6.46-8.53-4.61-7.94-9.68-15.63-14.03-23.7-.31-11.93-.04-23.88-.12-35.82-.1-6.03 3.09-12.35 8.75-14.87zM668.76 1.97c3.63-1.27 7.95-1.65 11.46.2-.14 37.07 0 74.13-.07 111.19-.13 3.96.95 8.18 3.89 11 1.94 2.09 4.86 2.65 7.23 4.08.44 6.8-3.5 14.05-10.11 16.37-5.77 1.97-12.9 1.2-17.4-3.2a17.33 17.33 0 0 1-4.95-12.27v-112c-.08-6.46 3.69-13.13 9.95-15.37zM1017.58 4.8c1.26-1 2.73-.63 4 .17a38.83 38.83 0 0 0-4.72 36.65c3.6 9.53 11.9 16.59 21.03 20.68 12.32 5.8 26.1 6.57 39.18 9.66 5.84 1.58 12.48 4.1 15.05 10.08 2.34 5.1.69 11.35-3.36 15.09-4.24 4.2-10.3 5.53-15.95 6.64-1.25-3.61-1.9-7.87-5.44-10.05-7.17-4.84-16.14-5.11-24.34-6.9-14.23-2.23-29-6.61-39.42-17.08-11.85-12.01-14-31.83-5.94-46.48 4.3-8.2 11.69-14.41 19.9-18.46zM82.03 10a43.49 43.49 0 0 1 40.54 13.24c-.13 5.7.17 11.43-.12 17.14l-1.22 1.07c-5.61.26-11.25.1-16.87.02-11.8-12.1-30.61-16.72-46.63-11.31-1.45.8-2.85.25-4.16-.51C59.86 19.58 70.34 12.19 82.03 10z"/><path d="M1058.24 9.55c11.26-1.34 23.02 1.6 32.08 8.5 2.36 2.09 5.73 2.87 7.82 5.19.57 9.26-8.26 18.38-17.71 17.03-6.46-.88-10.83-6.14-16.5-8.8a35.53 35.53 0 0 0-17.96-4.08c-1.77-.13-3.96.5-5.07-1.3-.64-3.78.55-7.84 3.3-10.55 3.73-3.7 8.95-5.33 14.04-6zM273.24 13.48c17.9-.25 35.84 0 53.76-.12 1.64.15 3.83-.46 4.82 1.32 1.52 8.23-5.34 16.29-13.6 16.65-13.73.54-27.51.04-41.26.25-1.75-.15-4.05.57-5.04-1.38a182.8 182.8 0 0 1 .02-15.53l1.3-1.2zM20.45 23.85l1.8 1.57a76.56 76.56 0 0 0-3.08 45.92 75.74 75.74 0 0 0 27.18 41.76c16.1 12.6 37.55 18.19 57.74 14.89 5.54-.68 10.8-2.6 16.14-4.1l2.03 1.16c-13.5 13.83-33.06 21.4-52.33 20.7-16.64-.23-33.06-6.77-45.51-17.8A71.25 71.25 0 0 1 .52 82.28C-2.14 61.1 5.49 39.02 20.46 23.85zM480.8 33.45c.5-.37 1.47-1.12 1.96-1.5 17.17 27.83 33.7 56.05 50.62 84.03 3.53 6.42 9.74 12.29 17.55 12 1.89.38 4.59-.94 5.9.99-.92 5.65-4.36 10.96-9.4 13.77-6 3.39-13.33 3.76-19.94 2.24-6.54-1.53-11.5-6.65-14.82-12.25-10.28-17.08-20.5-34.2-30.8-51.26a6.34 6.34 0 0 1-1.07-4.1c0-14.64.02-29.28 0-43.92z"/><path d="M75.45 63.86c2.92-3.55 7.34-5.33 11.78-6.02 1.3 3.15 1.8 6.67 3.78 9.52 2.75 3.8 7.05 6.76 11.84 6.97 5.76.22 11.53-.11 17.29.09 1.09-.11 2.53.76 2.37 2 .05 4.09.25 8.22-.13 12.3-5.37 5.2-12.66 7.89-19.77 9.82-2.04-2.16-.06-5.87-2.8-7.5-7.3-.85-15.84 1.95-21.94-3.43-7.32-5.4-8.42-16.98-2.42-23.75zM271.85 71.04c18.84-.42 37.72-.3 56.57-.06.32 3.99-.03 8.33-2.63 11.57-3.13 4.32-8.64 6.23-13.83 6.03-13-.13-25.98.15-38.96-.13l-1.08-1.07c-.28-5.44-.04-10.9-.07-16.34zM990.44 120.6c-3.88-10.8 6.93-23.86 18.36-21.11 2.39.3 2.2 2.96 2.79 4.72a12.6 12.6 0 0 0 3.96 6.44c22.3 18.22 54.89 22.55 81.24 11 .39.4 1.16 1.23 1.55 1.65-6.77 10.22-17.87 16.84-29.6 19.84-21.54 5.5-45.43 2.7-64.5-9.03-5.4-3.46-11.75-6.98-13.8-13.51z"/></g></svg>