<svg xmlns="http://www.w3.org/2000/svg" xmlns:xlink="http://www.w3.org/1999/xlink" id="Layer_1" x="0" y="0" enable-background="new 0 0 215.9 193.7" version="1.1" viewBox="0 0 215.9 193.7" xml:space="preserve"><g><path fill="#231F20" d="M31.1,108.2c0.3,0.2,0.7,0.3,1.1,0.3c1.1,0,2.1-0.9,2.1-2.1c0-0.3-0.1-0.5-0.1-0.7l0,0 c-2.9-7.9-4.5-16.4-4.5-25.3c0-19.8,8-37.9,20.8-51.1c0,0,0.1-0.1,0.1-0.1c0,0,0.1-0.1,0.1-0.1l0,0c0.3-0.4,0.4-0.8,0.4-1.3 c0,0,0,0,0,0h0V2.1C51,0.9,50.1,0,49,0L23.2,0l0,0c-0.6,0-1.1,0.3-1.5,0.7c-0.5,0.5-1,1-1.6,1.5C7.7,14.6,0,31.8,0,50.8 c0,19,7.7,36.1,20.1,48.6C23.4,102.6,27.1,105.6,31.1,108.2L31.1,108.2z"/><path fill="#231F20" d="M79.2,54.5L79.2,54.5c-1.1,0.1-1.9,1-1.9,2.1c0,0.1,0,0.1,0,0.2l0,0c0,0.1,0,0.1,0,0.2c0,0,0,0,0,0 c0.5,5.7,2.8,10.8,6.4,14.9c0,0,0.1,0.1,0.1,0.1c0.2,0.2,0.4,0.5,0.7,0.7c0.1,0.1,0.1,0.1,0.2,0.2c0.2,0.2,0.4,0.4,0.6,0.6 c0.1,0.1,0.2,0.2,0.2,0.2c0.2,0.2,0.4,0.4,0.6,0.6c0.1,0.1,0.2,0.2,0.3,0.3c0.2,0.2,0.4,0.3,0.6,0.5c0.1,0.1,0.2,0.2,0.3,0.3 c0.2,0.2,0.4,0.3,0.6,0.5c0.1,0.1,0.3,0.2,0.4,0.3c0.2,0.1,0.4,0.3,0.6,0.4c0.1,0.1,0.3,0.2,0.4,0.3c0.2,0.1,0.4,0.2,0.6,0.4 c0.2,0.1,0.3,0.2,0.5,0.3c0.2,0.1,0.4,0.2,0.6,0.3c0.2,0.1,0.3,0.2,0.5,0.3c0.2,0.1,0.4,0.2,0.6,0.3c0.2,0.1,0.4,0.2,0.5,0.2 c0.2,0.1,0.4,0.2,0.6,0.3c0.2,0.1,0.4,0.2,0.6,0.2c0.2,0.1,0.4,0.1,0.6,0.2c0.2,0.1,0.4,0.1,0.6,0.2c0.2,0.1,0.4,0.1,0.6,0.2 c0.2,0.1,0.4,0.1,0.7,0.2c0.2,0.1,0.4,0.1,0.6,0.2c0.2,0.1,0.5,0.1,0.7,0.2c0.2,0,0.4,0.1,0.5,0.1c0.2,0,0.5,0.1,0.7,0.1 c0.2,0,0.3,0.1,0.5,0.1c0.3,0,0.5,0.1,0.8,0.1c0.2,0,0.3,0,0.5,0.1c0.3,0,0.6,0.1,0.9,0.1c0.1,0,0.2,0,0.4,0c0.4,0,0.9,0,1.3,0 c0,0,0,0,0,0c0,0,0,0,0,0c0.2,0,0.3,0,0.5,0c14.2-0.3,25.6-11.9,25.6-26.1V41.8l0-6.3c0-1.1,0.9-2.1,2.1-2.1l7.2,0 c1.1,0,2.1-0.9,2.1-2.1c0-0.2,0-0.4-0.1-0.5c-2.4-11.2-7.4-21.5-14.4-30.1l0,0c-0.4-0.5-0.9-0.8-1.6-0.8c0,0-0.1,0-0.1,0l0,0 l-8.9,0l-1.7,0l-8.5,0c-1.1,0-2.1,0.9-2.1,2.1l0,17l0,5.6v3.7l0,0l0,0C103.3,42.2,92.7,53.5,79.2,54.5z"/><path fill="#231F20" d="M184.6,2.1c-0.4-0.5-0.9-0.7-1.6-0.7c-1.1,0-2.1,0.9-2.1,2.1c0,0.2,0,0.4,0.1,0.6l0,0c0,0,0,0.1,0.1,0.1 c0,0,0,0,0,0c5.2,13.4,8.1,28.2,8.1,43.4c0,66-53.5,119.5-119.5,119.5c-15.3,0-30-2.9-43.4-8.2l0,0c-0.2-0.1-0.5-0.1-0.8-0.1 c-1.1,0-2.1,0.9-2.1,2.1c0,0.7,0.3,1.2,0.8,1.6l0,0c20.4,19.4,47.8,31.3,78.2,31.3c62.6,0,113.4-50.8,113.4-113.4 C215.9,49.9,204.1,22.4,184.6,2.1L184.6,2.1z"/></g></svg>