<svg xmlns="http://www.w3.org/2000/svg" viewBox="0 0 215.9 193.7"><g fill="#231F20"><path d="M31.1 108.2a2.11 2.11 0 0 0 3.2-1.8c0-.3-.1-.5-.1-.7a73.2 73.2 0 0 1 16.3-76.4l.1-.1.1-.1c.3-.4.4-.8.4-1.3V2.1C51 .9 50.1 0 49 0H23.2c-.6 0-1.1.3-1.5.7-.5.5-1 1-1.6 1.5A68.54 68.54 0 0 0 0 50.8c0 19 7.7 36.1 20.1 48.6 3.3 3.2 7 6.2 11 8.8zM79.2 54.5c-1.1.1-1.9 1-1.9 2.1v.4c.5 5.7 2.8 10.8 6.4 14.9l.1.1c.2.2.4.5.7.7l.2.2.6.6.2.2.6.6.3.3c.2.2.4.3.6.5l.3.3c.2.2.4.3.6.5.1.1.3.2.4.3.2.1.4.3.6.4.1.1.3.2.4.3.2.1.4.2.6.4.2.1.3.2.5.3l.6.3c.2.1.3.2.5.3l.6.3c.2.1.4.2.5.2l.6.3c.2.1.4.2.6.2.2.1.4.1.6.2.2.1.4.1.6.2.2.1.4.1.6.2.2.1.4.1.7.2.2.1.4.1.6.2.2.1.5.1.7.2.2 0 .4.1.5.1.2 0 .5.1.7.1.2 0 .3.1.5.1.3 0 .5.1.8.1.2 0 .3 0 .5.1.3 0 .6.1.9.1h2.2c14.2-.3 25.6-11.9 25.6-26.1V35.5c0-1.1.9-2.1 2.1-2.1h7.2c1.1 0 2.1-.9 2.1-2.1 0-.2 0-.4-.1-.5A71.38 71.38 0 0 0 126.2.7c-.4-.5-.9-.8-1.6-.8h-19.2c-1.1 0-2.1.9-2.1 2.1v26.3c0 13.9-10.6 25.2-24.1 26.2z"/><path d="M184.6 2.1c-.4-.5-.9-.7-1.6-.7-1.1 0-2.1.9-2.1 2.1 0 .2 0 .4.1.6 0 0 0 .1.1.1 5.2 13.4 8.1 28.2 8.1 43.4 0 66-53.5 119.5-119.5 119.5-15.3 0-30-2.9-43.4-8.2-.2-.1-.5-.1-.8-.1-1.1 0-2.1.9-2.1 2.1 0 .7.3 1.2.8 1.6 20.4 19.4 47.8 31.3 78.2 31.3 62.6 0 113.4-50.8 113.4-113.4.1-30.5-11.7-58-31.2-78.3z"/></g></svg>