<svg xmlns="http://www.w3.org/2000/svg" xmlns:svg="http://www.w3.org/2000/svg" id="svg20" width="30.007" height="38" version="1.1" viewBox="0 0 30.007 38"><metadata id="metadata26"/><path id="path14" fill="#cc2f2f" d="M 15,38 11.8,34.8 C 0.8,23.8 0,17 0,14.9 0.1,6.7 6.8,0 15,0 23.2,0 29.9,6.7 30,14.9 30.1,17 29.2,23.8 18.3,34.8 Z"/><g id="g18" transform="translate(-35)"><path id="path16" fill="#fff" d="M 60.4,15 C 60.4,9.2 55.8,4.6 50,4.6 44.2,4.6 39.6,9.3 39.6,15 39.6,15 39.3,20.8 50,31.5 60.8,20.8 60.4,15 60.4,15 Z M 50,15 c -1.5,0 -2.7,-1.2 -2.7,-2.7 0,-1.5 1.2,-2.7 2.7,-2.7 1.5,0 2.7,1.2 2.7,2.7 0,1.4 -1.2,2.7 -2.7,2.7 z"/></g></svg>