<?xml version="1.0" encoding="UTF-8" standalone="no"?>
<svg
   xmlns:dc="http://purl.org/dc/elements/1.1/"
   xmlns:cc="http://creativecommons.org/ns#"
   xmlns:rdf="http://www.w3.org/1999/02/22-rdf-syntax-ns#"
   xmlns:svg="http://www.w3.org/2000/svg"
   xmlns="http://www.w3.org/2000/svg"
   height="38"
   width="30.006641"
   id="svg20"
   version="1.1"
   viewBox="0 0 30.00664 38">
  <metadata
     id="metadata26">
    <rdf:RDF>
      <cc:Work
         rdf:about="">
        <dc:format>image/svg+xml</dc:format>
        <dc:type
           rdf:resource="http://purl.org/dc/dcmitype/StillImage" />
        <dc:title></dc:title>
      </cc:Work>
    </rdf:RDF>
  </metadata>
  <defs
     id="defs24" />
  <path
     style="fill:#cc2f2f"
     id="path14"
     d="M 15,38 11.8,34.8 C 0.8,23.8 0,17 0,14.9 0.1,6.7 6.8,0 15,0 23.2,0 29.9,6.7 30,14.9 30.1,17 29.2,23.8 18.3,34.8 Z" />
  <g
     transform="translate(-35)"
     id="g18">
    <path
       style="fill:#ffffff"
       id="path16"
       d="M 60.4,15 C 60.4,9.2 55.8,4.6 50,4.6 44.2,4.6 39.6,9.3 39.6,15 39.6,15 39.3,20.8 50,31.5 60.8,20.8 60.4,15 60.4,15 Z M 50,15 c -1.5,0 -2.7,-1.2 -2.7,-2.7 0,-1.5 1.2,-2.7 2.7,-2.7 1.5,0 2.7,1.2 2.7,2.7 0,1.4 -1.2,2.7 -2.7,2.7 z" />
  </g>
</svg>
