<svg xmlns="http://www.w3.org/2000/svg" viewBox="0 0 220 60"><path d="M66 0c-4.98 0-9.25 1.77-12.8 5.3a17.42 17.42 0 00-5.3 12.8v24.14c0 1.67.59 3.09 1.78 4.28a5.92 5.92 0 004.35 1.78c1.66 0 3.09-.6 4.28-1.78a5.83 5.83 0 001.78-4.28v-5.9h8.27c1.67 0 3.1-.6 4.28-1.79a5.83 5.83 0 001.78-4.27c0-1.67-.6-3.1-1.78-4.28a5.84 5.84 0 00-4.28-1.78h-8.34V18.1c0-1.61.6-3.01 1.78-4.2a5.84 5.84 0 014.28-1.78h2.28c1.67 0 3.1-.6 4.28-1.78a5.83 5.83 0 001.78-4.28c0-1.66-.6-3.08-1.78-4.27A5.84 5.84 0 0068.36 0zm134.42 0c-1.67 0-3.1.6-4.32 1.78a5.77 5.77 0 00-1.81 4.27v24.16c0 4.98 1.78 9.24 5.34 12.78a17.58 17.58 0 0012.84 5.3h1.5c1.66 0 3.09-.59 4.28-1.77a5.82 5.82 0 001.78-4.28c0-1.66-.6-3.08-1.78-4.27a5.84 5.84 0 00-4.28-1.78h-1.57c-1.62 0-3.02-.6-4.2-1.78a5.74 5.74 0 01-1.8-4.2v-5.99h7.57c1.66 0 3.09-.6 4.28-1.78a5.82 5.82 0 001.78-4.27c0-1.67-.6-3.1-1.78-4.28a5.84 5.84 0 00-4.28-1.78h-7.5V6.05c0-1.66-.58-3.08-1.77-4.27A5.84 5.84 0 00200.42 0zM1.09 6.82C.37 6.83-.1 7.4.02 8.18c0 0 .4 3.37 1.37 6.6a27.22 27.22 0 002.18 5.31s1.2-3.67 3.54-6.27c2.34-2.6 5.07-4.2 5.07-4.2s-2.5-.92-5-1.54-5.76-1.23-5.76-1.23a1.6 1.6 0 00-.33-.03zm44.95 0l-.32.03s-3.27.6-5.77 1.23c-2.5.62-5 1.55-5 1.55s2.73 1.59 5.07 4.19c2.34 2.6 3.54 6.27 3.54 6.27s1.22-2.1 2.18-5.32c.97-3.22 1.38-6.59 1.38-6.59.11-.8-.36-1.35-1.08-1.36zm-22.66 3.79A17.8 17.8 0 0010.33 16a17.76 17.76 0 00-5.42 13.04c0 3.05.8 6.05 2.4 9 1.9 3.54 4.22 5.31 6.98 5.31 1.7 0 3.15-.6 4.36-1.82a5.94 5.94 0 001.82-4.35c0-1.21-.53-2.57-1.6-4.07-1.06-1.5-1.6-2.86-1.6-4.07 0-1.64.6-3.07 1.82-4.28a5.96 5.96 0 014.36-1.82c1.65 0 3.07.6 4.26 1.78a5.88 5.88 0 011.78 4.32v12.42a5.8 5.8 0 01-1.78 4.25 5.9 5.9 0 01-4.33 1.78h-5.96c-1.7 0-3.15.6-4.36 1.82a5.94 5.94 0 00-1.82 4.35c0 1.7.62 3.15 1.85 4.36a6.07 6.07 0 004.4 1.82h5.96c5.1 0 9.44-1.8 13.05-5.38a17.64 17.64 0 005.42-13V29.05a17.7 17.7 0 00-5.45-13.03c-3.64-3.61-8-5.41-13.09-5.41zm59.74 1.5c-1.67 0-3.1.6-4.28 1.78a5.83 5.83 0 00-1.78 4.28v13.1c0 3.8 1.11 7.27 3.35 10.4a17.88 17.88 0 008.77 6.63v6.06c0 1.66.6 3.08 1.78 4.27a5.83 5.83 0 004.28 1.78c1.66 0 3.1-.6 4.28-1.78a5.82 5.82 0 001.78-4.27V48.3a17.5 17.5 0 008.7-6.63 17.78 17.78 0 003.28-10.4v-13.1c0-1.67-.6-3.1-1.82-4.28a5.95 5.95 0 00-4.31-1.78c-1.66 0-3.1.6-4.28 1.78a5.83 5.83 0 00-1.78 4.28v13.1c0 1.67-.58 3.08-1.75 4.24a5.7 5.7 0 01-4.17 1.75c-1.62 0-3.02-.6-4.2-1.78a5.75 5.75 0 01-1.79-4.2V18.16c0-1.67-.6-3.1-1.78-4.28a5.84 5.84 0 00-4.28-1.78zm50.98.07c-4.99 0-9.26 1.76-12.8 5.27A17.3 17.3 0 00116 30.21c0 4.98 1.78 9.24 5.35 12.78a17.58 17.58 0 0012.84 5.3h11.69c1.66 0 3.09-.59 4.28-1.77a5.82 5.82 0 001.78-4.28c0-1.66-.6-3.08-1.82-4.27a5.96 5.96 0 00-4.31-1.78h-11.7c-1.61 0-3.02-.6-4.2-1.78a5.74 5.74 0 01-1.79-4.2c0-1.62.6-3 1.79-4.17a5.9 5.9 0 014.28-1.75h11.69c1.66 0 3.09-.6 4.28-1.78a5.83 5.83 0 001.78-4.27c0-1.67-.6-3.09-1.82-4.28a5.96 5.96 0 00-4.31-1.78zm38.72 0c-4.95 0-9.19 1.76-12.73 5.27a17.3 17.3 0 00-5.31 12.76c0 4.98 1.78 9.24 5.35 12.78a17.5 17.5 0 0012.76 5.3h12.05c1.67 0 3.1-.59 4.28-1.77a5.82 5.82 0 001.78-4.28V30.21c0-5-1.78-9.24-5.34-12.76a17.64 17.64 0 00-12.84-5.27zm.07 12.11c1.66 0 3.08.58 4.24 1.75a5.69 5.69 0 011.75 4.17l-.07 5.98h-6c-1.6 0-3-.58-4.16-1.75a5.77 5.77 0 01-1.75-4.23c0-1.62.58-3 1.75-4.17a5.78 5.78 0 014.24-1.75z" fill="#3073ff" fill-rule="evenodd"/></svg>