<?xml version="1.0" encoding="utf-8"?>
<!-- Generator: Adobe Illustrator 19.1.0, SVG Export Plug-In . SVG Version: 6.00 Build 0)  -->
<svg version="1.1" id="Layer_1" xmlns:sketch="http://www.bohemiancoding.com/sketch/ns"
	 xmlns="http://www.w3.org/2000/svg" xmlns:xlink="http://www.w3.org/1999/xlink" x="0px" y="0px" viewBox="-166 167 27 27"
	 style="enable-background:new -166 167 27 27;" xml:space="preserve">
<style type="text/css">
	.st0{enable-background:new    ;}
	.st1{fill:#3073FF;}
</style>
<title>27x27@2x</title>
<desc>Created with Sketch.</desc>
<g id="Page-1" sketch:type="MSPage">
	<g id="_x32_7x27" sketch:type="MSArtboardGroup">
		
			<g id="g-_x2B_-Triangle-19-Copy-_x2B_-Triangle-19-Copy-2-Copy-Copy-Copy-Copy-Copy-Copy-Copy" transform="translate(2.000000, -7.000000)" sketch:type="MSLayerGroup">
			<g class="st0">
				<path class="st1" d="M-146.2,191.2c0,2.3-0.8,4.3-2.5,5.9c-1.6,1.6-3.6,2.5-5.9,2.5h-2.7c-0.8,0-1.4-0.3-2-0.8
					c-0.6-0.6-0.8-1.2-0.8-2c0-0.8,0.3-1.4,0.8-2c0.6-0.6,1.2-0.8,2-0.8h2.7c0.8,0,1.4-0.3,2-0.8c0.5-0.5,0.8-1.2,0.8-1.9v-5.7
					c0-0.8-0.3-1.4-0.8-2c-0.5-0.5-1.2-0.8-1.9-0.8c-0.8,0-1.4,0.3-2,0.8c-0.6,0.6-0.8,1.2-0.8,2c0,0.6,0.2,1.2,0.7,1.9
					s0.7,1.3,0.7,1.9c0,0.8-0.3,1.4-0.8,2c-0.6,0.6-1.2,0.8-2,0.8c-1.3,0-2.3-0.8-3.2-2.4c-0.7-1.3-1.1-2.7-1.1-4.1
					c0-2.3,0.8-4.3,2.5-5.9c1.6-1.6,3.6-2.5,5.9-2.5s4.3,0.8,6,2.5c1.7,1.6,2.5,3.6,2.5,5.9V191.2z"/>
			</g>
			<path id="Triangle-19-Copy-4" sketch:type="MSShapeGroup" class="st1" d="M-165.3,179.7c-0.4-1.5-0.6-3.4-0.6-3.4
				c0-0.3,0.2-0.4,0.4-0.4c0,0,1.7,0.3,2.9,0.6c1.1,0.3,2.3,0.7,2.3,0.7s-1.3,0.8-2.3,2s-1.6,3-1.6,3S-164.9,181.2-165.3,179.7z"/>
			<path id="Triangle-19-Copy-5" sketch:type="MSShapeGroup" class="st1" d="M-143.8,179.7c0.4-1.5,0.6-3.4,0.6-3.4
				c0-0.3-0.2-0.4-0.4-0.4c0,0-1.7,0.3-2.9,0.6c-1.1,0.3-2.3,0.7-2.3,0.7s1.3,0.8,2.3,2c1.1,1.2,1.6,3,1.6,3
				S-144.2,181.2-143.8,179.7z"/>
		</g>
	</g>
</g>
</svg>
