<svg xmlns="http://www.w3.org/2000/svg" xmlns:svg="http://www.w3.org/2000/svg" id="svg2985" width="927.7" height="279.086" version="1.1" xml:space="preserve"><metadata id="metadata2991"/><defs id="defs2989"><clipPath id="clipPath3001" clipPathUnits="userSpaceOnUse"><path id="path3003" d="M 0,792 H 612 V 0 H 0 Z"/></clipPath><clipPath id="clipPath3013" clipPathUnits="userSpaceOnUse"><path id="path3015" d="m 456,722.237 h 117.321 v 35.11 H 456 Z"/></clipPath><clipPath id="clipPath3039" clipPathUnits="userSpaceOnUse"><path id="path3041" d="M 0,792 H 612 V 0 H 0 Z"/></clipPath><clipPath id="clipPath3349" clipPathUnits="userSpaceOnUse"><path id="path3351" d="m 52.2,465.417 h 150.3 v 41.839 H 52.2 Z"/></clipPath></defs><g id="g2993" transform="matrix(1.25,0,0,-1.25,-64.750247,860.35805)"><g id="g3345" fill="#141414" fill-opacity="1" transform="matrix(5.3173723,0,0,5.3173723,-225.3677,-2009.3815)"><g id="g3347" fill="#141414" fill-opacity="1" clip-path="url(#clipPath3349)"><g id="g3353" fill="#141414" fill-opacity="1" transform="translate(132.8716,486.9937)"><path id="path3355" fill="#141414" fill-opacity="1" fill-rule="nonzero" stroke="none" d="m 0,0 c 0,5.255 -2.628,6.651 -5.764,6.651 -3.486,0 -5.395,-2.535 -5.395,-6.426 0,-4.023 2.039,-7.009 5.763,-7.009 C -2.628,-6.784 0,-5.199 0,0 m -6.755,11.532 c 5.348,0.004 7.114,-3.25 7.114,-3.25 h 0.096 v 0.593 c 0,1.031 0.723,2.12 2.537,2.12 H 8.349 V 6.11 H 6.573 C 5.985,6.11 5.578,5.792 5.578,5.209 v -15.881 c 0.004,-7.921 -6.163,-10.904 -12.199,-10.904 -2.906,0 -5.989,0.812 -8.211,1.994 l 1.767,4.519 c 0,0 2.858,-1.536 6.396,-1.536 3.499,-0.006 6.535,1.495 6.535,5.66 v 1.085 c 0,0.541 0.034,1.215 0.034,1.215 l -0.086,0.006 c -1.36,-1.948 -3.356,-2.99 -6.431,-2.99 -6.63,0 -10.393,5.342 -10.393,11.668 0,6.34 3.581,11.491 10.255,11.487"/></g><g id="g3357" fill="#141414" fill-opacity="1" transform="translate(156.3944,484.913)"><path id="path3359" fill="#141414" fill-opacity="1" fill-rule="nonzero" stroke="none" d="m 0,0 c 0,-2.8 -2.178,-6.056 -5.261,-6.056 -2.365,0 -3.495,1.446 -3.495,2.986 0,3.209 4.763,3.611 7.764,3.611 H 0 Z m 34.046,17.371 c 0.688,0 1.182,-0.086 1.182,-0.086 v 4.885 c 0,0 -0.766,0.132 -1.905,0.138 -3.266,0 -9.484,-1.002 -9.475,-8.559 v -0.673 h -7.587 v 0.409 c -0.005,3.44 2.815,3.886 4.443,3.886 0.684,0 1.182,-0.086 1.182,-0.086 l -0.004,4.885 c 0,0 -0.767,0.138 -1.949,0.138 -3.222,0 -9.44,-1.002 -9.44,-8.546 L 10.501,-5.147 V -5.158 H 6.669 c -0.637,0 -1.005,0.362 -1.005,0.997 v 8.593 c 0,5.164 -2.264,9.185 -9.968,9.185 -2.412,0 -8.484,-0.455 -8.488,-4.753 l 0.004,-2.44 h 5.348 v 1.219 c 0,1.273 2.044,1.538 3.084,1.538 2.957,0 4.265,-1.222 4.265,-4.526 V 4.478 h -0.727 c -3.764,0.006 -13.741,-0.594 -13.745,-7.826 0,-4.605 3.767,-7.186 7.899,-7.186 5.213,0 6.98,4.069 6.98,4.069 h 0.091 c 0,0 -0.043,-0.41 -0.043,-0.998 0,-1.354 0.818,-2.529 2.945,-2.536 l 12.947,0.007 V 8.507 h 7.592 L 23.839,-9.992 h 5.764 V 8.507 h 4.993 v 4.569 h -4.985 l -0.008,0.402 c 0,3.447 2.819,3.893 4.443,3.893"/></g><g id="g3361" fill="#141414" fill-opacity="1" transform="translate(63.8142,480.2468)"><path id="path3363" fill="#141414" fill-opacity="1" fill-rule="nonzero" stroke="none" d="m 0,0 c -3.72,0 -5.764,2.984 -5.764,7.011 0,3.887 1.906,6.42 5.4,6.42 3.127,0 5.755,-1.392 5.764,-6.649 C 5.4,1.583 2.763,0 0,0 m 50.74,22.076 c 0.688,-0.006 1.182,-0.092 1.182,-0.092 v 4.886 c 0,0 -0.767,0.139 -1.905,0.139 -3.266,0 -9.476,-0.996 -9.476,-8.557 v -0.675 h -7.586 l -0.005,0.409 c 0.005,3.436 2.815,3.89 4.452,3.89 0.68,-0.006 1.178,-0.092 1.178,-0.092 v 4.886 c 0,0 -0.771,0.139 -1.958,0.139 -3.217,0 -9.427,-0.996 -9.427,-8.553 V -0.446 l -4.244,-0.011 c -0.632,0 -0.996,0.364 -0.996,1.003 v 14.16 c 0,2.12 -0.9,3.071 -3.035,3.071 H 8.397 c -1.819,0 -2.542,-1.09 -2.542,-2.127 -0.009,-0.312 0,-0.587 0,-0.587 H 5.76 c 0,0 -1.767,3.251 -7.12,3.255 -6.669,0 -10.25,-5.151 -10.254,-11.491 0.004,-6.333 3.763,-11.67 10.384,-11.67 3.088,0.006 5.088,1.043 6.448,2.992 h 0.087 c 0,0 -0.043,-0.68 -0.043,-1.223 v -1.09 c 0,-4.165 -3.04,-5.657 -6.531,-5.651 -3.546,0 -6.396,1.537 -6.396,1.537 l -1.767,-4.523 c 2.213,-1.175 5.305,-1.994 8.211,-1.994 6.032,0 12.203,2.984 12.199,10.902 l 0.004,15.88 c 0,0.587 0.398,0.903 0.992,0.903 h 3.273 c 0.633,0 0.996,-0.316 0.996,-0.99 V -2.221 c 0,-2.172 0.906,-3.071 3.036,-3.071 h 13.676 v 18.5 h 7.586 v -18.5 h 5.756 v 18.5 h 4.993 v 4.569 h -4.993 v 0.402 c 0,3.45 2.814,3.897 4.443,3.897"/></g><g id="g3365" fill="#141414" fill-opacity="1" transform="translate(85.7695,501.4811)"><path id="path3367" fill="#141414" fill-opacity="1" fill-rule="nonzero" stroke="none" d="M 0,0 H -5.781 L -5.785,5.762 0,5.76 Z"/></g><g id="g3369" fill="#141414" fill-opacity="1" transform="translate(194.8197,506.8381)">path d=&quot;M 0,0 -1.154,0 C -1.247,0 -1.3,-0.04 -1.3,-0.146 l 0,-0.312 -0.424,0 0,0.491 c 0,0.285 0.092,0.378 0.378,0.378 l 3.156,0 c 0.286,0 0.378,-0.093 0.378,-0.378 l 0,-0.491 -0.431,0 0,0.312 C 1.757,-0.04 1.711,0 1.611,0 l -1.147,0 0,-4.251 L 0,-4.251 0,0 z&quot; style=&quot;fill:#141414;fill-opacity:1;fill-rule:nonzero;stroke:none&quot; id=&quot;path3371&quot; inkscape:connector-curvature=&quot;0&quot; /&gt;</g></g></g></g></svg>