<svg xmlns="http://www.w3.org/2000/svg" viewBox="0 0 927.7 279.09"><path d="M321.11.5c-21.38 0-62.66 6.62-62.66 56.85v125.64l-28.2.07c-4.2 0-6.63-2.42-6.63-6.67V82.28c0-14.1-5.98-20.42-20.17-20.42h-69.94c-12.1 0-16.9 7.25-16.9 14.14-.06 2.07 0 3.9 0 3.9h-.63s-11.74-21.6-47.32-21.63C24.33 58.27.53 92.5.5 134.64c.03 42.1 25.01 77.57 69.02 77.57 20.52-.04 33.82-6.93 42.86-19.89h.58s-.29 4.52-.29 8.13v7.25c0 27.68-20.2 37.6-43.41 37.56-23.57 0-42.51-10.22-42.51-10.22L15 265.11c14.71 7.8 35.26 13.25 54.58 13.25 40.1 0 81.1-19.83 81.08-72.46l.03-105.55c0-3.9 2.65-6 6.6-6h21.75c4.2 0 6.62 2.1 6.62 6.58v93.85c0 14.44 6.02 20.42 20.18 20.42h90.9V92.23h50.42V215.2h38.26V92.23h33.19V61.86h-33.2V59.2c0-22.93 18.71-25.9 29.54-25.9 4.57.04 7.86.61 7.86.61V1.42S417.7.5 410.14.5c-21.7 0-62.98 6.62-62.98 56.88v4.48h-50.42l-.03-2.72c.03-22.83 18.7-25.85 29.58-25.85 4.52.04 7.83.61 7.83.61V1.42S329 .5 321.13.5zM185.17.58l.03 38.3h38.43V.6L185.16.58zm640.37.15c-21.42 0-62.75 6.66-62.75 56.8l.06 125.69v.07h-25.47c-4.24 0-6.68-2.4-6.68-6.63v-57.11c0-34.32-15.05-61.05-66.26-61.05-16.03 0-56.39 3.02-56.41 31.59l.02 16.22h35.55v-8.1c0-8.47 13.58-10.23 20.5-10.23 19.65 0 28.35 8.13 28.35 30.09v1.17h-4.84c-25.02-.04-91.33 3.95-91.36 52.02 0 30.6 25.04 47.76 52.5 47.76 34.66 0 46.4-27.04 46.4-27.04h.6s-.28 2.72-.28 6.63c0 9 5.44 16.81 19.57 16.86l86.06-.05V92.46h50.46l-.06 122.96h38.31V92.46H923V62.1h-33.13l-.06-2.67c0-22.9 18.74-25.87 29.53-25.87 4.58 0 7.86.57 7.86.57V1.65s-5.1-.88-12.66-.92c-21.71 0-63.04 6.66-62.98 56.9v4.46h-50.43v-2.72c-.03-22.86 18.71-25.82 29.53-25.82 4.55 0 7.86.57 7.86.57l-.03-32.47s-5.1-.92-12.95-.92zM491.8 58.53c-44.36-.03-68.16 34.2-68.16 76.35 0 42.04 25.01 77.55 69.08 77.55 20.44 0 33.7-6.93 42.74-19.87l.58.04s-.23 4.48-.23 8.07v7.21c0 27.69-20.18 37.67-43.44 37.63-23.51 0-42.5-10.22-42.5-10.22l-11.75 30.04c14.76 7.86 35.26 13.26 54.57 13.26 40.12 0 81.11-19.83 81.09-72.48V100.55c0-3.87 2.7-5.99 6.6-5.99h11.81V62.1h-35.6c-12.06 0-16.87 7.23-16.87 14.09v3.94h-.63s-11.74-21.63-47.29-21.6zM75.28 90.75c20.78 0 38.25 9.25 38.3 44.2 0 34.55-17.52 45.07-35.88 45.07-24.73 0-38.32-19.83-38.32-46.6 0-25.83 12.67-42.67 35.9-42.67zm423.1.22c20.85 0 38.32 9.28 38.32 44.2 0 34.56-17.47 45.1-35.87 45.1-24.75 0-38.3-19.85-38.3-46.59 0-25.86 12.69-42.71 35.86-42.71zm188.08 54.44h6.59v3.6c0 18.6-14.48 40.25-34.97 40.25-15.72 0-23.23-9.61-23.23-19.85 0-21.33 31.66-24 51.6-24z" fill="#141414"/></svg>