<svg xmlns="http://www.w3.org/2000/svg" id="svg2" width="145.73" height="139.02" version="1.1"><metadata id="metadata7"/><g id="layer1" fill="#292a2c" transform="translate(-277.13376,-462.85093)"><path id="path3005" fill-rule="nonzero" d="m410.56,464.85-121.12,0c-2.84,0-5.4262,1.1562-7.2875,3.0188-1.8625,1.86-3.02,4.4475-3.0188,7.2875v114.41c-0.001,2.8425,1.1562,5.4288,3.0188,7.29,1.8612,1.8625,4.4475,3.02,7.2875,3.0188h121.12c2.8412,0.001,5.4275-1.1562,7.2875-3.0188,1.8625-1.8612,3.02-4.4475,3.02-7.29v-114.41c0-2.84-1.1575-5.4275-3.02-7.2875-1.86-1.8625-4.4462-3.0188-7.2875-3.0188v3.0125c2.0188,0.001,3.8325,0.815,5.1588,2.1362,1.3225,1.3262,2.135,3.14,2.1362,5.1575v114.41c-0.001,2.0212-0.81375,3.835-2.1362,5.1588-1.3262,1.3225-3.14,2.1362-5.1588,2.1362h-121.12c-2.0188,0-3.8325-0.81375-5.1575-2.1362-1.3225-1.3238-2.135-3.1375-2.1362-5.1588v-114.41c0.001-2.0175,0.81375-3.8312,2.1362-5.1575,1.325-1.3212,3.14-2.135,5.1575-2.1362h121.12v-3.0125z"/><path id="path3009" fill-rule="evenodd" d="m349.64,551.11c1.2612,0,2.2775,1.0225,2.2775,2.2912v0.0163,11.515c0,1.2612-1.0162,2.2975-2.2775,2.2975l-0.0263-0.0138v0.0138h-11.511v-0.0138l-0.025,0.0138c-1.2662,0-2.2825-1.0362-2.2825-2.2975v-11.515-0.0163c0-1.2688,1.0162-2.2912,2.2825-2.2912h0.025,11.511,0.0263m6.23-53.512c1.2912,0,2.2962,1.0412,2.2962,2.3238v0.0187,11.676,0.015c0,1.285-1.005,2.3288-2.2962,2.3288h-0.025-11.689-0.0163c-1.2875,0-2.3188-1.0438-2.3188-2.3288v-0.015-11.676-0.0187c0-1.2825,1.0312-2.3238,2.3188-2.3238h0.0163,11.689,0.025m48.271,32.13c0,3.3462-2.71,6.0425-6.0375,6.0425h-25.904v-7.7888h21.822,0.0163c1.29,0,2.3238-1.0462,2.3238-2.3262v-0.0163-25.699-0.0175c0-1.2825-1.0338-2.325-2.3238-2.325h-0.0163-11.698-0.0225c-1.27,0-2.3075,1.0425-2.3075,2.325v0.0175,11.676,0.015c0,1.285,1.0375,2.3288,2.3075,2.3288h0.0225,9.3475v7.7862h-13.431c-3.34,0-6.0412-2.7-6.0412-6.0375v-19.859c0-3.3338,2.7012-6.0412,6.0412-6.0412h19.862c3.3275,0,6.0375,2.7075,6.0375,6.0412v33.878zm-0.0225,45.174-7.6762,0,0-23.791-5.3662,0-0.0263,0c-1.27,0-2.2825,1.0225-2.2825,2.2912v0.0163,21.484h-7.675v-23.791h-5.3788-0.0175c-1.27,0-2.285,1.0225-2.285,2.2912v0.0163,21.504h-7.6738v-25.549c0-3.2712,2.6588-5.9362,5.9525-5.9362h32.429v31.465zm-44.185-53.155-19.869,0c-3.3338,0-6.0338-2.7-6.0338-6.0375v-19.859c0-3.3338,2.7-6.0412,6.0338-6.0412h19.869c3.3275,0,6.035,2.7075,6.035,6.0412v19.859c0,3.3375-2.7075,6.0375-6.035,6.0375m-0.3425,47.206c0,3.285-2.665,5.9488-5.9488,5.9488h-19.569c-3.2962,0-5.9538-2.6638-5.9538-5.9488v-19.58c0-3.2712,2.6575-5.9362,5.9538-5.9362h19.569c3.2838,0,5.9488,2.665,5.9488,5.9362v19.58zm-31.79-39.225c0,3.3462-2.7075,6.0425-6.0425,6.0425h-25.899v-7.7888h21.814,0.0225c1.2862,0,2.3162-1.0462,2.3162-2.3262v-0.0163-25.699-0.0175c0-1.2825-1.03-2.325-2.3162-2.325h-0.0225-11.686-0.0275c-1.2825,0-2.3138,1.0425-2.3138,2.325v0.0175,11.676,0.015c0,1.285,1.0312,2.3288,2.3138,2.3288h0.0275,9.3488v7.7862h-13.439c-3.3388,0-6.0375-2.7-6.0375-6.0375v-19.859c0-3.3338,2.6988-6.0412,6.0375-6.0412h19.861c3.335,0,6.0425,2.7075,6.0425,6.0412v33.878zm-5.8262,21.382-16.112,0-0.0238,0c-1.2675,0-2.2838,1.0225-2.2838,2.2912l0.005,0.0163h-0.005v11.515h0.005l-0.005,0.006c0,1.2625,1.0162,2.3,2.2838,2.3h0.0238,1.6688,14.444v7.6825h-20.139v-0.02c-3.2925,0-5.9575-2.6638-5.9575-5.9488v-19.58c0-3.2712,2.665-5.9362,5.9575-5.9362h20.139v7.6738z"/></g></svg>