<?xml version="1.0" encoding="UTF-8" standalone="no"?>
<!-- Created with Inkscape (http://www.inkscape.org/) -->

<svg xmlns:dc="http://purl.org/dc/elements/1.1/" xmlns:cc="http://creativecommons.org/ns#" xmlns:rdf="http://www.w3.org/1999/02/22-rdf-syntax-ns#" xmlns:svg="http://www.w3.org/2000/svg" xmlns="http://www.w3.org/2000/svg" xmlns:sodipodi="http://sodipodi.sourceforge.net/DTD/sodipodi-0.dtd" xmlns:inkscape="http://www.inkscape.org/namespaces/inkscape" id="svg3183" version="1.1" inkscape:version="0.48.5 r10040" width="161.09375" height="158.90625" sodipodi:docname="Google_icon-Sep15.svg">
  <metadata id="metadata3189">
    <rdf:RDF>
      <cc:Work rdf:about="">
        <dc:format>image/svg+xml</dc:format>
        <dc:type rdf:resource="http://purl.org/dc/dcmitype/StillImage" />
      </cc:Work>
    </rdf:RDF>
  </metadata>
  <defs id="defs3187" />
  <sodipodi:namedview pagecolor="#ffffff" bordercolor="#666666" borderopacity="1" objecttolerance="10" gridtolerance="10" guidetolerance="10" inkscape:pageopacity="0" inkscape:pageshadow="2" inkscape:window-width="1366" inkscape:window-height="706" id="namedview3185" showgrid="false" fit-margin-top="0" fit-margin-left="0" fit-margin-right="0" fit-margin-bottom="0" inkscape:zoom="2.8284271" inkscape:cx="159.8439" inkscape:cy="92.550917" inkscape:window-x="-8" inkscape:window-y="-8" inkscape:window-maximized="1" inkscape:current-layer="svg3183" />
  <g id="g3380">
    <path sodipodi:nodetypes="ccccccccccccccccccccccccccccssccssccccccccscccccccccccssccccscccccccccccscccc" inkscape:connector-curvature="0" id="path3238" d="m 78.9375,66.1875 0,31.0625 43,0 c -0.71385,2.43658 -1.59618,4.76767 -2.625,6.96875 -0.42336,0.9057 -0.86953,1.79295 -1.34375,2.65625 -0.0992,0.18042 -0.21111,0.35273 -0.3125,0.53125 -0.005,0.008 0.005,0.0233 0,0.0312 -0.31767,0.53214 -0.6421,1.0815 -0.90625,1.5312 -0.33929,0.51876 -0.68592,1.05794 -0.96875,1.49995 -0.32627,0.47865 -0.65662,0.94402 -1,1.40625 -0.0801,0.108 -0.16898,0.20541 -0.25,0.3125 -0.30319,0.37127 -0.60141,0.77572 -0.84375,1.0937 -0.77641,0.93501 -1.59258,1.84322 -2.31245,2.5937 -0.41837,0.43698 -0.84837,0.85397 -1.2187,1.2187 -0.44029,0.42267 -0.89077,0.82961 -1.2812,1.18745 -0.42109,0.36928 -0.84524,0.71119 -1.28125,1.0625 -0.46349,0.38859 -0.9762,0.76647 -1.40613,1.09365 l 24.6875,21.03125 c 0.36609,-0.28947 0.73292,-0.5794 1.09375,-0.875 l 0.0312,0 c 0.19985,-0.16382 0.39553,-0.33432 0.59375,-0.5 0.56196,-0.46987 1.10766,-0.95284 1.65625,-1.4375 0.33292,-0.29401 0.67209,-0.57565 1,-0.875 0.21287,-0.19442 0.41427,-0.3971 0.625,-0.59375 0.3105,-0.2896 0.63169,-0.58061 0.9375,-0.875 0.22123,-0.21315 0.43751,-0.44061 0.65625,-0.65625 0.29478,-0.29033 0.58478,-0.58022 0.875,-0.875 0.22282,-0.22647 0.43616,-0.45843 0.65625,-0.6875 0.50681,-0.52747 1.00785,-1.05272 1.5,-1.59375 0.49699,-0.54635 0.98703,-1.09639 1.46875,-1.65625 0.47688,-0.55424 0.94466,-1.12034 1.40625,-1.6875 0.22114,-0.27131 0.43867,-0.53828 0.65625,-0.8125 0.2368,-0.29881 0.45496,-0.60403 0.6875,-0.90625 0.44387,-0.57688 0.88439,-1.16093 1.3125,-1.75 0.40569,-0.55823 0.82748,-1.1186 1.21875,-1.6875 0.0212,-0.0309 0.0413,-0.0629 0.0625,-0.0937 0.17707,-0.25804 0.35719,-0.52106 0.53125,-0.78125 0.23766,-0.35557 0.4555,-0.70297 0.6875,-1.0625 0.15679,-0.2426 0.31457,-0.47437 0.46875,-0.71875 0.23367,-0.37099 0.45989,-0.74997 0.6875,-1.125 0.14476,-0.23823 0.2952,-0.47891 0.4375,-0.71875 0.23166,-0.391 0.46245,-0.79227 0.6875,-1.1875 0.36287,-0.63725 0.71709,-1.28952 1.0625,-1.9375 0.65602,-1.23067 1.28358,-2.48228 1.875,-3.75 0.0295,-0.0633 0.0644,-0.1241 0.0937,-0.1875 0.0956,-0.20618 0.18741,-0.41787 0.28125,-0.625 0.21304,-0.4706 0.42102,-0.93086 0.625,-1.40625 0.0806,-0.18747 0.17087,-0.3743 0.25,-0.5625 0.20681,-0.49271 0.39676,-1.00235 0.59375,-1.5 0.0711,-0.17927 0.14895,-0.35135 0.21875,-0.53125 0.19766,-0.51021 0.37526,-1.01605 0.5625,-1.53125 0.0601,-0.1653 0.12843,-0.3342 0.1875,-0.5 0.18952,-0.53287 0.38424,-1.087 0.5625,-1.625 0.0521,-0.15694 0.10514,-0.31138 0.15625,-0.46875 0.17762,-0.54752 0.33417,-1.10363 0.5,-1.65625 0.1591,-0.53018 0.32063,-1.059 0.46875,-1.59375 0.052,-0.18773 0.10561,-0.37421 0.15625,-0.5625 0.0359,-0.1335 0.0585,-0.27247 0.0937,-0.40625 0.18555,-0.70434 0.36497,-1.41318 0.53125,-2.125 0.0487,-0.20896 0.10921,-0.41541 0.15625,-0.625 0.25758,-1.14758 0.48085,-2.3031 0.6875,-3.46875 0.11916,-0.67214 0.24184,-1.35341 0.34375,-2.03125 0.0109,-0.0726 0.0205,-0.14608 0.0312,-0.21875 0.0108,-0.0733 0.0206,-0.14539 0.0312,-0.21875 0.003,-0.0205 -0.003,-0.042 0,-0.0625 0.15392,-1.06839 0.29594,-2.13705 0.40625,-3.21875 0.0358,-0.35071 0.0626,-0.71045 0.0937,-1.0625 0.0527,-0.5983 0.11705,-1.21047 0.15625,-1.8125 0.0108,-0.16562 0.0215,-0.33411 0.0312,-0.5 0.002,-0.0313 -0.002,-0.0625 0,-0.0937 0.0425,-0.7367 0.0718,-1.47681 0.0937,-2.21875 6.1e-4,-0.0208 -5.9e-4,-0.0417 0,-0.0625 0.022,-0.76295 0.0312,-1.51306 0.0312,-2.28125 0,-4.52762 -0.38779,-8.96027 -1.125,-13.28125 l -37.6875,0 -43.34375,0 z" style="fill:#4385f5;fill-opacity:1;fill-rule:evenodd;stroke:none" />
    <path inkscape:connector-curvature="0" id="path3331" d="m 160.96875,84.125 c -0.0286,0.48902 -0.0875,0.98214 -0.125,1.46875 0.0297,-0.32419 0.0728,-0.64668 0.0937,-0.96875 0.0108,-0.16562 0.0215,-0.33411 0.0312,-0.5 z M 159.875,93.25 c -0.20486,1.15555 -0.43274,2.29973 -0.6875,3.4375 0.25522,-1.13881 0.4824,-2.28088 0.6875,-3.4375 z m -125.25,3.6875 c -7.82387,6.07773 -18.515358,14.40373 -25.25,19.75 13.536363,25.11736 40.342734,42.21875 71.1875,42.21875 19.04661,0 36.52533,-6.5359 50.3125,-17.4375 L 106.1875,120.4375 c -7.13406,5.24825 -16.07683,8.1875 -26.28125,8.1875 -20.75992,0 -38.647064,-13.08386 -45.28125,-31.6875 z m 96.25,44.53125 c 0.37383,-0.29559 0.75667,-0.57301 1.125,-0.875 l -0.0312,0 c -0.36083,0.2956 -0.72766,0.58553 -1.09375,0.875 z m 28.15625,-44.0625 c -0.16238,0.69195 -0.35084,1.37766 -0.53125,2.0625 0.18101,-0.68805 0.3686,-1.36732 0.53125,-2.0625 z m -2.65625,8.875 c -0.14862,0.40895 -0.28617,0.81473 -0.4375,1.21875 0.15368,-0.40191 0.29027,-0.81376 0.4375,-1.21875 z m -0.78125,2.0625 c -0.27157,0.68632 -0.55354,1.38563 -0.84375,2.0625 0.0806,-0.18747 0.17087,-0.3743 0.25,-0.5625 0.20681,-0.49271 0.39676,-1.00235 0.59375,-1.5 z M 153.5625,113 c -0.23906,0.50495 -0.4689,1.00066 -0.71875,1.5 0.24813,-0.49722 0.48092,-0.99698 0.71875,-1.5 z m -1.6875,3.375 c -0.32358,0.60703 -0.66109,1.21382 -1,1.8125 0.34027,-0.60007 0.67518,-1.20295 1,-1.8125 z m -41.71875,0.71875 c -0.40568,0.3876 -0.8291,0.78632 -1.25,1.15625 0.42968,-0.37766 0.83625,-0.76014 1.25,-1.15625 z m -1.28125,1.1875 c -0.42109,0.36928 -0.84524,0.71119 -1.28125,1.0625 0.43224,-0.34845 0.86373,-0.69634 1.28125,-1.0625 z m -1.3125,1.09375 c -0.43663,0.35104 -0.8925,0.69852 -1.34375,1.03125 0.45212,-0.33337 0.90638,-0.67945 1.34375,-1.03125 z m 38.46875,6.3125 c -0.42811,0.58907 -0.86863,1.17312 -1.3125,1.75 -0.22359,0.29059 -0.4299,0.58723 -0.65625,0.875 0.67887,-0.85747 1.32533,-1.73983 1.96875,-2.625 z m -2.65625,3.46875 c -0.46159,0.56716 -0.92937,1.13326 -1.40625,1.6875 0.47893,-0.55628 0.94274,-1.11819 1.40625,-1.6875 z M 140.5,132.5 c -0.49215,0.54103 -0.99319,1.06628 -1.5,1.59375 0.50281,-0.52316 1.01163,-1.05724 1.5,-1.59375 z m -5.28125,5.3125 c -0.31773,0.28831 -0.64688,0.5595 -0.96875,0.84375 0.32133,-0.28379 0.6521,-0.55497 0.96875,-0.84375 z" style="fill:#34a855;fill-opacity:1;fill-rule:evenodd;stroke:none" />
    <path id="path3276" d="M 34.4375,65.34375 8.3125,44.28125 C 2.98741,54.891776 0,66.82949 0,79.46875 c 0,13.45122 3.391881,26.11679 9.375,37.21875 6.734642,-5.34627 17.42613,-13.67227 25.25,-19.75 -1.77766,-4.98493 -2.75,-10.3684 -2.75,-16 0,-5.45811 0.913032,-10.69926 2.5625,-15.59375 z" style="fill:#fabc07;fill-opacity:1;fill-rule:evenodd;stroke:none" inkscape:connector-curvature="0" />
    <path id="path3228" d="M 80.5625,0 C 48.759378,0 21.253672,18.213384 8.15625,44.625 l 26.3125,20.6875 c 6.414568,-18.982912 24.14492,-32.65625 45.0625,-32.65625 11.8285,0 22.05042,4.345918 29.71875,11.53125 L 133.5,19.625 C 119.34356,7.42224 100.8364,0 80.5625,0 z" style="fill:#e94335;fill-opacity:1;fill-rule:evenodd;stroke:none" inkscape:connector-curvature="0" />
    <path inkscape:connector-curvature="0" id="path3339" d="M 7.75,45.4375 C 7.292029,46.388565 6.857746,47.341283 6.4375,48.3125 6.859287,47.337385 7.290288,46.392139 7.75,45.4375 z" style="fill:#34a855;fill-opacity:1;fill-rule:evenodd;stroke:none" />
    <path inkscape:connector-curvature="0" id="path3337" d="M 6.3125,48.59375 C 5.910529,49.532805 5.522176,50.48056 5.15625,51.4375 5.520015,50.486572 5.913221,49.526907 6.3125,48.59375 z" style="fill:#34a855;fill-opacity:1;fill-rule:evenodd;stroke:none" />
    <path inkscape:connector-curvature="0" id="path3335" d="m 5.15625,51.4375 c -0.130263,0.340525 -0.249362,0.688516 -0.375,1.03125 0.1263,-0.344778 0.24401,-0.688695 0.375,-1.03125 z" style="fill:#34a855;fill-opacity:1;fill-rule:evenodd;stroke:none" />
    <path inkscape:connector-curvature="0" id="path3333" d="M 3.34375,56.75 C 3.070754,57.65343 2.80342,58.55218 2.5625,59.46875 2.802354,58.55714 3.072211,57.64859 3.34375,56.75 z" style="fill:#34a855;fill-opacity:1;fill-rule:evenodd;stroke:none" />
    <path inkscape:connector-curvature="0" id="path3329" d="m 0.9375,67.375 c -0.09517,0.61451 -0.169194,1.22467 -0.25,1.84375 0.08095,-0.6198 0.154655,-1.22851 0.25,-1.84375 z" style="fill:#34a855;fill-opacity:1;fill-rule:evenodd;stroke:none" />
    <path inkscape:connector-curvature="0" id="path3327" d="M 0.5625,70.125 C 0.48228,70.80031 0.406686,71.47587 0.34375,72.15625 0.40639,71.47874 0.48273,70.79744 0.5625,70.125 z" style="fill:#34a855;fill-opacity:1;fill-rule:evenodd;stroke:none" />
    <path inkscape:connector-curvature="0" id="path3325" d="m 32.90625,71 c -0.07726,0.3734 -0.150067,0.74849 -0.21875,1.125 0.06932,-0.37595 0.140908,-0.75215 0.21875,-1.125 z" style="fill:#34a855;fill-opacity:1;fill-rule:evenodd;stroke:none" />
    <path inkscape:connector-curvature="0" id="path3323" d="m 32.6875,72.125 c -0.08983,0.48719 -0.174755,0.97656 -0.25,1.46875 0.07452,-0.49394 0.160814,-0.97984 0.25,-1.46875 z" style="fill:#34a855;fill-opacity:1;fill-rule:evenodd;stroke:none" />
    <path inkscape:connector-curvature="0" id="path3321" d="m 32.125,76.09375 c -0.07848,0.7853 -0.147119,1.57895 -0.1875,2.375 0.03961,-0.79141 0.110674,-1.59405 0.1875,-2.375 z" style="fill:#34a855;fill-opacity:1;fill-rule:evenodd;stroke:none" />
    <path inkscape:connector-curvature="0" id="path3319" d="m 31.9375,78.46875 c -0.04154,0.81883 -0.0625,1.63945 -0.0625,2.46875 0,-0.83277 0.02133,-1.64628 0.0625,-2.46875 z" style="fill:#34a855;fill-opacity:1;fill-rule:evenodd;stroke:none" />
    <path inkscape:connector-curvature="0" id="path3317" d="m 31.875,80.9375 c 0,0.83011 0.02078,1.6499 0.0625,2.46875 C 31.89562,82.58491 31.875,81.77027 31.875,80.9375 z" style="fill:#34a855;fill-opacity:1;fill-rule:evenodd;stroke:none" />
    <path inkscape:connector-curvature="0" id="path3315" d="M 0.0625,82.65625 C 0.08296,83.1686 0.12599,83.67769 0.15625,84.1875 0.12602,83.6798 0.08301,83.16648 0.0625,82.65625 z" style="fill:#34a855;fill-opacity:1;fill-rule:evenodd;stroke:none" />
    <path inkscape:connector-curvature="0" id="path3313" d="m 32.09375,85.3125 c 0.0415,0.45833 0.07067,0.92078 0.125,1.375 -0.05515,-0.45964 -0.08299,-0.91117 -0.125,-1.375 z" style="fill:#34a855;fill-opacity:1;fill-rule:evenodd;stroke:none" />
    <path inkscape:connector-curvature="0" id="path3311" d="m 32.59375,89.25 c 0.109327,0.623 0.241769,1.22979 0.375,1.84375 C 32.834566,90.47591 32.703745,89.877 32.59375,89.25 z" style="fill:#34a855;fill-opacity:1;fill-rule:evenodd;stroke:none" />
    <path inkscape:connector-curvature="0" id="path3309" d="m 2.53125,99.3125 c 0.329317,1.26251 0.703886,2.51261 1.09375,3.75 -0.388991,-1.23455 -0.765017,-2.49043 -1.09375,-3.75 z" style="fill:#34a855;fill-opacity:1;fill-rule:evenodd;stroke:none" />
    <path inkscape:connector-curvature="0" id="path3307" d="m 4.5625,105.84375 c 0.182881,0.51216 0.369334,1.02397 0.5625,1.53125 -0.192902,-0.50671 -0.379858,-1.01968 -0.5625,-1.53125 z" style="fill:#34a855;fill-opacity:1;fill-rule:evenodd;stroke:none" />
    <path inkscape:connector-curvature="0" id="path3298" d="m 5.125,107.375 c 0.372867,0.97944 0.745727,1.94561 1.15625,2.90625 C 5.875249,109.33036 5.494107,108.34433 5.125,107.375 z" style="fill:#34a855;fill-opacity:1;fill-rule:evenodd;stroke:none" />
  </g>
</svg>
