<svg xmlns="http://www.w3.org/2000/svg" width="42.792" viewBox="0 0 42.791 32.089" height="32.09"><path d="M19.374.937l1.12 3.525-.007.01a1.441 1.441 0 0 0-.27.272l-.01.007-2.782-.88v4.107l2.789-1.463.006.006c.082.108.178.204.287.285l-1.6 4.83c-.001.006-.004.012-.006.017l-.002.006a2.599 2.599 0 0 0 2.104 3.332c.019.003.037.008.056.01.107.014.215.024.327.024.11 0 .22-.009.328-.024.018-.002.036-.006.054-.01a2.6 2.6 0 0 0 2.106-3.332l-.002-.006a.05.05 0 0 0-.006-.017l-1.6-4.83a1.47 1.47 0 0 0 .288-.285l.007-.006 2.788 1.463V3.871l-2.786.88-.007-.007a1.417 1.417 0 0 0-.27-.272l-.008-.01 1.12-3.525h-2.01zM9.344 6.22A2.224 2.224 0 0 0 7.33 7.593a2.191 2.191 0 0 0 1.186 2.861 2.201 2.201 0 0 0 2.882-1.189 2.205 2.205 0 0 0-1.2-2.883 2.144 2.144 0 0 0-.852-.162zm24.102 0a2.153 2.153 0 0 0-.853.162 2.203 2.203 0 0 0 1.683 4.072 2.192 2.192 0 0 0 1.186-2.86 2.224 2.224 0 0 0-2.016-1.374zm-18.53 1.76a2.225 2.225 0 0 0-2.015 1.373 2.19 2.19 0 0 0 1.186 2.86 2.202 2.202 0 0 0 2.883-1.188 2.21 2.21 0 0 0-1.201-2.885 2.149 2.149 0 0 0-.852-.16zm12.958 0a2.146 2.146 0 0 0-.852.16 2.212 2.212 0 0 0-1.203 2.885 2.204 2.204 0 0 0 2.885 1.187 2.191 2.191 0 0 0 1.186-2.859 2.224 2.224 0 0 0-2.016-1.373zM4.35 9.146a2.225 2.225 0 0 0-2.016 1.373 2.192 2.192 0 0 0 1.186 2.861 2.204 2.204 0 0 0 2.885-1.189 2.207 2.207 0 0 0-1.204-2.883 2.148 2.148 0 0 0-.851-.162zm34.087 0a2.148 2.148 0 0 0-.851.162 2.202 2.202 0 1 0 1.682 4.072 2.194 2.194 0 0 0 1.187-2.86 2.227 2.227 0 0 0-2.018-1.374zM2.89 14.696A2.225 2.225 0 0 0 .874 16.07a2.192 2.192 0 0 0 1.186 2.861 2.203 2.203 0 1 0 .83-4.235zm37.01 0a2.208 2.208 0 0 0-2.054 3.047 2.202 2.202 0 0 0 2.885 1.188 2.19 2.19 0 0 0 1.184-2.86 2.221 2.221 0 0 0-2.014-1.375zm-29.044.586c-1.817 2.416-1.56 4.411.692 6.657-1.466-.81-3.743.042-2.4 2.781.701-1.704 2.205-1.32 2.519.144.212 1.034-.417 2.252-1.783 2.502-1.12.207-2.846-.56-4.229-3.539.78.02 1.46.413 2.344 1.022l-1.453-4.838c-.366 1.36-.833 2.247-1.328 2.73-.334-.979-.286-1.686.011-3.209L2.231 20.6c1.592 2.173 3.134 5.225 4.4 10.551 4.463-.638 9.47-.997 14.76-.997 5.292 0 10.3.36 14.764 1 1.267-5.329 2.81-8.38 4.403-10.554l-2.998-1.067c.298 1.523.345 2.23.01 3.21-.493-.484-.963-1.372-1.33-2.73l-1.45 4.837c.883-.609 1.566-1.003 2.346-1.022-1.383 2.98-3.111 3.746-4.231 3.54-1.366-.25-1.995-1.469-1.783-2.503.315-1.464 1.818-1.848 2.52-.144 1.342-2.739-.935-3.592-2.401-2.78 2.252-2.247 2.509-4.242.692-6.658-2.533 1.936-2.562 3.852-1.422 6.55-1.48-1.693-3.781-.786-2.95 1.948 1.066-1.65 2.48-.61 2.258.957-.187 1.367-1.991 2.47-4.238 2.274-3.22-.292-3.412-2.512-3.492-4.352.79-.146 2.216.587 3.43 2.293l.449-5.13c-1.322 1.378-2.523 1.64-3.858 1.681.444-1.386 2.487-3.656 2.487-3.656H18.192s2.042 2.27 2.487 3.656c-1.335-.042-2.536-.303-3.858-1.682l.448 5.131c1.216-1.706 2.64-2.439 3.43-2.293-.078 1.84-.271 4.06-3.491 4.352-2.247.195-4.05-.907-4.236-2.274-.222-1.568 1.189-2.607 2.256-.957.83-2.734-1.472-3.64-2.95-1.949 1.14-2.697 1.11-4.613-1.422-6.549z"/></svg>