<?xml version="1.0" encoding="UTF-8" standalone="no"?>
<svg
   xmlns:dc="http://purl.org/dc/elements/1.1/"
   xmlns:cc="http://creativecommons.org/ns#"
   xmlns:rdf="http://www.w3.org/1999/02/22-rdf-syntax-ns#"
   xmlns:svg="http://www.w3.org/2000/svg"
   xmlns="http://www.w3.org/2000/svg"
   version="1.1"
   height="88.599998"
   width="100.10001"
   viewBox="0 0 100.10001 88.6"
   id="brand-logomark">
  <metadata
     id="metadata11">
    <rdf:RDF>
      <cc:Work
         rdf:about="">
        <dc:format>image/svg+xml</dc:format>
        <dc:type
           rdf:resource="http://purl.org/dc/dcmitype/StillImage" />
        <dc:title></dc:title>
      </cc:Work>
    </rdf:RDF>
  </metadata>
  <defs
     id="defs9" />
  <g
     transform="translate(-16.5,-20.8)"
     id="g4">
    <path
       style="fill:#f5c400;fill-opacity:1"
       id="path2"
       d="M 38.8,40.7 A 63.26,63.26 0 0 0 44.9,65 C 51,76.9 59.5,84.5 66.5,87.5 73.7,84 80.7,78 84.6,71.6 H 64.7 C 59.5,67.2 55.5,60 54.5,51.6 h 59.2 a 90.55,90.55 0 0 1 -15,33.8 71,71 0 0 1 -31.9,24 H 66.2 C 45.1,100.8 33.8,87.3 26.3,72.1 21.5,62.3 16.5,44.6 16.5,20.8 h 100.1 a 153.89,153.89 0 0 1 -1.3,20 H 38.8 Z" />
  </g>
</svg>
