<svg xmlns="http://www.w3.org/2000/svg" xmlns:svg="http://www.w3.org/2000/svg" id="Layer_1" width="295.4" height="258.1" x="0" y="0" enable-background="new 0 0 996.1 258.1" version="1.1" viewBox="0 0 295.4 258.1" xml:space="preserve"><metadata id="metadata281"/><g id="g274"><g id="g256"><path id="path2" fill="#fff" d="m 147.7,257.2 v 0 l -64.2,-112 v -0.8 l -0.4,0.2 -22.9,-40 v 0 L 0.9,0.8 h 293.5 l -82.2,143.7 -0.4,-0.2 v 0.8 z M 83.3,56.5 84.6,55.8 83.2,55.5 82.9,56.1 H 83 l 0.6,-0.3 v 0.4 0 0 0 z"/><g id="g254"><polygon id="polygon4" fill="#010202" stroke="#fff" stroke-miterlimit="10" stroke-width=".952" points="212.3 55.7 212.4 55.7"/><linearGradient id="SVGID_1_" x1="82.971" x2="147.677" y1="168.19" y2="168.19" gradientUnits="userSpaceOnUse"><stop id="stop6" offset="0" stop-color="#FFE70D"/><stop id="stop8" offset=".509" stop-color="#FDEB20"/><stop id="stop10" offset="1" stop-color="#F3E733"/></linearGradient><polygon id="polygon13" fill="url(#SVGID_1_)" points="83 145 109.5 191.4 147.7 170.2 116.7 158.1"/><linearGradient id="SVGID_2_" x1="197.513" x2="161.33" y1="167.494" y2="147.023" gradientUnits="userSpaceOnUse"><stop id="stop15" offset="0" stop-color="#F18422"/><stop id="stop17" offset=".491" stop-color="#F49821"/><stop id="stop19" offset="1" stop-color="#F59D1F"/></linearGradient><polygon id="polygon22" fill="url(#SVGID_2_)" points="185.9 191.4 212.4 145 178.7 158.1 147.7 170.2"/><linearGradient id="SVGID_3_" x1="54.681" x2="83.491" y1="90.111" y2="61.3" gradientUnits="userSpaceOnUse"><stop id="stop24" offset="0" stop-color="#46AE4D"/><stop id="stop26" offset=".503" stop-color="#2CAF87"/><stop id="stop28" offset="1" stop-color="#16B3AE"/></linearGradient><polygon id="polygon31" fill="url(#SVGID_3_)" points="83 55.7 45 78.7 60.3 105.5"/><linearGradient id="SVGID_4_" x1="24.032" x2="82.971" y1="60.355" y2="60.355" gradientUnits="userSpaceOnUse"><stop id="stop33" offset="0" stop-color="#59C0CB"/><stop id="stop35" offset=".503" stop-color="#65C2CA"/><stop id="stop37" offset=".89" stop-color="#89CCCB"/></linearGradient><polygon id="polygon40" fill="url(#SVGID_4_)" points="24 42 45 78.7 83 55.7 82.9 55.7"/><linearGradient id="SVGID_5_" x1="1.321" x2="82.72" y1="27.862" y2="27.862" gradientUnits="userSpaceOnUse"><stop id="stop42" offset="0" stop-color="#59C0CB"/><stop id="stop44" offset=".466" stop-color="#68C3CA"/><stop id="stop46" offset="1" stop-color="#87CCCB"/></linearGradient><polygon id="polygon49" fill="url(#SVGID_5_)" points="0 0 24 42 82.9 55.7"/><linearGradient id="SVGID_6_" x1="41.477" x2="41.477" y1=".786" y2="53.65" gradientUnits="userSpaceOnUse"><stop id="stop51" offset="0" stop-color="#34B1E4"/><stop id="stop53" offset=".503" stop-color="#1BB6DD"/><stop id="stop55" offset="1" stop-color="#27B9D1"/></linearGradient><polygon id="polygon58" fill="url(#SVGID_6_)" points="0 0 82.9 55.7 83 55.7 46.9 0"/><linearGradient id="SVGID_7_" x1="128.578" x2="128.578" y1="240.761" y2="172.64" gradientUnits="userSpaceOnUse"><stop id="stop60" offset="0" stop-color="#FEEA14"/><stop id="stop62" offset=".509" stop-color="#F9E92D"/><stop id="stop64" offset="1" stop-color="#F3E733"/></linearGradient><polygon id="polygon67" fill="url(#SVGID_7_)" points="147.7 170.2 109.5 191.4 147.7 258.1"/><linearGradient id="SVGID_8_" x1="132.186" x2="132.186" y1="106.254" y2="165.127" gradientUnits="userSpaceOnUse"><stop id="stop69" offset="0" stop-color="#F5E831"/><stop id="stop71" offset=".509" stop-color="#EFE531"/><stop id="stop73" offset="1" stop-color="#D9DB23"/></linearGradient><polygon id="polygon76" fill="url(#SVGID_8_)" points="147.7 99.1 116.7 158.1 147.7 170.2"/><linearGradient id="SVGID_9_" x1="64.919" x2="64.919" y1=".786" y2="53.647" gradientUnits="userSpaceOnUse"><stop id="stop78" offset="0" stop-color="#31AEE4"/><stop id="stop80" offset=".503" stop-color="#21B9D5"/><stop id="stop82" offset="1" stop-color="#27B9D1"/></linearGradient><polygon id="polygon85" fill="url(#SVGID_9_)" points="46.9 0 83 55.7 83 0"/><linearGradient id="SVGID_10_" x1="115.322" x2="115.322" y1="153.385" y2="97.723" gradientUnits="userSpaceOnUse"><stop id="stop87" offset="0" stop-color="#DEDD23"/><stop id="stop89" offset=".509" stop-color="#E9E22D"/><stop id="stop91" offset="1" stop-color="#F5E831"/></linearGradient><polygon id="polygon94" fill="url(#SVGID_10_)" points="115.9 121.7 83 145 116.7 158.1 147.7 99.1"/><linearGradient id="SVGID_11_" x1="180.032" x2="180.032" y1="118.396" y2="54.56" gradientUnits="userSpaceOnUse"><stop id="stop96" offset="0" stop-color="#E41925"/><stop id="stop98" offset=".503" stop-color="#E11E31"/><stop id="stop100" offset="1" stop-color="#DC283E"/></linearGradient><polygon id="polygon103" fill="url(#SVGID_11_)" points="212.4 55.7 147.7 99.1 179.5 121.7"/><linearGradient id="SVGID_12_" x1="212.378" x2="250.314" y1="80.608" y2="80.608" gradientUnits="userSpaceOnUse"><stop id="stop105" offset="0" stop-color="#E52332"/><stop id="stop107" offset=".503" stop-color="#D4192F"/><stop id="stop109" offset="1" stop-color="#C5192F"/></linearGradient><polygon id="polygon112" fill="url(#SVGID_12_)" points="212.4 55.7 235 105.5 250.3 78.7"/><linearGradient id="SVGID_13_" x1="223.692" x2="223.692" y1="59.829" y2="124.447" gradientUnits="userSpaceOnUse"><stop id="stop114" offset="0" stop-color="#E62333"/><stop id="stop116" offset=".503" stop-color="#CF182F"/><stop id="stop118" offset="1" stop-color="#BD172E"/></linearGradient><polygon id="polygon121" fill="url(#SVGID_13_)" points="212.4 55.7 212.4 145 235 105.5"/><linearGradient id="SVGID_14_" x1="212.378" x2="271.327" y1="60.355" y2="60.355" gradientUnits="userSpaceOnUse"><stop id="stop123" offset="0" stop-color="#C12859"/><stop id="stop125" offset=".503" stop-color="#B7245E"/><stop id="stop127" offset="1" stop-color="#9A1E70"/></linearGradient><polygon id="polygon130" fill="url(#SVGID_14_)" points="250.3 78.7 271.3 42 212.4 55.7"/><linearGradient id="SVGID_15_" x1="212.423" x2="295.327" y1="27.862" y2="27.862" gradientUnits="userSpaceOnUse"><stop id="stop132" offset="0" stop-color="#C12858"/><stop id="stop134" offset=".503" stop-color="#AC2268"/><stop id="stop136" offset="1" stop-color="#A21E70"/></linearGradient><polygon id="polygon139" fill="url(#SVGID_15_)" points="271.3 42 295.3 0 212.4 55.7"/><linearGradient id="SVGID_16_" x1="133.147" x2="166.24" y1="240.778" y2="181.734" gradientUnits="userSpaceOnUse"><stop id="stop141" offset="0" stop-color="#EF7B23"/><stop id="stop143" offset=".491" stop-color="#F18622"/><stop id="stop145" offset="1" stop-color="#F49520"/></linearGradient><polygon id="polygon148" fill="url(#SVGID_16_)" points="147.7 170.2 147.7 258.1 185.9 191.4"/><linearGradient id="SVGID_17_" x1="147.677" x2="178.658" y1="134.661" y2="134.661" gradientUnits="userSpaceOnUse"><stop id="stop150" offset="0" stop-color="#EB5F27"/><stop id="stop152" offset=".503" stop-color="#E73D2D"/><stop id="stop154" offset="1" stop-color="#E62D2E"/></linearGradient><polygon id="polygon157" fill="url(#SVGID_17_)" points="147.7 99.1 147.7 170.2 178.7 158.1"/><linearGradient id="SVGID_18_" x1="179.454" x2="212.378" y1="100.369" y2="100.369" gradientUnits="userSpaceOnUse"><stop id="stop159" offset="0" stop-color="#E41722"/><stop id="stop161" offset=".503" stop-color="#DD1F33"/><stop id="stop163" offset="1" stop-color="#D7263D"/></linearGradient><polygon id="polygon166" fill="url(#SVGID_18_)" points="212.4 145 212.4 55.7 179.5 121.7"/><linearGradient id="SVGID_19_" x1="147.681" x2="212.378" y1="128.63" y2="128.63" gradientUnits="userSpaceOnUse"><stop id="stop168" offset="0" stop-color="#EB5F27"/><stop id="stop170" offset=".503" stop-color="#E7382D"/><stop id="stop172" offset="1" stop-color="#E5232C"/></linearGradient><polygon id="polygon175" fill="url(#SVGID_19_)" points="178.7 158.1 212.4 145 179.5 121.7 147.7 99.1"/><linearGradient id="SVGID_20_" x1="212.396" x2="295.354" y1="27.847" y2="27.847" gradientUnits="userSpaceOnUse"><stop id="stop177" offset="0" stop-color="#DC2242"/><stop id="stop179" offset=".503" stop-color="#B2328A"/><stop id="stop181" offset="1" stop-color="#9C3B8E"/></linearGradient><polygon id="polygon184" fill="url(#SVGID_20_)" points="223 39.2 212.4 55.7 295.3 0 295.4 0 295.3 0 248.5 0"/><linearGradient id="SVGID_21_" x1="230.43" x2="230.43" y1="48.927" y2="3.204" gradientUnits="userSpaceOnUse"><stop id="stop186" offset="0" stop-color="#D82065"/><stop id="stop188" offset=".503" stop-color="#D32183"/><stop id="stop190" offset="1" stop-color="#D02183"/></linearGradient><polygon id="polygon193" fill="url(#SVGID_21_)" points="223 39.2 248.5 0 212.4 0 212.4 45 212.4 55.7"/><linearGradient id="SVGID_22_" x1="180.028" x2="180.028" y1="7.206" y2="96.381" gradientUnits="userSpaceOnUse"><stop id="stop195" offset="0" stop-color="#CD2A84"/><stop id="stop197" offset=".503" stop-color="#C22D88"/><stop id="stop199" offset="1" stop-color="#B1358B"/></linearGradient><polygon id="polygon202" fill="url(#SVGID_22_)" points="212.4 55.7 212.3 55.7 212.4 55.7 212.4 45 212.4 0 187.5 38.1 166.8 69.8 147.7 99.1"/><linearGradient id="SVGID_23_" x1="147.677" x2="212.37" y1="49.56" y2="49.56" gradientUnits="userSpaceOnUse"><stop id="stop204" offset="0" stop-color="#3158A5"/><stop id="stop206" offset=".515" stop-color="#3157A4"/><stop id="stop208" offset="1" stop-color="#3157A4"/></linearGradient><polygon id="polygon211" fill="url(#SVGID_23_)" points="147.7 99.1 166.8 69.8 187.5 38.1 212.4 0 147.7 0 147.7 80.2"/><linearGradient id="SVGID_24_" x1="116.969" x2="148.138" y1="47.924" y2="16.755" gradientUnits="userSpaceOnUse"><stop id="stop213" offset="0" stop-color="#2480C3"/><stop id="stop215" offset=".503" stop-color="#2082C5"/><stop id="stop217" offset="1" stop-color="#297CC0"/></linearGradient><polygon id="polygon220" fill="url(#SVGID_24_)" points="147.6 0 83 0 107.8 38.1 138.5 85.1 147.7 99.1 147.7 80.2 147.7 0"/><linearGradient id="SVGID_25_" x1="89.048" x2="147.414" y1="33.924" y2="92.29" gradientUnits="userSpaceOnUse"><stop id="stop222" offset="0" stop-color="#06A0D4"/><stop id="stop224" offset=".503" stop-color="#0197D0"/><stop id="stop226" offset="1" stop-color="#1E7BC0"/></linearGradient><polygon id="polygon229" fill="url(#SVGID_25_)" points="83 55.7 132 88.7 147.7 99.1 138.5 85.1 107.8 38.1 83 0"/><linearGradient id="SVGID_26_" x1="83.551" x2="130.309" y1="75.12" y2="109.325" gradientUnits="userSpaceOnUse"><stop id="stop231" offset="0" stop-color="#05ADB0"/><stop id="stop233" offset="1" stop-color="#98C334"/></linearGradient><polygon id="polygon236" fill="url(#SVGID_26_)" points="115.9 121.7 147.7 99.1 132 88.7 83 55.7 106.4 102.6"/><linearGradient id="SVGID_27_" x1="99.389" x2="97.248" y1="132.198" y2="75.115" gradientUnits="userSpaceOnUse"><stop id="stop238" offset="0" stop-color="#98C334"/><stop id="stop240" offset="1" stop-color="#05ADB0"/></linearGradient><polygon id="polygon243" fill="url(#SVGID_27_)" points="83 145 115.9 121.7 106.4 102.6 83 55.7 83 115.3"/><linearGradient id="SVGID_28_" x1="71.658" x2="71.658" y1="142.576" y2="57.581" gradientUnits="userSpaceOnUse"><stop id="stop245" offset="0" stop-color="#49AE48"/><stop id="stop247" offset=".503" stop-color="#2AB092"/><stop id="stop249" offset="1" stop-color="#10B2AE"/></linearGradient><polygon id="polygon252" fill="url(#SVGID_28_)" points="83 55.7 60.3 105.5 70 122.3 83 145 83 115.3"/></g></g></g></svg>