<?xml version="1.0" encoding="UTF-8" standalone="no"?>
<svg
	xmlns="http://www.w3.org/2000/svg"
	viewBox="0 0 750 640"
	version="1.1">
<path
	style="fill:#cb2426"
	d="m 487.87177,354.07347 -108.345,-57.733 c -12.503,5.687 -67.526,57.187 -67.526,93.401 0,36.213 18.516,51.5 18.516,51.5 -93.098,-39.626 14.637,-153.954 50.099,-193.034 63.169,-69.653 67.22,-111.508 67.22,-142.626 0,-31.164002 -24.788,-43.039002 -24.788,-43.039002 -5.184,-2.274 -10.238,0.365 -2.179,8.463 9.105,9.189 8.714,25.477 8.714,25.477 0,56.049002 -75.237,93.309002 -110.524,107.549002 -61.731,24.977 -179.617,61.782 -179.617,202.725 0,140.9423 76.238,182.29703 199.788,182.29703 114.357,0 179.66,-43.58403 179.66,-136.98503 0,-84.392 -31.018,-97.995 -31.018,-97.995 l 0,0 z m -117.363,-201.497 c -15.683,-15.741 -26.792,-34.484 -26.792,-56.049002 0,0 -0.393,-16.287 8.713,-25.477 8.059,-8.143 3.005,-10.782 -2.179,-8.462 0,0 -24.788,11.874 -24.788,43.038002 0,17.334 1.263,37.988 13.287,64.921 l 31.759,-17.971 0,0 z m -49.751,28.571 L 81.195667,52.352468 c 0,0 -20.4316,-7.325 -29.36248,11.464 -10.45547,22.111 7.79808,33.394 7.79808,33.394 l 200.833503,107.959002 60.293,-24.022 0,0 z m 100.416,54.003 -31.192,39.671 282.13301,150.035 c 0,0 18.558,3.73 26.35599,-13.057 8.713,-18.881 -4.792,-31.801 -4.792,-31.801 l -272.505,-144.848 z"/>
</svg>
