<svg xmlns="http://www.w3.org/2000/svg" xmlns:svg="http://www.w3.org/2000/svg" xmlns:xlink="http://www.w3.org/1999/xlink" id="svg2" width="3000" height="1475.31" version="1.1" viewBox="0 0 3000 1475.31"><title id="title4193">IMDb L</title><defs id="defs4"><linearGradient id="linearGradient4176"><stop style="stop-color:#fefec7;stop-opacity:1" id="stop4178" offset="0"/><stop style="stop-color:#e2b61e;stop-opacity:1" id="stop4180" offset="1"/></linearGradient><radialGradient id="radialGradient4212" cx="-1063.49" cy="278.768" r="65.023" fx="-1063.49" fy="278.768" gradientTransform="matrix(24.474951,-4.9898234e-7,2.9488944e-7,14.464249,27508.873,-3697.4588)" gradientUnits="userSpaceOnUse" xlink:href="#linearGradient4176"/></defs><metadata id="metadata7"/><g id="layer1" transform="translate(19.999725,402.9478)"><g id="g4240"><path id="rect4202" d="m 176.40042,-365.87683 2607.19958,0 c 88.2684,0 159.3292,71.06081 159.3292,159.32916 l 0,1082.50952 c 0,88.26836 -71.0608,159.32915 -159.3292,159.32915 l -2607.19958,0 c -88.268357,0 -159.329163,-71.06079 -159.329163,-159.32915 l 0,-1082.50952 c 0,-88.26835 71.060806,-159.32916 159.329163,-159.32916 z" style="color:#000;clip-rule:nonzero;display:inline;overflow:visible;visibility:visible;opacity:.98999999;isolation:auto;mix-blend-mode:normal;color-interpolation:sRGB;color-interpolation-filters:linearRGB;solid-color:#000;solid-opacity:1;fill:url(#radialGradient4212);fill-opacity:1;fill-rule:evenodd;stroke:none;stroke-width:34.14196396;stroke-linecap:butt;stroke-linejoin:miter;stroke-miterlimit:4;stroke-dasharray:none;stroke-dashoffset:0;stroke-opacity:1;color-rendering:auto;image-rendering:auto;shape-rendering:auto;text-rendering:auto;enable-background:accumulate"/><path id="rect4174" d="M 176.40039,-382.94727 C 78.96999,-382.94727 0,-303.97727 0,-206.54688 L 0,875.96094 c 0,97.4304 78.969993,176.40036 176.40039,176.40036 l 2607.19921,0 C 2881.03,1052.3613 2960,973.39134 2960,875.96094 l 0,-1082.50782 c 0,-97.43039 -78.97,-176.40039 -176.4004,-176.40039 l -2607.19921,0 z m 0,34.14063 2607.19921,0 c 79.1064,0 142.2578,63.15346 142.2578,142.25976 l 0,1082.50782 c 0,79.10632 -63.1514,142.25976 -142.2578,142.25976 l -2607.19921,0 c -79.106315,0 -142.257812,-63.15345 -142.257812,-142.25976 l 0,-1082.50782 c 0,-79.1063 63.151499,-142.25976 142.257812,-142.25976 z" style="color:#000;font-style:normal;font-variant:normal;font-weight:400;font-stretch:normal;font-size:medium;line-height:normal;font-family:sans-serif;text-indent:0;text-align:start;text-decoration:none;text-decoration-line:none;text-decoration-style:solid;text-decoration-color:#000;letter-spacing:normal;word-spacing:normal;text-transform:none;direction:ltr;block-progression:tb;writing-mode:lr-tb;baseline-shift:baseline;text-anchor:start;white-space:normal;clip-rule:nonzero;display:inline;overflow:visible;visibility:visible;opacity:.98999999;isolation:auto;mix-blend-mode:normal;color-interpolation:sRGB;color-interpolation-filters:linearRGB;solid-color:#000;solid-opacity:1;fill:#000;fill-opacity:1;fill-rule:evenodd;stroke:none;stroke-width:34.14196396;stroke-linecap:butt;stroke-linejoin:miter;stroke-miterlimit:4;stroke-dasharray:none;stroke-dashoffset:0;stroke-opacity:1;color-rendering:auto;image-rendering:auto;shape-rendering:auto;text-rendering:auto;enable-background:accumulate"/><g style="fill:#000" id="g4166" transform="matrix(1.4723109,0,0,1.4723109,72.127209,-1067.4057)"><rect style="clip-rule:evenodd;fill:#000;fill-rule:evenodd" id="rect4152" width="152.33" height="588.671" x="230.97" y="660.36"/><path style="clip-rule:evenodd;fill:#000;fill-rule:evenodd" id="path4154" d="m 707.46,660.36 -35.23,275.38 -21.68,-149.6 c -6.51,-48.28 -12.46,-90 -18.44,-125.78 l -197.3,0 0,588.671 133.35,0 0.53,-388.671 55.85,388.671 94.86,0 53.65,-397.351 0,397.351 132.82,0 0,-588.671 -198.41,0 z"/><path style="clip-rule:evenodd;fill:#000;fill-rule:evenodd" id="path4156" d="m 1143.88,766.6 c 5.93,3.23 9.75,8.63 11.33,16.26 2.23,7.62 2.76,24.93 2.76,51.5 l 0,228.22 c 0,39.021 -2.76,62.891 -7.63,71.58 -4.87,9.211 -18.42,13.551 -40.12,13.551 l 0,-386.561 c 16.3,0 27.63,1.64 33.66,5.45 z m -1.69,482.431 c 36.319,0 64,-2.121 81.899,-5.931 18.42,-3.81 33.61,-10.851 45.521,-21.17 12.439,-9.74 21.119,-23.82 25.989,-41.72 4.88,-17.891 8.16,-53.15 8.16,-105.721 l 0,-206.509 c 0,-55.85 -2.17,-93.28 -5.93,-112.23 -3.28,-18.95 -11.44,-36.32 -24.99,-51.46 -13.55,-15.77 -33.56,-26.57 -59.61,-33.66 -25.51,-6.46 -68.289,-10.271 -141.449,-10.271 l -113.87,0 0,588.671 184.28,0 z"/><path style="clip-rule:evenodd;fill:#000;fill-rule:evenodd" id="path4158" d="m 1553.1,1106.52 c 0,28.16 -1.59,46.06 -4.35,53.63 -2.64,7.57 -15.14,11.381 -24.351,11.381 -8.68,0 -15.189,-3.811 -17.89,-10.801 -3.28,-7.09 -4.87,-23.87 -4.87,-49.87 l 0,-155.64 c 0,-26.57 1.59,-43.35 4.34,-49.86 2.7,-6.46 8.68,-9.75 17.36,-9.75 9.22,0 21.66,3.29 24.89,11.39 3.28,7.57 4.87,23.87 4.87,48.22 l 0,151.3 z m -197.83,-446.16 0,588.671 137.16,0 9.21,-37.371 c 12.439,15.141 25.99,26.57 41.189,34.141 14.611,7.04 36.841,10.85 54.201,10.85 24.359,0 45,-5.98 62.369,-18.949 17.311,-12.49 28.69,-27.681 33.561,-44.99 4.34,-17.37 7.09,-43.41 7.09,-78.67 l 0,-165.282 c 0,-35.25 -1.109,-58.55 -2.75,-69.4 -1.59,-10.85 -5.93,-22.229 -13.55,-33.61 -8.16,-11.39 -19.48,-20.07 -34.15,-26.58 -14.659,-5.93 -31.97,-9.21 -52.569,-9.21 -17.36,0 -39.59,3.81 -54.73,10.27 -14.67,7.09 -28.221,17.89 -40.66,32.03 l 0,-191.9 -146.371,0 z"/></g></g></g></svg>