<svg xmlns="http://www.w3.org/2000/svg" xmlns:svg="http://www.w3.org/2000/svg" id="svg18" version="1.1" viewBox="0 0 6.356 24.445"><metadata id="metadata22"/><title id="title2">Imgur Logo</title><defs id="defs5"><polyline id="path-1" points="0 .237 90.629 .237 90.629 32.538 0 32.538"/></defs><g id="g7" transform="translate(-0.13068777,-1.2474147)"><path id="Fill-1" d="m 3.3267768,8.7771103 c 1.8486583,0 2.7203129,1.1465419 2.7203129,3.5321027 v 9.819958 c 0,2.38556 -0.8364421,3.562928 -2.7203129,3.562928 -1.8832936,0 -2.75552551,-1.177368 -2.75552551,-3.562928 v -9.819958 c 0,-2.3855608 0.87223191,-3.5321027 2.75552551,-3.5321027" mask="url(#mask-2)" style="opacity:1;fill:#000008;fill-opacity:1;stroke:none"/><path style="opacity:1;fill:#000008;fill-opacity:1;stroke:none;stroke-width:.11328647" id="path820" d="M 2.2673199,6.6880893 C 1.5941761,6.447973 0.97162226,5.9857551 0.6338048,5.4752784 0.20981858,4.834592 0.13222212,3.6979488 0.46759187,3.0405698 0.76841715,2.4509035 1.316399,1.9253977 1.9549457,1.6142214 2.5915917,1.3039714 3.9396647,1.2720607 4.5825429,1.5520226 5.169169,1.8074878 5.9264126,2.5260181 6.1679615,3.0563882 6.6159214,4.039976 6.2615004,5.4781994 5.4113624,6.1266313 4.5447444,6.787633 3.2130601,7.025443 2.2673199,6.6880893 Z"/><path style="opacity:1;fill:#38b168;fill-opacity:1;stroke:none;stroke-width:.01104854" id="path846" d="M 3.2726863,1.2476021 C 2.7999476,1.244376 2.3297719,1.3572376 1.8977037,1.5455891 1.1248941,1.8894135 0.47204254,2.5503714 0.23237312,3.3721593 0.12050168,3.7407571 0.10658348,4.1348479 0.1631136,4.5143324 0.28192143,5.2538437 0.73637357,5.9179234 1.3525703,6.3357585 1.9304348,6.7374645 2.6397373,6.9325788 3.3402939,6.9283014 3.92944,6.9277634 4.5187037,6.7801446 5.0312389,6.4877191 5.6838819,6.1204481 6.2082998,5.5010383 6.3993471,4.770435 6.496263,4.4292577 6.5039532,4.0685656 6.4649169,3.7179874 6.3681347,3.0584746 6.0088349,2.4512686 5.5016009,2.0232014 4.9628926,1.5634704 4.2693839,1.295362 3.5642169,1.2515581 c -0.09712,-0.00384 -0.1943444,-0.00455 -0.2915306,-0.00396 z"/></g><g id="g10" transform="translate(-0.13068777,-1.2474147)" style="display:inline"><path id="Fill-4" d="m 3.3266902,6.905196 c -1.7790991,0 -3.17432381,-1.2390187 -3.17432381,-2.8188318 0,-1.5489875 1.43043721,-2.8191172 3.17432381,-2.8191172 1.7438865,0 3.1391112,1.2701297 3.1391112,2.8191172 0,1.5798131 -1.3952247,2.8188318 -3.1391112,2.8188318" style="fill:#1bb76e;fill-opacity:0"/></g></svg>