<?xml version="1.0" encoding="UTF-8" standalone="no"?>
<!-- Generator: Adobe Illustrator 16.0.3, SVG Export Plug-In . SVG Version: 6.00 Build 0)  -->

<svg
   xmlns:dc="http://purl.org/dc/elements/1.1/"
   xmlns:cc="http://creativecommons.org/ns#"
   xmlns:rdf="http://www.w3.org/1999/02/22-rdf-syntax-ns#"
   xmlns:svg="http://www.w3.org/2000/svg"
   xmlns="http://www.w3.org/2000/svg"
   xmlns:xlink="http://www.w3.org/1999/xlink"
   xmlns:sodipodi="http://sodipodi.sourceforge.net/DTD/sodipodi-0.dtd"
   xmlns:inkscape="http://www.inkscape.org/namespaces/inkscape"
   version="1.1"
   id="Layer_1"
   x="0px"
   y="0px"
   width="1000"
   height="1000"
   viewBox="0 0 1000 1000"
   enable-background="new 0 0 250 250"
   xml:space="preserve"
   inkscape:version="0.91 r13725"
   sodipodi:docname="Instagram Icon 2.svg"><metadata
   id="metadata5035"><rdf:RDF><cc:Work
       rdf:about=""><dc:format>image/svg+xml</dc:format><dc:type
         rdf:resource="http://purl.org/dc/dcmitype/StillImage" /><dc:title></dc:title></cc:Work></rdf:RDF></metadata><defs
   id="defs5033"><linearGradient
     inkscape:collect="always"
     id="linearGradient6172"><stop
       style="stop-color:#fed576;stop-opacity:1"
       offset="0"
       id="stop6174" /><stop
       id="stop6180"
       offset="0.26335424"
       style="stop-color:#f47133;stop-opacity:1" /><stop
       style="stop-color:#bc3081;stop-opacity:1"
       offset="0.60907197"
       id="stop6182" /><stop
       style="stop-color:#4c63d2;stop-opacity:1"
       offset="1"
       id="stop6176" /></linearGradient><radialGradient
     inkscape:collect="always"
     xlink:href="#linearGradient6172"
     id="radialGradient6178"
     cx="673.84521"
     cy="1118.7769"
     fx="673.84521"
     fy="1118.7769"
     r="646.02502"
     gradientTransform="matrix(2.3933999,-0.40184959,0.2443697,1.4527053,-1639.4574,-431.2223)"
     gradientUnits="userSpaceOnUse" /></defs><sodipodi:namedview
   pagecolor="#ffffff"
   bordercolor="#666666"
   borderopacity="1"
   objecttolerance="10"
   gridtolerance="10"
   guidetolerance="10"
   inkscape:pageopacity="0"
   inkscape:pageshadow="2"
   inkscape:window-width="1366"
   inkscape:window-height="705"
   id="namedview5031"
   showgrid="false"
   inkscape:zoom="0.1668772"
   inkscape:cx="768.9624"
   inkscape:cy="561.96935"
   inkscape:window-x="-8"
   inkscape:window-y="-8"
   inkscape:window-maximized="1"
   inkscape:current-layer="Layer_1"
   fit-margin-top="0"
   fit-margin-left="0"
   fit-margin-right="0"
   fit-margin-bottom="0" />


<path
   style="fill:url(#radialGradient6178);fill-opacity:1;stroke:none;stroke-width:13.30000019;stroke-miterlimit:4;stroke-dasharray:none"
   d="M 210.67188 0 C 93.959935 0 0 93.959935 0 210.67188 L 0 789.32812 C 0 906.04006 93.959935 1000 210.67188 1000 L 789.32812 1000 C 906.04006 1000 1000 906.04006 1000 789.32812 L 1000 210.67188 C 1000 93.959935 906.04006 0 789.32812 0 L 210.67188 0 z "
   id="rect6158" /><path
   style="color:#000000;font-style:normal;font-variant:normal;font-weight:normal;font-stretch:normal;font-size:medium;line-height:normal;font-family:sans-serif;text-indent:0;text-align:start;text-decoration:none;text-decoration-line:none;text-decoration-style:solid;text-decoration-color:#000000;letter-spacing:normal;word-spacing:normal;text-transform:none;direction:ltr;block-progression:tb;writing-mode:lr-tb;baseline-shift:baseline;text-anchor:start;white-space:normal;clip-rule:nonzero;display:inline;overflow:visible;visibility:visible;opacity:1;isolation:auto;mix-blend-mode:normal;color-interpolation:sRGB;color-interpolation-filters:linearRGB;solid-color:#000000;solid-opacity:1;fill:#ffffff;fill-opacity:1;fill-rule:nonzero;stroke:none;stroke-width:83.73300171;stroke-linecap:butt;stroke-linejoin:miter;stroke-miterlimit:4;stroke-dasharray:none;stroke-dashoffset:0;stroke-opacity:1;color-rendering:auto;image-rendering:auto;shape-rendering:auto;text-rendering:auto;enable-background:accumulate"
   d="m 499.77088,310.03394 c -104.3883,0 -189.7132,85.24312 -189.7132,189.52942 0,104.28631 85.3249,189.52789 189.7132,189.52789 104.3882,0 189.71458,-85.24158 189.71458,-189.52789 0,-104.2863 -85.32638,-189.52942 -189.71458,-189.52942 z m 0,65.41748 c 68.9999,0 124.2347,55.17928 124.2347,124.11194 0,68.93265 -55.2348,124.11194 -124.2347,124.11194 -69,0 -124.2333,-55.17929 -124.2333,-124.11194 0,-68.93266 55.2333,-124.11194 124.2333,-124.11194 z"
   id="path6165"
   inkscape:connector-curvature="0" /><path
   style="fill:#ffffff;fill-opacity:1;stroke:none;stroke-width:83.73300171;stroke-miterlimit:4;stroke-dasharray:none"
   d="m 697.17586,256.12006 a 45.17538,45.474062 0 0 0 -45.17508,45.47425 45.17538,45.474062 0 0 0 45.17508,45.47424 45.17538,45.474062 0 0 0 45.1749,-45.47424 45.17538,45.474062 0 0 0 -45.1749,-45.47425 z"
   id="path6167"
   inkscape:connector-curvature="0" /><path
   style="fill:#ffffff;fill-opacity:1;stroke:none;stroke-width:83.73300171;stroke-miterlimit:4;stroke-dasharray:none"
   d="m 375.70038,868.19343 c -80.9185,-2.9278 -116.8292,-11.6624 -156.2509,-38.0053 -42.9854,-28.7244 -70.0696,-70.45428 -82.4471,-127.02994 -5.9504,-27.19812 -8.4751,-87.84648 -8.4779,-203.649 0,-154.22269 3.2739,-197.53814 18.0453,-238.49236 10.0712,-27.92274 20.2643,-44.25377 41.5832,-66.6231 17.0631,-17.90396 30.8088,-28.24609 50.5409,-38.02664 51.2896,-25.42258 90.7158,-29.06435 293.9929,-27.15595 160.28348,1.50477 178.95798,3.67881 225.37988,26.23805 56.4658,27.44024 91.5484,75.89242 105.0565,145.09258 6.0282,30.88186 9.1305,180.08916 5.9997,288.57148 -3.2447,112.43113 -6.2196,130.40264 -28.9535,174.90556 -7.5546,14.78878 -14.5596,23.71742 -33.3146,42.46292 -21.3475,21.3368 -26.221,24.9271 -48.2057,35.5132 -28.6493,13.7953 -56.4832,21.0266 -92.0478,23.9144 -37.51148,3.0459 -228.41858,4.5448 -290.90088,2.2841 z m 296.39968,-67.7393 c 58.1775,-8.4825 94.485,-31.98821 113.749,-73.64159 11.249,-24.32327 14.5741,-40.9668 17.3522,-86.85577 3.0542,-50.44774 3.1365,-231.20149 0.128,-282.06556 -3.7492,-63.40064 -13.9797,-93.65991 -40.6453,-120.21865 -25.2811,-25.1799 -55.3707,-37.16656 -103.4711,-41.21946 -36.92288,-3.11108 -282.55958,-3.06037 -318.65898,0.0658 -51.7858,4.48457 -76.8092,14.36692 -103.1467,40.73518 -21.6953,21.72075 -29.9606,38.37542 -37.7969,76.16209 -4.7704,23.00348 -7.3893,289.49314 -3.3241,338.25759 5.5188,66.20032 22.5727,101.22371 61.2574,125.80338 25.6076,16.27069 49.2076,22.04889 102.9265,25.20049 45.2267,2.6534 290.168,0.9057 311.62968,-2.2235 z"
   id="path6184"
   inkscape:connector-curvature="0" /></svg>