<svg xmlns="http://www.w3.org/2000/svg" height="210" width="210"><rect width="210" height="210" rx="0" fill="#ff8080"/><path d="M40.104 27.006c-7.658 4.547-22.747 21.88-22.89 26.426v7.525c0 9.538 8.916 17.92 17.01 17.92 9.72 0 17.82-8.054 17.82-17.615 0 9.56 7.82 17.616 17.54 17.616 9.722 0 17.292-8.055 17.292-17.616 0 9.56 8.315 17.616 18.036 17.616h.176c9.72 0 18.037-8.055 18.037-17.616 0 9.56 7.57 17.616 17.29 17.616 9.72 0 17.542-8.055 17.542-17.616 0 9.56 8.1 17.616 17.818 17.616 8.095 0 17.01-8.382 17.01-17.92V53.43c-.142-4.546-15.23-21.88-22.888-26.426-23.803-.836-40.304-.98-64.898-.977-24.594 0-58.122.385-64.897.976zm46.65 47.38a20.053 20.053 0 0 1-3.422 4.404 20.322 20.322 0 0 1-14.243 5.812 20.38 20.38 0 0 1-14.275-5.815c-1.33-1.302-2.34-2.694-3.265-4.316l-.004.004c-.924 1.624-2.212 3.016-3.544 4.32a20.393 20.393 0 0 1-14.274 5.81c-.668 0-1.364-.185-1.926-.378-.78 8.137-1.11 15.913-1.228 21.583v.03c-.015 2.88-.03 5.248-.044 8.538.15 17.072-1.69 55.335 7.527 64.736 14.285 3.33 40.57 4.848 66.942 4.857h.003c26.37-.01 52.656-1.525 66.94-4.856 9.22-9.402 7.378-47.664 7.528-64.737-.015-3.29-.028-5.656-.042-8.536l-.002-.032c-.116-5.67-.446-13.447-1.227-21.584-.563.194-1.258.378-1.927.378A20.393 20.393 0 0 1 162 78.792c-1.333-1.304-2.62-2.695-3.546-4.32l-.004-.002c-.926 1.62-1.935 3.014-3.265 4.316a20.378 20.378 0 0 1-14.273 5.814 20.327 20.327 0 0 1-14.243-5.813 20.053 20.053 0 0 1-3.42-4.404 20.028 20.028 0 0 1-3.39 4.404 20.386 20.386 0 0 1-14.275 5.813c-.193 0-.386-.008-.58-.014h-.003c-.193.005-.387.014-.582.014a20.386 20.386 0 0 1-14.276-5.812 20.03 20.03 0 0 1-3.39-4.404zM72.093 93.34v.008h.01c5.805.012 10.96 0 17.35 6.973A147.91 147.91 0 0 1 105 99.54h.004c5.26-.01 10.514.254 15.543.78 6.39-6.973 11.547-6.96 17.352-6.972h.01v-.007c2.742 0 13.713 0 21.358 21.47l8.21 29.456c6.086 21.913-1.947 22.45-11.968 22.468-14.86-.553-23.088-11.345-23.088-22.135-8.226 1.347-17.822 2.02-27.418 2.022h-.004c-9.597 0-19.193-.675-27.418-2.023 0 10.79-8.23 21.58-23.088 22.134-10.02-.02-18.053-.554-11.968-22.468l8.214-29.454c7.644-21.47 18.615-21.47 21.358-21.47zm32.904 16.874v.004c-.014.015-15.644 14.368-18.454 19.473l10.235-.41v8.927c0 .418 4.106.248 8.218.057h.004c4.11.19 8.218.36 8.218-.057v-8.925l10.235.41c-2.81-5.106-18.454-19.474-18.454-19.474v-.004z" color="#000" fill="#fff"/></svg>