<?xml version="1.0" encoding="UTF-8" standalone="no"?>
<svg
   xmlns:dc="http://purl.org/dc/elements/1.1/"
   xmlns:cc="http://creativecommons.org/ns#"
   xmlns:rdf="http://www.w3.org/1999/02/22-rdf-syntax-ns#"
   xmlns:svg="http://www.w3.org/2000/svg"
   xmlns="http://www.w3.org/2000/svg"
   height="117"
   width="117.04378"
   xml:space="preserve"
   viewBox="0 0 117.04378 117"
   y="0px"
   x="0px"
   id="Layer_1"
   version="1.1"><metadata
     id="metadata39"><rdf:RDF><cc:Work
         rdf:about=""><dc:format>image/svg+xml</dc:format><dc:type
           rdf:resource="http://purl.org/dc/dcmitype/StillImage" /><dc:title></dc:title></cc:Work></rdf:RDF></metadata><defs
     id="defs37" /><style
     id="style2"
     type="text/css">
	.st0{fill:#AD29B6;}
</style><g
     transform="translate(-383.7,-52.3)"
     id="g32"><path
       style="fill:#ad29b6"
       id="path6"
       d="M 499.5,98.2 H 458.6 L 434.7,122 h 32.8 c -4.3,9.6 -13.9,16.3 -25.1,16.3 -15.2,0 -27.5,-12.3 -27.5,-27.5 0,-15.2 12.3,-27.5 27.5,-27.5 5.5,0 10.6,1.6 14.9,4.4 l 22.1,-22.1 c -10.1,-8.3 -23,-13.3 -37.2,-13.3 -32.3,0 -58.5,26.2 -58.5,58.5 0,32.3 26.2,58.5 58.5,58.5 32.3,0 58.5,-26.2 58.5,-58.5 0.2,-4.3 -0.3,-8.6 -1.2,-12.6"
       class="st0" /></g></svg>