<?xml version="1.0" encoding="UTF-8" standalone="no"?>
<svg
   xmlns:dc="http://purl.org/dc/elements/1.1/"
   xmlns:cc="http://creativecommons.org/ns#"
   xmlns:rdf="http://www.w3.org/1999/02/22-rdf-syntax-ns#"
   xmlns:svg="http://www.w3.org/2000/svg"
   xmlns="http://www.w3.org/2000/svg"
   version="1.1"
   id="svg4238"
   viewBox="0 0 749.99997 749.99997"
   height="211.66666mm"
   width="211.66666mm">
  <defs
     id="defs4240" />
  <metadata
     id="metadata4243">
    <rdf:RDF>
      <cc:Work
         rdf:about="">
        <dc:format>image/svg+xml</dc:format>
        <dc:type
           rdf:resource="http://purl.org/dc/dcmitype/StillImage" />
        <dc:title></dc:title>
      </cc:Work>
    </rdf:RDF>
  </metadata>
  <circle
     r="375"
     cy="375"
     cx="375"
     id="path819"
     style="opacity:1;fill:#6e92a3;fill-opacity:1;stroke-width:1.26499057" />
  <g
     transform="translate(23.329948,102.22535)"
     id="layer1">
    <g
       transform="matrix(1.1421528,0,0,-1.1421528,283.85403,392.57196)"
       id="g40">
      <g
         id="g4184">
        <path
           transform="matrix(1.0944245,0,0,1.0944245,246.85536,82.861446)"
           d="M 0,0 C -19.946,-2.492 -36.151,-0.622 -36.151,-0.622 V 121.51 h 38.02 c 0,0 42.385,-11.839 42.385,-56.704 C 44.254,23.68 23.063,7.478 0,0 M 105.063,85.739 C 88.435,173.56 0.624,184.473 0.624,184.473 h -393.333 c -12.99,0 -14.588,-17.148 -14.588,-17.148 0,0 -1.752,-157.43 -0.481,-254.112 3.524,-52.093 55.597,-57.435 55.597,-57.435 0,0 177.701,0.52 257.2,1.039 52.41,9.181 57.674,55.155 57.155,80.3 93.527,-5.196 159.515,60.8 142.889,148.622"
           style="fill:#ffffff;fill-opacity:1;fill-rule:nonzero;stroke:none"
           id="path38" />
        <path
           d="m 0,0 c 4.445,-2.238 7.285,0.543 7.285,0.543 0,0 65.045,59.367 94.348,93.557 26.063,30.586 27.762,82.129 -16.997,101.388 -44.758,19.258 -81.584,-22.657 -81.584,-22.657 -31.935,35.123 -80.268,33.345 -102.623,9.575 -22.354,-23.77 -14.548,-64.568 2.129,-87.274 15.655,-21.314 84.465,-82.644 94.894,-93.016 0,0 0.76,-0.795 2.548,-2.116"
           style="fill:#ff5f5f;fill-opacity:1;fill-rule:nonzero;stroke:none"
           id="path42" />
      </g>
    </g>
  </g>
</svg>
