<svg xmlns="http://www.w3.org/2000/svg" xmlns:svg="http://www.w3.org/2000/svg" id="svg4238" width="800" height="800" version="1.1" viewBox="0 0 750 750"><metadata id="metadata4243"/><circle id="path819" cx="375" cy="375" r="375" fill="#6e92a3" fill-opacity="1" stroke-width="1.265" opacity="1"/><g id="layer1" transform="translate(23.329948,102.22535)"><g id="g40" transform="matrix(1.1421528,0,0,-1.1421528,283.85403,392.57196)"><g id="g4184"><path id="path38" fill="#fff" fill-opacity="1" fill-rule="nonzero" stroke="none" d="M 0,0 C -19.946,-2.492 -36.151,-0.622 -36.151,-0.622 V 121.51 h 38.02 c 0,0 42.385,-11.839 42.385,-56.704 C 44.254,23.68 23.063,7.478 0,0 M 105.063,85.739 C 88.435,173.56 0.624,184.473 0.624,184.473 h -393.333 c -12.99,0 -14.588,-17.148 -14.588,-17.148 0,0 -1.752,-157.43 -0.481,-254.112 3.524,-52.093 55.597,-57.435 55.597,-57.435 0,0 177.701,0.52 257.2,1.039 52.41,9.181 57.674,55.155 57.155,80.3 93.527,-5.196 159.515,60.8 142.889,148.622" transform="matrix(1.0944245,0,0,1.0944245,246.85536,82.861446)"/><path id="path42" fill="#ff5f5f" fill-opacity="1" fill-rule="nonzero" stroke="none" d="m 0,0 c 4.445,-2.238 7.285,0.543 7.285,0.543 0,0 65.045,59.367 94.348,93.557 26.063,30.586 27.762,82.129 -16.997,101.388 -44.758,19.258 -81.584,-22.657 -81.584,-22.657 -31.935,35.123 -80.268,33.345 -102.623,9.575 -22.354,-23.77 -14.548,-64.568 2.129,-87.274 15.655,-21.314 84.465,-82.644 94.894,-93.016 0,0 0.76,-0.795 2.548,-2.116"/></g></g></g></svg>