<svg xmlns="http://www.w3.org/2000/svg" viewBox="0 0 88 35"><g fill="none" fill-rule="nonzero"><g transform="translate(0 1)"><circle cx="16.28" cy="16.28" r="16.28" fill="#29ABE0"/><path fill="#FFF" d="M22.26 8.8h1.6c3.1 0 5.62 2.51 5.62 5.61v.33c0 3.1-2.51 5.62-5.61 5.62h-1.61v1.69a2.6 2.6 0 01-2.6 2.59H7.44a2.6 2.6 0 01-2.59-2.6V10.1c0-.72.58-1.3 1.3-1.3h16.12zm0 3v5.56h1.46a2.78 2.78 0 000-5.56h-1.46z"/></g><path fill="#FF5E5B" d="M13.2 15.08c.4-1.17 1.35-1.76 2.85-1.76 2.24 0 3.07 2.8 1.9 4.62-.79 1.22-2.37 2.76-4.75 4.62-2.38-1.86-3.96-3.4-4.75-4.62-1.17-1.83-.34-4.62 1.9-4.62 1.5 0 2.45.59 2.85 1.76z"/><path fill="#434B57" d="M50.82 22.68c.08.12.16.27.22.44.06.17.09.33.09.48 0 .4-.15.73-.46 1-.3.27-.66.4-1.06.4a1.23 1.23 0 01-1-.51l-4.83-6.37-2.11 2.03v3.5c0 .4-.13.72-.4.97-.25.25-.6.38-1 .38a1.34 1.34 0 01-1.39-1.36V10.77c0-.38.14-.7.4-.96.27-.26.61-.4 1.03-.4.4 0 .73.13.98.39.25.25.38.57.38.97v6.06l7.12-7.01c.34-.34.7-.51 1.09-.51.34 0 .63.14.87.42.24.28.35.58.35.89 0 .31-.13.6-.4.87l-4.85 4.63 4.97 6.56zm13.4-3.62c0 1.18-.27 2.25-.8 3.2a5.66 5.66 0 01-2.2 2.18c-.92.52-1.94.78-3.06.78a6.14 6.14 0 01-3.07-.78 5.68 5.68 0 01-2.18-2.19c-.54-.94-.8-2-.8-3.2 0-1.18.26-2.25.8-3.19a5.76 5.76 0 012.18-2.2 6.07 6.07 0 013.07-.8c1.12 0 2.14.27 3.06.8a5.74 5.74 0 012.2 2.2c.53.94.8 2 .8 3.2zm-2.67 0c0-.73-.16-1.38-.46-1.95a3.21 3.21 0 00-2.93-1.8 3.21 3.21 0 00-2.93 1.8c-.3.57-.45 1.22-.45 1.95 0 .72.15 1.37.45 1.93.3.57.72 1 1.23 1.32.51.3 1.08.46 1.7.46A3.21 3.21 0 0061.1 21c.3-.56.46-1.2.46-1.93zm5.92.44c-.39 0-.71-.12-.97-.38a1.28 1.28 0 01-.4-.95 1.33 1.33 0 011.36-1.31h3.88a1.31 1.31 0 011.36 1.36c0 .36-.13.67-.4.91-.25.25-.57.37-.96.37h-3.87zm13.51-8.61c-.5 0-.86.14-1.07.43-.2.29-.31.6-.31.95v1.04h2.03c.35 0 .65.12.89.35.23.23.35.52.35.88 0 .35-.12.65-.35.88-.24.23-.54.34-.9.34H79.6v7.88c0 .39-.13.71-.38.97s-.57.39-.96.39c-.38 0-.7-.13-.95-.39a1.33 1.33 0 01-.38-.97v-7.88h-1.2c-.36 0-.66-.11-.9-.34a1.17 1.17 0 01-.35-.88c0-.36.12-.65.36-.88.23-.23.53-.35.89-.35h1.2V12.3a3.5 3.5 0 011.15-2.72c.76-.7 1.86-1.04 3.3-1.04.55 0 1.03.1 1.44.33.4.22.6.56.6 1.02 0 .36-.1.65-.3.87a1 1 0 01-.76.34l-.23-.03a17.7 17.7 0 00-.26-.04 3.8 3.8 0 00-.89-.13zm6.08 12.75c0 .39-.13.71-.38.97s-.57.39-.96.39c-.38 0-.7-.13-.96-.39a1.33 1.33 0 01-.37-.97v-9.2c0-.38.12-.7.37-.96.26-.26.58-.39.96-.39.39 0 .7.13.96.39.25.26.38.58.38.97v9.2zm-1.36-12c-.5 0-.86-.08-1.07-.24-.2-.17-.31-.45-.31-.87v-.42c0-.42.11-.7.33-.87.23-.16.58-.25 1.07-.25.52 0 .89.09 1.1.25.2.16.3.45.3.87v.42c0 .43-.1.72-.32.88-.21.15-.58.23-1.1.23z"/></g></svg>