<svg xmlns="http://www.w3.org/2000/svg" viewBox="0 0 32.56 32.56"><g><circle cx="16.28" cy="16.28" r="16.28" fill="#29abe0"/><path fill="#fff" d="M22.258 8.8h1.6075c3.1008 0 5.6145 2.5137 5.6145 5.6145v.33c0 3.1007-2.5137 5.6144-5.6145 5.6144H22.258v1.6898c0 1.4311-1.1601 2.5913-2.5913 2.5913H7.4313c-1.4311 0-2.5913-1.1602-2.5913-2.5913v-11.953C4.84 9.38 5.42 8.8 6.1356 8.8zm0 2.9968v5.5654h1.4655c1.5368 0 2.7827-1.2459 2.7827-2.7827 0-1.5369-1.2459-2.7827-2.7827-2.7827z"/></g><path fill="#ff5e5b" d="M13.2 14.0768c.4003-1.1712 1.349-1.7568 2.846-1.7568 2.2454 0 3.078 2.7937 1.9009 4.62-.7847 1.2176-2.367 2.7576-4.7469 4.62-2.3799-1.8624-3.9622-3.4024-4.7469-4.62-1.177-1.8263-.3445-4.62 1.901-4.62 1.497 0 2.4456.5856 2.8459 1.7568z"/></svg>