<svg xmlns="http://www.w3.org/2000/svg" xmlns:svg="http://www.w3.org/2000/svg" id="logo_white" version="1.1" viewBox="0 0 99.929 56.298"><metadata id="metadata9"/><path style="fill:#4e7584;fill-opacity:1" id="path2" d="M99.93 26.805c0 11.985-14.666 22.138-34.897 25.568-9.257 1.417-9.257 1.417-16.898 1.22-8.093-.157-15.694-1.345-22.362-3.33-.463-.136-12.236 6.036-12.236 6.036s3.595-9.278 2.83-9.653C6.313 41.743 0 34.67 0 26.805 0 12 22.37 0 49.964 0 64.646 0 77.846 3.396 86.99 8.803c1.994-4.966 9.32-3.164 6.964 5.28 3.813 3.784 5.975 8.115 5.975 12.722zM15.374 13.27c0 2.945-.222 6.522-.663 10.73-.292 2.775-.613 5.46-.964 8.055-.35 2.596-.525 3.983-.525 4.168l4.193-.243c.15-2.99.49-6.982 1.02-11.98.238-2.21.518-4.46.84-6.742.325-2.284.487-3.7.487-4.25l-4.388.262zm19.005 7.704c-.948-.69-2.26-1.036-3.934-1.036-2.418 0-4.508.85-6.273 2.55-1.764 1.7-2.646 3.96-2.646 6.776 0 2.18.526 3.93 1.578 5.252 1.052 1.32 2.68 1.982 4.88 1.982 2.47 0 4.51-.56 6.12-1.684l.5-3.205c-1.975 1.11-3.826 1.667-5.55 1.667-1.32 0-2.24-.354-2.77-1.06-.53-.708-.793-1.773-.793-3.197 6.92-.13 10.377-1.804 10.377-5.02 0-1.304-.497-2.312-1.49-3.026zm-8.742 5.697c.25-1.26.783-2.228 1.604-2.902.82-.675 1.688-1.013 2.604-1.013 1.61 0 2.414.522 2.414 1.57 0 1.48-2.208 2.26-6.622 2.346zm21.19-6.553c-1.575 0-2.912.777-4.013 2.332h-.242c0-.714-.033-1.425-.1-2.14l-4.013.407c.172 1.628.258 3.012.258 4.143 0 1.966-.377 5.742-1.133 11.333l4.063-.162c.184-2.644.448-5.594.794-8.855.227-2.145 1.316-3.22 3.27-3.22.787 0 1.542.107 2.266.322l1.278-3.805c-.873-.237-1.682-.355-2.427-.355zm13.84.014c-2.47 0-4.337 1.13-5.6 3.386h-.227c0-1.22-.036-2.288-.11-3.206l-4.018.406c.173 1.628.26 3.012.26 4.143 0 1.965-.377 5.74-1.132 11.332l4.062-.162c.118-1.846.297-3.928.534-6.248.184-1.847.718-3.41 1.602-4.696.885-1.283 1.798-1.925 2.735-1.925.758 0 1.296.217 1.622.648.323.43.484 1.208.484 2.33 0 1.06-.18 2.868-.535 5.43-.357 2.565-.536 4.105-.536 4.625l4.178-.16c0-1.21.144-3.12.436-5.733.29-2.612.436-4.393.436-5.343 0-3.216-1.396-4.826-4.192-4.826zm18.1.52c0 1.156-.153 3.23-.455 6.233-.18 1.845-.714 3.408-1.6 4.686-.888 1.28-1.796 1.918-2.737 1.918-.744 0-1.268-.227-1.58-.68-.305-.453-.46-1.246-.46-2.38 0-1.057.185-2.876.55-5.454.366-2.58.553-4.13.553-4.646l-4.21.322c0 1.208-.144 3.118-.43 5.724-.286 2.607-.428 4.385-.428 5.333 0 3.216 1.39 4.824 4.175 4.824 2.472 0 4.318-1.127 5.537-3.382h.23c0 1.263.028 2.33.094 3.204l3.982-.452c-.174-1.305-.26-2.527-.26-3.66 0-1.963.378-5.934 1.132-11.913l-4.093.323zm9.658 9.99c-.928 0-1.705.312-2.324.938-.62.626-.93 1.397-.93 2.316 0 .646.185 1.19.557 1.635.372.44.908.663 1.61.663.916 0 1.688-.325 2.314-.97.625-.65.94-1.434.94-2.35.002-1.49-.723-2.234-2.168-2.234zM91.24 7.2c-2.917 0-4.374 2.548-4.374 7.642 0 3.182.167 7.35.502 12.493h2.44c3-7.926 4.498-13.357 4.498-16.29 0-2.564-1.02-3.845-3.066-3.845z"/></svg>