<svg xmlns="http://www.w3.org/2000/svg" xmlns:svg="http://www.w3.org/2000/svg" id="svg10" width="48.391" height="30.003" preserveAspectRatio="xMidYMid" version="1.1" viewBox="0 0 48.391 30.003"><metadata id="metadata14"/><defs id="defs4"><style id="style2">.symbol{display:none}</style></defs><path id="path6" d="m 23.096,29.976 c -0.135,0.078 -0.303,-0.02 -0.303,-0.177 v -3.162 c 0,-0.149 0.079,-0.286 0.208,-0.36 L 42.207,15.169 23.001,4.061 C 22.872,3.987 22.793,3.85 22.793,3.701 V 0.536 c 0,-0.157 0.168,-0.254 0.303,-0.176 l 25.14,14.541 c 0.207,0.119 0.207,0.417 0,0.536 z M 22.793,16.739 c 0,0.132 -0.07,0.255 -0.186,0.321 L 0.463,29.869 C 0.257,29.988 0,29.839 0,29.601 V 0.116 C 0,0.051 0.05,0 0.113,0 H 3.152 C 3.215,0 3.267,0.051 3.267,0.116 V 24.495 L 22.535,13.346 c 0.115,-0.066 0.258,0.017 0.258,0.148 z" class="full-logo"/><path style="display:none" id="path8" d="m 23.096,29.976 c -0.135,0.078 -0.303,-0.02 -0.303,-0.177 v -3.162 c 0,-0.149 0.079,-0.286 0.208,-0.36 L 42.207,15.169 23.001,4.061 C 22.872,3.987 22.793,3.85 22.793,3.701 V 0.536 c 0,-0.157 0.168,-0.254 0.303,-0.176 l 25.14,14.541 c 0.207,0.119 0.207,0.417 0,0.536 z M 22.793,16.739 c 0,0.132 -0.07,0.255 -0.186,0.321 L 0.463,29.869 C 0.257,29.988 0,29.839 0,29.601 V 0.116 C 0,0.051 0.05,0 0.113,0 H 3.152 C 3.215,0 3.267,0.051 3.267,0.116 V 24.495 L 22.535,13.346 c 0.115,-0.066 0.258,0.017 0.258,0.148 z" class="symbol"/></svg>