<svg xmlns="http://www.w3.org/2000/svg" xmlns:svg="http://www.w3.org/2000/svg" id="svg8" width="192.005" height="192" version="1.1" viewBox="0 0 50.801 50.8"><metadata id="metadata5"/><g id="layer1" transform="translate(-139.64375,-81.100001)"><g id="g10" transform="matrix(0.35277777,0,0,-0.35277777,-10.035269,131.9)"><g id="g12" transform="scale(0.1)"><path id="path26" d="M 5576.32,1440 H 4349.16 c -58.64,0 -106.29,-46.48 -106.29,-103.77 V 103.898 C 4242.87,46.5508 4290.52,0 4349.16,0 h 1227.16 c 58.74,0 106.59,46.5508 106.59,103.898 V 1336.23 c 0,57.29 -47.85,103.77 -106.59,103.77" style="fill:#18679e;fill-opacity:1;fill-rule:nonzero;stroke:none"/><path id="path28" d="m 4563.22,1241.75 c 68.28,0 123.77,-55.5 123.77,-123.8 0,-68.37 -55.49,-123.864 -123.77,-123.864 -68.45,0 -123.86,55.494 -123.86,123.864 0,68.3 55.41,123.8 123.86,123.8 M 4456.38,900.145 h 213.59 V 212.93 h -213.59 v 687.215" style="fill:#fff;fill-opacity:1;fill-rule:nonzero;stroke:none"/><path id="path30" d="m 4803.94,900.145 h 204.85 v -93.899 h 2.86 c 28.52,54.027 98.18,110.984 202.09,110.984 216.28,0 256.21,-142.343 256.21,-327.359 V 212.93 h -213.44 v 334.199 c 0,79.687 -1.46,182.203 -110.98,182.203 -111.14,0 -128.2,-86.812 -128.2,-176.441 V 212.93 h -213.39 v 687.215" style="fill:#fff;fill-opacity:1;fill-rule:nonzero;stroke:none"/></g></g></g></svg>