<svg xmlns="http://www.w3.org/2000/svg" xmlns:svg="http://www.w3.org/2000/svg" id="svg10" width="41.254" height="40.052" version="1.1" viewBox="0 0 41.254 40.052"><metadata id="metadata16"/><rect style="opacity:1;fill:#168de2;fill-opacity:1;stroke:none;stroke-width:.12044425;stroke-miterlimit:4;stroke-dasharray:none;stroke-opacity:1" id="rect823" width="41.254" height="40.052" x="0" y="0" ry="6.885"/><g id="g8" transform="translate(4.1467869,4.0256744)" style="fill:none;fill-rule:evenodd"><path id="path4" d="m 15.905,6.647 c 2.506685,0.039667 4.893473,1.0798591 6.629,2.889 V 9.543 C 22.473568,8.7535215 23.088399,8.0751983 23.88,8.058 h 0.199 c 0.833185,0.01856 1.493115,0.7098507 1.473,1.543 v 13.165 c -0.139015,0.802327 0.826565,1.316848 1.415,0.754 2.09,-2.17 4.59,-11.168 -1.299,-16.382 C 21.002271,3.0034918 14.161469,2.4616138 8.903,5.81 4.1134478,9.3437788 2.3625994,15.695252 4.665,21.184 c 2.818,6.587 10.891,8.551 15.688,6.592 2.429,-0.993 3.552,2.33 1.029,3.415 -3.81,1.642 -14.42,1.477 -19.376,-7.21 C -1.342,18.114 -1.164,7.794 7.72,2.45 c 6.834435,-4.1017351 15.592523,-2.96391235 21.152,2.748 5.645,5.968 5.316,17.141 -0.191,21.484 -2.444612,1.875651 -5.991599,0.253038 -6.171,-2.823 l -0.026,-0.94 c -1.730866,1.764658 -4.098177,2.759865 -6.57,2.762 -5.201,-0.08 -9.376,-4.318 -9.376,-9.517 0,-5.199 4.175,-9.436 9.376,-9.517 z m 6.265,9.204 C 22.1444,12.500088 19.36004,9.8301069 16.011,9.945 h -0.123 c -3.772,0 -5.862,3 -5.862,6.407 0,3.816 2.533,6.224 5.848,6.224 3.388353,0.07953 6.204446,-2.593118 6.302,-5.981 z" style="fill:#fda840"/></g></svg>