<?xml version="1.0" encoding="UTF-8" standalone="no"?>
<svg
   xmlns:dc="http://purl.org/dc/elements/1.1/"
   xmlns:cc="http://creativecommons.org/ns#"
   xmlns:rdf="http://www.w3.org/1999/02/22-rdf-syntax-ns#"
   xmlns:svg="http://www.w3.org/2000/svg"
   xmlns="http://www.w3.org/2000/svg"
   height="177.8"
   width="177.8"
   xml:space="preserve"
   viewBox="0 0 177.8 177.8"
   y="0px"
   x="0px"
   id="new"
   version="1.1"><metadata
   id="metadata33"><rdf:RDF><cc:Work
       rdf:about=""><dc:format>image/svg+xml</dc:format><dc:type
         rdf:resource="http://purl.org/dc/dcmitype/StillImage" /><dc:title>Mapbox_Logo_08</dc:title></cc:Work></rdf:RDF></metadata><defs
   id="defs31" />
<style
   id="style2"
   type="text/css">
	.st0{fill:#4264FB;}
</style>
<title
   id="title4">Mapbox_Logo_08</title>
<g
   transform="translate(-5,-1.1)"
   id="g26">
	
	<g
   id="g24">
		<path
   style="fill:#4264fb"
   id="path20"
   d="M 93.9,1.1 C 44.8,1.1 5,40.9 5,90 c 0,49.1 39.8,88.9 88.9,88.9 49.1,0 88.9,-39.8 88.9,-88.9 C 182.8,40.9 143,1.1 93.9,1.1 Z m 42.2,110.7 c -30.4,30.4 -84.7,20.7 -84.7,20.7 0,0 -9.8,-54.2 20.7,-84.7 16.9,-16.9 44.9,-16.2 62.6,1.4 17.7,17.6 18.3,45.7 1.4,62.6 z"
   class="st0" />
		<polygon
   style="fill:#4264fb"
   id="polygon22"
   points="112.8,88.5 130.7,79.8 112.8,71.1 104.1,53.2 95.4,71.1 77.5,79.8 95.4,88.5 104.1,106.4 "
   class="st0" />
	</g>
</g>
</svg>