<svg xmlns="http://www.w3.org/2000/svg" xmlns:svg="http://www.w3.org/2000/svg" id="svg2" width="320.073" height="431.942" version="1.1" viewBox="0 0 320.073 431.942"><metadata id="metadata7"/><g id="layer1" transform="translate(-1.47419e-6,-620.42056)"><g id="g4173"><g id="g4169"><path id="path3011" fill="#000" stroke="none" d="M 46.738019,1052.3622 C 21.505967,1052.3622 1.47419e-6,1036.5253 1.47419e-6,1000.6277 1.47419e-6,945.21126 47.689201,903.12727 69.326318,891.22527 c 0,0 30.272893,17.43924 61.679162,28.66146 C 68.603985,880.40575 28.729831,808.47162 28.729831,728.63108 c 0,-74.61572 39.384945,-108.21052 74.943999,-108.21052 28.60541,0 96.42291,31.46757 96.42291,152.21572 0,129.92953 -67.79764,279.72592 -153.358721,279.72592 z"/><path id="path3021" fill="#000" stroke="none" d="m 155.78636,1011.1909 c 0,18.8306 6.57803,26.2035 16.6348,26.2035 25.16786,0 65.26487,-58.74361 63.74216,-120.41818 38.16256,-40.25856 83.91003,-103.32352 83.91003,-153.83503 0,-12.22743 -3.46727,-22.52323 -17.95968,-22.52323 -22.15668,0 -53.81726,38.18749 -73.8997,76.10791 -19.36731,39.28559 -37.48424,84.09369 -61.53403,145.59119 -5.61953,15.42523 -10.89358,34.10751 -10.89358,48.87384 z"/></g></g></g></svg>