<svg xmlns="http://www.w3.org/2000/svg" xmlns:svg="http://www.w3.org/2000/svg" xmlns:xlink="http://www.w3.org/1999/xlink" id="svg17" width="256" height="256" version="1.1"><metadata id="metadata21"/><defs id="defs5"><linearGradient id="linearGradient2318"><stop id="stop1" offset="0" style="stop-color:#2177c2;stop-opacity:1"/><stop id="stop2" offset="1" style="stop-color:#2a567b;stop-opacity:1"/></linearGradient><clipPath id="a"><path id="path2" d="m 0,0 8265,0 0,6867.85 -8265,0 L 0,0 z"/></clipPath><linearGradient id="linearGradient2322" x1="6603.659" x2="6603.659" y1="6867.002" y2=".848" gradientUnits="userSpaceOnUse" xlink:href="#linearGradient2318"/></defs><g style="fill:url(#linearGradient2322);fill-opacity:1;fill-rule:nonzero;stroke:none;stroke-opacity:1" id="g15" clip-path="url(#a)" transform="matrix(0.02903811,0,0,-0.02903811,8.0000001,227.7147)"><path style="fill:url(#linearGradient2322);fill-opacity:1;fill-rule:nonzero;stroke:none;stroke-opacity:1" id="path7" d="M 0,4148.48 V 86.6602 H 158.281 V 2386.13 c 0,227.31 29.063,442.66 87.184,648.17 63.312,205.5 149.457,384.55 260.512,537.64 115.726,158.01 255.328,282.04 419.312,371.56 162.951,94.45 344.581,141.93 544.901,141.93 226.26,0 411.01,-37.1 553.2,-110.53 142.19,-73.7 253.25,-173.85 332.13,-299.7 78.87,-127.14 131.81,-274.52 157.76,-443.17 31.66,-168.14 47.75,-347.7 47.75,-537.64 V 86.6602 h 157.75 V 2662.73 c 0,190.45 29.07,369.49 87.19,537.62 57.6,173.87 142.19,326.96 252.2,458.25 111.06,131.81 245.99,234.83 403.75,308.52 157.76,78.87 334.21,118.31 529.33,118.31 221.07,0 403.23,-31.13 545.42,-94.7 147.38,-63.57 263.63,-153.1 347.69,-268.56 89.78,-115.99 150.5,-256.1 182.15,-418.54 36.34,-163.98 54.5,-345.62 54.5,-545.94 l 6.22,-1493.02 c 0.53,0 154.13,4.16 154.13,4.16 l -1.55,1488.86 c 0,221.61 -21.28,421.39 -63.31,600.43 -42.56,184.75 -113.65,339.92 -213.81,467.06 -100.16,131.3 -231.45,233.79 -394.92,308 -163.48,73.69 -368.47,110.8 -616.52,110.8 -316.56,0 -590.04,-87.19 -822.02,-261.04 -231.45,-174.11 -387.14,-403.22 -466.53,-687.61 h -15.05 c -69.02,300.47 -210.7,534.52 -427.1,703.18 -210.7,174.11 -473.81,255.84 -790.36,245.47 -158.29,0 -308.26,-29.07 -450.45,-87.19 C 882.738,4104.38 756.113,4027.31 639.867,3927.16 524.656,3827 427.102,3711.53 348.219,3579.72 269.332,3447.89 210.691,3303.63 173.852,3145.37 H 158.281 V 4148.48 H 0"/><path style="fill:url(#linearGradient2322);fill-opacity:1;fill-rule:nonzero;stroke:none;stroke-opacity:1" id="path9" d="M 8177.11,86.6602 V 4148.48 H 8019.34 V 1849.02 c 0,-226.78 -31.65,-442.67 -94.45,-647.65 C 7861.07,995.352 7766.09,813.18 7639.99,655.43 7519.08,502.34 7365.99,379.328 7181.76,283.871 6997.02,194.59 6784.24,149.98 6541.37,149.98 c -173.85,0 -339.91,23.34 -498.19,71.598 -152.57,51.891 -289.57,130.781 -411.01,236.66 -115.2,110.532 -207.59,247.543 -276.07,411 -69.03,168.142 -75.26,377.282 -75.26,613.902 l -154.65,-23.86 c 0,-62.8 0,-134.93 0.52,-195.65 8.3,-161.39 20.76,-306.681 71.1,-441.618 74.21,-179.024 174.37,-332.133 300.48,-459.262 131.8,-120.941 284.9,-212.77 458.22,-276.0898 C 6135.55,29.0586 6330.68,0 6541.37,0 c 400.64,0 724.46,102.219 972.51,308.238 252.21,205 416.2,465.512 489.9,782.072 h 15.56 V 86.6602 h 157.77"/><path style="fill:url(#linearGradient2322);fill-opacity:1;fill-rule:nonzero;stroke:none;stroke-opacity:1" id="path11" d="m 6406.97,5314.31 c 0,99.9 81.47,180.85 181.1,180.85 100.16,0 181.11,-80.95 181.11,-180.85 0,-100.16 -80.95,-181.11 -181.11,-181.11 -99.63,0 -181.1,80.95 -181.1,181.11"/><path style="fill:url(#linearGradient2322);fill-opacity:1;fill-rule:nonzero;stroke:none;stroke-opacity:1" id="path13" d="M 5370.16,6452.89 C 5003.75,6150.77 4810.08,5727.71 4810.08,5229.46 h 160 c 0,970.57 810.09,1478.39 1610.31,1478.39 406.26,0 780.54,-129.24 1053.92,-363.92 308.19,-264.57 471.11,-649.94 471.11,-1114.47 h 160 c 0,512.62 -182.2,939.98 -526.89,1235.88 -302.37,259.56 -713.67,402.51 -1158.14,402.51 -449.3,0 -890.41,-151.24 -1210.23,-414.96"/></g></svg>