<?xml version="1.0" encoding="UTF-8" standalone="no"?>
<svg
   xmlns:dc="http://purl.org/dc/elements/1.1/"
   xmlns:cc="http://creativecommons.org/ns#"
   xmlns:rdf="http://www.w3.org/1999/02/22-rdf-syntax-ns#"
   xmlns:svg="http://www.w3.org/2000/svg"
   xmlns="http://www.w3.org/2000/svg"
   xmlns:sodipodi="http://sodipodi.sourceforge.net/DTD/sodipodi-0.dtd"
   xmlns:inkscape="http://www.inkscape.org/namespaces/inkscape"
   id="svg14"
   version="1.1"
   height="279.53232"
   width="389.48169"
   viewBox="0 0 389.48169 279.53232"
   sodipodi:docname="Native Instruments.svg"
   inkscape:version="0.92.2 (5c3e80d, 2017-08-06)">
  <sodipodi:namedview
     pagecolor="#ffffff"
     bordercolor="#666666"
     borderopacity="1"
     objecttolerance="10"
     gridtolerance="10"
     guidetolerance="10"
     inkscape:pageopacity="0"
     inkscape:pageshadow="2"
     inkscape:window-width="640"
     inkscape:window-height="480"
     id="namedview11"
     showgrid="false"
     fit-margin-top="0"
     fit-margin-left="0"
     fit-margin-right="0"
     fit-margin-bottom="0"
     inkscape:zoom="0.60687694"
     inkscape:cx="124.6804"
     inkscape:cy="140.26558"
     inkscape:window-x="1855"
     inkscape:window-y="168"
     inkscape:window-maximized="0"
     inkscape:current-layer="svg14" />
  <metadata
     id="metadata20">
    <rdf:RDF>
      <cc:Work
         rdf:about="">
        <dc:format>image/svg+xml</dc:format>
        <dc:type
           rdf:resource="http://purl.org/dc/dcmitype/StillImage" />
        <dc:title></dc:title>
      </cc:Work>
    </rdf:RDF>
  </metadata>
  <defs
     id="defs18" />
  <style
     id="style2">.st0{fill:#111}.st1{fill:#5d86a0}</style>
  <g
     id="Layer_1"
     transform="translate(347.68169,249.53231)" />
  <g
     id="Layer_4"
     transform="scale(9.3177437)">
    <path
       style="fill:#5d86a0"
       id="path7"
       d="M 40,3 H 21 V 27 H 40 Z M 31,22 H 28 V 8 h 3 z"
       class="st1"
       inkscape:connector-curvature="0" />
    <path
       style="fill:#111111"
       id="path9"
       d="M 2.6,3 C 8.7,4.5 14.8,5.3 21,5.3 27.1,5.3 33.3,4.5 39.4,3 L 37.8,2.1 c 0.5,1.2 0.8,3.2 1.1,5.5 0.2,2.3 0.4,4.8 0.4,7.4 0,2.6 -0.1,5.2 -0.4,7.4 -0.2,2.3 -0.6,4.2 -1.1,5.5 L 39.4,27 C 33.3,25.5 27.1,24.7 21,24.7 H 20.9 C 14.8,24.7 8.6,25.5 2.5,27 l 1.7,0.9 C 3.8,26.7 3.4,24.7 3.1,22.4 2.9,20.1 2.7,17.6 2.7,15 2.7,12.4 2.8,9.8 3.1,7.6 3.3,5.3 3.7,3.4 4.2,2.1 L 2.6,3 2.9,1.6 1.6,1.2 C 1,2.8 0.7,4.9 0.4,7.3 0.1,9.7 0,12.3 0,15 c 0,2.7 0.1,5.3 0.4,7.7 0.3,2.4 0.6,4.5 1.2,6.1 L 2,30 3.2,29.7 c 5.9,-1.5 11.8,-2.2 17.7,-2.2 5.9,0 11.8,0.7 17.7,2.2 l 1.2,0.3 0.4,-1.2 c 0.6,-1.6 0.9,-3.7 1.2,-6.1 0.3,-2.4 0.4,-5.1 0.4,-7.7 0,-2.7 -0.1,-5.3 -0.4,-7.7 C 41.1,4.9 40.8,2.8 40.2,1.2 L 39.9,0 38.7,0.3 C 32.8,1.8 26.9,2.5 21,2.5 H 20.9 C 15,2.5 9.1,1.8 3.3,0.3 L 2,0 1.6,1.2 2.9,1.7"
       class="st0"
       inkscape:connector-curvature="0" />
    <path
       style="fill:#111111"
       id="path11"
       d="m 11,22 v -7 l 2,7 h 3 V 8 h -3 v 6 L 11,8 H 8 v 14 z"
       class="st0"
       inkscape:connector-curvature="0" />
  </g>
</svg>
