<?xml version="1.0" encoding="UTF-8" standalone="no"?>
<svg
   xmlns:dc="http://purl.org/dc/elements/1.1/"
   xmlns:cc="http://creativecommons.org/ns#"
   xmlns:rdf="http://www.w3.org/1999/02/22-rdf-syntax-ns#"
   xmlns:svg="http://www.w3.org/2000/svg"
   xmlns="http://www.w3.org/2000/svg"
   xmlns:sodipodi="http://sodipodi.sourceforge.net/DTD/sodipodi-0.dtd"
   xmlns:inkscape="http://www.inkscape.org/namespaces/inkscape"
   version="1.1"
   viewBox="0 -192 3552 960"
   id="svg6"
   sodipodi:docname="Netflix.svg"
   inkscape:version="0.92.4 (5da689c313, 2019-01-14)">
  <metadata
     id="metadata12">
    <rdf:RDF>
      <cc:Work
         rdf:about="">
        <dc:format>image/svg+xml</dc:format>
        <dc:type
           rdf:resource="http://purl.org/dc/dcmitype/StillImage" />
        <dc:title></dc:title>
      </cc:Work>
    </rdf:RDF>
  </metadata>
  <defs
     id="defs10" />
  <sodipodi:namedview
     pagecolor="#ffffff"
     bordercolor="#666666"
     borderopacity="1"
     objecttolerance="10"
     gridtolerance="10"
     guidetolerance="10"
     inkscape:pageopacity="0"
     inkscape:pageshadow="2"
     inkscape:window-width="1920"
     inkscape:window-height="1017"
     id="namedview8"
     showgrid="false"
     inkscape:zoom="0.088400901"
     inkscape:cx="401.57962"
     inkscape:cy="480"
     inkscape:window-x="1272"
     inkscape:window-y="-8"
     inkscape:window-maximized="1"
     inkscape:current-layer="svg6" />
  <g
     transform="matrix(1,0,0,-1,0,768)"
     id="g4"
     style="fill:#e50914;fill-opacity:1">
    <path
       d="M 488,62 C 435,53 381,50 324,42 L 153,545 V 21 C 99,15 51,8 0,0 V 960 H 143 L 338,415 v 545 h 150 z m 296,546 c 58,0 147,3 200,3 V 461 c -66,0 -144,0 -200,-3 V 235 c 88,6 176,13 265,16 V 107 L 634,74 v 886 h 415 V 810 H 784 Z m 823,202 H 1451 V 120 c -50,0 -101,0 -150,-2 v 692 h -155 v 150 h 461 z m 244,-191 h 205 V 469 H 1851 V 128 h -148 v 832 h 420 V 810 h -272 z m 515,-359 c 86,-2 172,-9 255,-13 V 98 c -134,9 -268,17 -405,20 v 842 h 150 z M 2748,88 c 48,-3 98,-5 147,-11 V 960 H 2748 Z M 3552,960 3362,503 3552,0 c -56,8 -112,18 -169,27 L 3276,305 3166,50 c -54,9 -107,12 -161,19 l 193,440 -175,451 h 162 l 98,-252 105,252 z"
       id="path2"
       inkscape:connector-curvature="0"
       style="fill:#e50914;fill-opacity:1" />
  </g>
</svg>
