<svg xmlns="http://www.w3.org/2000/svg" xmlns:svg="http://www.w3.org/2000/svg" id="Layer_1" width="585.447" height="1000" x="0" y="0" enable-background="new 0 0 585.447 1000" version="1.1" viewBox="0 0 585.447 1000" xml:space="preserve"><metadata id="metadata21"/><g id="g14"><path id="path4" d="m 66.827,90.294 v 409.464 c 0,225.219 0.214,409.683 0.539,410.007 0.324,0.324 14.239,-1.076 31.067,-2.912 16.828,-1.833 40.019,-4.203 51.562,-5.175 17.69,-1.509 70.762,-4.85 76.804,-4.958 1.833,0 1.94,-9.163 2.157,-173.468 l 0.322,-173.062 -0.106,-0.299 v 0.216 z" style="clip-rule:evenodd;fill:#b1060f;fill-rule:evenodd"/><polygon id="polygon6" points="66.827 90.294 229.092 643.652 229.276 550.191 229.17 549.893 229.17 550.108" style="clip-rule:evenodd;fill:#9d030f;fill-rule:evenodd"/><path id="path8" d="m 357.535,90.834 -0.324,181.122 -0.323,181.016 160.94,456.686 c -0.092,0.092 -0.518,0.139 -1.213,0.148 0.804,0 1.302,-0.047 1.429,-0.148 0.54,-0.433 0.648,-184.789 0.54,-409.792 L 518.26,90.834 Z" style="clip-rule:evenodd;fill:#b1060f;fill-rule:evenodd"/><polygon id="polygon10" points="356.888 452.972 510.948 890.137 357.059 361.421" style="clip-rule:evenodd;fill:#9d030f;fill-rule:evenodd"/><path id="path12" d="M 66.827,90.294 229.17,550.108 v -0.216 l 12.837,36.226 c 71.302,201.714 109.595,309.955 109.811,310.171 0.108,0.107 10.896,0.756 23.946,1.4 39.481,1.94 88.452,6.146 125.669,10.78 8.521,1.08 15.964,1.62 16.396,1.188 L 356.889,452.969 v 0.108 L 342,411.033 C 327.437,369.956 317.73,342.464 259.157,177.082 243.409,132.556 230.032,94.93 229.494,93.205 l -1.08,-3.019 H 147.62 Z" style="clip-rule:evenodd;fill:#e50914;fill-rule:evenodd"/></g></svg>