<svg xmlns="http://www.w3.org/2000/svg" xmlns:svg="http://www.w3.org/2000/svg" id="svg2" width="525.256" height="525.244" version="1.1" xml:space="preserve"><metadata id="metadata8"/><defs id="defs6"><clipPath id="clipPath26"><path id="path28" d="m 440.788,64.913 h 82.876 v 92.495 h -82.876 z"/></clipPath></defs><g id="g10" transform="matrix(1.25,0,0,-1.25,-141.71809,874.99988)"><g id="g4011" transform="matrix(9.0234623,0,0,9.0234623,-3908.1986,-607.97261)"><path style="fill:#61a534;fill-opacity:1;fill-rule:nonzero;stroke:none" id="path32" d="m 473.5326,118.0514 c 2.757,1.513 4.69,4.342 4.936,7.647 0,0.131 -0.107,0.237 -0.239,0.237 h -4.249 c -0.132,0 -0.224,-0.105 -0.239,-0.237 -0.344,-2.334 -2.355,-4.126 -4.786,-4.126 -2.429,0 -4.44,1.792 -4.786,4.126 -0.012,0.138 -0.106,0.237 -0.239,0.237 h -4.247 c -0.131,0 -0.239,-0.106 -0.239,-0.237 0.245,-3.305 2.179,-6.134 4.935,-7.647 -2.89,-1.584 -4.873,-4.619 -4.959,-8.127 0,-0.132 0.107,-0.238 0.239,-0.238 h 4.224 c 0.132,0 0.239,0.106 0.239,0.238 0.125,2.562 2.241,4.601 4.833,4.601 2.595,0 4.711,-2.039 4.835,-4.601 0,-0.132 0.107,-0.238 0.238,-0.238 h 4.225 c 0.132,0 0.238,0.106 0.238,0.238 -0.086,3.508 -2.068,6.543 -4.959,8.127 m -13.842,8.839 h 4.249 c 0.131,0 0.224,0.104 0.237,0.238 0.346,2.333 2.357,4.124 4.787,4.124 2.429,0 4.441,-1.791 4.787,-4.124 0.015,-0.131 0.121,-0.238 0.252,-0.238 h 4.233 c 0.133,0 0.239,0.106 0.239,0.238 -0.365,4.934 -4.484,8.822 -9.511,8.822 -5.028,0 -9.145,-3.888 -9.511,-8.822 0,-0.132 0.106,-0.238 0.238,-0.238 m 32.557,-5.221 c 0,-12.859 -10.425,-23.284 -23.284,-23.284 -12.859,0 -23.284,10.425 -23.284,23.284 0,12.859 10.425,23.283 23.284,23.283 12.859,0 23.284,-10.424 23.284,-23.283"/></g></g></svg>