<svg xmlns="http://www.w3.org/2000/svg" width="4000" height="1424.747"><path fill="#162c45" d="M3895.45833728.00134074V1424.7467h104.53982939V.00134074h-104.53982939M248.42666046 638.16938633c0-41.94666562-28.39866596-78.08266471-72.27466486-78.08266471h-71.62226488v156.1439961h71.62226488c43.8759989 0 72.27466486-36.11466577 72.27466486-78.06133139zM.00052083 474.91472375h189.05014111c100.02133083 0 164.55599589 75.5039981 164.55599589 163.25466258 0 87.75066447-64.53466506 163.23199592-164.55599589 163.23199592h-84.52093122v125.1893302H.00052083v-451.6759887M656.22665026 603.96272052l-55.49466528 185.84266202h109.68799726zm97.4413309 322.62799193l-17.4053329-54.84399863H575.58665228l-17.4293329 54.84399863H446.51598884l161.32666263-451.6759887h96.1399976l163.25466258 451.6759887h-113.5693305M1042.73997393 565.24538815H940.81330981v-90.3306644h309.05732561v90.3306644h-102.60133077v361.3453243h-104.52933072v-361.3453243M1660.90662514 638.16938633c0-41.94666562-28.39999929-78.08266471-72.27999819-78.08266471h-71.62666488v156.1439961h71.62666488c43.8799989 0 72.2799982-36.11466577 72.2799982-78.06133139zM1412.4799647 474.91472375h189.71999525c99.9999975 0 164.53332922 75.5039981 164.53332922 163.25466258 0 63.23466509-33.55999916 119.35733035-89.70666442 145.82666302l90.35999774 142.5946631h-121.30666363l-80.039998-125.1893302h-49.03999877v125.1893302h-104.5199974v-451.6759887M2048.72628158 558.80564533V661.384947h170.9859296v81.96321385h-170.9859296v99.347782h170.9859296v83.8928655h-275.51667152V474.91277983h275.51667151v83.8928655h-170.98592959M2761.08859204 700.7545757c0-74.20241972-50.34906594-143.24502775-132.27624976-143.24502775-82.6132822 0-132.29384203 69.04260803-132.29384203 143.24502775s49.68055983 143.24502775 132.29384203 143.24502775c81.92718382 0 132.27624976-69.04260803 132.27624976-143.24502775zm-371.68940084 0c0-123.886498 89.05205164-237.45689108 239.41315108-237.45689108 149.67500106 0 238.7270527 113.57039308 238.7270527 237.45689108 0 123.886498-89.05205164 237.45689108-238.7270527 237.45689108-150.36109944 0-239.41315108-113.57039308-239.41315108-237.45689108M3313.44495116 769.14394719v-294.231899h103.8825634V926.5884022H3308.2875121l-162.62705233-290.37220578v290.37220578h-104.53248459V474.9120482h109.04000248l163.27697351 294.231899"/></svg>