<svg xmlns="http://www.w3.org/2000/svg" viewBox="0 0 124 33"><path fill="#253B80" d="M46.21 6.75h-6.84a.95.95 0 0 0-.94.8L35.67 25.1c-.06.34.21.66.56.66h3.27c.46 0 .86-.34.94-.8l.74-4.74c.07-.46.47-.8.94-.8h2.16c4.5 0 7.1-2.18 7.79-6.5.3-1.89.01-3.38-.87-4.42-.98-1.14-2.7-1.74-4.99-1.74zm.79 6.4c-.37 2.46-2.25 2.46-4.06 2.46H41.9l.72-4.58a.57.57 0 0 1 .56-.49h.48c1.23 0 2.4 0 3 .7.36.43.47 1.05.33 1.91zM66.65 13.07h-3.27c-.28 0-.52.2-.56.49l-.15.91-.23-.33c-.7-1.03-2.29-1.37-3.87-1.37-3.62 0-6.7 2.74-7.3 6.58a6.18 6.18 0 0 0 1.21 5.03c1 1.18 2.43 1.67 4.13 1.67 2.91 0 4.53-1.88 4.53-1.88l-.15.91c-.05.35.22.67.57.67h2.95c.46 0 .86-.34.93-.8l1.77-11.22a.57.57 0 0 0-.56-.66zm-4.56 6.38a3.65 3.65 0 0 1-3.7 3.13c-.95 0-1.7-.3-2.2-.89a2.78 2.78 0 0 1-.5-2.3 3.67 3.67 0 0 1 3.66-3.15c.93 0 1.69.3 2.18.9.5.58.7 1.4.56 2.3zM84.1 13.07h-3.3c-.3 0-.6.16-.78.42l-4.54 6.69-1.93-6.43a.95.95 0 0 0-.9-.68H69.4c-.4 0-.67.39-.54.76l3.62 10.64-3.4 4.8c-.27.39 0 .9.46.9h3.29c.3 0 .6-.14.78-.4l10.94-15.8c.27-.38 0-.9-.46-.9z"/><path fill="#179BD7" d="M95 6.75h-6.85a.95.95 0 0 0-.94.8L84.45 25.1c-.06.34.21.66.56.66h3.51c.33 0 .6-.24.66-.57l.78-4.97c.07-.46.47-.8.94-.8h2.16c4.5 0 7.1-2.18 7.79-6.5.3-1.89.01-3.38-.87-4.42-.98-1.14-2.7-1.74-4.99-1.74zm.78 6.4c-.37 2.46-2.25 2.46-4.06 2.46h-1.03l.72-4.58a.57.57 0 0 1 .57-.49h.47c1.23 0 2.4 0 3 .7.36.43.47 1.05.33 1.91zM115.43 13.07h-3.27c-.28 0-.52.2-.56.49l-.15.91-.23-.33c-.7-1.03-2.28-1.37-3.86-1.37-3.62 0-6.71 2.74-7.31 6.58a6.18 6.18 0 0 0 1.21 5.03c1 1.18 2.43 1.67 4.13 1.67 2.92 0 4.53-1.88 4.53-1.88l-.14.91c-.06.35.21.67.56.67h2.95c.47 0 .86-.34.94-.8L116 13.72a.57.57 0 0 0-.57-.66zm-4.56 6.38a3.65 3.65 0 0 1-3.7 3.13c-.94 0-1.7-.3-2.2-.89a2.8 2.8 0 0 1-.5-2.3 3.67 3.67 0 0 1 3.66-3.15c.93 0 1.69.3 2.19.9.5.58.7 1.4.55 2.3z"/><path d="M119.3 7.23l-2.81 17.86c-.06.34.21.66.56.66h2.82c.47 0 .87-.34.94-.8l2.77-17.54a.57.57 0 0 0-.56-.66h-3.16c-.28 0-.52.2-.57.48z" fill="#179bd7"/><path d="M7.27 29.15l.52-3.32-1.17-.02H1.06L4.93 1.29a.32.32 0 0 1 .31-.27h9.38c3.12 0 5.26.65 6.39 1.93.52.6.86 1.23 1.02 1.92.17.72.17 1.59 0 2.64v.76l.52.3c.44.23.8.5 1.06.8.46.52.75 1.17.87 1.94.13.8.08 1.74-.12 2.81a9.9 9.9 0 0 1-1.16 3.19 6.55 6.55 0 0 1-4.28 3.1c-.9.24-1.94.36-3.07.36h-.73a2.21 2.21 0 0 0-2.17 1.86l-.06.3-.92 5.85-.04.21c-.01.07-.03.1-.06.13a.15.15 0 0 1-.1.03z" fill="#253b80"/><path fill="#179BD7" d="M23.05 7.67l-.1.55c-1.24 6.35-5.47 8.54-10.87 8.54H9.33c-.66 0-1.22.48-1.32 1.13L6.6 26.83l-.4 2.53a.7.7 0 0 0 .7.82h4.87c.58 0 1.07-.42 1.16-1l.05-.24.92-5.83.06-.32c.09-.58.58-1 1.16-1h.73c4.73 0 8.43-1.92 9.51-7.47.45-2.32.22-4.26-.98-5.62a4.67 4.67 0 0 0-1.33-1.03z"/><path fill="#222D65" d="M21.75 7.15a9.76 9.76 0 0 0-1.2-.27c-.74-.12-1.55-.17-2.42-.17h-7.36a1.17 1.17 0 0 0-1.16.99l-1.56 9.9-.04.3c.1-.66.66-1.14 1.32-1.14h2.75c5.4 0 9.63-2.2 10.87-8.54l.1-.55a6.6 6.6 0 0 0-1.3-.52z"/><path d="M9.61 7.7a1.17 1.17 0 0 1 1.16-1h7.36a15.28 15.28 0 0 1 3.04.3 9.76 9.76 0 0 1 .86.24c.37.12.7.26 1.02.43.37-2.35 0-3.95-1.27-5.4C20.38.68 17.85 0 14.62 0H5.24c-.66 0-1.22.48-1.32 1.13L0 25.9a.8.8 0 0 0 .8.93H6.6l1.45-9.22L9.61 7.7z" fill="#253B80"/></svg>