<svg xmlns="http://www.w3.org/2000/svg" xmlns:svg="http://www.w3.org/2000/svg" id="Ebene_1" width="58" height="84.3" x="0" y="0" version="1.1" viewBox="0 0 58 84.3" xml:space="preserve"><metadata id="metadata39"/><style id="style2" type="text/css">.st1{fill:#e30d18}</style><g id="g32" transform="translate(-101.5)"><path style="fill:#e30d18" id="path28" d="m 107.3,27.6 c 1.1,-0.5 2.1,-0.8 3.2,-1.1 1.9,-9.3 10.2,-16.3 20,-16.3 9.8,0 18.1,7 20,16.3 3,0.6 5.5,1.8 7.5,3.6 0.1,-1.8 0,-3.5 -0.2,-5.1 -1.2,-14 -13,-25 -27.4,-25 -14.8,0 -26.7,11.7 -27.4,26.3 -0.1,1.3 -0.1,2.6 -0.1,4 1.3,-1.1 2.7,-2 4.4,-2.7 z" class="st1"/><path style="fill:#e30d18" id="path30" d="m 146.5,29.6 h -32.9 c -1.6,0 -3.2,0.4 -4.9,1.1 -1.6,0.7 -3,1.6 -4,2.6 -2,2.5 -3.1,6.1 -3.2,10.8 v 25.7 c 0.1,4.7 1.1,8.3 3.2,10.8 1.1,1 2.4,1.9 4,2.6 1.7,0.7 3.3,1.1 4.9,1.1 h 32.9 c 8.5,-0.1 12.9,-4.7 13,-14 V 43.6 c -0.1,-9.2 -4.4,-13.9 -13,-14 z" class="st1"/></g></svg>