<svg xmlns="http://www.w3.org/2000/svg" version="1" viewBox="-4.6 -4.6 922.9 164.1"><path d="M164.6 69.1c-.1-3.1-1.6-4.8-4.5-4.9h-15.5c-3.7.3-5.6 2.3-5.7 6v28c.1 3.8 2.2 5.8 6.3 6h14.2c1.5 0 2.7-.6 3.7-1.7a4 4 0 0 0 1.5-3.3v-30zm-45.6-4a25 25 0 0 1 4.7-15.8 20 20 0 0 1 6-3.8c2.5-1.2 4.9-1.7 7.2-1.7h28.5c12.5.1 18.9 7 19 20.6v42c0 4.8-2 9-5.6 12.5-3.6 3.7-8 5.6-13 5.7H139v30.2H119V65.2M220.4 100c0 1.3.5 2.2 1.6 2.9 1 .8 2 1.2 3.6 1.2h15.3c3.4 0 5.2-1.3 5.3-4v-5.7c0-3.1-1.8-4.7-5.5-4.7h-15.1c-2 0-3.4.3-4.2 1-.7.7-1 2.1-1 4.3v5zm25.8-31.3c.1-3.1-1.7-4.6-5.3-4.5h-40.1V43.8h45.1c13.1.2 19.8 6.6 20 19.1v42.7c0 5.4-1.7 10-5 13.5a16.8 16.8 0 0 1-13 5.5h-27.2c-13.3-.1-20-6.2-20.2-18.2V89.9c0-12.6 6.5-19 19.2-19.2h26.5v-2M321.8 134.4c1.6-.1 3-.7 4-1.7 1.1-1 1.7-2 1.7-3.3v-4.8H302c-3.3 0-6-.5-8-1.3s-4.2-2.2-6.3-4.2a20.5 20.5 0 0 1-5.6-15V43.8H302v53.9c0 4.3 1.8 6.4 5.3 6.4h14c1.7 0 3.2-.5 4.4-1.6 1.2-1 1.8-2.1 1.8-3.4V43.8h19.7v89a25 25 0 0 1-5 15.9c-3.4 4-7.9 6-13.7 6.1h-46.4v-20.4h39.7M362.8 104.1h35.4c3.3 0 5-1.4 5-3.9v-1.8a4 4 0 0 0-.4-1.8c-.8-1.5-1.8-2.3-3-2.3h-17.5c-5.2 0-9.7-1.9-13.4-5.3a15.4 15.4 0 0 1-5.8-11.8V62c.2-12 6.6-18 19.4-18.2h41v20.4h-34.8c-4 0-6.1 1.3-6.1 3.8v2c0 2.6 2.1 3.9 6.3 3.9h17.5c4.7 0 8.7 1.9 12 5.3 3.3 3.5 5 7.7 5.2 12.6v14.9c-.1 4.2-2 8.3-5.8 12.5a16 16 0 0 1-5.5 4.3c-2 .7-4.6 1-8 1h-41.5v-20.4M457.6 100c0 1.3.5 2.2 1.6 2.9 1 .8 2.1 1.2 3.6 1.2h15.3c3.5 0 5.2-1.3 5.4-4v-5.7c0-3.1-1.9-4.7-5.6-4.7h-15c-2 0-3.5.3-4.2 1-.7.7-1 2.1-1 4.3v5zm25.9-31.3c0-3.1-1.7-4.6-5.4-4.5h-40V43.8h45c13.2.2 19.8 6.6 20 19.1v42.7c0 5.4-1.7 10-5 13.5a16.7 16.7 0 0 1-12.9 5.5h-27.3c-13.3-.1-20-6.2-20.2-18.2V89.9c.1-12.6 6.5-19 19.3-19.2h26.5v-2M519.3 32.2a17 17 0 0 1 6.2-13.3c3.8-3.3 9-5 15.2-5.2h12.6v19.8h-7.6c-4.2 0-6.4 2-6.5 6v4.3h14.1v20.5h-14v60.3h-20V32.2M609.9 68.3v-.5c0-1-.4-2-1.3-2.6-1-.7-2-1-3.4-1h-13.9c-1.7 0-3.2.5-4.3 1.6-1.4.9-2 2.1-2 3.7v8.2l24.9-9.4zm-24.6 28.9v1.2c0 1.7.4 3 1.3 4 .6 1.1 1.4 1.7 2.5 1.7H630v20.5h-43.4c-4 0-7.1-.4-9.3-1.1-2.4-.8-4.5-2.1-6.4-3.9a17 17 0 0 1-4.4-6.6c-.8-2.4-1.2-5.5-1.2-9.4l-.2-41c.2-12.3 6.7-18.6 19.4-18.8h26.8c12.4.2 18.6 6.7 18.8 19.6v16.1l-44.8 17.7M672.2 124.6c-3 0-5.7-.3-8.2-.8-2.6-.4-5.2-1.7-7.9-3.7a19 19 0 0 1-5.6-8c-1.1-2.9-1.7-6.2-1.7-9.9v-38c0-3.2.2-6 1-8.3.6-2.4 2-4.7 4.2-7 2.4-2.3 4.9-3.9 7.5-4.7a35 35 0 0 1 8.5-1h30.5v4.9h-29.8a21 21 0 0 0-12.4 3.2c-3.1 2.4-4.7 6.4-4.7 12.2v38.1c0 2.7.4 5.3 1.2 7.8a16 16 0 0 0 4.2 6.6c2.2 1.6 4.4 2.7 6.5 3 2.2.6 4.5.8 7 .8H701v4.8h-28.7M778.9 75h-40c-4.8.2-8.5 1.7-11.2 4.5a16.4 16.4 0 0 0-4.2 12v12.1c0 2.4.2 4.5.7 6.5a10 10 0 0 0 3.8 5.4c3.4 2.9 7.3 4.3 11.4 4.3h24.3c10-.1 15.2-5.5 15.2-16V75zm4.7 27.6c0 3-.2 5.7-.6 8.1-.7 2.6-2 5-4 7.4a20 20 0 0 1-15.5 6.5h-23.8a21 21 0 0 1-15-5.5c-4-3.7-6-8.7-6-15.2V91.6c.2-13.9 7.1-21 20.7-21.3H779V65c0-4.4-1.3-8.3-3.8-11.6a12 12 0 0 0-5.7-4.4c-2.2-.6-4.7-.8-7.5-.8h-43.2v-4.8h41c3.7 0 7.1.2 10.2.8a14 14 0 0 1 8.3 5.5 25.4 25.4 0 0 1 5.3 16.3v36.7M828.3 48c-11 .3-16.5 6.3-16.3 18.2v58.4h-4.8V66.2c-.2-15.3 7-23 21.9-23h5.3v4.9h-6M908.8 48h-37.6c-2.8 0-5.2.4-7.4 1a13 13 0 0 0-6.6 4.1c-2 2.1-3.2 4.1-3.7 6.2-.7 2-1 4.5-1 7.4V104c0 6.2 1.9 10.4 5.5 12.7a28.5 28.5 0 0 0 13.3 3.2h16.5c6.1 0 11.2-1.4 15-4.3 4-2.6 6-7.3 6-13.9V48.1zm4.8 54c-.4 15.4-8.6 23-24.4 22.6h-17.7c-3.7 0-7-.3-10-1s-6-2.6-8.8-5.5a18.4 18.4 0 0 1-4-7.9 30 30 0 0 1-.9-8.9V66.6c.2-15.6 8-23.4 23.7-23.3h37.3V16.9h4.8v85" fill="#008ac9"/><path d="M8.5 40.7c1.6-.7 3.2-1.2 4.7-1.5a30.2 30.2 0 0 1 59.2 0c4.4.8 8.1 2.6 11 5.3.1-2.6 0-5.1-.3-7.5a40.6 40.6 0 1 0-81 7.7c1.9-1.5 4-3 6.4-4" fill="#e3001b"/><path d="M66.5 43.8H17.9c-2.4 0-4.8.5-7.3 1.7a20 20 0 0 0-6 3.8A25 25 0 0 0 0 65.2v38c.1 7 1.7 12.2 4.7 15.9 1.5 1.5 3.5 2.8 6 3.8 2.4 1.1 4.8 1.7 7.2 1.7h48.6c12.5-.1 18.9-7 19.1-20.6V64.4c-.2-13.6-6.6-20.5-19.1-20.6" fill="#e3001b"/></svg>