<svg xmlns="http://www.w3.org/2000/svg" xmlns:svg="http://www.w3.org/2000/svg" id="svg6" width="48.78" height="48.78" data-reactid="18" display="block" version="1.1" viewBox="-3 -3 80 80"><metadata id="metadata12"/><path id="path4" fill="#bd081c" fill-rule="evenodd" d="m 26.5,70 c 3.3,1 6.7,1.6 10.3,1.6 C 56,71.6 71.6,56 71.6,36.8 71.6,17.6 56,2 36.8,2 17.6,2 2,17.6 2,36.8 2,51.6 11.3,64.3 24.4,69.3 24.1,66.6 23.8,62.1 24.4,59 l 4,-17.2 c 0,0 -1,-2 -1,-5.2 0,-4.8 3,-8.4 6.4,-8.4 3,0 4.4,2.2 4.4,5 0,3 -2,7.3 -3,11.4 -0.6,3.4 1.8,6.4 5.3,6.4 6.2,0 11,-6.6 11,-16 0,-8.3 -6,-14 -14.6,-14 -9.8,0 -15.6,7.3 -15.6,15 0,3 1,6 2.6,8 0.3,0.2 0.3,0.5 0.2,1 l -1,3.8 c 0,0.6 -0.4,0.8 -1,0.4 -4.4,-2 -7,-8.3 -7,-13.4 0,-11 7.8,-21 22.8,-21 12,0 21.3,8.6 21.3,20 0,12 -7.4,21.6 -18,21.6 -3.4,0 -6.7,-1.8 -7.8,-4 L 31,60.7 c -0.8,3 -3,7 -4.5,9.4 z" data-reactid="20"/></svg>