<?xml version="1.0" encoding="UTF-8" standalone="no"?>
<svg
   xmlns:dc="http://purl.org/dc/elements/1.1/"
   xmlns:cc="http://creativecommons.org/ns#"
   xmlns:rdf="http://www.w3.org/1999/02/22-rdf-syntax-ns#"
   xmlns:svg="http://www.w3.org/2000/svg"
   xmlns="http://www.w3.org/2000/svg"
   id="svg4"
   version="1.1"
   viewBox="0 0 59.065098 52.997002"
   height="52.997002"
   width="59.065098">
  <metadata
     id="metadata10">
    <rdf:RDF>
      <cc:Work
         rdf:about="">
        <dc:format>image/svg+xml</dc:format>
        <dc:type
           rdf:resource="http://purl.org/dc/dcmitype/StillImage" />
        <dc:title></dc:title>
      </cc:Work>
    </rdf:RDF>
  </metadata>
  <defs
     id="defs8" />
  <path
     style="fill:#009cff;fill-rule:evenodd"
     id="path2"
     d="M 51.742,6.35 C 47.102,2.324 40.608,0 33.059,0 13.382,0.001 0,15.085 0,15.085 l 3.77,5.945 c 0,0 2.088,0.174 0.983,-3.328 0.954,-1.79 2.82,-4.2 6.466,-6.98 v 39.6 c -1.572,0.44 -3.65,1.268 -2.234,2.675 H 19.82 c 1.43,-1.42 -0.823,-2.276 -2.195,-2.675 V 40.98 c 0,0 7.427,2.896 15.434,2.896 7.034,0 13.435,-2.08 18.196,-5.835 4.76,-3.733 7.83,-9.308 7.81,-15.68 0.014,-6.257 -2.682,-12 -7.324,-16.01 z M 46,34.915 c -3.292,3.228 -8.08,5.27 -13.602,5.266 C 26.236,40.184 21.05,38.999 17.625,37.324 V 7.615 c 3.758,-2.653 9.852,-4.287 14.773,-4.277 5.98,0.005 10.674,2.25 13.85,5.654 3.168,3.426 4.898,7.977 4.914,13.267 -0.02,5.154 -1.87,9.4 -5.162,12.655 z" />
</svg>
