<?xml version="1.0" encoding="UTF-8" standalone="no"?>
<svg
   xmlns:dc="http://purl.org/dc/elements/1.1/"
   xmlns:cc="http://creativecommons.org/ns#"
   xmlns:rdf="http://www.w3.org/1999/02/22-rdf-syntax-ns#"
   xmlns:svg="http://www.w3.org/2000/svg"
   xmlns="http://www.w3.org/2000/svg"
   height="270.22095"
   width="247.70757"
   id="svg25"
   xml:space="preserve"
   viewBox="0 0 247.70757 270.22095"
   version="1.1"><metadata
     id="metadata31"><rdf:RDF><cc:Work
         rdf:about=""><dc:format>image/svg+xml</dc:format><dc:type
           rdf:resource="http://purl.org/dc/dcmitype/StillImage" /><dc:title></dc:title></cc:Work></rdf:RDF></metadata><defs
     id="defs29" /><style
     id="style2"
     type="text/css">
	.st0{fill:#212121;}
	.st1{fill:#4C4C4C;}
	.st2{opacity:0.45;fill:#231F20;}
	.st3{fill:#FFFFFF;}
</style><g
     transform="translate(-132.52699,-115.99065)"
     id="Edges" /><g
     transform="translate(-132.52699,-115.99065)"
     style="fill:#444444;fill-opacity:1"
     id="Symbol"><g
       style="fill:#444444;fill-opacity:1"
       id="g22"><path
         style="fill:#4bc2fb;fill-opacity:1"
         id="path16"
         d="m 286.4,335 c 0,-12.5 0,-25 0,-37.5 0,-9.4 4.3,-13.7 13.4,-13.7 3.2,0 6.3,0 9.5,0 6.4,0 10.5,3.6 11.4,10.2 0.3,2.2 0.4,4.5 0.4,6.8 0,23.5 0,47 0,70.4 0,3 -0.2,6 -1.5,8.7 -1.9,4.1 -4.8,6.5 -9.6,6.3 -3.6,-0.2 -7.2,0 -10.9,0 -8.4,0 -12.7,-4.4 -12.7,-13.2 0,-12.7 0,-25.3 0,-38 z"
         class="st3" /><path
         style="fill:#4bc2fb;fill-opacity:1"
         id="path18"
         d="m 191.7,335 c 0,-12.5 0,-25 0,-37.5 0,-9.4 4.3,-13.7 13.4,-13.7 3.2,0 6.3,0 9.5,0 6.4,0 10.5,3.6 11.4,10.2 0.3,2.2 0.4,4.5 0.4,6.8 0,23.5 0,47 0,70.4 0,3 -0.2,6 -1.5,8.7 -1.9,4.1 -4.8,6.5 -9.6,6.3 -3.6,-0.2 -7.2,0 -10.9,0 -8.4,0 -12.7,-4.4 -12.7,-13.2 0,-12.7 0,-25.3 0,-38 z"
         class="st3" /><path
         style="fill:#444444;fill-opacity:1"
         id="path20"
         d="m 379.9,237.4 c -0.7,-31.4 -12.4,-58.6 -33.4,-81.5 -18.4,-20 -40.9,-32.5 -67.3,-37.7 -7.9,-1.6 -15.9,-2.3 -23.8,-2.2 v 0 c -7.2,0.1 -14.5,0.8 -21.8,2.2 -26.4,5.2 -48.9,17.7 -67.3,37.7 -21,22.9 -32.8,50.1 -33.4,81.5 -0.7,33.6 -0.2,67.3 -0.2,100.9 0,3.2 0.7,6.1 2.5,8.8 3.9,5.7 9.7,7.8 16.1,7.8 11.6,0 19.6,-6.7 19.4,-19.1 -0.4,-30.9 -0.1,-61.8 -0.2,-92.7 0,-6 0.5,-11.9 1.7,-17.8 8.7,-41.9 43.5,-69.9 83.1,-70.4 v 0 c 40.4,-0.5 76.3,27.7 85.1,70.3 1.2,5.8 1.7,11.8 1.7,17.8 0,30.9 0.3,61.8 -0.2,92.7 -0.2,12.4 7.9,19.2 19.4,19.1 6.4,0 12.2,-2.1 16.1,-7.8 1.8,-2.6 2.5,-5.6 2.5,-8.8 0.1,-33.5 0.7,-67.2 0,-100.8 z"
         class="st3" /></g></g></svg>