<svg xmlns="http://www.w3.org/2000/svg" xmlns:svg="http://www.w3.org/2000/svg" id="Layer_1" width="99.8" height="99.95" x="0" y="0" version="1.1" viewBox="0 0 99.8 99.95" xml:space="preserve"><metadata id="metadata27"/><style id="style2" type="text/css">.st0{fill:#1966cc}.st1{fill:#318bff}</style><path style="fill:#1966cc" id="path4" d="m 49.9,20.275 c -8.2,0 -15.2,2.9 -20.9,8.7 -5.9,5.8 -8.7,12.8 -8.7,21 0,8.1 2.9,15.1 8.7,20.8 5.7,5.8 12.7,8.7 20.9,8.7 8.1,0 15.1,-2.9 20.9,-8.7 5.8,-5.7 8.7,-12.7 8.7,-20.8 0,-8.2 -2.9,-15.2 -8.7,-21 -5.8,-5.7 -12.8,-8.7 -20.9,-8.7 z m 18.9,48.6 c -5.3,5.2 -11.6,7.8 -18.9,7.8 -7.4,0 -13.7,-2.6 -18.8,-7.8 -5.3,-5.2 -7.9,-11.5 -7.9,-18.8 0,-7.5 2.6,-13.7 7.9,-18.9 5.1,-5.3 11.4,-7.9 18.8,-7.9 7.3,0 13.6,2.6 18.9,7.9 5.2,5.2 7.7,11.5 7.7,18.9 0,7.3 -2.5,13.6 -7.7,18.8 z m -18.9,-42.6 c -6.5,0 -12.2,2.3 -16.8,6.9 -4.7,4.7 -6.9,10.3 -6.9,16.8 0,6.5 2.3,12.1 6.9,16.8 4.7,4.7 10.3,7 16.8,7 6.6,0 12.1,-2.3 16.8,-7 4.7,-4.7 7,-10.3 7,-16.8 0,-6.6 -2.3,-12.2 -7,-16.8 -4.7,-4.7 -10.2,-6.9 -16.8,-6.9 z m 20.8,24.7 c -0.2,5.8 -2.5,10.6 -6.8,14.4 -4.3,3.9 -9.3,5.7 -15,5.3 -5.8,-0.3 -10.6,-2.6 -14.4,-6.8 -3.8,-4.3 -5.6,-9.3 -5.3,-15.1 0.3,-5.7 2.6,-10.5 6.9,-14.4 4.2,-3.9 9.3,-5.6 15,-5.3 5.7,0.3 10.5,2.6 14.3,6.9 3.8,4.3 5.6,9.3 5.3,15 z m 11.8,-14.7 c -1.7,-4.3 -4.3,-8.1 -7.5,-11.3 -3.3,-3.3 -7.1,-5.8 -11.3,-7.6 -4.3,-1.9 -9,-2.8 -13.8,-2.8 -4.9,0 -9.4,0.9 -13.8,2.8 -4.2,1.8 -8,4.3 -11.2,7.6 -3.3,3.3 -5.7,7 -7.5,11.3 -1.9,4.3 -2.8,8.9 -2.8,13.8 0,4.8 0.9,9.4 2.8,13.8 1.8,4.2 4.3,8 7.5,11.2 3.3,3.3 7.1,5.8 11.2,7.6 4.5,1.9 9,2.8 13.8,2.8 4.8,0 9.5,-0.9 13.8,-2.8 4.3,-1.8 8,-4.3 11.3,-7.6 3.2,-3.3 5.8,-7.1 7.5,-11.2 1.9,-4.4 2.9,-9 2.9,-13.8 0,-4.9 -1,-9.5 -2.9,-13.8 z m -2.7,26.4 c -1.7,3.9 -4,7.3 -7,10.3 -3,3 -6.4,5.3 -10.3,7 -4,1.7 -8.2,2.5 -12.6,2.5 -4.4,0 -8.7,-0.9 -12.6,-2.5 -3.9,-1.7 -7.3,-4 -10.4,-7 -2.9,-3 -5.3,-6.5 -6.9,-10.3 -1.7,-4.1 -2.5,-8.3 -2.5,-12.6 0,-4.5 0.8,-8.7 2.5,-12.7 1.6,-3.9 4,-7.3 6.9,-10.3 3.1,-3 6.5,-5.3 10.4,-7 4,-1.7 8.3,-2.5 12.6,-2.5 4.5,0 8.7,0.8 12.6,2.5 3.9,1.7 7.3,4 10.3,7 3,3 5.3,6.5 7,10.3 1.7,4.1 2.6,8.3 2.6,12.7 0,4.3 -0.8,8.5 -2.6,12.6 z" class="st0"/><path style="fill:#318bff" id="path6" d="m 34.7,58.175 c 0.5,0.9 1.1,1.8 1.7,2.6 v -21.6 c -2.5,3.1 -3.8,6.7 -3.8,10.8 0,3 0.7,5.8 2.1,8.2 z m 5.5,6.2 c 0.1,0 0.1,0 0,0 1.3,0.8 2.6,1.5 3.9,2 v -32.8 c -1.4,0.5 -2.7,1.1 -3.9,2 z m 7.8,-31.6 v 34.4 c 0,0 0,0 0,0 0.6,0.1 1.3,0.1 1.9,0.1 0.7,0 1.3,0 1.9,-0.1 0,0 0,0 0,0 v -34.4 c -0.6,-0.1 -1.3,-0.1 -1.9,-0.1 -0.6,0 -1.2,0 -1.9,0.1 z m 7.8,33.5 c 1.4,-0.5 2.6,-1.1 3.8,-1.9 0,0 0.1,0 0.1,-0.1 v -28.7 c -1.2,-0.8 -2.5,-1.5 -3.9,-2 z m 7.7,-27.1 v 21.6 c 0.7,-0.8 1.2,-1.7 1.7,-2.6 1.3,-2.4 2,-5.2 2,-8.2 0.1,-4.1 -1.2,-7.7 -3.7,-10.8 z" class="st1"/><path style="fill:#318bff" id="path20" d="m 42.1,0.575 c -1.7,0.3 -3.4,0.6 -5.1,1.1 l 2.7,10.3 c 1.3,-0.4 2.7,-0.6 4,-0.9 z m -25.2,28 -8.9,-5.8 c -1,1.5 -1.8,3 -2.6,4.5 l 9.5,4.8 c 0.6,-1.2 1.3,-2.4 2,-3.5 M 32,3.275 c -1.6,0.6 -3.2,1.3 -4.8,2.1 l 4.9,9.5 c 1.2,-0.6 2.5,-1.2 3.7,-1.7 z m -3.5,13.7 -5.8,-8.9 c -1.5,1 -2.9,2 -4.2,3.1 l 6.7,8.3 c 1,-1 2.1,-1.8 3.3,-2.5 m -6.4,5.2 -7.6,-7.5 c -1.2,1.2 -2.4,2.5 -3.5,3.8 l 8.3,6.7 c 0.9,-1.1 1.8,-2.1 2.8,-3 m 52.6,-2.8 6.8,-8.2 c -1.4,-1.1 -2.8,-2.2 -4.3,-3.1 l -5.8,8.9 c 1.1,0.7 2.2,1.5 3.3,2.4 m -2.1,-14 c -1.5,-0.8 -3.1,-1.5 -4.7,-2.1 l -3.9,10 c 1.3,0.5 2.6,1.1 3.8,1.7 z m 7.9,19.9 8.2,-6.7 c -1.1,-1.3 -2.3,-2.6 -3.5,-3.9 l -7.6,7.5 c 1.1,0.9 2.1,2 2.9,3.1 m 4.5,6.8 9.5,-4.9 c -0.8,-1.5 -1.7,-3 -2.6,-4.5 l -8.9,5.8 c 0.7,1.2 1.4,2.4 2,3.6 m 2.9,7.7 10.3,-2.7 c -0.5,-1.7 -1,-3.4 -1.6,-5 l -9.9,3.8 c 0.5,1.3 0.9,2.6 1.2,3.9 m -25,-38.1 c -1.7,-0.4 -3.4,-0.8 -5.1,-1.1 l -1.6,10.5 c 1.4,0.2 2.7,0.5 4.1,0.9 z m -10.4,-1.6 c -1.7,-0.1 -3.5,-0.1 -5.2,0 l 0.6,10.6 c 1.4,-0.1 2.8,-0.1 4.1,0 z m -40.6,60.1 -10.3,2.7 c 0.5,1.7 1,3.3 1.6,4.9 l 10,-3.8 c -0.5,-1.1 -0.9,-2.4 -1.3,-3.8 m 76.9,-4 10.5,1.6 c 0.3,-1.7 0.5,-3.5 0.5,-5.3 l -10.6,-0.5 c 0,1.4 -0.2,2.8 -0.4,4.2 m -2.1,7.9 9.9,3.8 c 0.6,-1.6 1.2,-3.3 1.6,-5 L 88,60.175 c -0.4,1.3 -0.8,2.6 -1.3,3.9 m 12.6,-21.9 -10.5,1.7 c 0.2,1.4 0.4,2.7 0.4,4.1 v 0 l 10.6,-0.6 v 0 c 0,-1.8 -0.2,-3.5 -0.5,-5.2 m -16.4,29.2 8.9,5.8 c 1,-1.5 1.8,-3 2.6,-4.6 l -9.5,-4.8 c -0.5,1.3 -1.2,2.5 -2,3.6 m -5.1,6.4 7.5,7.5 c 1.2,-1.2 2.4,-2.6 3.5,-3.9 l -8.3,-6.7 c -0.9,1.2 -1.8,2.2 -2.7,3.1 m -6.4,5.2 5.7,9 c 1.5,-1 2.9,-2 4.2,-3.1 l -6.7,-8.2 c -1,0.8 -2.1,1.6 -3.2,2.3 m -58.2,-47.1 -9.9,-3.8 c -0.6,1.6 -1.2,3.2 -1.6,4.9 l 10.3,2.8 c 0.3,-1.3 0.7,-2.6 1.2,-3.9 m 6.1,38.8 -8.3,6.7 c 1.1,1.4 2.3,2.7 3.5,3.9 l 7.6,-7.5 c -1,-0.9 -1.9,-2 -2.8,-3.1 m -4.5,-6.8 -9.5,4.9 c 0.8,1.5 1.6,3 2.6,4.5 l 9,-5.7 c -0.7,-1.3 -1.4,-2.5 -2.1,-3.7 m -4.2,-15.8 -10.6,0.6 c 0.1,1.7 0.3,3.4 0.5,5.1 l 10.5,-1.7 c -0.2,-1.3 -0.3,-2.6 -0.4,-4 m 14.6,28.5 -6.7,8.2 c 1.4,1.1 2.8,2.1 4.2,3.1 l 5.8,-8.9 c -1.1,-0.7 -2.3,-1.5 -3.3,-2.4 m -14.1,-36.8 -10.5,-1.6 c -0.3,1.7 -0.5,3.4 -0.5,5.2 l 10.6,0.5 c 0,-1.4 0.1,-2.7 0.4,-4.1 m 53,42.9 3.8,10 c 1.7,-0.6 3.3,-1.4 4.8,-2.2 l -4.8,-9.5 c -1.3,0.7 -2.5,1.2 -3.8,1.7 m -36.9,7.9 c 1.6,0.8 3.2,1.5 4.8,2.1 l 3.8,-9.9 c -1.3,-0.5 -2.5,-1.1 -3.7,-1.7 z m 20.1,5.3 c 1.7,0.1 3.5,0.1 5.3,0 L 52,89.275 c -1.4,0.1 -2.8,0.1 -4.1,0 z m 8.8,-11 1.7,10.5 c 1.7,-0.3 3.4,-0.6 5.1,-1.1 l -2.8,-10.3 c -1.3,0.4 -2.7,0.7 -4,0.9 m -19.1,9.4 c 1.7,0.4 3.4,0.8 5.1,1.1 l 1.7,-10.5 c -1.4,-0.2 -2.7,-0.5 -4,-0.9 z" class="st1"/></svg>