<svg viewBox="0 0 61 85" xmlns="http://www.w3.org/2000/svg" fill-rule="evenodd" clip-rule="evenodd" stroke-linejoin="round" stroke-miterlimit="2"><g fill="#8b89cc" fill-rule="nonzero"><path d="M47.17 37.13H13.01V26.86c3.47-13.75 17.08-13.94 17.08-13.94s13.62.2 17.08 13.94v10.27zM30.1 0S5.14-.82 0 26.86V45.7s.21 2.02 5.89 6.12c5.67 4.1 20.36 15.63 24.2 15.63 3.85 0 18.53-11.54 24.2-15.63 5.68-4.1 5.9-6.12 5.9-6.12V26.86C55.03-.82 30.08 0 30.08 0"/><path d="M30.1 71.7s-3.87-.39-6.9-2.49C20.17 67.11 0 52.7 0 52.7v28.53s.17 3.32 3.83 3.32h52.52c3.66 0 3.83-3.32 3.83-3.32V52.7S40.01 67.1 36.98 69.2c-3.02 2.1-6.89 2.48-6.89 2.48"/></g></svg>