<svg xmlns="http://www.w3.org/2000/svg" fill-rule="evenodd" stroke-linejoin="round" stroke-miterlimit="2" clip-rule="evenodd" viewBox="0 0 72 72"><path fill="#b92b27" d="M34.06 8.05c12.7 0 24.7 9.9 24.7 24.3 0 8.1-3.8 14.7-9.2 19.1 1.6 2.6 3.6 4.4 6 4.4 2.8 0 4-2.2 4.2-4h3.6c.2 2.4-1 11.6-11 11.6-6.2 0-9.4-3.6-11.8-7.6-2 .4-4.2.8-6.4.8-12.3 0-24.5-9.9-24.5-24.3s12.2-24.3 24.4-24.3zm.1 3.9c-9.2 0-13.2 6.9-13.2 20.3s4 20.3 13.2 20.3c1.7 0 3.2-.4 4.4-.8-1.8-4.2-4.2-8.2-8.8-8.2-.8 0-1.6.2-2.4.6l-1.4-2.8c2-1.7 4.7-3 8.4-3 5.8 0 8.8 2.8 11.2 6.4 1.4-3 2-7.2 2-12.5 0-13.4-4-20.3-13.4-20.3z"/></svg>