<svg xmlns="http://www.w3.org/2000/svg" xmlns:svg="http://www.w3.org/2000/svg" id="svg4" width="46" height="41.126" version="1.1" viewBox="0 0 46 41.126"><metadata id="metadata10"/><path id="path2" fill="#f60" d="m 45.33222,28.209738 10e-4,-0.004 -0.05,-0.049 -0.016,-0.017 c -0.725,-0.71 -2.978,-2.72 -6.307,-4.624 1.209,-0.029 2.073,-0.249 2.432,-0.82 0.707,-1.039 -1.715,-4.545 -6.248,-6.941 0,0 -0.87,-0.533 -1.985,-0.994 0.978,-1.287 1.102,-4.434 0.188,-7.8729998 -1.118,-4.223 -3.378,-7.28900001 -5.044,-6.84500001 -1.666,0.442 -2.109,4.22400001 -0.986,8.44500001 0.169,0.643 0.367,1.258 0.583,1.8389998 -0.667283,-0.7123728 -1.388413,-1.3723218 -2.157,-1.9739998 -3.438,-2.696 -7.086,-3.782 -8.15,-2.427 -1.065,1.357 0.86,4.6429998 4.296,7.3389998 1.433,1.122 2.901,1.966 4.204,2.47 l -0.043,0.057 c -0.868,1.146 -1.967,2.25 -3.287,3.27 -4.241,3.288 -9.4,4.688 -12.9980002,3.979 -1.8672133,-2.043911 -5.2718549,-0.724403 -5.274,2.044 6.218e-4,1.166392 0.670701,2.228873 1.723,2.732 -2.599,4.205 -4.427,8.102 -5.80000002,11.473 v -0.002 l -0.005,0.019 c -0.015,0.034 -0.03,0.069 -0.044,0.106 l 0.002,0.004 c -0.201,0.547 -0.906,2.617 0.421,1.25 v -0.002 c 3.65000002,-3.779 11.61700022,-10.779 23.39800022,-13.266 8.298,-1.73 15.755,-0.119 20.825,1.891 l 10e-4,-0.002 c 1.824,0.632 0.62,-0.752 0.32,-1.078 z m -9.305,-7.784 c -1.721999,0.002 -1.724999,-2.581 -0.003,-2.583 1.721999,-0.002 1.724999,2.581 0.003,2.583 z"/></svg>