<svg xmlns="http://www.w3.org/2000/svg" fill="#d13639" viewBox="0 0 110 35"><path d="M17.8 31.7l-1.6-4.1 15.4.8-.7 6.6zM21.5 0L0 10.2l3.3 15.3h4.4l-.7-11 .6-.2 2.7 11.2h4.5l-.1-13.4.6-.2 2.3 13.6h4.9l1.1-16.1.7-.3 1.2 16.4h6.3l2.3-22.4zm84.9 31.2l-6.1-1v-.8l5.9-.2-.1-1.5h-7.5l-.4 3.8 6.2 1.1v.7l-6.5.3-.2 1.4h9.1zM48 30.6l-.1 1.4 2.2.1v1.4l-4.7-.1.2-4.1 6.4-.1-.1-1.5h-8.3l-.7 7.3h9.4l-.2-4.5zm39.9 2.7V32l4.4-.1v-1.4l-4.5-.1v-1.3l5.9-.1v-1.5h-8l-.2 7.5h8.4l-.1-1.5zM81.5 35l-.8-7.4h-2.1l-3.1 3.5-3.1-3.5h-2.1l-.7 7.4h2.5l.2-4.8 3.2 3.3 3.2-3.3.2 4.8zM70.9.5h-5l-.4 22.9h6zm20.4 0H75.7l-.6 22.9h17.3zm-4.8 17.9l-5.5.2-.3-13.5 5.8.2zM110 5.5l-.6-5H94l.2 4.4 4.9.2.5 18.3h6.1l-1.8-18.1zM56.1 23.4h6.6l-4.3-10.3 3.4-1.9L59.5.5H42.7l-.6 5 3.8-.1-1.8 18.1H50l.2-5.8 4.2-2.3zM50.5 5.1l4.8-.1.6 4.6-5.6 2.6zm13 29.9H66l-2-7.4h-6L56 35h2.5l.4-1.9 4.1.1zm-4.2-3.3l.5-2.4 2.4-.1.5 2.4z"/></svg>