<?xml version="1.0" encoding="utf-8"?>
<!DOCTYPE svg PUBLIC "-//W3C//DTD SVG 1.1//EN" "http://www.w3.org/Graphics/SVG/1.1/DTD/svg11.dtd">
<svg version="1.1" id="Layer_1" xmlns="http://www.w3.org/2000/svg" xmlns:xlink="http://www.w3.org/1999/xlink" x="0px" y="0px"
	 viewBox="0 0 216 198.63" enable-background="new 0 0 216 198.63" xml:space="preserve">
<path d="M178.43,0H38.26C17.17,0,0,16.66,0,37.12v124.51c0,20.75,16.65,37,37.92,37h140.16c21.27,0,37.92-16.25,37.92-37V37.12
	C216,16.31,199.5,0,178.43,0z M211.74,161.62c0,18.36-14.79,32.75-33.67,32.75H37.92c-18.87,0-33.66-14.38-33.66-32.75l0-124.51
	c0-18.43,14.94-32.85,34.01-32.85h140.17c18.68,0,33.31,14.43,33.31,32.85V161.62z"/>
<path fill="#FFAB00" d="M178.43,4.25H38.26C19.2,4.25,4.25,18.68,4.25,37.11l0,124.51c0,18.36,14.79,32.75,33.66,32.75h140.16
	c18.88,0,33.67-14.38,33.67-32.75V37.11C211.74,18.68,197.11,4.25,178.43,4.25z"/>
<g>
	<path d="M185.49,118.2h-27.06l-4.29-26.98l-15.86,26.79h-2.97c-1.8-3.1-2.51-7.64-2.51-10.42c0-4.61,0.33-9.1,0.33-14.95
		c0-7.76-2.28-11.92-8.37-13.38v-0.23c12.94-1.8,18.81-10.36,18.81-22.42c0-17.13-11.39-20.84-26.32-20.84H77.08l-16.98,80.4h21.35
		l6.18-29.25h14.19c7.57,0,10.67,3.71,10.67,10.79c0,5.39-0.56,9.66-0.56,13.82c0,1.54,0.35,5.11,1.39,6.49
		c-0.01,0,15.43,16.28,15.43,16.28l-13.28,28.55c0,0,0,0,28.4-16.87l21.16,16.26l-3.95-26.93L185.49,118.2z M108.2,71.86H91.23
		l4.06-19.38h15.79c5.62,0,11.47,1.46,11.47,8.34C122.55,69.49,115.9,71.86,108.2,71.86z"/>
	<polygon fill="#FFFFFF" points="173.04,122.13 155.08,122.13 151.97,102.6 140.53,121.94 122.42,121.94 133.43,133.54
		124.38,152.98 144.16,141.23 159.74,153.21 156.84,133.46 	"/>
</g>
</svg>
