<svg xmlns="http://www.w3.org/2000/svg" id="Layer_1" data-name="Layer 1" viewBox="0 0 35 35"><defs><style>.cls-1{fill:#1eb7ec}</style></defs><title>_</title><path d="M30.49,19.75A13.2,13.2,0,0,0,15.21,4.47a7.84,7.84,0,0,0-10.7,10.7A13.19,13.19,0,0,0,19.79,30.45a7.84,7.84,0,0,0,10.7-10.7ZM17.55,25.89c-4.68,0-6.83-2.37-6.83-4.11a1.51,1.51,0,0,1,1.6-1.51c2,0,1.48,3,5.22,3,1.91,0,3-1.15,3-2.22,0-.65-.37-1.37-1.63-1.68l-4.17-1c-3.35-.85-3.94-2.7-3.94-4.42,0-3.57,3.28-4.86,6.41-4.86,2.88,0,6.31,1.58,6.31,3.73a1.49,1.49,0,0,1-1.67,1.42c-1.71,0-1.43-2.39-4.87-2.39-1.71,0-2.61.8-2.61,1.91s1.32,1.49,2.49,1.76l3.08.69c3.38.76,4.28,2.73,4.28,4.6C24.27,23.65,22,25.89,17.55,25.89Z" class="cls-1"/></svg>