<?xml version="1.0" encoding="UTF-8" standalone="no"?>
<svg
   xmlns:dc="http://purl.org/dc/elements/1.1/"
   xmlns:cc="http://creativecommons.org/ns#"
   xmlns:rdf="http://www.w3.org/1999/02/22-rdf-syntax-ns#"
   xmlns:svg="http://www.w3.org/2000/svg"
   xmlns="http://www.w3.org/2000/svg"
   xmlns:sodipodi="http://sodipodi.sourceforge.net/DTD/sodipodi-0.dtd"
   xmlns:inkscape="http://www.inkscape.org/namespaces/inkscape"
   width="40"
   height="40"
   viewBox="0 0 40 40"
   fill="#fff"
   class="Sidebar-logoSign"
   data-icon="sr_logo"
   version="1.1"
   id="svg20"
   sodipodi:docname="Songsterr.svg"
   inkscape:version="0.92.2 (5c3e80d, 2017-08-06)">
  <metadata
     id="metadata26">
    <rdf:RDF>
      <cc:Work
         rdf:about="">
        <dc:format>image/svg+xml</dc:format>
        <dc:type
           rdf:resource="http://purl.org/dc/dcmitype/StillImage" />
        <dc:title></dc:title>
      </cc:Work>
    </rdf:RDF>
  </metadata>
  <defs
     id="defs24" />
  <sodipodi:namedview
     pagecolor="#ffffff"
     bordercolor="#666666"
     borderopacity="1"
     objecttolerance="10"
     gridtolerance="10"
     guidetolerance="10"
     inkscape:pageopacity="0"
     inkscape:pageshadow="2"
     inkscape:window-width="1920"
     inkscape:window-height="1017"
     id="namedview22"
     showgrid="false"
     inkscape:zoom="11.313709"
     inkscape:cx="9.3270635"
     inkscape:cy="23.717979"
     inkscape:window-x="1272"
     inkscape:window-y="-8"
     inkscape:window-maximized="1"
     inkscape:current-layer="svg20" />
  <path
     d="m 28.3,5.4 c -0.138172,2.1677058 -0.329864,4.1180953 -0.5,6.5 -7.342766,-0.633502 -11.533373,4.366375 -7.8,10.6 -4.371257,3.924364 -1.899492,8.74196 5.7,10.9 v 0.2 c -2.042494,1.851563 -4.740185,4.370787 -7,4.4 C 16.736779,37.95336 12.942715,34.742715 10.4,32.2 9.5895015,31.112706 9.5567194,30.198659 9.4,29 9.1,28.8 8.9,28.8 8.6,28.8 H 8.2 c 0,0.2 0,0.3 -0.2,0.4 v 1.1 H 7.5 6.2 V 30 L 5.8,29.3 c 0,-0.2 0,-0.4 -0.2,-0.6 v -0.4 -0.4 c 0,-0.3 0,-0.5 0.2,-0.7 l 0.3,-0.6 c 0,-0.2 0.2,-0.3 0.2,-0.3 H 8 V 27 c 0.2,0 0.2,0.3 0.3,0.4 H 9.5 V 26 24 22.3 21 c -0.3786844,-0.008 -0.7650463,-0.0039 -1,0 v 0.2 l -0.2,0.4 v 0.3 H 7.9 c 0,0.2 -0.3,0.2 -0.5,0.2 H 7 c -0.2,0 -0.3,0 -0.3,-0.2 V 21.6 L 6.3,21 C 6.1,21 6,20.7 6,20.5 V 20 19.7 c 0,-0.2 0,-0.4 0.2,-0.6 0,0 0,-0.3 0.2,-0.5 v -0.3 h 1.9 v 0.5 c 0.2,0 0.2,0.2 0.2,0.3 v 0.4 H 10 C 10.107458,17.263065 9.8936575,14.893173 9.5,13 H 9 8 c 0,0 0,0.2 -0.2,0.3 v 0.6 H 7.6 c 0,0.2 -0.2,0.2 -0.3,0.2 H 6 5.7 V 13.7 L 5.3,13.1 c 0,-0.2 0,-0.4 -0.2,-0.6 v -0.4 -0.4 l 0.3,-0.6 0.3,-0.6 v -0.3 h 1.9 c 0,0.2 0,0.3 0.2,0.4 V 11 c 0,0.2 0,0.3 0.2,0.4 H 9.7 C 9.6032024,9.0810226 9.3624626,7.0122315 9.2,5 c 2.019268,-0.9841524 6.472384,-3.042075 9.6,-3.2 3.26523,0.2050456 7.361022,1.4491442 9.5,3.6 z"
     id="path2"
     style="fill:#3483f4;fill-opacity:1"
     inkscape:connector-curvature="0"
     sodipodi:nodetypes="ccccccccscccccccccsccccccccccccccccsssccscscccccsccccccccsccccccccccccsccccc" />
  <g
     id="g18"
     style="fill:none;fill-rule:evenodd">
    <path
       d="m 19.312426,26.263272 c -0.06042,-0.543748 0.0382,-0.973771 0.294974,-1.290068 0.25677,-0.317187 0.550856,-0.566849 0.883146,-0.74721 0.450669,-0.189731 0.921711,-0.326871 1.403794,-0.408699 0.531887,-0.06091 1.07059,-0.01439 1.584155,0.136825 0.442659,0.09877 0.864367,0.275029 1.245645,0.520648 0.407811,0.25677 0.717001,0.64148 0.928459,1.15502 0.151041,0.422027 0.317186,0.777418 0.497547,1.063507 0.18125,0.286979 0.392707,0.506432 0.634373,0.657474 0.453123,0.36161 1.071504,0.542859 1.856917,0.542859 0.935567,0 1.599259,-0.195465 1.991966,-0.58906 0.362499,-0.302082 0.543748,-0.663693 0.543748,-1.086608 0,-0.483331 -0.241665,-0.860046 -0.724108,-1.13192 -0.302083,-0.211457 -1.20833,-0.453123 -2.717852,-0.724997 -0.964796,-0.17227 -1.923682,-0.376137 -2.875113,-0.611273 -0.769421,-0.195465 -1.350485,-0.369606 -1.743192,-0.520647 -0.906247,-0.422027 -1.64546,-1.011087 -2.219416,-1.766293 -0.320333,-0.399381 -0.551751,-0.862521 -0.678797,-1.358482 -0.121427,-0.488528 -0.1823,-0.990138 -0.181249,-1.49353 0,-1.238537 0.317186,-2.264728 0.950671,-3.079462 0.675318,-0.862173 1.588336,-1.507709 2.626338,-1.856917 0.671552,-0.250367 1.371264,-0.417462 2.083479,-0.497548 0.811591,-0.09411 1.628067,-0.139799 2.44509,-0.136825 1.781397,0 3.245607,0.166145 4.392631,0.498436 0.935567,0.302082 1.720981,0.799629 2.354465,1.494418 0.634373,0.69479 1.163016,1.615252 1.585043,2.763164 0.151041,0.39093 0.09063,0.701898 -0.181249,0.927571 -0.270986,0.226561 -0.604165,0.399814 -0.995095,0.520647 -0.242554,0.06042 -0.491328,0.120833 -0.748098,0.18125 -0.276007,0.06358 -0.555885,0.108985 -0.837834,0.135937 -0.302082,0.03021 -0.724108,0 -1.267857,-0.09062 -0.371257,-0.07179 -0.735028,-0.17798 -1.086607,-0.317186 -0.381286,-0.142481 -0.712005,-0.394385 -0.950671,-0.724109 -0.151041,-0.573957 -0.408699,-0.996872 -0.77031,-1.267857 -0.512651,-0.362499 -1.116815,-0.543748 -1.811605,-0.543748 -0.755205,0 -1.282961,0.135937 -1.584155,0.407811 -0.33229,0.270985 -0.498435,0.604164 -0.498435,0.995094 0,0.423804 0.211457,0.755206 0.633484,0.996872 0.302082,0.211457 1.208329,0.407811 2.717852,0.58906 2.112799,0.271874 3.697842,0.633484 4.754241,1.086608 0.936455,0.392707 1.720981,1.041295 2.354465,1.947542 0.573956,0.844942 0.860935,1.780508 0.860935,2.807588 0,0.512651 -0.08352,1.018195 -0.248774,1.51663 -0.171743,0.510567 -0.391902,1.003544 -0.657473,1.472207 -0.603276,0.965775 -1.508635,1.735196 -2.716964,2.309153 -1.116815,0.573956 -2.822692,0.860046 -5.11674,0.860046 -3.049254,0 -5.222469,-0.467339 -6.521423,-1.403794 -1.297177,-0.935567 -2.127903,-2.248736 -2.490401,-3.939509 z"
       id="path16"
       inkscape:connector-curvature="0"
       style="opacity:0.97000002;fill:#3483f4;stroke-width:0.88847721;fill-opacity:1"
       sodipodi:nodetypes="cccccccccscsccccccccccccccccccccccscsccccscccscc" />
  </g>
</svg>
