<?xml version="1.0" encoding="UTF-8" standalone="no"?>
<svg
   xmlns:dc="http://purl.org/dc/elements/1.1/"
   xmlns:cc="http://creativecommons.org/ns#"
   xmlns:rdf="http://www.w3.org/1999/02/22-rdf-syntax-ns#"
   xmlns:svg="http://www.w3.org/2000/svg"
   xmlns="http://www.w3.org/2000/svg"
   style="fill:#128df6"
   height="36.200001"
   width="30.1"
   id="svg4"
   version="1.1"
   viewBox="0 0 30.1 36.200001">
  <metadata
     id="metadata10">
    <rdf:RDF>
      <cc:Work
         rdf:about="">
        <dc:format>image/svg+xml</dc:format>
        <dc:type
           rdf:resource="http://purl.org/dc/dcmitype/StillImage" />
        <dc:title></dc:title>
      </cc:Work>
    </rdf:RDF>
  </metadata>
  <defs
     id="defs8" />
  <path
     id="path2"
     d="m 13.9,24.5 c -0.2,-0.2 -0.2,-0.5 0,-0.7 v -0.6 c 0.2,0 0.3,-0.2 0.5,-0.3 0.2,0 0.3,-0.2 0.5,-0.3 0.3,-0.2 0.8,-0.3 1.3,-0.4 h 1.4 l 1.2,0.6 0.8,1 c 0,0.5 0.3,0.8 0.4,1 l 0.6,0.7 c 0.4,0.4 1,0.5 1.7,0.5 0.8,0 1.4,-0.2 2,-0.5 0.2,-0.3 0.4,-0.6 0.4,-1 0,-0.5 -0.3,-1 -0.8,-1 -0.2,-0.2 -0.5,-0.3 -1,-0.4 -0.3,-0.3 -1,-0.4 -1.5,-0.5 l -2.5,-0.4 -1.6,-0.6 c -0.8,-0.3 -1.5,-1 -2,-1.7 -0.6,-0.8 -1,-1.7 -1,-2.7 0,-1 0.4,-2 1,-2.8 0.6,-0.8 1.4,-1.4 2.5,-1.8 1,-0.4 2.3,-0.6 4,-0.6 h 2.5 l 1.6,0.5 c 1,0.3 1.7,0.7 2.3,1.4 0.6,0.6 1,1.5 1.5,2.6 V 17 c 0,0 0,0.3 -0.2,0.4 l -0.4,0.3 c -0.2,0 -0.3,0 -0.5,0.2 l -1.5,0.3 h -1.2 l -1,-0.4 -0.8,-0.7 c -0.2,-0.7 -0.4,-1 -0.8,-1.3 -0.4,-0.3 -1,-0.5 -1.7,-0.5 -0.6,0 -1,0 -1.4,0.4 -0.3,0.2 -0.5,0.6 -0.5,1 0,0.3 0.2,0.6 0.6,1 l 1,0.2 c 0.4,0 1,0 1.5,0.2 2,0.3 3.4,0.6 4.3,1 1,0.4 1.7,1 2.2,2 0.5,0.7 0.8,1.6 0.8,2.5 0,1 -0.3,2 -0.8,2.8 -0.3,0.5 -0.6,1 -1,1.3 l -1.6,1 c -1,0.5 -2.7,0.8 -4.8,0.8 -2.8,0 -4.8,-0.5 -6,-1.4 -0.6,-0.4 -1,-1 -1.5,-1.6 -0.4,-0.6 -0.7,-1.3 -0.8,-2 z m 9,-21.3 0.3,0.4 c 0,0.5 0,1.2 -0.2,2.3 l -0.3,4.2 C 22,9.9 21.2,9.9 20.7,9.9 c -0.8,0 -1.4,0 -2,0.2 -0.2,0 -0.5,0 -0.7,0.2 -0.3,0 -0.6,0 -0.8,0.2 -0.6,0.2 -1.2,0.5 -1.7,1 -0.6,0.3 -1,0.8 -1.4,1.3 l -1,1.6 -0.2,1.8 v 1.5 c 0,0.3 0.3,0.7 0.4,1 l 0.8,1.2 0.6,0.5 0.2,0.3 -0.5,0.2 -0.5,0.3 c -0.2,0 -0.4,0.3 -0.6,0.5 l -0.6,1 -0.2,1.5 v 1.6 c 0,0.6 0.3,1 0.5,1.7 0.2,0.5 0.5,1 1,1.4 0.3,0.5 0.8,0.8 1.4,1 l 2,1 1.7,0.5 1.2,0.2 h 0.3 v 0.2 l -1.8,1.6 c -0.6,0.6 -1.2,1 -1.8,1.4 -0.7,0.4 -1.3,0.8 -2,1 -0.4,0.3 -1,0.4 -1.4,0.4 -0.6,0 -1.2,0 -1.7,-0.4 -0.7,-0.2 -1.3,-0.6 -1.8,-1 L 8.5,33.4 6.8,31.9 5.3,30.4 C 4.9,30 4.6,29.4 4.5,29.1 V 28.2 C 4.3,27.9 4.3,27.5 4.3,27.2 4,27 3.8,27 3.5,27 H 3.1 c 0,0.2 0,0.3 -0.2,0.4 v 1.1 H 2.4 1.1 V 28.2 L 0.7,27.5 c 0,-0.2 0,-0.4 -0.2,-0.6 v -0.4 -0.4 c 0,-0.3 0,-0.5 0.2,-0.7 L 1,24.8 c 0,-0.2 0.2,-0.3 0.2,-0.3 h 1.7 v 0.7 c 0.2,0 0.2,0.3 0.3,0.4 h 1.2 v -1.4 -2 -1.7 -1.3 H 3.9 C 3.7,19 3.5,19 3.4,19.2 v 0.2 l -0.2,0.4 v 0.3 H 2.8 c 0,0.2 -0.3,0.2 -0.5,0.2 H 1.9 c -0.2,0 -0.3,0 -0.3,-0.2 V 19.8 L 1.2,19.2 C 1,19.2 0.9,18.9 0.9,18.7 v -0.5 -0.3 c 0,-0.2 0,-0.4 0.2,-0.6 0,0 0,-0.3 0.2,-0.5 V 16.5 H 3.2 V 17 c 0.2,0 0.2,0.2 0.2,0.3 v 0.4 H 4.9 V 16.2 13.6 L 4.4,11.2 h -0.5 -1 c 0,0 0,0.2 -0.2,0.3 v 0.6 H 2.5 c 0,0.2 -0.2,0.2 -0.3,0.2 H 0.9 0.6 V 11.9 L 0.2,11.3 c 0,-0.2 0,-0.4 -0.2,-0.6 V 10.3 9.9 L 0.3,9.3 0.6,8.7 V 8.4 h 1.9 c 0,0.2 0,0.3 0.2,0.4 v 0.4 c 0,0.2 0,0.3 0.2,0.4 H 4.6 C 4.6,8 4.4,6.6 4.3,5.6 L 4.1,3.6 V 3.2 h 0.2 l 1.3,-0.8 2.3,-1 2.8,-1 c 1,-0.3 2,-0.4 3,-0.4 1,0 2,0 3,0.4 l 3,1 2.2,1 z" />
</svg>
