<svg xmlns="http://www.w3.org/2000/svg" id="Layer_1" width="6190" height="645" version="1"><path id="path4" d="M803 0c-55 0-100 44-100 99v373c0 55 45 99 100 99h132v75h124v-75h141c55 0 99-44 99-99V99c0-55-44-99-99-99H803zm25 99h339v364h-108v-57H935v57H828V99zM116 0C61 0 16 44 16 99v133c0 55 45 99 100 99h380v132H0v9c0 55 44 99 99 99h406c55 0 99-44 99-99V323c0-55-44-100-99-100H124V99h356v50h116V99c0-55-45-99-100-99H116zm1282 0v472c0 55 45 99 100 99h356c55 0 99-44 99-99V0h-124v463h-307V0h-124zm865 8l-285 563h124l63-124h320l63 124h125L2387 8l-4-8h-116l-4 8zm62 123l110 217h-220l110-217zM2731 0v571h124V356h78l207 215h166l-207-215h62c55 0 99-45 99-100V99c0-55-44-99-99-99h-430zm124 99h248c18 0 33 15 33 33v91c0 19-15 34-33 34h-248V99zm513-99v571h480V463h-356V99h356V0h-480z"/><path id="path6" fill="#e20a16" d="M3600 223h206v108h-206z" class="st0"/><path id="path8" d="M4113 0v571h479V463h-355V99h355V0h-480z"/><path id="path10" fill="#e20a16" d="M4344 223h207v108h-207z" class="st0"/><path id="path12" d="M4692 0v571h115V167l298 355 9 10 32 39h84V0h-125v384L4808 29l-25-29h-91zm637 0h132v571h-132zm198 0l248 276-250 295h149l178-210 189 210h149l-266-295L6158 0h-149l-161 191L5676 0h-149z"/></svg>