<svg xmlns="http://www.w3.org/2000/svg" xmlns:svg="http://www.w3.org/2000/svg" id="svg2" width="186.932" height="102.232" version="1.1" viewBox="0 0 186.932 102.232"><metadata id="metadata8"/><path id="path817" d="M 81.923984,12.843619 70.042451,30.474281 C 48.264826,13.277412 22.130808,27.096949 21.974345,48.234336 c -0.06651,8.985738 8.092451,29.616609 28.521073,29.382802 32.917297,-0.376742 44.457254,-78.25113936 87.003472,-77.61324036 40.46484,0.606693 55.43623,35.13331736 47.29533,63.34175636 -8.44703,29.26923 -42.10923,53.528786 -80.4172,28.4055 L 116.41876,74.934212 C 173.97873,100.50199 176.03811,22.361535 138.74736,23.192051 102.93062,23.989738 101.50858,100.98204 48.497321,100.91755 9.6960237,100.87035 -0.3293483,64.840374 0.0081667,50.601309 1.0291877,7.5264936 45.898901,-13.256384 81.923984,12.843619 Z" style="opacity:1;fill:#0f90fa;fill-opacity:1;stroke:none;stroke-width:1px;stroke-linecap:butt;stroke-linejoin:miter;stroke-opacity:1"/></svg>