<svg xmlns="http://www.w3.org/2000/svg" xmlns:svg="http://www.w3.org/2000/svg" id="Layer_1" width="124.99" height="33.4" x="0" y="0" version="1.1" viewBox="0 0 124.99 33.4" xml:space="preserve"><metadata id="metadata51"/><style id="style2" type="text/css">.st0{fill:#e30613}.st1{fill:#004996}</style><g id="g44" transform="translate(-0.025)"><g id="g24"><path style="fill:#e30613" id="path4" d="m 88.8,0.1 c -9.6,0 -16,4.6 -16,11.6 0,6.4 5.8,10.7 14.5,10.7 2.8,0 5.4,-0.3 8.3,-1.1 V 16 c -2.1,2.2 -4.6,3.1 -7.2,3.1 -5.2,0 -8.7,-3.2 -8.7,-7.8 0,-4.6 3.7,-7.9 8.8,-7.9 2.8,0 5,1 6.8,2.7 V 0.6 C 93.5,0.2 91.1,0.1 88.8,0.1" class="st0"/><path style="fill:#e30613" id="path6" d="m 16.6,3.8 c 3.6,0 7.8,0.7 9.6,2.1 V 0.7 H 0.9 V 5.9 C 2.7,4.5 6.5,4 10.6,3.9 V 18 c 0,2 -0.2,2.6 -1,3.7 h 8.1 C 16.8,20.6 16.6,20 16.6,18 Z" class="st0"/><path style="fill:#e30613" id="path8" d="M 42.9,8.9 C 41.4,9.4 38.8,9.5 37.4,9.5 H 35.3 V 3.9 h 2.9 c 2.6,0 7,0.5 8.6,1.9 V 0.7 H 28.4 c 0.9,1.1 1,1.7 1,3.7 V 18 c 0,2 -0.2,2.7 -1,3.7 H 48 v -5.1 c -2.7,1.9 -7.8,1.9 -9.9,1.9 h -2.9 v -5.8 h 2.1 c 1.4,0 4,0.2 5.5,0.6 V 8.9 Z" class="st0"/><path style="fill:#e30613" id="path10" d="M 70.2,1.4 C 67.3,0.5 63.4,0 60.5,0 55.2,0 50,1.6 50,6.9 c 0,9.2 16,4.3 16,9.9 0,1.8 -2.8,2.6 -5.1,2.6 -4.1,0 -7,-0.6 -10.6,-2.8 v 4.6 c 2.7,0.9 6.3,1.3 10.3,1.3 5.5,0 10.7,-1.4 10.7,-6.8 0,-9.6 -16,-5.3 -16,-10 0,-1.9 2.6,-2.6 4.8,-2.6 3.8,0 7.8,1.1 10.1,3.2 0,0 0,-4.9 0,-4.9 z" class="st0"/><path style="fill:#e30613" id="path12" d="M 111.1,0.1 C 102.9,0.1 97,4.8 97,11.5 c 0,6.6 5.2,10.9 13.1,10.9 8.3,0 14.1,-4.6 14.1,-11.4 C 124.1,4.5 118.9,0.1 111.1,0.1 Z m -0.5,19.1 c -4.4,0 -7.2,-3.6 -7.2,-8 0,-4.4 2.8,-8 7.2,-8 4.3,0 7.2,3.6 7.2,8 0,4.5 -2.9,8 -7.2,8 z" class="st0"/><path style="fill:#004996" id="path14" d="m 9.5,27.7 h 15.2 c 0.1,0 0.2,0.1 0,0.1 -1.7,0.7 -4.2,3.1 -4.2,3.1 -1.7,1.5 -3.1,2.5 -5.9,2.5 H 0.1 c -0.1,0 -0.1,-0.1 0,-0.1 1.6,-0.8 4,-3.2 4,-3.2 0.9,-1 2.9,-2.4 5.4,-2.4" class="st1"/><path style="fill:#004996" id="path16" d="m 109.6,27.7 h 15.3 c 0.1,0 0.2,0.1 0,0.1 -1.7,0.7 -4.2,3.1 -4.2,3.1 -1.7,1.5 -3.1,2.5 -5.9,2.5 h -14.6 c -0.1,0 -0.1,-0.1 0,-0.1 1.6,-0.8 4,-3.2 4,-3.2 0.9,-1 2.9,-2.4 5.4,-2.4" class="st1"/><path style="fill:#004996" id="path18" d="m 34.6,27.7 h 15.2 c 0.1,0 0.2,0.1 0,0.1 -1.7,0.7 -4.2,3.1 -4.2,3.1 -1.7,1.5 -3.1,2.5 -5.9,2.5 H 25.1 c -0.1,0 -0.1,-0.1 0,-0.1 1.6,-0.8 4,-3.2 4,-3.2 0.9,-1 3,-2.4 5.5,-2.4" class="st1"/><path style="fill:#004996" id="path20" d="m 59.6,27.7 h 15.3 c 0.1,0 0.2,0.1 0,0.1 -1.7,0.7 -4.2,3.1 -4.2,3.1 -1.7,1.5 -3.1,2.5 -5.9,2.5 H 50.1 c -0.1,0 -0.1,-0.1 0,-0.1 1.6,-0.8 4,-3.2 4,-3.2 1,-1 3,-2.4 5.5,-2.4" class="st1"/><path style="fill:#004996" id="path22" d="m 84.6,27.7 h 15.3 c 0.1,0 0.2,0.1 0,0.1 -1.7,0.7 -4.2,3.1 -4.2,3.1 -1.7,1.5 -3.1,2.5 -5.9,2.5 H 75.2 c -0.1,0 -0.1,-0.1 0,-0.1 1.6,-0.8 4,-3.2 4,-3.2 0.9,-1 2.9,-2.4 5.4,-2.4" class="st1"/></g></g></svg>