<?xml version="1.0" encoding="UTF-8" standalone="no"?>
<svg
   xmlns:dc="http://purl.org/dc/elements/1.1/"
   xmlns:cc="http://creativecommons.org/ns#"
   xmlns:rdf="http://www.w3.org/1999/02/22-rdf-syntax-ns#"
   xmlns:svg="http://www.w3.org/2000/svg"
   xmlns="http://www.w3.org/2000/svg"
   viewBox="0 0 934.97938 924.86138"
   version="1.1"
   id="svg4494"
   width="934.97949"
   height="924.86139">
  <metadata
     id="metadata4500">
    <rdf:RDF>
      <cc:Work
         rdf:about="">
        <dc:format>image/svg+xml</dc:format>
        <dc:type
           rdf:resource="http://purl.org/dc/dcmitype/StillImage" />
        <dc:title></dc:title>
      </cc:Work>
    </rdf:RDF>
  </metadata>
  <defs
     id="defs4498" />
  <g
     id="g6728"
     transform="matrix(25.894067,0,0,25.894067,2.7930441,-20.472745)">
    <path
       id="path6714"
       d="M -0.10786375,17.824959 C 2.8102807,-5.5201965 34.638819,-4.5597159 36,18.8 34.947197,42.847757 0.29068619,42.285747 -0.10786375,17.824959 Z"
       style="fill:#fafbfc;fill-opacity:1;stroke:#000000;stroke-width:0;stroke-linecap:butt;stroke-linejoin:miter;stroke-miterlimit:4;stroke-dasharray:none;stroke-opacity:1" />
  </g>
  <g
     id="layer1"
     style="display:inline"
     transform="translate(857.3636,847.18812)" />
  <path
     style="fill:#005689;fill-opacity:1;stroke-width:25.89406586"
     d="m 554.33666,207.39504 c 0,-126.880915 -38.8411,-147.596175 -85.45043,-147.596175 -46.60931,0 -82.86101,18.12585 -82.86101,147.596175 0,129.47032 38.84111,142.41735 82.86101,142.41735 46.60933,-2.5894 85.45043,-15.53643 85.45043,-142.41735 M 386.02522,694.20348 c -59.55635,0 -75.09279,44.0199 -75.09279,75.09278 0,46.60932 41.43051,88.03987 163.13262,88.03987 137.23855,0 176.07964,-38.84114 176.07964,-88.03987 0,-44.01991 -33.66227,-75.09278 -88.03981,-75.09278 z M 274.68075,41.673015 C 114.13754,114.1764 2.7930441,274.7196 2.7930441,463.74628 c 0,126.88093 51.7881399,243.40422 134.6491459,326.26521 v -7.76816 c 0,-82.86104 80.27161,-113.93392 152.77499,-129.47037 -67.32456,-15.53643 -100.98685,-64.73516 -100.98685,-113.93389 0,-67.32458 75.09278,-124.29152 111.34447,-150.18559 l -5.1788,-2.5894 C 230.66084,349.81239 189.23033,287.66664 189.23033,204.80564 c 0,-69.91399 31.07288,-126.880925 85.45042,-163.132625 M 934.97939,466.33569 c 0,-191.61609 -116.52326,-357.3381 -282.24528,-427.252065 62.08239,54.647846 88.06214,111.750095 93.21864,178.669045 0,139.82794 -113.9339,212.33132 -277.06652,212.33132 -41.4305,0 -69.91397,-2.5894 -106.16566,-12.94702 -15.53645,10.35762 -28.48349,28.48347 -28.48349,46.60931 0,23.30465 20.71527,41.4305 46.60933,41.4305 h 227.86778 c 142.41736,0 212.33134,56.96696 212.33134,183.84787 0,41.43052 -7.76823,80.27161 -25.89409,111.34447 85.45043,-88.0398 139.82795,-204.56311 139.82795,-334.03343"
     id="path4492" />
</svg>
