<?xml version="1.0" encoding="UTF-8" standalone="no"?>
<svg
   xmlns:dc="http://purl.org/dc/elements/1.1/"
   xmlns:cc="http://creativecommons.org/ns#"
   xmlns:rdf="http://www.w3.org/1999/02/22-rdf-syntax-ns#"
   xmlns:svg="http://www.w3.org/2000/svg"
   xmlns="http://www.w3.org/2000/svg"
   height="35.717113"
   width="36.107864"
   id="svg4494"
   version="1.1"
   viewBox="0 0 36.107864 35.717113">
  <metadata
     id="metadata4500">
    <rdf:RDF>
      <cc:Work
         rdf:about="">
        <dc:format>image/svg+xml</dc:format>
        <dc:type
           rdf:resource="http://purl.org/dc/dcmitype/StillImage" />
        <dc:title></dc:title>
      </cc:Work>
    </rdf:RDF>
  </metadata>
  <defs
     id="defs4498" />
  <g
     transform="translate(0.10786425,-0.79063459)"
     id="g6728">
    <path
       style="fill:#fafbfc;fill-opacity:1;stroke:#000000;stroke-width:0;stroke-linecap:butt;stroke-linejoin:miter;stroke-miterlimit:4;stroke-dasharray:none;stroke-opacity:1"
       d="M -0.10786375,17.824959 C 2.8102807,-5.5201965 34.638819,-4.5597159 36,18.8 34.947197,42.847757 0.29068619,42.285747 -0.10786375,17.824959 Z"
       id="path6714" />
  </g>
  <g
     transform="translate(0.10786425,-0.79063459)"
     style="display:inline"
     id="layer1" />
  <path
     id="path4492"
     d="m 21.407864,8.0093654 c 0,-4.9 -1.5,-5.7 -3.3,-5.7 -1.8,0 -3.2,0.7 -3.2,5.7 0,4.9999996 1.5,5.4999996 3.2,5.4999996 1.8,-0.1 3.3,-0.6 3.3,-5.4999996 m -6.5,18.7999996 c -2.3,0 -2.9,1.7 -2.9,2.9 0,1.8 1.6,3.4 6.3,3.4 5.3,0 6.8,-1.5 6.8,-3.4 0,-1.7 -1.3,-2.9 -3.4,-2.9 z m -4.3,-25.1999996 c -6.1999997,2.8 -10.49999975,8.9999996 -10.49999975,16.2999996 0,4.9 2.00000005,9.4 5.20000005,12.6 v -0.3 c 0,-3.2 3.1,-4.4 5.8999997,-5 -2.5999997,-0.6 -3.8999997,-2.5 -3.8999997,-4.4 0,-2.6 2.8999997,-4.8 4.2999997,-5.8 l -0.2,-0.1 c -2.4999997,-1.4 -4.0999997,-3.8 -4.0999997,-6.9999996 0,-2.7 1.2,-4.9 3.2999997,-6.3 m 25.5,16.3999996 c 0,-7.4 -4.5,-13.7999996 -10.9,-16.4999996 2.397553,2.1104397 3.400862,4.315665 3.6,6.9 0,5.3999996 -4.4,8.1999996 -10.7,8.1999996 -1.6,0 -2.7,-0.1 -4.1,-0.5 -0.6,0.4 -1.1,1.1 -1.1,1.8 0,0.9 0.8,1.6 1.8,1.6 h 8.8 c 5.5,0 8.2,2.2 8.2,7.1 0,1.6 -0.3,3.1 -1,4.3 3.3,-3.4 5.4,-7.9 5.4,-12.9"
     style="fill:#005689;fill-opacity:1" />
</svg>
