<?xml version="1.0" encoding="UTF-8" standalone="no"?>
<svg
   xmlns:dc="http://purl.org/dc/elements/1.1/"
   xmlns:cc="http://creativecommons.org/ns#"
   xmlns:rdf="http://www.w3.org/1999/02/22-rdf-syntax-ns#"
   xmlns:svg="http://www.w3.org/2000/svg"
   xmlns="http://www.w3.org/2000/svg"
   xmlns:sodipodi="http://sodipodi.sourceforge.net/DTD/sodipodi-0.dtd"
   xmlns:inkscape="http://www.inkscape.org/namespaces/inkscape"
   height="640px"
   version="1.1"
   width="640px"
   id="svg460"
   sodipodi:docname="logo16.svg"
   inkscape:version="0.92.2 (5c3e80d, 2017-08-06)">
  <metadata
     id="metadata464">
    <rdf:RDF>
      <cc:Work
         rdf:about="">
        <dc:format>image/svg+xml</dc:format>
        <dc:type
           rdf:resource="http://purl.org/dc/dcmitype/StillImage" />
      </cc:Work>
    </rdf:RDF>
  </metadata>
  <sodipodi:namedview
     pagecolor="#ffffff"
     bordercolor="#666666"
     borderopacity="1"
     objecttolerance="10"
     gridtolerance="10"
     guidetolerance="10"
     inkscape:pageopacity="0"
     inkscape:pageshadow="2"
     inkscape:window-width="1920"
     inkscape:window-height="1017"
     id="namedview462"
     showgrid="false"
     inkscape:zoom="1.0429825"
     inkscape:cx="300.61246"
     inkscape:cy="342.64273"
     inkscape:window-x="1272"
     inkscape:window-y="-8"
     inkscape:window-maximized="1"
     inkscape:current-layer="svg460" />
  <defs
     id="defs2" />
  <path
     d="M 40,0 V 40 H 0 c 0,186.66667 0,373.33333 0,560 h 40 v 40 c 66.66667,0 133.33333,0 200,0 v -40 h 40 v 40 c 66.66667,0 133.33333,0 200,0 v -40 h 40 v -40 h 40 c 0,-53.33333 0,-106.66667 0,-160 h 40 v -40 h 40 c 0,-66.66667 0,-133.33333 0,-200 -26.66667,0 -53.33333,0 -80,0 0,-40 0,-80 0,-120 H 520 V 0 C 360,0 200,0 40,0 Z"
     id="rect4"
     style="fill:#deeed6;fill-opacity:1"
     inkscape:connector-curvature="0"
     sodipodi:nodetypes="ccccccccccccccccccccccccc" />
  <path
     d="m 80,40 v 40 c 145.84604,0 268.87725,0 400,0 V 40 C 342.50262,40 198.55702,40 80,40 Z m 0,80 v 40 c 120,0 240,0 360,0 v -40 c -120,0 -240,0 -360,0 z M 40,520 v 40 c 146.66667,0 293.33333,0 440,0 v -40 c -146.66667,0 -293.33333,0 -440,0 z"
     id="rect32"
     style="fill:#30346d;fill-opacity:1"
     inkscape:connector-curvature="0"
     sodipodi:nodetypes="ccccccccccccccc" />
  <path
     d="m 40,80 c 0,146.66667 0,293.33333 0,440 146.66667,0 293.33333,0 440,0 0,-146.66667 0,-293.33333 0,-440 -146.66667,0 -293.33333,0 -440,0 z m 40,40 c 120,0 240,0 360,0 0,80 0,160 0,240 -120,0 -240,0 -360,0 0,-80 0,-160 0,-240 z m 80,280 h 40 v 40 c 40,0 80,0 120,0 v -40 h 40 v 40 h -40 v 40 c -40,0 -80,0 -120,0 v -40 h -40 z"
     id="rect58"
     inkscape:connector-curvature="0"
     sodipodi:nodetypes="ccccccccccccccccccccccc"
     style="fill:#597dce;fill-opacity:1" />
  <path
     d="m 480,80 c 0,146.53544 0,302.86621 0,440 h 40 c 0,-53.33333 0,-106.66667 0,-160 h 40 v -40 h -40 c 0,-80 0,-160 0,-240 z m 80,240 h 40 c 0,-40 0,-80 0,-120 h -40 c 0,40 0,80 0,120 z M 160,200 v 120 h 40 V 200 Z m 160,0 v 120 h 40 V 200 Z M 80,560 v 40 h 120 v -40 z m 240,0 v 40 h 120 v -40 z"
     id="rect80"
     style="fill:#140c1c;fill-opacity:1"
     inkscape:connector-curvature="0"
     sodipodi:nodetypes="cccccccccccccccccccccccccccccccccc" />
</svg>
