<?xml version="1.0" encoding="UTF-8" standalone="no"?>
<svg
   xmlns:dc="http://purl.org/dc/elements/1.1/"
   xmlns:cc="http://creativecommons.org/ns#"
   xmlns:rdf="http://www.w3.org/1999/02/22-rdf-syntax-ns#"
   xmlns:svg="http://www.w3.org/2000/svg"
   xmlns="http://www.w3.org/2000/svg"
   style="display:block"
   height="428.39999"
   width="400"
   version="1.1"
   id="svg">
  <metadata
     id="metadata12">
    <rdf:RDF>
      <cc:Work
         rdf:about="">
        <dc:format>image/svg+xml</dc:format>
        <dc:type
           rdf:resource="http://purl.org/dc/dcmitype/StillImage" />
        <dc:title></dc:title>
      </cc:Work>
    </rdf:RDF>
  </metadata>
  <defs
     id="defs10" />
  <g
     id="svgg">
    <path
       style="fill:#000000;fill-rule:evenodd;stroke:none"
       d="m 314.807,28.187 c -0.29,0.542 -0.29,342.884 0,343.426 0.202,0.377 0.574,0.387 14.5,0.387 H 343.6 v -57.099 -57.098 l 14.25,-0.052 14.25,-0.051 0.051,-14.25 0.052,-14.25 H 386.101 400 v -57.8 -57.8 h -14.6 -14.6 v 57.1 57.1 h -13.6 -13.6 v -100 -100 h -14.293 c -13.926,0 -14.298,0.01 -14.5,0.387 M 86.2,157.1 v 42.3 H 100 113.8 V 157.1 114.8 H 100 86.2 v 42.3 m 114.292,-42.05 c -0.052,0.138 -0.071,19.15 -0.043,42.25 l 0.051,42 13.75,0.051 13.75,0.052 V 157.101 114.8 h -13.706 c -10.781,0 -13.727,0.053 -13.802,0.25 M 28.45,400.149 27.8,400.473 V 414.436 428.4 H 71.4 115 v -13.977 -13.977 l -0.68,-0.323 c -1.045,-0.496 -84.873,-0.47 -85.87,0.026 m 171.4,0.049 -0.65,0.396 v 13.903 13.903 h 43.6 43.6 v -14.01 -14.01 l -0.694,-0.29 c -1.266,-0.529 -84.984,-0.424 -85.856,0.108"
       id="path0" />
    <path
       style="fill:#c0dcc0;fill-rule:evenodd;stroke:none"
       d="m 28.85,86.132 c -0.359,0.145 -0.369,141.669 -0.01,142.028 0.416,0.416 256.229,0.342 256.646,-0.074 0.416,-0.416 0.49,-141.43 0.074,-141.846 C 285.319,85.999 29.447,85.892 28.85,86.132 m 85.305,27.979 0.445,0.312 v 42.664 c 0,39.442 -0.025,42.685 -0.331,42.939 -0.273,0.226 -2.749,0.274 -14.269,0.274 -11.52,0 -13.996,-0.048 -14.269,-0.274 -0.306,-0.254 -0.331,-3.497 -0.331,-42.939 v -42.664 l 0.445,-0.312 c 0.391,-0.274 2.069,-0.311 14.155,-0.311 12.086,0 13.764,0.037 14.155,0.311 m 114.485,0.049 c 0.211,0.211 0.27,8.214 0.311,42.758 l 0.052,42.497 -0.493,0.493 -0.492,0.492 h -13.622 c -13.651,0 -14.206,-0.026 -14.643,-0.68 -0.413,-0.619 -0.166,-85.107 0.251,-85.524 0.51,-0.51 28.128,-0.544 28.636,-0.036 M 86.04,285.84 c -0.475,0.475 -0.332,27.897 0.147,28.153 0.256,0.137 5.061,0.207 14.2,0.207 H 114.2 v 13.9 c 0,13.633 0.008,13.908 0.4,14.3 0.602,0.602 84.525,0.636 85.069,0.034 0.301,-0.333 0.331,-1.614 0.331,-14.3 V 314.2 h 13.969 c 13.279,0 13.985,-0.018 14.3,-0.366 0.537,-0.594 0.504,-27.415 -0.035,-27.903 -0.545,-0.493 -27.427,-0.509 -27.92,-0.017 -0.279,0.28 -0.314,1.853 -0.314,14.3 V 314.2 h -42.779 c -38.824,0 -42.789,-0.029 -42.9,-0.316 -0.066,-0.174 -0.121,-6.501 -0.121,-14.06 0,-10.423 -0.058,-13.802 -0.24,-13.984 -0.347,-0.347 -27.573,-0.347 -27.92,0"
       id="path1" />
    <path
       style="fill:#6080c0;fill-rule:evenodd;stroke:none"
       d="M 0,199.5 V 371.2 H 156.9 313.8 L 313.75,199.95 313.7,28.7 171.291,28.6 C 36.097,28.505 28.855,28.482 28.348,28.15 27.852,27.825 26.815,27.8 13.907,27.8 H 0 V 199.5 M 285.434,57.531 c 0.348,0.314 0.366,1.008 0.366,13.896 v 13.565 l -0.45,0.109 c -0.247,0.059 -58.095,0.083 -128.55,0.054 L 28.7,85.1 28.649,71.422 c -0.038,-9.937 0.01,-13.752 0.174,-13.95 0.381,-0.459 256.103,-0.401 256.611,0.059 m 0.126,28.709 c 0.416,0.416 0.342,141.43 -0.074,141.846 -0.417,0.416 -256.23,0.49 -256.646,0.074 -0.359,-0.359 -0.349,-141.883 0.01,-142.028 0.597,-0.24 256.469,-0.133 256.71,0.108 M 85.845,114.111 85.4,114.423 v 42.664 c 0,39.442 0.025,42.685 0.331,42.939 0.273,0.226 2.749,0.274 14.269,0.274 11.52,0 13.996,-0.048 14.269,-0.274 0.306,-0.254 0.331,-3.497 0.331,-42.939 v -42.664 l -0.445,-0.312 C 113.764,113.837 112.086,113.8 100,113.8 c -12.086,0 -13.764,0.037 -14.155,0.311 m 114.159,0.085 c -0.417,0.417 -0.664,84.905 -0.251,85.524 0.437,0.654 0.992,0.68 14.643,0.68 h 13.622 l 0.492,-0.492 0.493,-0.493 -0.052,-42.497 c -0.041,-34.544 -0.1,-42.547 -0.311,-42.758 -0.508,-0.508 -28.126,-0.474 -28.636,0.036 m -86.044,0.444 c 0.349,0.349 0.349,84.571 0,84.92 -0.347,0.347 -27.573,0.347 -27.92,0 -0.349,-0.349 -0.349,-84.571 0,-84.92 0.347,-0.347 27.573,-0.347 27.92,0 m 114.433,0.147 c 0.399,0.745 0.277,84.204 -0.124,84.647 -0.532,0.588 -27.747,0.567 -28.062,-0.021 -0.289,-0.54 -0.289,-84.086 0,-84.626 0.202,-0.377 0.569,-0.387 14.093,-0.387 13.524,0 13.891,0.01 14.093,0.387 M 113.96,285.84 c 0.182,0.182 0.24,3.561 0.24,13.984 0,7.559 0.055,13.886 0.121,14.06 0.111,0.287 4.076,0.316 42.9,0.316 H 200 v -13.986 c 0,-12.447 0.035,-14.02 0.314,-14.3 0.493,-0.492 27.375,-0.476 27.92,0.017 0.539,0.488 0.572,27.309 0.035,27.903 -0.315,0.348 -1.021,0.366 -14.3,0.366 H 200 v 13.934 c 0,12.686 -0.03,13.967 -0.331,14.3 -0.544,0.602 -84.467,0.568 -85.069,-0.034 -0.392,-0.392 -0.4,-0.667 -0.4,-14.3 v -13.9 h -13.813 c -9.139,0 -13.944,-0.07 -14.2,-0.207 -0.479,-0.256 -0.622,-27.678 -0.147,-28.153 0.347,-0.347 27.573,-0.347 27.92,0"
       id="path2" />
    <path
       style="fill:#404080;fill-rule:evenodd;stroke:none"
       d="m 27.8,13.895 v 13.896 l 0.541,0.354 c 0.517,0.339 7.05,0.36 142.95,0.455 l 142.409,0.1 0.05,171.25 0.05,171.25 H 156.9 0 v 14.7 14.7 h 13.808 c 13.413,0 13.83,-0.011 14.592,-0.4 1.236,-0.631 84.876,-0.631 86.052,0 1.176,0.63 84.36,0.631 85.393,0.001 1.034,-0.63 84.819,-0.631 86.055,-0.001 0.828,0.422 28.206,0.644 28.853,0.234 0.201,-0.128 0.231,-3.085 0.147,-14.547 -0.137,-18.764 -0.137,-353.291 0,-371.737 L 315.005,0 H 171.403 27.8 v 13.895 m 1.023,43.577 c -0.164,0.198 -0.212,4.013 -0.174,13.95 L 28.7,85.1 156.8,85.155 c 70.455,0.029 128.303,0.005 128.55,-0.054 l 0.45,-0.109 V 71.427 c 0,-12.888 -0.018,-13.582 -0.366,-13.896 -0.508,-0.46 -256.23,-0.518 -256.611,-0.059 M 86.04,114.64 c -0.349,0.349 -0.349,84.571 0,84.92 0.347,0.347 27.573,0.347 27.92,0 0.349,-0.349 0.349,-84.571 0,-84.92 -0.347,-0.347 -27.573,-0.347 -27.92,0 m 114.167,84.773 c 0.315,0.588 27.53,0.609 28.062,0.021 M 113.8,157.1 v 42.3 H 100 86.2 v -42.3 -42.3 h 13.8 13.8 v 42.3"
       id="path3" />
  </g>
</svg>
