<svg xmlns="http://www.w3.org/2000/svg" id="Layer_1" width="786.8" height="160.8"><path id="path44" fill="#001935" d="M63.6 159.4c-24 0-41.8-12.3-41.8-41.8V70.4H0V44.8C24 38.6 34 18 35.1.1H60v40.6h29v29.7H60v41.1c0 12.3 6.2 16.6 16.1 16.6h14.1v31.3zm89 1.4c13.6 0 29.3-5.9 37.8-16.4v15h44.8v-25.5h-11.4V40.6h-54.1v25.9h15.4v44.9c0 3.6-3 18.7-23.3 18.7-13 0-15.4-7.8-15.4-17.7V40.6h-39.9V114c0 18.3 8.3 46.8 46.1 46.8zm96.9-1.4h65.6v-25.5h-13.4V89.5c0-6.5 5.5-19.7 22.4-19.7 13.6 0 16.4 8.3 16.4 18.1v46h-13.2v25.5h65.1v-25.5h-13.7V89.5c0-6.5 5-19.7 21.9-19.7 13.7 0 17.1 8.3 17.1 18.1v46h-13v25.5h64.8v-25.5h-13.3V92.4c0-24.4-9.2-53.2-45.6-53.2-18 0-32.7 8.5-38.9 19a41.6 41.6 0 0 0-37.4-19c-14.1 0-29.5 6-37.8 17.4v-16h-49.2v25.9h15.9v67.4h-13.5v25.5zm303 1.4c33.2 0 51-24.9 51-62.2 0-35.8-16.6-59.3-50.3-59.3a53.7 53.7 0 0 0-30.9 10V.1h-54.8v25.7h15.9v133.6h36.5v-10.5a50.2 50.2 0 0 0 32.6 11.9zm-8.3-29c-11.6 0-23-7.4-23-30.6 0-28 13.5-33 22.8-33 10.8 0 20.4 8.8 20.4 30.5 0 31.4-14.1 32.4-20.2 33.1zm66.5 27.6h66v-25.5h-14V0h-54.4v25.7h15.9v108.2h-13.5zm80.4 0H756v-25.5h-13.3v-33.2c0-22.6 15.9-27.5 28-27.5h16.1v-34h-13c-14.7 0-28.3 7.1-34.4 18.5V40.5H690v25.9h14.3v67.4h-13.1v25.6z"/></svg>