<svg xmlns="http://www.w3.org/2000/svg" viewBox="0 0 81 28.1" class="_26FCt857_A"><path fill="currentColor" d="M10.9 24.4c3.8 0 6.8-3 6.8-7.3V0h4.1v27.6h-4.1V25c-1.9 1.9-4.4 3-7.3 3C4.5 28.1 0 23.8 0 17.3V0h4.1v17.1c0 4.4 3 7.3 6.8 7.3M24.9 0h4v10.1c1.8-1.9 4.3-3 7.1-3 5.9 0 10.6 4.7 10.6 10.5S41.9 28.1 36 28.1c-2.8 0-5.4-1.1-7.2-3v2.5h-3.9V0zm10.9 24.6c3.8 0 6.9-3.1 6.9-7s-3.1-7-6.9-7c-3.8 0-6.9 3.1-6.9 7s3 7 6.9 7M58.6 7.1c5.8 0 10.1 4.5 10.1 10.5v1.3H52.3c.6 3.3 3.3 5.7 6.7 5.7 2.3 0 4.3-.9 5.8-3l2.9 2.1c-2 2.7-5 4.3-8.7 4.3-6 0-10.7-4.5-10.7-10.5-.1-5.6 4.4-10.4 10.3-10.4m-6.3 8.6h12.3c-.7-3.1-3.2-5.1-6.1-5.1-3 0-5.4 2-6.2 5.1m27-4.6c-2.6 0-4.5 2-4.5 5.1v11.4h-4V7.5h3.9V10c1-1.6 2.6-2.6 4.8-2.6H81v3.7h-1.7z"/></svg>