<svg xmlns="http://www.w3.org/2000/svg" viewBox="0 0 34 34" id="Content"><defs id="defs4"><style id="style2">.cls-1{fill:#fff}</style></defs><rect id="rect8" ry="2.5" rx="2.5" height="33" width="33" y=".5" x=".5"/><path id="path10" transform="translate(-1 -1)" d="M32 2a2 2 0 0 1 2 2v28a2 2 0 0 1-2 2H4a2 2 0 0 1-2-2V4a2 2 0 0 1 2-2h28m0-1H4a3 3 0 0 0-3 3v28a3 3 0 0 0 3 3h28a3 3 0 0 0 3-3V4a3 3 0 0 0-3-3z" class="cls-1"/><path id="path12" transform="translate(-1 -1)" d="M18 8a10 10 0 0 0-9.95 9H15v-1.5a.5.5 0 0 1 .5-.5h5a.5.5 0 0 1 .5.5v5a.5.5 0 0 1-.5.5h-5a.5.5 0 0 1-.5-.5V19H8.05A10 10 0 1 0 18 8z" class="cls-1"/></svg>