<?xml version="1.0" encoding="UTF-8" standalone="no"?>
<svg
   xmlns:dc="http://purl.org/dc/elements/1.1/"
   xmlns:cc="http://creativecommons.org/ns#"
   xmlns:rdf="http://www.w3.org/1999/02/22-rdf-syntax-ns#"
   xmlns:svg="http://www.w3.org/2000/svg"
   xmlns="http://www.w3.org/2000/svg"
   version="1.1"
   viewBox="0 0 34 34"
   id="Content">
  <metadata
     id="metadata17">
    <rdf:RDF>
      <cc:Work
         rdf:about="">
        <dc:format>image/svg+xml</dc:format>
        <dc:type
           rdf:resource="http://purl.org/dc/dcmitype/StillImage" />
        <dc:title></dc:title>
      </cc:Work>
    </rdf:RDF>
  </metadata>
  <defs
     id="defs4">
    <style
       id="style2">.cls-1{fill:#fff;}</style>
  </defs>
  <rect
     id="rect8"
     ry="2.5"
     rx="2.5"
     height="33"
     width="33"
     y="0.5"
     x="0.5" />
  <path
     id="path10"
     transform="translate(-1 -1)"
     d="M32,2a2,2,0,0,1,2,2V32a2,2,0,0,1-2,2H4a2,2,0,0,1-2-2V4A2,2,0,0,1,4,2H32m0-1H4A3,3,0,0,0,1,4V32a3,3,0,0,0,3,3H32a3,3,0,0,0,3-3V4a3,3,0,0,0-3-3h0Z"
     class="cls-1" />
  <path
     id="path12"
     transform="translate(-1 -1)"
     d="M18,8a10,10,0,0,0-9.95,9H15V15.5a0.5,0.5,0,0,1,.5-0.5h5a0.5,0.5,0,0,1,.5.5v5a0.5,0.5,0,0,1-.5.5h-5a0.5,0.5,0,0,1-.5-0.5V19H8.05A10,10,0,1,0,18,8Z"
     class="cls-1" />
</svg>
