<svg xmlns="http://www.w3.org/2000/svg" xmlns:svg="http://www.w3.org/2000/svg" id="svg2" width="150" height="50" version="1.1"><g id="layer1" transform="translate(-671.40887,-842.41724)"><path id="path2835" d="m 701.69863,847.01636 5.39942,0 0,23.57373 c -4e-5,4.1006 -0.46391,7.35694 -1.39161,9.76904 -0.92776,2.41212 -2.60696,4.37891 -5.03759,5.90039 -2.41214,1.50293 -5.58499,2.2544 -9.51856,2.2544 -3.82228,0 -6.94874,-0.6587 -9.37939,-1.97608 -2.43067,-1.31738 -4.16554,-3.21923 -5.20459,-5.70556 -1.03907,-2.50488 -1.5586,-5.91894 -1.5586,-10.24219 l 0,-23.57373 5.39942,0 0,23.5459 c -1e-5,3.54396 0.3247,6.16016 0.97412,7.84863 0.66796,1.66993 1.79979,2.95948 3.39551,3.86865 1.61424,0.90919 3.58103,1.36378 5.90039,1.36377 3.97068,10e-6 6.80026,-0.8999 8.48877,-2.69971 1.68844,-1.79979 2.53268,-5.26024 2.53271,-10.38134 l 0,-23.5459" style="font-size:57px;font-style:normal;font-variant:normal;font-weight:400;font-stretch:normal;text-align:center;text-anchor:middle;fill:#000;fill-opacity:1;stroke:none;font-family:Arial;-inkscape-font-specification:Arial"/><path id="path2837" d="m 742.01364,873.51245 5.39941,1.36377 c -1.13187,4.43458 -3.17288,7.82081 -6.12304,10.15869 -2.93167,2.31934 -6.522,3.47901 -10.771,3.47901 -4.39748,0 -7.97853,-0.89063 -10.74316,-2.67188 -2.74611,-1.7998 -4.84278,-4.39745 -6.29004,-7.79297 -1.42872,-3.39549 -2.14307,-7.04148 -2.14307,-10.93799 0,-4.24899 0.80713,-7.95065 2.42139,-11.10498 1.6328,-3.17281 3.94286,-5.57564 6.93017,-7.20849 3.00585,-1.65133 6.30858,-2.47701 9.90821,-2.47705 4.082,4e-5 7.51462,1.0391 10.29785,3.11718 2.78317,2.07817 4.72213,5.00053 5.81689,8.76709 l -5.31592,1.25245 c -0.94632,-2.96872 -2.31936,-5.13034 -4.11914,-6.48487 -1.79983,-1.35445 -4.0635,-2.0317 -6.79101,-2.03174 -3.13576,4e-5 -5.76125,0.75151 -7.87647,2.2544 -2.09669,1.50296 -3.57178,3.52542 -4.42529,6.06738 -0.85352,2.52347 -1.28028,5.1304 -1.28027,7.8208 -10e-6,3.46975 0.50096,6.50343 1.50293,9.10108 1.02049,2.57911 2.59764,4.50879 4.73144,5.78906 2.13377,1.28028 4.44383,1.92041 6.93018,1.92041 3.02439,0 5.58493,-0.87207 7.68164,-2.61621 2.09665,-1.74413 3.51608,-4.33251 4.2583,-7.76514" style="font-size:57px;font-style:normal;font-variant:normal;font-weight:400;font-stretch:normal;text-align:center;text-anchor:middle;fill:#000;fill-opacity:1;stroke:none;font-family:Arial;-inkscape-font-specification:Arial"/><path id="path2841" d="m 785.33005,874.70923 5.09326,-0.44531 c 0.2412,2.04102 0.79784,3.72022 1.66992,5.03759 0.89061,1.29884 2.26366,2.35646 4.11914,3.17286 1.85545,0.79785 3.94285,1.19678 6.26221,1.19677 2.05955,10e-6 3.8779,-0.30614 5.45507,-0.91845 1.57713,-0.6123 2.74607,-1.44726 3.50684,-2.50489 0.77927,-1.07616 1.16892,-2.2451 1.16895,-3.50683 -3e-5,-1.28026 -0.37113,-2.39354 -1.11329,-3.33985 -0.74221,-0.96483 -1.96682,-1.77195 -3.67382,-2.42138 -1.09475,-0.42674 -3.51614,-1.08543 -7.26416,-1.97608 -3.74806,-0.90916 -6.37355,-1.76267 -7.87647,-2.56054 -1.94825,-1.02049 -3.40479,-2.28221 -4.36963,-3.78516 -0.94629,-1.52146 -1.41943,-3.21921 -1.41943,-5.09326 0,-2.05954 0.58447,-3.97995 1.75342,-5.76123 1.16894,-1.79977 2.87597,-3.16354 5.12109,-4.09131 2.24511,-0.92769 4.74071,-1.39156 7.48682,-1.3916 3.02439,4e-5 5.68699,0.49174 7.98779,1.47509 2.31931,0.96489 4.10056,2.3936 5.34375,4.28614 1.24313,1.89261 1.9111,4.03567 2.00391,6.4292 l -5.17676,0.38965 c -0.27835,-2.57907 -1.22464,-4.52732 -2.83887,-5.84473 -1.59573,-1.31735 -3.96145,-1.97604 -7.09717,-1.97608 -3.26564,4e-5 -5.64991,0.60307 -7.15283,1.80909 -1.48438,1.18753 -2.22657,2.62552 -2.22656,4.31396 -10e-6,1.46585 0.5288,2.6719 1.58642,3.61817 1.03906,0.94631 3.74804,1.92043 8.12696,2.92236 4.39744,0.98342 7.41257,1.84621 9.04541,2.58838 2.37497,1.09474 4.12838,2.48634 5.26025,4.1748 1.1318,1.66994 1.69772,3.59963 1.69776,5.78906 -4e-5,2.17091 -0.62162,4.2212 -1.86475,6.15088 -1.2432,1.91114 -3.03372,3.40479 -5.37158,4.48096 -2.31936,1.05762 -4.93557,1.58643 -7.84863,1.58643 -3.6924,0 -6.79103,-0.53809 -9.2959,-1.61426 -2.48634,-1.07617 -4.44386,-2.69043 -5.87256,-4.84277 -1.41016,-2.1709 -2.15235,-4.62011 -2.22656,-7.34766" style="font-size:57px;font-style:normal;font-variant:normal;font-weight:400;font-stretch:normal;text-align:center;text-anchor:middle;fill:#000;fill-opacity:1;stroke:none;font-family:Arial;-inkscape-font-specification:Arial"/><path id="path2851" d="m 765.89346,846.79968 c -0.40194,0 -0.78912,0.0799 -1.15625,0.1875 a 2.50025,2.50025 0 0 0 -0.125,0 2.50025,2.50025 0 0 0 -2.0625,1.53125 2.50025,2.50025 0 0 0 0,0.0312 c -0.36192,0.5121 -0.62242,1.10203 -0.71875,1.75 l -15.34375,37.5 5.40625,0 13.4375,-32.84375 c 0.18225,0.0247 0.37347,0.0625 0.5625,0.0625 0.1962,0 0.37364,-0.0359 0.5625,-0.0625 l 13.4375,32.84375 5.40625,0 -15.375,-37.625 c -0.10302,-0.56991 -0.31283,-1.10043 -0.625,-1.5625 -0.0126,-0.0187 -0.0183,-0.0441 -0.0312,-0.0625 a 2.50025,2.50025 0 0 0 -2.21875,-1.5625 c -0.37211,-0.11081 -0.74824,-0.1875 -1.1563,-0.1875 z" style="font-size:medium;font-style:normal;font-variant:normal;font-weight:400;font-stretch:normal;text-indent:0;text-align:start;text-decoration:none;line-height:normal;letter-spacing:normal;word-spacing:normal;text-transform:none;direction:ltr;block-progression:tb;writing-mode:lr-tb;text-anchor:start;color:#000;fill:#e42438;fill-opacity:1;stroke:none;stroke-width:5;marker:none;visibility:visible;display:inline;overflow:visible;enable-background:accumulate;font-family:Andale Mono;-inkscape-font-specification:Andale Mono"/></g></svg>