<svg xmlns="http://www.w3.org/2000/svg" viewBox="0 0 106.58682 109.25068"><defs><clipPath id="a"><path d="M0 0h2467.7v3078.5H0z"/></clipPath></defs><g clip-path="url(#a)" fill="#222c37" transform="matrix(.24634 0 0 -.24634 -143.809865 758.34014)"><path d="M865.9 2856.7l77.609 134.02 37.504-134.02-37.504-133.99zm-37.829-21.76l77.622-134-135.18 34.63-97.668 99.37h155.23zm77.606 177.56l-77.606-134.02h-155.23l97.668 99.37 135.17 34.65zm110.8-110.19l-47.353 176.15-176.73-47.21-26.161-45.99-53.085.38-129.36-128.95 129.36-128.92h.003l53.063.39 26.199-45.99 176.71-47.21 47.353 176.13-26.892 45.61 26.892 45.61"/></g></svg>