<svg xmlns="http://www.w3.org/2000/svg" xmlns:svg="http://www.w3.org/2000/svg" id="Layer_1" width="201.844" height="161.3" x="0" y="0" version="1.1" viewBox="278 -133.5 201.844 161.3" xml:space="preserve"><metadata id="metadata31"/><style id="style2" type="text/css">.st0{fill:none;enable-background:new}.st1{fill:#fff}.st2{fill:none}</style><path style="fill:none;enable-background:new" id="path6" d="M 197.70771,-282.7" class="st0"/><path style="fill:#206c9e;fill-opacity:1" id="path8" d="m 299.20771,-64.1 c 21.7,-1 23.7,-18.1 23.7,-21.9 0,-3.8 -3.6,-24.2 -21.4,-21.6 -17.8,2.6 -23.2,12.6 -23.5,22 -0.2,9.4 3.4,22.2 21.2,21.5 z" class="st1"/><path style="fill:#206c9e;fill-opacity:1" id="path10" d="m 342.10771,-121.9 c 0,-5.1 -4.9,-9.3 -10,-9.3 -5.1,0 -9.3,4.2 -9.3,9.3 0,5.1 4.9,9.3 10,9.3 5.2,0 9.3,-4.2 9.3,-9.3 z" class="st1"/><path style="fill:#206c9e;fill-opacity:1" id="path12" d="m 479.20771,-67.3 c -2.6,-10.1 -3.1,-20.9 -15.7,-34.3 -12.6,-13.4 -30,-31.9 -55.9,-31.9 -26,0 -74.6,32.2 -78.5,81.7 -3.9,49.1 48.7,79.6 74.8,79.6 76.6,0 77.8,-85 75.3,-95.1 z m -30.7,53 c 0,0.4 -0.3,0.7 -0.7,0.7 h -66.6 c -11.5,0 -20.8,-9.3 -20.8,-20.8 v -49.2 c 0,-0.4 0.3,-0.7 0.7,-0.7 h 19.6 c 0.4,0 0.7,0.3 0.7,0.7 V -40 c 0,4.6 3.8,8.3 8.3,8.3 h 29 c 4.6,0 8.3,-3.8 8.3,-8.3 v -43.5 c 0,-0.4 0.3,-0.7 0.7,-0.7 h 20 c 0.4,0 0.7,0.3 0.7,0.7 z" class="st1"/><rect style="fill:none" id="rect22" width="37.7" height="24.5" x="655.908" y="-60.1" class="st2"/></svg>