<?xml version="1.0" encoding="UTF-8" standalone="no"?>
<svg
   xmlns:dc="http://purl.org/dc/elements/1.1/"
   xmlns:cc="http://creativecommons.org/ns#"
   xmlns:rdf="http://www.w3.org/1999/02/22-rdf-syntax-ns#"
   xmlns:svg="http://www.w3.org/2000/svg"
   xmlns="http://www.w3.org/2000/svg"
   id="svg2"
   version="1.1"
   xml:space="preserve"
   width="1875"
   height="672.5"
   viewBox="0 0 1875 672.5"><metadata
     id="metadata8"><rdf:RDF><cc:Work
         rdf:about=""><dc:format>image/svg+xml</dc:format><dc:type
           rdf:resource="http://purl.org/dc/dcmitype/StillImage" /><dc:title></dc:title></cc:Work></rdf:RDF></metadata><defs
     id="defs6"><clipPath
       clipPathUnits="userSpaceOnUse"
       id="clipPath18"><path
         d="m 1750.62,3569.7 1789.74,0 0,-940.8 -1789.74,0 0,940.8 z"
         id="path20" /></clipPath><clipPath
       clipPathUnits="userSpaceOnUse"
       id="clipPath28"><path
         d="m 12518.4,3501.24 782.4,0 0,-1740.84 -782.4,0 0,1740.84 z"
         id="path30" /></clipPath><clipPath
       clipPathUnits="userSpaceOnUse"
       id="clipPath38"><path
         d="m 8694.42,2630.82 1789.78,0 0,-940.8 -1789.78,0 0,940.8 z"
         id="path40" /></clipPath><clipPath
       clipPathUnits="userSpaceOnUse"
       id="clipPath48"><path
         d="m 6386.34,3051.36 578.95,0 0,-940.8 -578.95,0 0,940.8 z"
         id="path50" /></clipPath><clipPath
       clipPathUnits="userSpaceOnUse"
       id="clipPath58"><path
         d="m 2758.25,3081.32 16.33,-67.72 c -14.43,3.08 -28.4,-1.89 -37.1,-10.39 l -28.79,60.58 -75.21,311.99 -4.26,17.67 7.62,16.49 107.95,233.9 c 73,153.8 191.43,260.4 352.91,317.7 161.43,57.28 320.6,49.39 474.36,-23.59 l 0,0 c 153.74,-72.96 260.33,-190.73 317.65,-350.98 57.37,-160.36 49.46,-317.92 -23.47,-468.98 L 3187.55,1678.03 c -72.67,-153.14 -185.64,-260.2 -337.11,-318.96 -150.87,-58.53 -303.05,-59.18 -453.97,-1.94 -151.64,57.53 -264.75,164.06 -337.47,317.29 l -685.66,1443.13 c -73.14,151.5 -81.05,309.06 -23.7,469.42 57.33,160.25 163.92,278.02 317.66,350.98 153.78,72.98 312.4,80.88 472.69,23.54 160.25,-57.33 278.03,-163.91 350.98,-317.63 l 267.28,-562.54 z m 23.01,-95.44 c 0,-0.24 0,-0.47 -0.01,-0.71 l -28.72,-13.65 28.73,14.36 z m -31.9,-7.68 -3.65,7.69 35.55,0 -31.9,-7.69 z m 7420.84,-749.5 -1.2,-1.7 -20.6,20.63 21.8,-18.93 z m -19.6,-26.89 -0.3,-0.36 c -0.1,0.04 -0.2,0.09 -0.4,0.14 l 0.4,-0.14 -140.2,-192.3 c -172.32,-188.15 -330,-283.02 -475.68,-280.59 -128.44,0 -274.71,87.83 -443.16,260.62 l -157.37,215.78 c 6.47,1.77 12.13,5.09 16.32,9.29 2.86,2.85 5.31,6.24 7.23,10.01 l 92.25,-113.08 c 27.85,-31.63 55.02,-60.98 81.54,-88.07 l 172.55,-236.59 11.83,-16.22 -2.07,-19.96 c -15.86,-153.29 -82,-273.43 -197.37,-356.6 -112.19,-80.88 -247.39,-121.18 -404,-121.18 -157.76,0 -299.98,61.89 -424.37,183.68 -124.76,122.17 -188.05,267.2 -188.05,432.33 l 0,1414.7 c 0,138.32 40.87,260.92 122.27,365.95 80.13,103.39 176.77,175.87 289.3,216.44 113.02,40.73 234.89,44.67 364.34,12.3 131.08,-32.77 241.5,-105.73 330.23,-217.94 l 365.68,-471.16 -7.87,-9.87 -50.93,0.35 -7.74,9.97 376.16,471.08 c 88.44,111.84 198.81,184.8 329.91,217.57 129.5,32.37 251.3,28.43 364.4,-12.3 112.5,-40.57 209.2,-113.05 289.3,-216.44 81.4,-105.03 122.2,-227.63 122.2,-365.95 l 0,-1414.7 c 0,-165.13 -63.2,-310.16 -188,-432.33 -124.4,-121.79 -266.6,-183.68 -424.4,-183.68 -159,0 -294.9,40.31 -406.01,121.35 -114.07,83.2 -179.5,203.26 -195.34,356.43 l -2.07,19.96 11.83,16.22 186.6,255.86 c 19.85,21.59 39.99,44.53 60.29,68.8 l 98.9,113.85 c 4.1,-9.9 10.9,-17.05 18.4,-21.46 1.2,-0.7 2.4,-1.28 3.4,-1.76 z m -1232.81,25.23 -1.74,2.37 22.33,18.22 -20.59,-20.59 z m 18.21,22.82 c 0.3,-0.27 0.6,-0.54 0.91,-0.82 l -23.66,-15.77 22.75,16.59 z m 4338.7,-113.75 c -2.5,6.98 -5.1,13.69 -7.8,20.12 l 23.8,-1.92 c -5.3,-6.21 -10.6,-12.28 -16,-18.2 z m -49.8,23.51 c -3.9,-3.97 -7.8,-7.85 -11.8,-11.66 -2.3,4.63 -4.7,9.02 -7.2,13.19 l 19,-1.53 z m -434.6,-150.87 c -8.3,0.4 -16.7,0.92 -25.2,1.57 8.4,6.42 13.7,15.85 13.7,23.34 0,7.78 -5.7,17.65 -14.7,24.08 7.9,1.09 15.7,2.26 23.4,3.5 185,-10.11 324.5,43.56 423.3,160.56 l 47.2,55.83 37.6,-62.68 c 41.6,-69.44 61.3,-170.28 61.3,-303.37 0,-146.51 -53.4,-285.95 -158.8,-416.96 -108.5,-134.99 -263.7,-202.64 -460.8,-202.64 l -944.3,0 c -171.9,0 -319.8,61.15 -441,182.27 -121,121.09 -182.2,267.82 -182.2,437.33 l 0,1407.51 c 0,176.28 59.7,326.49 178.3,447.7 118.9,121.57 270.7,182.67 452,182.67 l 937.2,0 c 120.4,0 229.3,-32.33 325.3,-96.84 94.5,-63.41 166.3,-141.75 214.8,-234.68 48.3,-92.82 71.8,-196.48 70.5,-310.21 -1.3,-115.23 -33.6,-221.84 -96.4,-318.7 l 0.8,1.27 c -105.1,-172.73 -276.3,-266.88 -507.7,-281.96 -7.1,0.64 -14.3,1.36 -21.5,2.17 3.7,1.95 7.4,4.69 10.7,8.34 6.8,7.53 9.1,15 9.1,20.36 0,3.25 -1.2,7.8 -4.3,12.4 -2.6,3.85 -5.7,6.61 -8.6,8.25 5.1,0.27 10.2,0.58 15.2,0.93 192.4,-18.16 344.3,33.94 460.4,156.25 l 52.4,55.15 32.7,-68.63 c 54.9,-114.84 72.5,-239.6 53.1,-372.96 -19.6,-134.11 -73,-245.64 -160.2,-332.84 l 1.8,1.94 c -91,-100.81 -223.3,-164.11 -395.1,-190.95 z m 475.2,819.97 c -2.5,6.73 -5,13.42 -7.7,20.08 l 23.7,-3.76 c -5.3,-5.56 -10.6,-11 -16,-16.32 z m -48,26.45 c -4.6,-4.27 -9.2,-8.45 -13.9,-12.54 -2.3,5.32 -4.7,10.62 -7.2,15.89 l 21.1,-3.35 z m -502.9,-96.01 c 4.3,0.16 8.7,0.35 12.9,0.57 l -18.9,-47.45 6,46.88 z M 4622.68,1296.37 c 176.63,0 327.09,61.76 448.29,184.27 120.99,122.29 182.08,270.75 182.08,442.51 l 0,1400.34 c 0,171.99 -61.28,318.93 -182.68,437.72 -121.2,118.6 -271.41,178.29 -447.69,178.29 -171.8,0 -319.16,-60.53 -439.12,-180.48 -119.92,-119.92 -180.48,-266.07 -180.48,-435.53 l 0,-1400.34 c 0,-171.64 60.4,-320.02 180.08,-442.31 119.96,-122.56 267.48,-184.47 439.52,-184.47 z m 1966.74,-4.39 c 368.08,0 683.55,129.93 943.51,388.65 260.02,258.76 390.62,573.72 390.62,941.89 0,365.53 -127.42,679.1 -381.2,937.85 -254,258.98 -564.28,389.09 -927.8,389.09 l -552.95,0 c -174.37,0 -323.1,-61.86 -443.1,-184.47 -119.69,-122.28 -180.09,-270.66 -180.09,-442.31 l 0,-1418.29 c 0,-169.77 62.02,-315.57 184.68,-434.32 122.36,-118.46 273.08,-178.09 449.28,-178.09 l 517.05,0 z m 28.38,1082.71 -170.22,0 52.29,-52.28 0,607.91 -52.29,-52.28 170.22,0 c 77.85,0 139.79,-25.44 189.17,-77.07 50.12,-52.4 74.66,-113.75 74.66,-186.76 0,-66.71 -23.83,-121.96 -72.98,-168.87 -49.38,-47.16 -112.03,-70.65 -190.85,-70.65 z"
         id="path60"
         style="clip-rule:evenodd" /></clipPath><clipPath
       clipPathUnits="userSpaceOnUse"
       id="clipPath64"><path
         d="m 0,0 14670,0 0,5261.64 -14670,0 L 0,0 Z"
         id="path66" /></clipPath><clipPath
       clipPathUnits="userSpaceOnUse"
       id="clipPath74"><path
         d="m 1060.94,4250.2 12546.86,0 0,-3228.54 -12546.86,0 0,3228.54 z m 2488.7,-359.49 c -141.22,67.03 -286.05,74.21 -434.46,21.55 -148.41,-52.66 -256.13,-149.61 -323.15,-290.84 l -107.72,-233.39 96.95,-402.14 c 0,-7.19 -1.8,-13.17 -5.39,-17.96 -3.59,-4.79 -7.78,-6.58 -12.57,-5.38 -4.78,1.19 -8.37,4.18 -10.77,8.97 l -308.79,649.9 c -67.02,141.23 -174.14,238.18 -321.36,290.84 -147.21,52.66 -291.43,45.48 -432.67,-21.55 -141.23,-67.02 -238.17,-174.14 -290.83,-321.35 -52.67,-147.22 -45.49,-290.24 21.54,-429.08 l 685.81,-1443.42 c 67.02,-141.23 169.95,-238.18 308.79,-290.84 138.83,-52.66 277.67,-52.06 416.51,1.8 138.83,53.86 241.76,151.4 308.79,292.63 l 678.62,1439.83 c 67.02,138.84 74.21,281.86 21.54,429.08 -52.66,147.21 -149.6,254.33 -290.84,321.35 l 0,0 z M 4622.68,1348.66 c 162.77,0 299.82,56.25 411.12,168.75 111.31,112.51 166.97,247.76 166.97,405.74 l 0,1400.34 c 0,157.98 -55.66,291.44 -166.97,400.35 -111.3,108.91 -248.35,163.37 -411.12,163.37 -157.98,0 -292.04,-55.05 -402.15,-165.17 -110.11,-110.11 -165.17,-242.96 -165.17,-398.55 l 0,-1400.34 c 0,-157.98 55.06,-293.23 165.17,-405.74 110.11,-112.5 244.17,-168.75 402.15,-168.75 l 0,0 z m 1966.74,-4.4 c 354.27,0 656.48,124.48 906.63,373.42 250.14,248.95 375.21,550.56 375.21,904.84 0,351.87 -122.08,652.29 -366.24,901.24 -244.16,248.94 -540.98,373.42 -890.47,373.42 l -552.95,0 c -160.38,0 -295.63,-56.25 -405.74,-168.76 -110.11,-112.51 -165.16,-247.75 -165.16,-405.74 l 0,-1418.29 c 0,-155.59 56.25,-287.84 168.75,-396.75 112.51,-108.92 250.15,-163.38 412.92,-163.38 l 517.05,0 z m 28.38,978.15 -170.22,0 0,607.91 170.22,0 c 91.86,0 167.52,-31.07 226.95,-93.21 59.45,-62.14 89.17,-136.44 89.17,-222.9 0,-81.06 -29.72,-149.96 -89.17,-206.69 -59.43,-56.74 -135.08,-85.11 -226.95,-85.11 l 0,0 z m 3530.6,-74.78 c 4.8,4.77 10.8,5.97 18,3.59 11.9,-2.38 14.3,-8.36 7.1,-17.95 l -348.24,-477.56 c 14.36,-138.83 72.41,-245.35 174.14,-319.56 101.7,-74.2 226.8,-111.31 375.2,-111.31 143.6,0 272.9,56.26 387.8,168.76 114.9,112.51 172.4,244.16 172.4,394.97 l 0,1414.7 c 0,126.86 -37.2,238.17 -111.4,333.92 -74.1,95.75 -162.7,162.17 -265.7,199.28 -102.9,37.1 -214.2,40.69 -333.9,10.77 -119.7,-29.92 -220.2,-96.35 -301.6,-199.28 l -384.19,-481.14 -373.42,481.14 c -81.39,102.93 -181.93,169.36 -301.61,199.28 -119.69,29.92 -231,26.33 -333.93,-10.77 -102.93,-37.11 -191.5,-103.53 -265.7,-199.28 -74.21,-95.75 -111.31,-207.06 -111.31,-333.92 l 0,-1414.7 c 0,-150.81 57.45,-282.46 172.35,-394.97 114.9,-112.5 244.16,-168.76 387.78,-168.76 146.02,0 270.49,37.11 373.42,111.31 102.93,74.21 161.58,180.73 175.94,319.56 l -348.28,477.56 c -4.79,7.18 -4.79,13.16 0,17.95 7.18,7.18 15.55,5.98 25.13,-3.59 l 111.31,-136.45 c 193.89,-220.22 355.47,-330.33 484.73,-330.33 143.62,-2.39 308.79,107.72 495.48,330.33 l 118.5,136.45 z m 1073.7,1071.46 0,-1407.51 c 0,-155.6 55.6,-289.04 166.9,-400.35 111.3,-111.31 246,-166.97 404,-166.97 l 944.3,0 c 181.9,0 321.9,61.04 420.1,183.12 98.1,122.08 147.2,250.15 147.2,384.2 0,124.47 -18,216.63 -53.9,276.47 -117.3,-138.83 -286,-197.48 -506.2,-175.94 -12,0 -18,7.19 -18,21.55 0,14.36 6,21.54 18,21.54 179.5,21.55 313.5,81.39 402.1,179.53 79,78.99 127.5,180.13 145.4,303.41 18,123.27 1.8,237.57 -48.4,342.9 -134.1,-141.23 -312.4,-197.49 -535,-168.76 -12,4.79 -18,13.76 -18,26.93 0,13.17 6,19.75 18,19.75 232.2,7.18 398.5,93.35 499.1,258.52 57.4,88.57 86.7,185.51 87.9,290.84 1.2,105.32 -20.3,200.48 -64.6,285.45 -44.3,84.98 -110.1,156.79 -197.5,215.44 -87.4,58.65 -186.1,87.97 -296.2,87.97 l -937.2,0 c -167.5,0 -305.8,-55.66 -414.7,-166.97 -108.9,-111.3 -163.3,-248.34 -163.3,-411.12 l 0,0 z"
         id="path76"
         style="clip-rule:evenodd" /></clipPath><clipPath
       clipPathUnits="userSpaceOnUse"
       id="clipPath80"><path
         d="m 0,0 14670,0 0,5261.64 -14670,0 L 0,0 Z"
         id="path82" /></clipPath></defs><g
     id="g10"
     transform="matrix(1.25,0,0,-1.25,0,672.5)"><g
       id="g12"
       transform="scale(0.102249)"><g
         id="g14"><g
           id="g16"
           clip-path="url(#clipPath18)"><path
             d="M 1701.72,2580 H 3589.26 V 3618.6 H 1701.72 Z"
             style="fill:#000000;fill-opacity:1;fill-rule:nonzero;stroke:none"
             id="path22" /></g></g><g
         id="g24"><g
           id="g26"
           clip-path="url(#clipPath28)"><path
             d="m 12469.5,1711.5 h 880.199 V 3550.14 H 12469.5 Z"
             style="fill:#000000;fill-opacity:1;fill-rule:nonzero;stroke:none"
             id="path32" /></g></g><g
         id="g34"><g
           id="g36"
           clip-path="url(#clipPath38)"><path
             d="m 8645.52,1641.12 h 1887.54 v 1038.6 H 8645.52 Z"
             style="fill:#000000;fill-opacity:1;fill-rule:nonzero;stroke:none"
             id="path42" /></g></g><g
         id="g44"><g
           id="g46"
           clip-path="url(#clipPath48)"><path
             d="m 6337.44,2061.66 h 676.754 v 1038.6 H 6337.44 Z"
             style="fill:#000000;fill-opacity:1;fill-rule:nonzero;stroke:none"
             id="path52" /></g></g><g
         id="g54"><g
           id="g56"
           clip-path="url(#clipPath58)"><g
             id="g62"
             clip-path="url(#clipPath64)"><path
               d="m 1315.22,1275.94 h 12038.3 V 3995.92 H 1315.22 Z"
               style="fill:#f71e4f;fill-opacity:1;fill-rule:nonzero;stroke:none"
               id="path68" /></g></g></g><g
         id="g70"><g
           id="g72"
           clip-path="url(#clipPath74)"><g
             id="g78"
             clip-path="url(#clipPath80)"><path
               d="m 3549.65,3890.71 c -141.23,67.03 -286.06,74.21 -434.47,21.55 -148.41,-52.66 -256.13,-149.61 -323.15,-290.84 l -107.72,-233.39 96.95,-402.14 c 0,-7.19 -1.8,-13.17 -5.39,-17.96 -3.59,-4.79 -7.78,-6.58 -12.57,-5.38 -4.78,1.19 -8.37,4.18 -10.76,8.97 l -308.8,649.9 c -67.02,141.23 -174.14,238.18 -321.36,290.84 -147.21,52.66 -291.43,45.48 -432.67,-21.55 -141.23,-67.02 -238.17,-174.14 -290.83,-321.35 -52.67,-147.22 -45.49,-290.24 21.54,-429.08 l 685.81,-1443.42 c 67.02,-141.23 169.95,-238.18 308.79,-290.84 138.83,-52.66 277.67,-52.06 416.51,1.8 138.83,53.86 241.76,151.4 308.79,292.63 l 678.62,1439.83 c 67.02,138.84 74.21,281.86 21.54,429.08 -52.66,147.21 -149.6,254.33 -290.83,321.35 z M 4622.68,1348.66 c 162.77,0 299.82,56.25 411.12,168.75 111.31,112.51 166.97,247.76 166.97,405.74 v 1400.34 c 0,157.98 -55.66,291.44 -166.97,400.35 -111.3,108.91 -248.35,163.37 -411.12,163.37 -157.99,0 -292.04,-55.05 -402.15,-165.17 -110.11,-110.11 -165.17,-242.96 -165.17,-398.55 V 1923.15 c 0,-157.98 55.06,-293.23 165.17,-405.74 110.11,-112.5 244.16,-168.75 402.15,-168.75 z m 1966.74,-4.4 c 354.27,0 656.48,124.48 906.63,373.42 250.14,248.95 375.21,550.56 375.21,904.84 0,351.87 -122.08,652.29 -366.24,901.24 -244.16,248.94 -540.98,373.42 -890.47,373.42 H 6061.6 c -160.38,0 -295.62,-56.25 -405.74,-168.76 C 5545.75,3615.91 5490.7,3480.67 5490.7,3322.68 V 1904.39 c 0,-155.59 56.25,-287.84 168.75,-396.76 112.51,-108.91 250.15,-163.37 412.92,-163.37 z m 28.38,978.15 h -170.22 v 607.91 h 170.22 c 91.86,0 167.52,-31.07 226.96,-93.21 59.44,-62.14 89.16,-136.44 89.16,-222.9 0,-81.06 -29.72,-149.96 -89.16,-206.69 -59.44,-56.74 -135.09,-85.11 -226.96,-85.11 z m 3530.6,-74.78 c 4.8,4.77 10.8,5.97 18,3.59 11.9,-2.38 14.3,-8.37 7.1,-17.95 l -348.24,-477.56 c 14.36,-138.83 72.41,-245.35 174.14,-319.56 101.7,-74.2 226.8,-111.31 375.2,-111.31 143.6,0 272.9,56.26 387.8,168.76 114.9,112.51 172.4,244.16 172.4,394.97 v 1414.69 c 0,126.87 -37.2,238.18 -111.4,333.93 -74.1,95.75 -162.7,162.17 -265.7,199.28 -102.9,37.1 -214.2,40.69 -333.9,10.77 -119.7,-29.92 -220.2,-96.35 -301.6,-199.28 l -384.19,-481.14 -373.42,481.14 c -81.39,102.93 -181.93,169.36 -301.61,199.28 -119.69,29.92 -231,26.33 -333.93,-10.77 -102.93,-37.11 -191.5,-103.53 -265.7,-199.28 -74.21,-95.75 -111.31,-207.06 -111.31,-333.93 V 1888.57 c 0,-150.81 57.45,-282.46 172.35,-394.97 114.9,-112.5 244.16,-168.76 387.78,-168.76 146.02,0 270.49,37.11 373.42,111.31 102.93,74.21 161.58,180.73 175.94,319.56 l -348.28,477.56 c -4.79,7.18 -4.79,13.16 0,17.95 7.18,7.18 15.55,5.98 25.13,-3.59 l 111.31,-136.45 c 193.89,-220.22 355.47,-330.33 484.73,-330.33 143.62,-2.39 308.79,107.72 495.48,330.33 z m 1073.7,1071.46 V 1911.58 c 0,-155.6 55.6,-289.04 166.9,-400.35 111.3,-111.31 246,-166.97 404,-166.97 h 944.3 c 181.9,0 321.9,61.04 420.1,183.12 98.1,122.08 147.2,250.15 147.2,384.2 0,124.47 -18,216.63 -53.9,276.47 -117.3,-138.83 -286,-197.48 -506.2,-175.94 -12,0 -18,7.19 -18,21.55 0,14.36 6,21.54 18,21.54 179.5,21.55 313.5,81.39 402.1,179.53 79,78.99 127.5,180.13 145.4,303.41 18,123.27 1.8,237.57 -48.4,342.9 -134.1,-141.23 -312.4,-197.49 -535,-168.76 -12,4.79 -18,13.77 -18,26.93 0,13.17 6,19.75 18,19.75 232.2,7.18 398.5,93.35 499.1,258.52 57.4,88.57 86.7,185.51 87.9,290.84 1.2,105.32 -20.3,200.48 -64.6,285.45 -44.3,84.98 -110.1,156.79 -197.5,215.44 -87.4,58.65 -186.1,87.97 -296.2,87.97 h -937.2 c -167.5,0 -305.8,-55.66 -414.7,-166.97 -108.9,-111.3 -163.3,-248.34 -163.3,-411.12 z"
               style="fill:none;stroke:#000000;stroke-width:418.28900146;stroke-linecap:butt;stroke-linejoin:miter;stroke-miterlimit:10;stroke-dasharray:none;stroke-opacity:1"
               id="path84" /></g></g></g></g></g></svg>