<svg xmlns="http://www.w3.org/2000/svg" xmlns:svg="http://www.w3.org/2000/svg" id="svg11" width="2048" height="2048" version="1.1" viewBox="0 0 2048 2048" xml:space="preserve" style="shape-rendering:geometricPrecision;text-rendering:geometricPrecision;image-rendering:optimizeQuality;fill-rule:evenodd;clip-rule:evenodd"><metadata id="metadata15"/><defs id="defs4"><style id="style2" type="text/css">.fil0{fill:#1ab7ea;fill-rule:nonzero}</style></defs><g id="Layer_x0020_1"><path style="fill:#1ab7ea;fill-rule:nonzero" id="path6" d="m 1540.85,370.282 c 2.6894,0.0425 5.1803,0.0992 7.4126,0.17126 v 0.002 c 75.9142,2.20748 133.326,26.7815 172.233,73.6997 38.2477,46.1221 57.6969,113.333 58.3418,201.604 l 0.063,0.0626 v 8.94213 l -0.063,0.0626 c -0.029,4.57087 -0.1051,9.02127 -0.2209,13.3512 -0.1322,4.89567 -0.2964,9.45946 -0.4913,13.6654 v 0.0626 c -3.5055,74.2087 -30.7465,161.449 -81.7642,261.74 -50.3918,99.06021 -124.251,211.39691 -221.621,337.03291 l 0.01,0.01 c -100.841,131.353 -194.195,230.028 -279.992,296.021 -87.6674,67.4315 -167.969,101.146 -240.84096,101.146 -47.5276,0 -91.1138,-21.6732 -130.616,-65.0044 -37.5933,-41.2359 -71.5678,-102.569 -101.789,-183.977 l -0.4996,-1.376 c -13.0925,-48.1618 -26.2134,-96.3272 -39.3319,-144.495 -25.4752,-93.5327 -50.9528,-187.071 -79.5757,-292.96992 l 0.026,-0.007 c -21.6118,-78.0095 -43.8792,-136.247 -66.7902,-174.71 -20.5666,-34.5236 -40.5048,-51.789 -59.8052,-51.789 -2.47559,0 -12.2091,5.10119 -29.1898,15.3354 -18.9851,11.4437 -44.6811,28.5236 -77.0068,51.2752 l -12.4536,8.76615 -9.35906,-12.078 -69.2469,-89.3635 -9.17717,-11.8441 11.2394,-9.90591 c 39.5965,-34.8945 75.4371,-66.7382 108.082,-95.9812 32.9563,-29.5229 68.5878,-61.702 106.399,-96.0473 l 0.31299,-0.2504 c 49.0394,-42.5292 92.0316,-75.078 129.006,-97.6241 38.2961,-23.3528 70.7788,-36.2823 97.48,-38.7674 v -0.006 c 62.4768,-6.02363 113.097,12.5587 151.863,55.7433 37.2874,41.5359 62.8217,105.84 76.6182,192.907 v 0.0626 c 13.7811,88.1528 25.7669,161.204 35.915,219.097 9.91418,56.5583 17.6162,95.7013 23.0799,117.451 l 0.1252,0.43819 c 16.2839,73.94299 33.1819,129.09899 50.7426,165.43599 15.2303,31.513 29.4331,47.2796 42.6414,47.2796 10.7894,0 26.1284,-10.474 46.0335,-31.4374 22.2839,-23.4697 48.5977,-59.1166 78.9615,-106.956 l 0.027,0.018 c 30.339,-47.93148 53.5961,-90.03668 69.7465,-126.29998 15.711,-35.2784 24.5953,-64.7752 26.6327,-88.4729 l 0.063,-0.31299 c 3.9461,-37.6855 -0.9956,-65.3174 -14.8146,-82.9064 -13.2673,-16.8851 -35.9894,-25.3229 -68.1544,-25.3229 -16.6571,0 -33.4654,1.82717 -50.4508,5.44725 -17.2984,3.68504 -34.7894,9.18072 -52.5012,16.448 l -31.2012,12.8032 9.8882,-32.2406 c 35.902,-117.058 87.9024,-205.292 156.019,-264.732 68.8075,-60.0402 153.521,-90.4548 254.158,-91.2721 l 0.1252,-0.0626 h 6.352 l 0.063,0.0626 c 2.5264,0.0118 4.9831,0.0342 7.298,0.072 z" class="fil0"/></g></svg>