<svg xmlns="http://www.w3.org/2000/svg" xmlns:svg="http://www.w3.org/2000/svg" id="svg3723" version="1.1" viewBox="0 0 32 32"><metadata id="metadata3729"/><path id="path3719" fill="#ef3939" d="M16 32c7 0 10.91 0 13.45-2.54S32 23 32 16s0-10.9-2.55-13.44S23 0 16 0 5.09 0 2.55 2.54 0 9 0 16s0 10.9 2.55 13.44S9 32 16 32z"/><path id="path3721" fill="#fff" d="M24.43 7.53a12 12 0 1 0 0 16.94 12 12 0 0 0 0-16.94zM23.71 13l-5.93 10.35a2 2 0 0 1-1.63 1.08 1.89 1.89 0 0 1-1.88-1C13 21.27 11.79 19.11 10.55 17l-2.27-4a2 2 0 0 1 1.62-3 1.91 1.91 0 0 1 1.83 1c.56 1 1.1 1.92 1.66 2.88.4.69.79 1.39 1.2 2.07a3.13 3.13 0 0 0 2.62 1.62 3.19 3.19 0 0 0 3.36-2.84v-.33a3.35 3.35 0 0 0-.34-1.49A2 2 0 1 1 24 11.69a2.08 2.08 0 0 1-.29 1.31z"/></svg>