<svg xmlns="http://www.w3.org/2000/svg" xmlns:svg="http://www.w3.org/2000/svg" id="svg3400" width="110.216" height="69.74" version="1.1"><metadata id="metadata17"/><g id="layer1" transform="translate(-369.99536,-792.2811)"><path id="path3898" d="m 412.98736,806.72288 c 0,0 -1.468,-2.984 -1.968,-3.976 -3.336,-6.612 -3.264,-6.964 -6.636,-7.408 -0.944,-0.124 -1.432,-0.244 -1.432,-0.712 v -2.092 l 0.284,-0.204 c 6.092,-0.008 19.648,-0.008 19.648,-0.008 l 0.52,0.172 v 2.084 c 0,0.476 -0.34,0.72 -1.032,0.72 l -1.424,0.204 c -3.6,0.28 -3.012,1.752 -0.62,6.516 l 22.708,46.46 0.776,0.212 20.16,-47.844 c 0.7,-1.928 0.592,-3.296 -0.308,-4.1 -0.904,-0.784 -1.54,-1.248 -3.876,-1.344 l -1.892,-0.096 c -0.232,0 -0.452,-0.084 -0.664,-0.24 -0.208,-0.148 -0.316,-0.344 -0.316,-0.58 v -1.992 l 0.288,-0.204 c 5.68,0 22.776,0 22.776,0 l 0.232,0.204 v 1.992 c 0,0.54 -0.308,0.812 -0.916,0.812 -2.984,0.132 -5.196,0.78 -6.628,1.936 -1.436,1.164 -2.556,2.768 -3.36,4.852 0,0 -18.54,42.436 -24.884,56.54 -2.428,4.624 -4.816,4.2 -6.916,-0.132 -4.436,-9.136 -16.928,-36.852 -16.928,-36.852 z"/><path id="path3900" d="m 449.37136,792.29888 c 0,0 -12.812,-0.04 -18.516,0 l -0.284,0.204 v 1.984 c 0,0.244 0.104,0.436 0.312,0.584 0.212,0.156 0.428,0.236 0.66,0.236 l 0.916,0.1 c 2.332,0.096 3.404,0.708 3.724,1.092 0.556,0.68 0.832,1.416 -0.516,4.356 l -23.92,47.708 -0.628,-0.164 c 0,0 -17.132,-36.124 -22.092,-48.208 -0.516,-1.252 -0.748,-2.18 -0.748,-2.752 0,-1.228 1.108,-1.892 3.324,-1.984 l 2.584,-0.108 c 0.684,0 1.032,-0.264 1.032,-0.812 v -1.984 l -0.232,-0.204 c 0,0 -20.52,-0.024 -24.76,0 l -0.232,0.204 v 2.084 c 0,0.376 0.476,0.608 1.432,0.712 2.604,0.14 4.316,0.556 5.14,1.248 0.82,0.7 1.688,2.468 2.84,5.224 6.228,14.96 19.46,41.656 25.904,56.86 1.856,4.152 4.188,4.796 7.02,-0.128 4.904,-9.096 18.2,-36.872 18.2,-36.872 l 10.472,-19.584 c 1.22,-2.068 2.396,-3.912 2.992,-4.772 1.092,-1.572 1.704,-1.868 4.688,-2.008 0.608,0 0.916,-0.272 0.916,-0.82 v -1.984 z"/></g></svg>