<?xml version="1.0" encoding="UTF-8" standalone="no"?>
<svg
   xmlns:dc="http://purl.org/dc/elements/1.1/"
   xmlns:cc="http://creativecommons.org/ns#"
   xmlns:rdf="http://www.w3.org/1999/02/22-rdf-syntax-ns#"
   xmlns:svg="http://www.w3.org/2000/svg"
   xmlns="http://www.w3.org/2000/svg"
   version="1.1"
   id="svg2"
   xml:space="preserve"
   width="400.69199"
   height="400.68668"
   viewBox="0 0 400.69199 400.68667"><metadata
     id="metadata8"><rdf:RDF><cc:Work
         rdf:about=""><dc:format>image/svg+xml</dc:format><dc:type
           rdf:resource="http://purl.org/dc/dcmitype/StillImage" /><dc:title></dc:title></cc:Work></rdf:RDF></metadata><defs
     id="defs6"><clipPath
       clipPathUnits="userSpaceOnUse"
       id="clipPath18"><path
         d="M 0,841.89 H 595.28 V 0 H 0 Z"
         id="path16" /></clipPath></defs><g
     id="g10"
     transform="matrix(1.3333333,0,0,-1.3333333,-206.22266,775.65147)"><g
       id="g12"><g
         id="g14"
         clip-path="url(#clipPath18)"><g
           id="g20"
           transform="translate(154.667,310.2236)"><path
             d="m 0,0 v 242 c 0.965,7.079 1.862,14.012 7.15,19.712 7.362,7.932 16.587,9.809 26.734,9.803 57.162,-0.035 114.324,-0.016 171.486,-0.016 20.498,0 40.997,0.033 61.495,-0.017 8.637,-0.02 16.834,-1.288 23.649,-7.49 7.497,-6.823 9.986,-15.424 9.986,-25.127 C 300.497,160.371 300.479,81.877 300.519,3.384 300.524,-8.764 296.6,-18.728 285.855,-25.373 281.252,-28.221 275.966,-27.861 271,-29 H 29 c -5.293,1.028 -10.795,0.993 -15.539,4.361 C 5.693,-19.124 0.688,-12.185 0.5,-2.35 0.484,-1.537 0.643,-0.682 0,0"
             style="fill:#5cbded;fill-opacity:1;fill-rule:nonzero;stroke:none"
             id="path22" /></g><g
           id="g24"
           transform="translate(343.0898,361.1533)"><path
             d="m 0,0 c -15.086,-0.147 -25.533,3.162 -34.052,11.197 -2.631,2.483 -4.024,0.837 -5.835,-0.447 -13.946,-9.9 -29.339,-13.271 -45.948,-9.275 -22.079,5.31 -36.072,27.958 -32.328,51.118 2.094,12.958 3.684,25.996 5.662,38.974 0.482,3.166 -0.926,4.435 -3.569,5.497 -11.418,4.589 -22.783,9.312 -34.159,14.004 -8.346,3.442 -11.271,9.193 -9.059,17.864 1.148,4.503 2.168,9.056 3.636,13.456 2.268,6.798 5.723,8.372 12.169,5.719 19.683,-8.1 39.351,-16.242 58.996,-24.442 7.119,-2.972 9.938,-7.072 9.034,-14.824 -1.888,-16.175 -4.305,-32.287 -6.446,-48.433 -0.545,-4.107 -1.839,-8.198 -1.262,-12.357 1.519,-10.947 13.054,-16.396 23.346,-11.084 6.515,3.361 10.337,8.75 11.363,16.031 1.088,7.733 2.082,15.481 3.152,23.217 0.828,5.994 4.567,10.155 10.529,11.079 5.94,0.921 11.971,0.869 17.905,-0.165 4.508,-0.785 7.553,-4.98 7.011,-9.471 -0.877,-7.259 -1.779,-14.521 -2.964,-21.732 -1.809,-11.002 2.027,-18.76 10.501,-20.644 9.364,-2.081 20.436,4.579 22.729,14.333 1.59,6.77 2.193,13.773 3.16,20.683 1.128,8.064 2.077,16.154 3.285,24.206 0.858,5.713 4.659,9.937 10.291,10.811 6.417,0.996 12.957,1.092 19.368,-0.239 4.31,-0.895 6.621,-3.53 5.929,-8.267 C 60.165,81.187 58.171,65.521 55.655,49.938 51.175,22.178 24.749,0.006 0,0"
             style="fill:#ffffff;fill-opacity:1;fill-rule:evenodd;stroke:none"
             id="path26" /></g></g></g></g></svg>