<svg id="Layer_1" data-name="Layer 1" xmlns="http://www.w3.org/2000/svg" viewBox="0 0 35 35"><defs><style>.cls-1{fill:#107c10;}</style></defs><title>_</title><path class="cls-1" d="M6.81,6.6h0A15.24,15.24,0,0,0,5.38,26.69a.07.07,0,0,0,.08,0,.06.06,0,0,0,0-.08c-1.16-3.59,4.78-12.3,7.85-16a.07.07,0,0,0,0,0,.07.07,0,0,0,0-.05c-5.16-5.14-6.54-4-6.52-4"/><path class="cls-1" d="M28.19,6.6h0a15.24,15.24,0,0,1,1.42,20.08.07.07,0,0,1-.08,0,.06.06,0,0,1,0-.08c1.16-3.59-4.77-12.31-7.84-16a.07.07,0,0,1,0,0,.07.07,0,0,1,0-.05c5.16-5.14,6.53-4,6.51-4"/><path class="cls-1" d="M17.5,2.22a15,15,0,0,1,7.94,2.23.06.06,0,0,1,0,.08.06.06,0,0,1-.07,0c-3-.64-7.43,1.91-7.86,2.17h-.06C16.34,6.07,12.2,3.9,9.59,4.57a.06.06,0,0,1-.07,0,.06.06,0,0,1,0-.08,15,15,0,0,1,8-2.25"/><path class="cls-1" d="M17.5,14.44l0,0c4.56,3.47,12.36,12,10,14.46h0a15.24,15.24,0,0,1-20.06,0h0c-2.38-2.42,5.42-11,10-14.46l.05,0"/></svg>