<svg xmlns="http://www.w3.org/2000/svg" viewBox="0 0 264.583 73.375"><g fill="#5f01d1" transform="translate(260.9554 41.2138)"><path d="M-260.9554-23.3516h15.741l9.1657 23.4497 9.2848-23.4497h15.3264l-23.0782 55.5131h-15.4235l6.3172-14.71zm65.484-.9334c-11.827 0-19.3036 10.6068-19.3036 21.1696 0 11.8863 8.1972 21.31 19.0792 21.31 8.1176 0 11.1783-4.9458 11.1783-4.9458v3.8526h13.7291v-40.4527h-13.7291v3.6775s-3.4148-4.6113-10.954-4.6113zm2.9202 12.9998c5.457 0 8.2731 4.318 8.2731 8.2143 0 4.1955-3.017 8.3127-8.273 8.3127-4.3563 0-8.293-3.56-8.293-8.1342 0-4.639 3.1665-8.3928 8.293-8.3928zm26.4911 28.3864v-58.315h14.3598v21.68s3.4109-4.7463 10.5543-4.7463c8.738 0 13.8575 6.5105 13.8575 15.8137v25.5676h-14.2548V-4.964c0-3.1484-1.4997-6.1899-4.8968-6.1899-3.458 0-5.2602 3.0876-5.2602 6.19v22.065zm63.2546-41.3815c-13.544 0-21.6088 10.299-21.6088 21.3332 0 12.5572 9.7646 21.1416 21.6601 21.1416 11.5297 0 21.6185-8.1948 21.6185-20.931 0-13.9355-10.5633-21.5438-21.6698-21.5438zm.1294 13.1142c4.7842 0 8.0945 3.9847 8.0945 8.234 0 3.6244-3.0846 8.0946-8.0945 8.0946-4.5906 0-8.0357-3.6824-8.0357-8.1342 0-4.2886 2.8642-8.1944 8.0357-8.1944zm45.4632-13.1142c-13.544 0-21.6089 10.299-21.6089 21.3332 0 12.5572 9.7647 21.1416 21.6602 21.1416 11.5297 0 21.6185-8.1948 21.6185-20.931 0-13.9355-10.5633-21.5438-21.6698-21.5438zm.1293 13.1142c4.7843 0 8.0946 3.9847 8.0946 8.234 0 3.6244-3.0846 8.0946-8.0946 8.0946-4.5906 0-8.0356-3.6824-8.0356-8.1342 0-4.2886 2.8642-8.1944 8.0356-8.1944z"/><circle cx="-24.212" cy="8.425" r="9.536"/><path d="M-11.5434-4.6137h-17.1664l15.2355-36.6001H3.6279z"/></g></svg>