<svg xmlns="http://www.w3.org/2000/svg" xmlns:svg="http://www.w3.org/2000/svg" xmlns:xlink="http://www.w3.org/1999/xlink" id="svg3743" width="1000" height="232.85" version="1.1"><defs id="defs3745"><radialGradient id="radialGradient3509" cx="1214.221" cy="1680.704" r="22.495" fx="1214.221" fy="1680.704" gradientTransform="matrix(-1.2230412,-0.23719641,0.15644374,-0.94670646,2438.5728,3564.7036)" gradientUnits="userSpaceOnUse" xlink:href="#linearGradient3511"/><linearGradient id="linearGradient3511"><stop id="stop3513" offset="0" stop-color="#6700e8" stop-opacity="1"/><stop id="stop3515" offset=".399" stop-color="#5c00ce" stop-opacity="1"/><stop id="stop3517" offset=".701" stop-color="#5600bf" stop-opacity=".045"/><stop id="stop3519" offset="1" stop-color="#220047" stop-opacity="0"/></linearGradient><linearGradient id="linearGradient3391" x1="372.77" x2="397.81" y1="1915.999" y2="1915.999" gradientTransform="matrix(0.60986005,0,0,0.60986005,-1015.0964,-735.2)" gradientUnits="userSpaceOnUse" xlink:href="#linearGradient3385"/><linearGradient id="linearGradient3385"><stop id="stop3387" offset="0" stop-color="#5500bd" stop-opacity="1"/><stop id="stop3389" offset="1" stop-color="#5200b2" stop-opacity="1"/></linearGradient><linearGradient id="linearGradient3495" x1="1161.157" x2="1198.648" y1="1962.863" y2="1704.174" gradientTransform="matrix(0.60986005,0,0,0.60986005,-1015.0964,-735.2)" gradientUnits="userSpaceOnUse" xlink:href="#linearGradient3489"/><linearGradient id="linearGradient3489"><stop id="stop3491" offset="0" stop-color="#47008d" stop-opacity="1"/><stop id="stop3493" offset="1" stop-color="#5100b3" stop-opacity="1"/></linearGradient><radialGradient id="radialGradient3527" cx="1159.125" cy="2013.893" r="24.948" fx="1159.125" fy="2013.893" gradientTransform="matrix(-0.21925376,0.74474127,-0.78218966,-0.23027928,1523.9338,90.983559)" gradientUnits="userSpaceOnUse" xlink:href="#linearGradient3521"/><linearGradient id="linearGradient3521"><stop id="stop3523" offset="0" stop-color="#6000d8" stop-opacity="1"/><stop id="stop3531" offset=".209" stop-color="#5c00cd" stop-opacity="1"/><stop id="stop3529" offset=".374" stop-color="#5500be" stop-opacity="1"/><stop id="stop3533" offset=".721" stop-color="#2d0062" stop-opacity="1"/><stop id="stop3525" offset="1" stop-color="#210045" stop-opacity="1"/></linearGradient><linearGradient id="linearGradient3449" x1="829.866" x2="1020.945" y1="2003.658" y2="1699.444" gradientTransform="matrix(0.60986005,0,0,0.60986005,-1015.0964,-735.2)" gradientUnits="userSpaceOnUse" xlink:href="#linearGradient3393"/><linearGradient id="linearGradient3393"><stop id="stop3395" offset="0" stop-color="#1b0041" stop-opacity="1"/><stop id="stop3417" offset=".1" stop-color="#1b0041" stop-opacity="1"/><stop id="stop3415" offset=".205" stop-color="#1b0041" stop-opacity="1"/><stop id="stop3413" offset=".3" stop-color="#240052" stop-opacity="1"/><stop id="stop3411" offset=".4" stop-color="#32006a" stop-opacity="1"/><stop id="stop3409" offset=".5" stop-color="#3d007d" stop-opacity="1"/><stop id="stop3407" offset=".6" stop-color="#490098" stop-opacity="1"/><stop id="stop3405" offset=".7" stop-color="#4f00a8" stop-opacity="1"/><stop id="stop3403" offset=".803" stop-color="#5500bc" stop-opacity="1"/><stop id="stop3401" offset=".9" stop-color="#5700c2" stop-opacity="1"/><stop id="stop3397" offset="1" stop-color="#6000da" stop-opacity="1"/></linearGradient><linearGradient id="linearGradient3451" x1="979.926" x2="829.275" y1="1699.285" y2="1983.828" gradientTransform="matrix(0.60986005,0,0,0.60986005,-1015.0964,-735.2)" gradientUnits="userSpaceOnUse" xlink:href="#linearGradient3453"/><linearGradient id="linearGradient3453"><stop id="stop3455" offset="0" stop-color="#1e0046" stop-opacity="1"/><stop id="stop3457" offset=".1" stop-color="#2d0061" stop-opacity="1"/><stop id="stop3459" offset=".205" stop-color="#33006b" stop-opacity="1"/><stop id="stop3461" offset=".3" stop-color="#400082" stop-opacity="1"/><stop id="stop3463" offset=".4" stop-color="#490096" stop-opacity="1"/><stop id="stop3465" offset=".5" stop-color="#5000ac" stop-opacity="1"/><stop id="stop3467" offset=".6" stop-color="#5500bd" stop-opacity="1"/><stop id="stop3469" offset=".7" stop-color="#4f00a8" stop-opacity="1"/><stop id="stop3471" offset=".803" stop-color="#5500bc" stop-opacity="1"/><stop id="stop3473" offset=".9" stop-color="#5700c2" stop-opacity="1"/><stop id="stop3475" offset="1" stop-color="#6000da" stop-opacity="1"/></linearGradient><linearGradient id="linearGradient3399" x1="462.794" x2="664.272" y1="1977.95" y2="1725.724" gradientTransform="matrix(0.60986005,0,0,0.60986005,-1015.0964,-735.2)" gradientUnits="userSpaceOnUse" xlink:href="#linearGradient3393"/><linearGradient id="linearGradient3593"><stop id="stop3595" offset="0" stop-color="#1b0041" stop-opacity="1"/><stop id="stop3597" offset=".1" stop-color="#1b0041" stop-opacity="1"/><stop id="stop3599" offset=".205" stop-color="#1b0041" stop-opacity="1"/><stop id="stop3601" offset=".3" stop-color="#240052" stop-opacity="1"/><stop id="stop3603" offset=".4" stop-color="#32006a" stop-opacity="1"/><stop id="stop3605" offset=".5" stop-color="#3d007d" stop-opacity="1"/><stop id="stop3607" offset=".6" stop-color="#490098" stop-opacity="1"/><stop id="stop3609" offset=".7" stop-color="#4f00a8" stop-opacity="1"/><stop id="stop3611" offset=".803" stop-color="#5500bc" stop-opacity="1"/><stop id="stop3613" offset=".9" stop-color="#5700c2" stop-opacity="1"/><stop id="stop3615" offset="1" stop-color="#6000da" stop-opacity="1"/></linearGradient><linearGradient id="linearGradient3423" x1="632.175" x2="471.276" y1="1725.375" y2="1962.377" gradientTransform="matrix(0.60986005,0,0,0.60986005,-1015.0964,-735.2)" gradientUnits="userSpaceOnUse" xlink:href="#linearGradient3425"/><linearGradient id="linearGradient3425"><stop id="stop3427" offset="0" stop-color="#1c0044" stop-opacity="1"/><stop id="stop3429" offset=".1" stop-color="#2f0065" stop-opacity="1"/><stop id="stop3431" offset=".205" stop-color="#34006d" stop-opacity="1"/><stop id="stop3433" offset=".3" stop-color="#3b007a" stop-opacity="1"/><stop id="stop3435" offset=".4" stop-color="#3c007a" stop-opacity="1"/><stop id="stop3437" offset=".5" stop-color="#490096" stop-opacity="1"/><stop id="stop3439" offset=".6" stop-color="#5000ab" stop-opacity="1"/><stop id="stop3441" offset=".7" stop-color="#5400ba" stop-opacity="1"/><stop id="stop3443" offset=".803" stop-color="#5500bc" stop-opacity="1"/><stop id="stop3445" offset=".9" stop-color="#5700c2" stop-opacity="1"/><stop id="stop3447" offset="1" stop-color="#5c00ce" stop-opacity="1"/></linearGradient><linearGradient id="linearGradient3373" x1="163.228" x2="372.848" y1="1856.76" y2="1856.76" gradientTransform="matrix(0.60986005,0,0,0.60986005,-1015.0964,-735.2)" gradientUnits="userSpaceOnUse" xlink:href="#linearGradient3367"/><linearGradient id="linearGradient3367"><stop id="stop3369" offset="0" stop-color="#6700e8" stop-opacity="1"/><stop id="stop3375" offset=".5" stop-color="#6700e8" stop-opacity="1"/><stop id="stop3371" offset="1" stop-color="#6700e8" stop-opacity="1"/></linearGradient><linearGradient id="linearGradient3383" x1="347.463" x2="373.355" y1="1999.149" y2="1999.149" gradientTransform="matrix(0.60986005,0,0,0.60986005,-1015.0964,-735.2)" gradientUnits="userSpaceOnUse" xlink:href="#linearGradient3377"/><linearGradient id="linearGradient3377"><stop id="stop3379" offset="0" stop-color="#3f008b" stop-opacity="1"/><stop id="stop3381" offset="1" stop-color="#220050" stop-opacity="1"/></linearGradient><linearGradient id="linearGradient3355" x1="138.232" x2="163.246" y1="1713.226" y2="1713.226" gradientTransform="matrix(0.60986005,0,0,0.60986005,-1015.0964,-735.2)" gradientUnits="userSpaceOnUse" xlink:href="#linearGradient3349"/><linearGradient id="linearGradient3349"><stop id="stop3351" offset="0" stop-color="#390080" stop-opacity="1"/><stop id="stop3357" offset=".5" stop-color="#31006e" stop-opacity="1"/><stop id="stop3353" offset="1" stop-color="#250056" stop-opacity="1"/></linearGradient><linearGradient id="linearGradient3365" x1="162.66" x2="187.847" y1="1838.203" y2="1838.203" gradientTransform="matrix(0.60986005,0,0,0.60986005,-1015.0964,-735.2)" gradientUnits="userSpaceOnUse" xlink:href="#linearGradient3359"/><linearGradient id="linearGradient3359"><stop id="stop3361" offset="0" stop-color="#5a00c9" stop-opacity="1"/><stop id="stop3363" offset="1" stop-color="#4f00a8" stop-opacity="1"/></linearGradient><linearGradient id="linearGradient3329" x1="-103.636" x2="51.417" y1="1909.572" y2="1909.572" gradientTransform="matrix(0.60986005,0,0,0.60986005,-1015.0964,-735.2)" gradientUnits="userSpaceOnUse" xlink:href="#linearGradient3323"/><linearGradient id="linearGradient3323"><stop id="stop3325" offset="0" stop-color="#6700e8" stop-opacity="1"/><stop id="stop3331" offset=".506" stop-color="#6700e8" stop-opacity="1"/><stop id="stop3327" offset="1" stop-color="#6700e8" stop-opacity="1"/></linearGradient><linearGradient id="linearGradient3313" x1="-169.287" x2="-26.132" y1="2005.123" y2="1718.528" gradientTransform="matrix(0.60986005,0,0,0.60986005,-1015.0964,-735.2)" gradientUnits="userSpaceOnUse" xlink:href="#linearGradient3307"/><linearGradient id="linearGradient3307"><stop id="stop3309" offset="0" stop-color="#4d00a1" stop-opacity="1"/><stop id="stop3311" offset="1" stop-color="#5200b4" stop-opacity="1"/></linearGradient><linearGradient id="linearGradient3231" x1="-253.601" x2="-253.601" y1="1878.776" y2="2047.033" gradientTransform="matrix(0.60986005,0,0,0.60986005,-1015.0964,-735.2)" gradientUnits="userSpaceOnUse" xlink:href="#linearGradient3225"/><linearGradient id="linearGradient3225"><stop id="stop3227" offset="0" stop-color="#210045" stop-opacity="1"/><stop id="stop3237" offset=".25" stop-color="#25004d" stop-opacity="1"/><stop id="stop3235" offset=".5" stop-color="#2b005c" stop-opacity="1"/><stop id="stop3233" offset=".749" stop-color="#340071" stop-opacity="1"/><stop id="stop3229" offset="1" stop-color="#3e0088" stop-opacity="1"/></linearGradient><linearGradient id="linearGradient3253" x1="-248.818" x2="-227.231" y1="1877.211" y2="2047.256" gradientTransform="matrix(0.60986005,0,0,0.60986005,-1015.0964,-735.2)" gradientUnits="userSpaceOnUse" xlink:href="#linearGradient3247"/><linearGradient id="linearGradient3247"><stop id="stop3249" offset="0" stop-color="#5500bd" stop-opacity="1"/><stop id="stop3251" offset="1" stop-color="#5300b5" stop-opacity="1"/></linearGradient><linearGradient id="linearGradient3267" x1="-291.093" x2="-273.088" y1="1850.658" y2="1838.676" gradientTransform="matrix(0.60986005,0,0,0.60986005,-1015.0964,-735.2)" gradientUnits="userSpaceOnUse" xlink:href="#linearGradient3269"/><linearGradient id="linearGradient3269"><stop id="stop3271" offset="0" stop-color="#27005d" stop-opacity=".98"/><stop id="stop3279" offset=".318" stop-color="#2b005d" stop-opacity="1"/><stop id="stop3277" offset=".598" stop-color="#280055" stop-opacity="1"/><stop id="stop3275" offset=".809" stop-color="#24004d" stop-opacity="1"/><stop id="stop3273" offset="1" stop-color="#230049" stop-opacity="1"/></linearGradient><linearGradient id="linearGradient3287" x1="-349.936" x2="-250.333" y1="1669.673" y2="1877.59" gradientTransform="matrix(0.60986005,0,0,0.60986005,-1015.0964,-735.2)" gradientUnits="userSpaceOnUse" xlink:href="#linearGradient3281"/><linearGradient id="linearGradient3281"><stop id="stop3283" offset="0" stop-color="#5100b2" stop-opacity="1"/><stop id="stop3285" offset="1" stop-color="#5500bd" stop-opacity="1"/></linearGradient><linearGradient id="linearGradient3295" x1="-149.697" x2="-249.852" y1="1667.754" y2="1877.169" gradientTransform="matrix(0.60986005,0,0,0.60986005,-1015.0964,-735.2)" gradientUnits="userSpaceOnUse" xlink:href="#linearGradient3289"/><linearGradient id="linearGradient3289"><stop id="stop3291" offset="0" stop-color="#5500bd" stop-opacity="1"/><stop id="stop3293" offset="1" stop-color="#47008d" stop-opacity="1"/></linearGradient><linearGradient id="linearGradient3299" x1="-209.431" x2="-190.685" y1="1808.663" y2="1819.835" gradientTransform="matrix(0.60986005,0,0,0.60986005,-1015.0964,-735.2)" gradientUnits="userSpaceOnUse" xlink:href="#linearGradient3301"/><linearGradient id="linearGradient3301"><stop id="stop3303" offset="0" stop-color="#1b0041" stop-opacity="1"/><stop id="stop3305" offset="1" stop-color="#21004f" stop-opacity="1"/></linearGradient><linearGradient id="linearGradient3315" x1="-122.894" x2="-26.7" y1="2007.68" y2="1759.051" gradientTransform="matrix(0.60986005,0,0,0.60986005,-1015.0964,-735.2)" gradientUnits="userSpaceOnUse" xlink:href="#linearGradient3317"/><linearGradient id="linearGradient3317"><stop id="stop3319" offset="0" stop-color="#21004e" stop-opacity="1"/><stop id="stop3321" offset="1" stop-color="#39007f" stop-opacity="1"/></linearGradient><linearGradient id="linearGradient3339" x1="44.989" x2="63.199" y1="1945.457" y2="1938.494" gradientTransform="matrix(0.60986005,0,0,0.60986005,-1015.0964,-735.2)" gradientUnits="userSpaceOnUse" xlink:href="#linearGradient3333"/><linearGradient id="linearGradient3333"><stop id="stop3335" offset="0" stop-color="#2a005a" stop-opacity="1"/><stop id="stop3337" offset="1" stop-color="#210046" stop-opacity="1"/></linearGradient><linearGradient id="linearGradient3347" x1="-24.637" x2="115.152" y1="1718.099" y2="2003.3" gradientTransform="matrix(0.60986005,0,0,0.60986005,-1015.0964,-735.2)" gradientUnits="userSpaceOnUse" xlink:href="#linearGradient3341"/><linearGradient id="linearGradient3341"><stop id="stop3343" offset="0" stop-color="#5500bd" stop-opacity="1"/><stop id="stop3345" offset="1" stop-color="#5000ac" stop-opacity="1"/></linearGradient><linearGradient id="linearGradient3503" x1="1177.815" x2="1224.965" y1="1962.234" y2="1701.864" gradientUnits="userSpaceOnUse" xlink:href="#linearGradient3497"/><linearGradient id="linearGradient3497"><stop id="stop3499" offset="0" stop-color="#210045" stop-opacity="1"/><stop id="stop3505" offset=".594" stop-color="#430085" stop-opacity="1"/><stop id="stop3501" offset="1" stop-color="#5000b2" stop-opacity="1"/></linearGradient><linearGradient id="linearGradient3741" x1="1177.815" x2="1224.965" y1="1962.234" y2="1701.864" gradientTransform="matrix(0.60986005,0,0,0.60986005,-1015.0964,-735.2)" gradientUnits="userSpaceOnUse" xlink:href="#linearGradient3497"/></defs><metadata id="metadata3748"/><g id="layer1" transform="translate(1259.5404,-281.52527)"><path id="path3223" fill="url(#linearGradient3741)" fill-opacity="1" stroke="none" d="m -272.81996,284.69322 c 7.66161,1.28101 12.77956,5.97084 12.77956,14.04526 0,2.67229 -1.10098,6.435 -1.83733,9.6153 -5.13368,22.62995 -25.18234,102.58822 -33.62292,155.95762 l -7.76675,-7.76675 24.71939,-164.16469 z"/><path id="path3201" fill="#6700e8" fill-opacity="1" stroke="none" d="m -772.4239,306.41967 c -10.34652,2.47762 -20.50585,2.40956 -30.49301,0 l 15.85637,16.46622 z"/><path id="path3193" fill="#6700e8" fill-opacity="1" stroke="none" d="m -930.93567,306.41967 c 10.34652,2.47762 20.50585,2.40956 30.49301,0 l -15.85636,16.46622 z"/><path id="path3181" fill="url(#linearGradient3347)" fill-opacity="1" stroke="none" d="m -1020.435,306.35533 c 23.38299,59.17771 60.18153,148.74962 78.51709,182.98424 l -27.14398,-8.29447 -67.16501,-167.96649 z"/><path id="path3175" fill="#6700e8" fill-opacity="1" stroke="none" d="m -1041.6967,306.35057 c 7.4678,2.50183 13.6618,2.65521 21.2638,0 l -15.1128,9.28372 z"/><path id="path3177" fill="url(#linearGradient3339)" fill-opacity="1" stroke="none" d="m -1030.9575,312.80911 68.43861,167.84971 c -4.04924,4.38538 -5.85498,6.68644 -9.79197,8.73789 -19.83646,-51.09133 -41.13884,-102.19547 -59.18594,-152.62705 l -8.9087,-15.10349 z"/><path id="path3173" fill="url(#linearGradient3315)" fill-opacity="1" stroke="none" d="m -1089.8182,489.33298 -20.204,-7.15585 71.1413,-166.91449 7.9282,-2.45121 0,24.7111 c -11.0621,31.91922 -39.1353,101.95177 -58.8655,151.81045 z"/><path id="path3167" fill="#6700e8" fill-opacity="1" stroke="none" d="m -1106.5753,282.02527 6.7084,15.2465 17.0761,-7.92818 6.9443,-7.31832 c -10.9849,2.49182 -20.8926,2.57464 -30.7288,0 z"/><path id="path3165" fill="url(#linearGradient3299)" fill-opacity="1" stroke="none" d="m -1154.7543,414.97476 -11.5874,4.26902 -7.3183,-12.80706 72.5734,-115.87341 5.1886,-1.77719 c 7.1618,-1.61845 14.973,-3.35405 20.0607,-6.76085 -11.5254,15.56942 -53.4928,88.34353 -78.917,132.94949 z"/><path id="path3163" fill="url(#linearGradient3295)" fill-opacity="1" stroke="none" d="m -1170.6107,413.14518 3.0493,-3.0493 71.7947,-121.33587 -10.8086,-6.73474 c -8.6682,16.14555 -40.6382,68.39184 -60.9861,101.84663 l -9.7578,18.2958 z"/><path id="path3161" fill="url(#linearGradient3287)" fill-opacity="1" stroke="none" d="m -1228.5474,282.02527 c 15.9161,28.20682 40.3489,67.6669 60.986,101.84663 l 0,26.22398 -4.8789,4.87888 -71.3536,-126.85089 z"/><path id="path3159" fill="#6700e8" fill-opacity="1" stroke="none" d="m -1240.308,289.697 11.7606,-7.67173 c -12.6199,2.69143 -17.899,2.86274 -30.493,0 l 4.8789,5.48874 z"/><path id="path3157" fill="url(#linearGradient3267)" fill-opacity="1" stroke="none" d="m -1167.5614,410.09588 -5.4887,7.92818 -7.3184,-3.0493 c -13.6252,-23.5495 -53.6775,-95.28685 -78.6719,-132.94949 5.0665,3.67136 11.9114,5.68597 19.817,6.96991 z"/><path id="path3155" fill="url(#linearGradient3253)" fill-opacity="1" stroke="none" d="m -1152.9248,513.16222 -20.7352,-9.75776 1.8296,-86.60012 4.269,-6.70846 12.8071,4.87888 z"/><path id="path3153" fill="url(#linearGradient3231)" fill-opacity="1" stroke="none" d="m -1167.5614,506.45376 -14.6366,6.70846 1.8295,-98.18746 12.8071,-4.87888 z"/><path id="path3171" fill="url(#linearGradient3313)" fill-opacity="1" stroke="none" d="m -1119.9923,489.37768 c 25.4435,-51.86445 53.737,-121.4149 78.2941,-183.03711 l 10.7455,6.47415 -69.4621,169.92122 -14.0887,4.81216 z"/><path id="path3179" fill="#200045" fill-opacity="1" stroke="none" d="m -963.24618,480.35389 21.35217,8.99251 c -8.1908,-2.06487 -19.27808,-2.85665 -30.42032,0.0524 l 4.16882,-10.2673 z"/><path id="path3185" fill="url(#linearGradient3329)" fill-opacity="1" stroke="none" d="m -1078.515,429.37764 15.0124,-6.44159 c 21.6247,0.76013 43.2494,0.74922 64.87408,0 l 15.22803,6.63022 -14.17689,3.09955 -70.18372,0 z"/><path id="path3183" fill="#200045" fill-opacity="1" stroke="none" d="m -1068.5157,435.7114 -10.0802,-6.33376 c 31.6731,-0.48441 63.3938,-0.44495 95.16845,0.18863 l -10.08014,6.14513 c -25.00271,-0.8102 -50.00541,-0.71317 -75.00811,0 z"/><path id="path3191" fill="url(#linearGradient3365)" fill-opacity="1" stroke="none" d="m -900.44266,489.37768 -21.3451,-7.31832 0,-164.05235 6.0986,-3.0493 15.2465,-8.53804 c -3.16368,60.87806 -3.233,121.86431 0,182.95801 z"/><path id="path3189" fill="url(#linearGradient3355)" fill-opacity="1" stroke="none" d="m -915.68916,480.83964 0,4.26902 -15.24651,4.26902 c 2.4244,-60.88903 2.6556,-121.86577 0,-182.95801 l 15.24651,8.53804 z"/><path id="path3199" fill="url(#linearGradient3383)" fill-opacity="1" stroke="none" d="m -802.91691,489.37768 21.34511,-7.31832 0,-164.05235 -6.0986,-3.0493 -15.24651,-8.53804 c 3.16368,60.87806 3.233,121.86431 0,182.95801 z"/><path id="path3205" fill="url(#linearGradient3373)" fill-opacity="1" stroke="none" d="m -915.62903,397.52008 12.8158,-5.71391 c 34.05729,0.85838 68.15469,0.79423 102.28383,0 l 12.85623,5.71391 -15.90184,3.80022 -99.34603,0 z"/><path id="path3207" fill="url(#linearGradient3423)" stroke="none" d="m -664.78893,306.35124 c -59.89542,0 -89.78283,37.44748 -89.78283,91.89829 0,68.19729 45.23715,91.82205 89.00145,91.82205 51.98337,0 89.24923,-29.2487 89.24923,-91.6505 0,-60.05651 -35.27455,-92.06984 -88.46785,-92.06984 z m -1.79146,8.69051 c 0.56294,-0.0116 1.1312,0 1.69617,0 39.55772,0 68.60925,26.9438 68.60925,83.24589 0,56.23099 -29.01342,83.16967 -68.53302,83.16967 -43.11966,0 -68.45679,-30.89905 -68.45679,-83.0172 0,-58.94401 31.21907,-82.67177 66.68439,-83.39836 z"/><path id="path3209" fill="url(#linearGradient3399)" fill-opacity="1" stroke="none" d="m -664.99857,303.94992 c -64.68837,0 -98.6258,41.01601 -98.6258,94.18526 0,58.19614 37.05042,93.68975 98.53051,93.68975 66.46813,0 98.93073,-40.00078 98.93073,-93.07989 0,-59.18021 -38.76837,-94.79512 -98.83544,-94.79512 z m 0.19058,6.06048 c 51.07529,0 84.9421,30.7264 84.9421,88.39159 0,59.91711 -35.79092,88.01043 -85.70442,88.01043 -42.02171,0 -85.45664,-22.68106 -85.45664,-88.16289 0,-52.28269 28.70843,-88.23913 86.21896,-88.23913 z"/><path id="path3213" fill="url(#linearGradient3451)" stroke="none" d="m -441.27519,296.99367 c -60.78872,0 -102.43746,34.36659 -102.43746,101.35118 0,65.71035 38.74654,102.41831 102.68518,102.41831 48.42618,0 101.48456,-24.87211 101.48456,-101.48449 0,-82.6844 -57.9547,-102.285 -101.73228,-102.285 z m -0.32402,7.31832 c 48.37593,0 84.00822,29.38818 84.00822,94.20435 0,70.45866 -43.10277,93.30859 -83.93199,93.30859 -43.62207,0 -83.36024,-25.59979 -83.36024,-94.6998 0,-71.62117 44.04598,-92.81314 83.28401,-92.81314 z"/><path id="path3215" fill="url(#linearGradient3449)" stroke="none" d="m -441.67544,292.93432 c -64.42025,0 -113.66267,36.57947 -113.66267,104.591 0,56.0351 32.75461,105.35332 114.19629,105.35332 68.94926,0 113.9676,-37.90737 113.9676,-104.3623 0,-62.66678 -41.99576,-105.58202 -114.50122,-105.58202 z m 0.40025,6.82281 c 42.58719,0 98.96882,19.08551 98.96882,99.52154 0,74.52916 -51.63082,98.72109 -98.74013,98.72109 -62.20005,0 -99.88367,-35.7123 -99.88367,-99.63588 0,-65.16312 40.51923,-98.60675 99.65498,-98.60675 z"/><path id="path3217" fill="url(#radialGradient3527)" fill-opacity="1" stroke="none" d="m -322.20045,499.84453 c 0,-7.86872 4.78509,-15.18594 14.37758,-15.18594 9.18168,0 16.05212,5.49118 16.05212,14.26212 0,10.92772 -7.23172,14.95499 -13.85791,14.95499 -9.16168,0 -16.57179,-4.75392 -16.57179,-14.03117 z"/><path id="path3221" fill="url(#linearGradient3495)" fill-opacity="1" stroke="none" d="m -306.8818,462.56598 c 7.43554,-52.55719 11.95838,-107.79246 16.30107,-162.868 0,-10.97694 7.25539,-15.27017 14.57608,-15.27017 1.28303,0 3.1753,0.2673 3.1753,0.2673 l -1.99125,13.16554 -26.07969,163.24569 z"/><path id="path3151" fill="#200045" fill-opacity="1" stroke="none" d="m -1182.198,513.16222 14.6639,-10.74329 14.6093,10.74329 c 0,0 -8.0987,-1.47372 -14.6096,-1.47372 -5.8748,0 -14.6636,1.47372 -14.6636,1.47372 z"/><path id="path3169" fill="#200045" fill-opacity="1" stroke="none" d="m -1119.9946,489.40031 20.4555,-8.84364 c 3.1211,3.74198 5.8977,6.913 9.7311,8.78973 -7.3639,-1.99266 -18.5121,-2.88671 -30.1843,0.0311 z"/><path id="path3187" fill="#200045" fill-opacity="1" stroke="none" d="m -930.93567,489.37768 c 9.90305,-2.38644 20.04368,-2.49201 30.45489,0 l -15.20838,-8.53804 z"/><path id="path3203" fill="#200045" fill-opacity="1" stroke="none" d="m -902.81323,404.28507 -12.84276,-6.76499 c 42.66009,0.44483 85.32017,0.5196 127.98026,0 l -12.82612,6.72498 c -34.10379,-0.45812 -68.20759,-0.43623 -102.31138,0.0402 z"/><path id="path3197" fill="url(#linearGradient3391)" fill-opacity="1" stroke="none" d="m -787.6704,480.83964 0,4.26902 15.2465,4.26902 c -2.4244,-60.88903 -2.6556,-121.86577 0,-182.95801 l -15.2465,8.53804 z"/><path id="path3195" fill="#200045" fill-opacity="1" stroke="none" d="m -772.4239,489.37768 c -9.90305,-2.38644 -20.04368,-2.49201 -30.45489,0 l 15.20839,-8.53804 z"/><path id="path3219" fill="#200045" fill-opacity="1" stroke="none" d="m -300.15516,456.40078 -6.75725,6.1652 c 4.52766,-0.79745 8.02911,0.38427 11.43219,1.75566 z"/><path id="path3507" fill="url(#radialGradient3509)" fill-opacity="1" fill-rule="evenodd" stroke="none" d="m 1237.4781,1693.0604 c 0,11.758 -10.0712,21.2897 -22.4947,21.2897 -12.4235,0 -22.4947,-9.5317 -22.4947,-21.2897 0,-11.7579 10.0712,-21.2896 22.4947,-21.2896 12.4235,0 22.4947,9.5317 22.4947,21.2896 z" transform="matrix(0.6606817,0,0,0.60986005,-1077.9871,-734.7917)"/></g></svg>