<?xml version="1.0" encoding="utf-8"?>
<!-- Generator: Adobe Illustrator 21.1.0, SVG Export Plug-In . SVG Version: 6.00 Build 0)  -->
<svg version="1.1" id="Layer_1" xmlns="http://www.w3.org/2000/svg" xmlns:xlink="http://www.w3.org/1999/xlink" x="0px" y="0px"
	 viewBox="0 0 176 124" style="enable-background:new 0 0 176 124;" xml:space="preserve">
<style type="text/css">
	.st0{fill:#FF0000;}
	.st1{fill:#FFFFFF;}
</style>
<g id="XMLID_184_">
	<path id="XMLID_182_" class="st0" d="M172.3,19.4c-2-7.6-8-13.6-15.6-15.7C143,0,88,0,88,0S33,0,19.2,3.7c-7.6,2-13.5,8-15.6,15.7
		C0,33.2,0,62,0,62s0,28.8,3.7,42.6c2,7.6,8,13.6,15.6,15.7C33,124,88,124,88,124s55,0,68.8-3.7c7.6-2,13.5-8,15.6-15.7
		C176,90.8,176,62,176,62S176,33.2,172.3,19.4z"/>
	<polygon id="XMLID_1355_" class="st1" points="70,88.2 116,62 70,35.8 	"/>
</g>
</svg>
