<svg xmlns="http://www.w3.org/2000/svg" xmlns:xlink="http://www.w3.org/1999/xlink" id="Layer_1" x="0" y="0" version="1.1" viewBox="0 0 176 124" xml:space="preserve" style="enable-background:new 0 0 176 124"><style type="text/css">.st0{fill:red}.st1{fill:#fff}</style><g id="XMLID_184_"><path id="XMLID_182_" d="M172.3,19.4c-2-7.6-8-13.6-15.6-15.7C143,0,88,0,88,0S33,0,19.2,3.7c-7.6,2-13.5,8-15.6,15.7 C0,33.2,0,62,0,62s0,28.8,3.7,42.6c2,7.6,8,13.6,15.6,15.7C33,124,88,124,88,124s55,0,68.8-3.7c7.6-2,13.5-8,15.6-15.7 C176,90.8,176,62,176,62S176,33.2,172.3,19.4z" class="st0"/><polygon id="XMLID_1355_" points="70 88.2 116 62 70 35.8" class="st1"/></g></svg>