<?xml version="1.0" encoding="UTF-8" standalone="no"?>
<svg
   xmlns:dc="http://purl.org/dc/elements/1.1/"
   xmlns:cc="http://creativecommons.org/ns#"
   xmlns:rdf="http://www.w3.org/1999/02/22-rdf-syntax-ns#"
   xmlns:svg="http://www.w3.org/2000/svg"
   xmlns="http://www.w3.org/2000/svg"
   height="193.06024"
   width="333.67801"
   style="display:block"
   version="1.1"
   id="svg">
  <metadata
     id="metadata4493">
    <rdf:RDF>
      <cc:Work
         rdf:about="">
        <dc:format>image/svg+xml</dc:format>
        <dc:type
           rdf:resource="http://purl.org/dc/dcmitype/StillImage" />
        <dc:title></dc:title>
      </cc:Work>
    </rdf:RDF>
  </metadata>
  <defs
     id="defs4491" />
  <g
     transform="translate(-33.135,-19.080579)"
     id="svgg">
    <path
       style="fill:#000000;fill-rule:evenodd;stroke:none"
       d=""
       id="path0" />
    <path
       style="fill:#89ce47;fill-rule:evenodd;stroke:none"
       d="m 35.028,22.7 c 1.042,1.925 2.203,3.95 2.581,4.5 0.377,0.55 1.094,1.81 1.592,2.8 0.499,0.99 1.039,1.89 1.201,2 0.162,0.11 0.866,1.28 1.564,2.6 0.698,1.32 1.908,3.48 2.689,4.8 0.781,1.32 1.828,3.12 2.326,4 1.562,2.757 3.419,5.975 3.809,6.6 0.206,0.33 0.987,1.68 1.736,3 2.997,5.281 5.393,9.448 5.867,10.2 0.598,0.949 2.689,4.588 4.082,7.1 0.701,1.265 1.421,2.36 1.6,2.433 0.179,0.074 0.325,0.292 0.325,0.486 0,0.194 1.018,2.114 2.263,4.267 7.373,12.751 12.779,22.143 13.65,23.714 2.053,3.703 3.287,5.226 3.287,4.059 0,-0.188 0.895,-1.853 1.99,-3.7 1.094,-1.848 2.632,-4.529 3.417,-5.959 0.785,-1.43 2.067,-3.68 2.848,-5 1.613,-2.726 2.892,-4.94 4.852,-8.4 0.748,-1.32 2.02,-3.526 2.827,-4.903 0.806,-1.377 2.996,-5.152 4.866,-8.389 1.87,-3.237 3.58,-6.191 3.8,-6.564 1.543,-2.616 3,-5.336 3,-5.601 0,-0.309 -1.135,-2.322 -7.411,-13.143 -1.723,-2.97 -3.649,-6.3 -4.281,-7.4 C 91.116,21.594 91.015,21.448 88.298,20.092 L 86.512,19.2 H 59.824 33.135 l 1.893,3.5 m 110.766,-2.659 c -2.6,1.371 -3.564,2.555 -7.064,8.667 -1.831,3.199 -4.079,7.094 -4.995,8.655 -0.916,1.56 -2.243,3.917 -2.948,5.237 -0.705,1.32 -1.53,2.684 -1.834,3.031 -0.304,0.348 -0.553,0.727 -0.553,0.843 0,0.116 -0.933,1.812 -2.074,3.769 -1.14,1.956 -2.685,4.637 -3.433,5.957 -0.748,1.32 -2.051,3.57 -2.896,5 -0.844,1.43 -2.555,4.4 -3.802,6.6 -1.246,2.2 -2.96,5.17 -3.807,6.6 -0.847,1.43 -2.093,3.59 -2.768,4.8 -0.674,1.21 -1.544,2.74 -1.932,3.4 -0.388,0.66 -1.38,2.37 -2.203,3.8 -0.824,1.43 -1.667,2.87 -1.874,3.2 -0.399,0.637 -2.367,4.089 -4.219,7.4 -0.616,1.1 -1.541,2.671 -2.056,3.492 -0.515,0.821 -0.936,1.567 -0.936,1.659 0,0.092 -0.72,1.352 -1.6,2.801 -0.88,1.448 -1.6,2.802 -1.6,3.007 0,0.206 -0.158,0.434 -0.35,0.508 -0.193,0.073 -0.921,1.213 -1.618,2.533 -0.698,1.32 -1.567,2.878 -1.932,3.463 -0.798,1.28 -1.195,0.384 4.586,10.337 1.214,2.09 2.931,5.06 3.816,6.6 0.885,1.54 2.19,3.79 2.899,5 0.709,1.21 2.709,4.67 4.444,7.688 1.735,3.019 3.822,6.619 4.638,8 0.815,1.382 1.614,2.782 1.775,3.112 0.162,0.33 0.825,1.5 1.474,2.6 0.649,1.1 1.54,2.63 1.98,3.4 0.44,0.77 1.45,2.537 2.244,3.927 0.794,1.389 1.631,2.829 1.859,3.2 0.228,0.37 0.948,1.643 1.6,2.829 0.652,1.185 1.365,2.445 1.585,2.8 0.22,0.354 1.028,1.724 1.795,3.044 0.768,1.32 1.711,2.94 2.097,3.6 0.386,0.66 1.253,2.19 1.927,3.4 0.674,1.21 1.909,3.37 2.745,4.8 0.836,1.43 2.525,4.351 3.754,6.491 5.091,8.868 10.795,13.329 20.064,15.693 3.908,0.997 4.255,1.016 18.666,1.016 h 14.684 l 0.97,-1.7 c 1.101,-1.93 6.443,-11.19 8.71,-15.1 2.163,-3.73 7.982,-13.841 12.778,-22.2 2.271,-3.96 4.477,-7.783 4.901,-8.497 l 0.77,-1.296 -21.727,-0.104 -21.727,-0.103 -1.892,-3.2 c -1.04,-1.76 -2.572,-4.441 -3.403,-5.957 -0.832,-1.517 -1.692,-3.047 -1.912,-3.4 -0.22,-0.354 -1.028,-1.723 -1.795,-3.043 -0.768,-1.32 -1.711,-2.94 -2.097,-3.6 -0.386,-0.66 -1.244,-2.19 -1.908,-3.4 -0.663,-1.21 -1.378,-2.47 -1.587,-2.8 -0.912,-1.435 -3.613,-6.095 -3.613,-6.234 0,-0.125 -2.13,-3.783 -3.591,-6.166 -0.202,-0.33 -0.938,-1.68 -1.636,-3 -0.697,-1.32 -1.48,-2.67 -1.74,-3 -2.145,-2.724 -2.148,-4.422 -0.011,-7.2 0.254,-0.33 0.981,-1.59 1.617,-2.8 0.635,-1.21 1.259,-2.29 1.386,-2.4 0.127,-0.11 0.772,-1.19 1.432,-2.4 1.301,-2.382 8.303,-14.619 8.926,-15.6 0.21,-0.33 0.997,-1.68 1.75,-3 0.753,-1.32 3.041,-5.28 5.085,-8.8 2.044,-3.52 4.38,-7.57 5.192,-9 0.812,-1.43 2.52,-4.4 3.795,-6.6 1.275,-2.2 3.037,-5.26 3.915,-6.8 1.671,-2.929 3.796,-6.595 4.482,-7.733 0.222,-0.367 1.898,-3.277 3.726,-6.467 1.827,-3.19 3.488,-6.07 3.69,-6.4 0.352,-0.576 2.141,-3.677 3.576,-6.2 0.376,-0.66 1.284,-2.28 2.019,-3.6 0.735,-1.32 1.662,-2.829 2.061,-3.354 0.399,-0.525 0.726,-1.11 0.726,-1.3 0,-0.879 -53.311,-0.399 -55.006,0.495 m 63.601,3.859 c -1.498,2.585 -3.01,5.24 -3.359,5.9 -0.35,0.66 -0.739,1.29 -0.864,1.4 -0.125,0.11 -0.768,1.19 -1.428,2.4 -0.661,1.21 -2.196,3.91 -3.413,6 -2.476,4.255 -12.471,21.591 -14.76,25.6 -0.816,1.43 -1.403,2.735 -1.304,2.9 0.099,0.165 9.856,0.3 21.683,0.3 h 21.502 l 0.672,1.3 c 0.369,0.715 0.992,1.84 1.383,2.5 0.391,0.66 1.385,2.37 2.208,3.8 0.824,1.43 1.667,2.87 1.874,3.2 0.399,0.637 2.367,4.089 4.219,7.4 0.616,1.1 1.541,2.671 2.056,3.492 0.515,0.821 0.936,1.567 0.936,1.659 0,0.092 0.754,1.401 1.676,2.908 0.921,1.508 2.331,3.911 3.133,5.341 0.801,1.43 3.107,5.452 5.124,8.939 2.017,3.486 3.667,6.482 3.667,6.656 0,0.175 -3.33,6.117 -7.4,13.205 -4.07,7.088 -7.4,13.032 -7.4,13.21 0,0.178 -0.146,0.383 -0.325,0.457 -0.179,0.073 -0.868,1.123 -1.53,2.333 -0.662,1.21 -2.878,5.08 -4.923,8.6 -2.046,3.52 -4.365,7.57 -5.152,9 -0.788,1.43 -1.576,2.66 -1.751,2.733 -0.176,0.074 -0.319,0.291 -0.319,0.483 0,0.192 -0.565,1.302 -1.256,2.466 -0.691,1.165 -1.664,2.838 -2.163,3.718 -0.498,0.88 -1.545,2.68 -2.326,4 -0.781,1.32 -2.066,3.57 -2.855,5 -0.789,1.43 -2.074,3.68 -2.855,5 -1.613,2.726 -2.892,4.94 -4.852,8.4 -0.748,1.32 -2.054,3.57 -2.903,5 -0.848,1.43 -2.095,3.59 -2.77,4.8 -1.585,2.843 -2.413,4.264 -3.521,6.047 -0.494,0.796 -0.899,1.561 -0.899,1.7 0,0.811 53.425,0.246 55.006,-0.581 2.931,-1.535 3.108,-1.799 14.43,-21.474 1.3,-2.259 2.545,-4.419 2.767,-4.8 1.14,-1.957 4.496,-7.784 5.697,-9.892 0.752,-1.32 2.027,-3.519 2.834,-4.886 1.328,-2.253 2.951,-5.058 5.154,-8.914 2.294,-4.014 3.365,-5.858 3.717,-6.4 0.214,-0.33 0.932,-1.59 1.595,-2.8 1.228,-2.239 1.484,-2.683 4.109,-7.121 0.82,-1.387 1.491,-2.61 1.491,-2.717 0,-0.107 0.335,-0.682 0.744,-1.278 0.409,-0.596 1.489,-2.389 2.4,-3.984 2.353,-4.12 4.429,-7.724 6.97,-12.1 5.781,-9.953 5.384,-9.057 4.586,-10.337 -0.365,-0.585 -1.234,-2.143 -1.932,-3.463 -0.697,-1.32 -1.425,-2.46 -1.618,-2.533 -0.192,-0.074 -0.35,-0.302 -0.35,-0.508 0,-0.205 -0.72,-1.559 -1.6,-3.007 -0.88,-1.449 -1.6,-2.709 -1.6,-2.801 0,-0.092 -0.421,-0.838 -0.936,-1.659 -0.89,-1.418 -1.587,-2.621 -4.453,-7.692 -0.684,-1.21 -1.596,-2.801 -2.027,-3.535 -0.431,-0.734 -1.999,-3.403 -3.484,-5.932 -1.485,-2.528 -2.7,-4.654 -2.7,-4.724 0,-0.107 -2.391,-4.233 -3.598,-6.209 -0.202,-0.33 -0.982,-1.68 -1.735,-3 -0.753,-1.32 -3.043,-5.28 -5.089,-8.8 -2.045,-3.52 -4.261,-7.39 -4.923,-8.6 -0.662,-1.21 -1.351,-2.26 -1.53,-2.333 -0.179,-0.074 -0.325,-0.282 -0.325,-0.464 0,-0.551 -9.27,-16.476 -10.712,-18.403 -4.324,-5.777 -11.042,-9.684 -19.288,-11.218 -0.99,-0.184 -8.298,-0.345 -16.241,-0.358 l -14.44,-0.024 -2.724,4.7 M 316.4,125.96 c 0,0.352 -2.066,4.039 -3.608,6.44 -0.212,0.33 -0.95,1.68 -1.64,3 -0.691,1.32 -1.388,2.49 -1.551,2.6 -0.163,0.11 -0.766,1.1 -1.34,2.2 -0.574,1.1 -1.678,3.08 -2.453,4.4 -0.776,1.32 -1.961,3.39 -2.633,4.6 -0.672,1.21 -1.918,3.37 -2.768,4.8 -0.85,1.43 -2.565,4.4 -3.812,6.6 -1.246,2.2 -2.962,5.17 -3.812,6.6 -0.849,1.43 -2.11,3.68 -2.8,5 l -1.254,2.4 1.372,2.4 c 0.755,1.32 3.043,5.28 5.085,8.8 2.042,3.52 4.331,7.48 5.087,8.8 0.756,1.32 1.738,3.03 2.184,3.8 0.445,0.77 1.955,3.385 3.356,5.811 4.889,8.469 1.896,7.789 34.288,7.789 h 26.712 l -1.01,-1.9 c -0.556,-1.045 -1.326,-2.44 -1.711,-3.1 -0.386,-0.66 -1.329,-2.28 -2.097,-3.6 -0.767,-1.32 -1.575,-2.689 -1.795,-3.043 -0.22,-0.353 -1.083,-1.883 -1.917,-3.4 -0.835,-1.516 -2.157,-3.837 -2.938,-5.157 -0.781,-1.32 -1.828,-3.12 -2.326,-4 -1.562,-2.757 -3.419,-5.975 -3.809,-6.6 -0.206,-0.33 -0.987,-1.68 -1.736,-3 -2.997,-5.281 -5.393,-9.448 -5.867,-10.2 -0.44,-0.699 -2.032,-3.447 -4.287,-7.4 -0.878,-1.54 -2.64,-4.6 -3.915,-6.8 -1.275,-2.2 -2.983,-5.17 -3.795,-6.6 -0.812,-1.43 -3.248,-5.66 -5.414,-9.4 -2.166,-3.74 -4.6,-7.961 -5.408,-9.38 -1.369,-2.405 -2.388,-3.455 -2.388,-2.46"
       id="path1" />
  </g>
</svg>